<svg width="18" height="20" viewBox="0 0 18 20" fill="none" xmlns="http://www.w3.org/2000/svg">
<path d="M2.25 6.75V12.75C2.25 12.9489 2.17098 13.1397 2.03033 13.2803C1.88968 13.421 1.69891 13.5 1.5 13.5C1.30109 13.5 1.11032 13.421 0.96967 13.2803C0.829018 13.1397 0.75 12.9489 0.75 12.75V6.75C0.75 6.55109 0.829018 6.36032 0.96967 6.21967C1.11032 6.07902 1.30109 6 1.5 6C1.69891 6 1.88968 6.07902 2.03033 6.21967C2.17098 6.36032 2.25 6.55109 2.25 6.75ZM5.25 0C5.05109 0 4.86032 0.0790176 4.71967 0.21967C4.57902 0.360322 4.5 0.551088 4.5 0.75V18.75C4.5 18.9489 4.57902 19.1397 4.71967 19.2803C4.86032 19.421 5.05109 19.5 5.25 19.5C5.44891 19.5 5.63968 19.421 5.78033 19.2803C5.92098 19.1397 6 18.9489 6 18.75V0.75C6 0.551088 5.92098 0.360322 5.78033 0.21967C5.63968 0.0790176 5.44891 0 5.25 0ZM9 3C8.80109 3 8.61032 3.07902 8.46967 3.21967C8.32902 3.36032 8.25 3.55109 8.25 3.75V15.75C8.25 15.9489 8.32902 16.1397 8.46967 16.2803C8.61032 16.421 8.80109 16.5 9 16.5C9.19891 16.5 9.38968 16.421 9.53033 16.2803C9.67098 16.1397 9.75 15.9489 9.75 15.75V3.75C9.75 3.55109 9.67098 3.36032 9.53033 3.21967C9.38968 3.07902 9.19891 3 9 3ZM12.75 6C12.5511 6 12.3603 6.07902 12.2197 6.21967C12.079 6.36032 12 6.55109 12 6.75V12.75C12 12.9489 12.079 13.1397 12.2197 13.2803C12.3603 13.421 12.5511 13.5 12.75 13.5C12.9489 13.5 13.1397 13.421 13.2803 13.2803C13.421 13.1397 13.5 12.9489 13.5 12.75V6.75C13.5 6.55109 13.421 6.36032 13.2803 6.21967C13.1397 6.07902 12.9489 6 12.75 6ZM16.5 4.5C16.3011 4.5 16.1103 4.57902 15.9697 4.71967C15.829 4.86032 15.75 5.05109 15.75 5.25V14.25C15.75 14.4489 15.829 14.6397 15.9697 14.7803C16.1103 14.921 16.3011 15 16.5 15C16.6989 15 16.8897 14.921 17.0303 14.7803C17.171 14.6397 17.25 14.4489 17.25 14.25V5.25C17.25 5.05109 17.171 4.86032 17.0303 4.71967C16.8897 4.57902 16.6989 4.5 16.5 4.5Z" fill="white"/>
</svg>
