<svg width="518" height="345" viewBox="0 0 518 345" fill="none" xmlns="http://www.w3.org/2000/svg">
<g clip-path="url(#clip0_41_30)">
<rect width="518" height="345" fill="black" fill-opacity="0.38"/>
<rect width="518" height="345" fill="url(#paint0_linear_41_30)" fill-opacity="0.08"/>
<g opacity="0.6" filter="url(#filter0_f_41_30)">
<rect x="60" y="40.3755" width="393" height="393" rx="196.5" fill="url(#paint1_linear_41_30)" fill-opacity="0.01"/>
<rect x="60.8291" y="41.2046" width="391.342" height="391.342" rx="195.671" stroke="url(#paint2_linear_41_30)" stroke-opacity="0.1" stroke-width="1.65823"/>
</g>
<g opacity="0.8" filter="url(#filter1_f_41_30)">
<rect x="100" y="80.3755" width="313" height="313" rx="156.5" fill="url(#paint3_linear_41_30)" fill-opacity="0.01"/>
<rect x="100.66" y="81.0358" width="311.679" height="311.679" rx="155.84" stroke="url(#paint4_linear_41_30)" stroke-opacity="0.1" stroke-width="1.32068"/>
</g>
<rect x="138" y="118.375" width="237" height="237" rx="118.5" fill="url(#paint5_linear_41_30)" fill-opacity="0.03"/>
<rect x="138.5" y="118.875" width="236" height="236" rx="118" stroke="url(#paint6_linear_41_30)" stroke-opacity="0.1"/>
<g filter="url(#filter2_di_41_30)">
<g clip-path="url(#clip1_41_30)">
<rect x="169" y="149.375" width="175" height="175" rx="87.5" fill="url(#paint7_linear_41_30)" fill-opacity="0.06" shape-rendering="crispEdges"/>
<g opacity="0.3" filter="url(#filter3_f_41_30)">
<circle cx="256.5" cy="323.875" r="78.5" fill="#D9D9D9"/>
<circle cx="256.5" cy="323.875" r="78.5" fill="url(#paint8_linear_41_30)"/>
</g>
<g filter="url(#filter4_dddi_41_30)">
<rect x="211" y="190.375" width="92" height="92" rx="21.5802" fill="url(#paint9_linear_41_30)" fill-opacity="0.06"/>
<rect x="211" y="190.375" width="92" height="92" rx="21.5802" fill="url(#paint10_linear_41_30)"/>
<rect x="211.54" y="190.915" width="90.921" height="90.921" rx="21.0407" stroke="url(#paint11_linear_41_30)" stroke-opacity="0.1" stroke-width="1.07901"/>
<path fill-rule="evenodd" clip-rule="evenodd" d="M271.4 217.576V224.776H278.6C279.237 224.776 279.847 225.028 280.297 225.478C280.747 225.929 281 226.539 281 227.176V251.176C281 253.085 280.241 254.916 278.891 256.267C277.541 257.617 275.71 258.376 273.8 258.376H240.2C238.29 258.376 236.459 257.617 235.109 256.267C233.759 254.916 233 253.085 233 251.176V217.576C233 216.939 233.253 216.329 233.703 215.878C234.153 215.428 234.763 215.176 235.4 215.176H269C269.637 215.176 270.247 215.428 270.697 215.878C271.147 216.329 271.4 216.939 271.4 217.576ZM276.2 251.176C276.2 251.812 275.947 252.423 275.497 252.873C275.047 253.323 274.437 253.576 273.8 253.576C273.163 253.576 272.553 253.323 272.103 252.873C271.653 252.423 271.4 251.812 271.4 251.176V229.576H276.2V251.176ZM242.6 227.176C242.6 226.539 242.853 225.929 243.303 225.478C243.753 225.028 244.363 224.776 245 224.776H259.4C260.037 224.776 260.647 225.028 261.097 225.478C261.547 225.929 261.8 226.539 261.8 227.176C261.8 227.812 261.547 228.423 261.097 228.873C260.647 229.323 260.037 229.576 259.4 229.576H245C244.363 229.576 243.753 229.323 243.303 228.873C242.853 228.423 242.6 227.812 242.6 227.176ZM247.4 236.776C247.4 236.139 247.653 235.529 248.103 235.078C248.553 234.628 249.163 234.376 249.8 234.376H259.4C260.037 234.376 260.647 234.628 261.097 235.078C261.547 235.529 261.8 236.139 261.8 236.776C261.8 237.412 261.547 238.023 261.097 238.473C260.647 238.923 260.037 239.176 259.4 239.176H249.8C249.163 239.176 248.553 238.923 248.103 238.473C247.653 238.023 247.4 237.412 247.4 236.776Z" fill="url(#paint12_linear_41_30)"/>
</g>
</g>
<rect x="170.319" y="150.695" width="172.361" height="172.361" rx="86.1806" stroke="url(#paint13_linear_41_30)" stroke-opacity="0.04" stroke-width="2.63888" shape-rendering="crispEdges"/>
</g>
<g filter="url(#filter5_f_41_30)">
<ellipse cx="240.5" cy="232.5" rx="198.5" ry="111.5" fill="white" fill-opacity="0.08"/>
</g>
<g filter="url(#filter6_ddddi_41_30)">
<rect x="83" y="165.375" width="51" height="51" rx="25.5" fill="white" fill-opacity="0.01" shape-rendering="crispEdges"/>
<rect x="83.6375" y="166.013" width="49.725" height="49.725" rx="24.8625" stroke="white" stroke-opacity="0.04" stroke-width="1.275" shape-rendering="crispEdges"/>
<path d="M117.75 187.313C117.05 187.313 116.387 187.45 115.762 187.663L112.075 180.438H107.75V182.313H110.925L112.025 184.463L109 191.225L106.787 186C107.125 185.875 107.425 185.538 107.425 185.125C107.425 184.613 107.012 184.188 106.5 184.188H104C103.475 184.188 103.05 184.613 103.05 185.125C103.05 185.638 103.475 186.063 104 186.063H104.762L107.575 192.625H106.4C105.95 189.625 103.375 187.313 100.25 187.313C96.8 187.313 94 190.113 94 193.563C94 197.013 96.8 199.813 100.25 199.813C103.375 199.813 105.95 197.5 106.4 194.5H109.625L113.112 186.6L114.1 188.513C113.297 189.088 112.643 189.846 112.19 190.724C111.738 191.602 111.502 192.575 111.5 193.563C111.5 197.013 114.3 199.813 117.75 199.813C121.2 199.813 124 197.013 124 193.563C124 190.113 121.2 187.313 117.75 187.313ZM100.25 197.938C97.8375 197.938 95.875 195.975 95.875 193.563C95.875 191.15 97.8375 189.188 100.25 189.188C102.337 189.188 104.087 190.663 104.512 192.625H99V194.5H104.512C104.3 195.473 103.762 196.345 102.987 196.97C102.211 197.595 101.246 197.937 100.25 197.938ZM117.75 197.938C115.338 197.938 113.375 195.975 113.375 193.563C113.375 192.213 114 191.025 114.963 190.225L117.212 194.625L118.862 193.725L116.625 189.35C116.988 189.263 117.362 189.188 117.75 189.188C120.162 189.188 122.125 191.15 122.125 193.563C122.125 195.975 120.162 197.938 117.75 197.938Z" fill="url(#paint14_linear_41_30)"/>
</g>
<g filter="url(#filter7_ddddi_41_30)">
<rect x="365" y="125.375" width="48" height="48" rx="24" fill="white" fill-opacity="0.01" shape-rendering="crispEdges"/>
<rect x="365.6" y="125.975" width="46.8" height="46.8" rx="23.4" stroke="white" stroke-opacity="0.04" stroke-width="1.2" shape-rendering="crispEdges"/>
<path d="M392.904 142.772C393.62 142.772 394.307 142.488 394.813 141.981C395.32 141.475 395.604 140.788 395.604 140.071C395.604 139.355 395.32 138.668 394.813 138.162C394.307 137.655 393.62 137.371 392.904 137.371C392.187 137.371 391.5 137.655 390.994 138.162C390.487 138.668 390.203 139.355 390.203 140.071C390.203 140.788 390.487 141.475 390.994 141.981C391.5 142.488 392.187 142.772 392.904 142.772ZM387.478 145.342C386.73 145.528 386.219 145.808 385.807 146.155C385.189 146.676 384.689 147.427 384.015 148.608C383.857 148.884 383.595 149.087 383.288 149.171C382.981 149.254 382.653 149.213 382.377 149.055C382.1 148.897 381.898 148.635 381.814 148.328C381.731 148.021 381.772 147.693 381.93 147.417C382.602 146.242 383.281 145.143 384.261 144.319C385.283 143.457 386.535 142.97 388.224 142.782C388.929 142.704 389.706 142.719 390.434 143.044C391.198 143.385 391.756 143.997 392.137 144.814C392.649 145.915 393.03 146.569 393.335 146.949C393.482 147.131 393.585 147.216 393.643 147.253C393.689 147.283 393.709 147.286 393.716 147.287C393.769 147.293 393.938 147.287 394.435 147.067C394.652 146.971 394.888 146.856 395.178 146.715L395.247 146.681C395.601 146.506 395.957 146.338 396.317 146.177C396.608 146.049 396.937 146.042 397.233 146.156C397.529 146.271 397.768 146.498 397.897 146.788C398.026 147.078 398.034 147.407 397.921 147.704C397.808 148 397.582 148.24 397.293 148.37C396.959 148.52 396.628 148.676 396.301 148.838L396.222 148.876C395.945 149.011 395.667 149.148 395.406 149.263C394.866 149.502 394.175 149.761 393.427 149.67C392.637 149.574 392.029 149.128 391.528 148.53L389.887 151.695L392.156 154.646C392.291 154.822 392.375 155.033 392.398 155.254L392.897 160.053C392.916 160.211 392.903 160.371 392.86 160.524C392.816 160.677 392.743 160.82 392.643 160.945C392.544 161.069 392.421 161.173 392.281 161.249C392.142 161.325 391.988 161.373 391.83 161.39C391.671 161.406 391.511 161.391 391.359 161.345C391.206 161.299 391.064 161.223 390.942 161.122C390.819 161.021 390.717 160.896 390.643 160.755C390.569 160.614 390.524 160.46 390.51 160.301L390.045 155.84L388.667 154.047L388.655 154.069L388.605 153.966L386.059 150.653C385.934 150.49 385.852 150.298 385.823 150.095C385.793 149.891 385.816 149.684 385.89 149.492L387.478 145.342Z" fill="url(#paint15_linear_41_30)"/>
<path d="M385.661 152.379L384.778 154.756L381.297 154.479C381.139 154.465 380.979 154.482 380.827 154.529C380.676 154.577 380.535 154.654 380.413 154.756C380.292 154.858 380.192 154.984 380.119 155.125C380.046 155.266 380.002 155.421 379.989 155.579C379.977 155.738 379.996 155.897 380.045 156.048C380.095 156.199 380.174 156.339 380.278 156.459C380.381 156.579 380.508 156.678 380.65 156.749C380.793 156.82 380.948 156.862 381.106 156.872L385.492 157.22C385.752 157.241 386.012 157.176 386.233 157.036C386.453 156.896 386.621 156.687 386.712 156.443L387.387 154.625L385.661 152.379Z" fill="url(#paint16_linear_41_30)"/>
</g>
<g opacity="0.4" filter="url(#filter8_ddddif_41_30)">
<rect x="421" y="274.375" width="48" height="48" rx="24" fill="white" fill-opacity="0.01" shape-rendering="crispEdges"/>
<rect x="421.6" y="274.975" width="46.8" height="46.8" rx="23.4" stroke="white" stroke-opacity="0.04" stroke-width="1.2" shape-rendering="crispEdges"/>
<path d="M445 306.826V308.776H442.4V300.521L444.512 294.476H455.887L458 300.521V308.776H455.4V306.826H445ZM445 299.026H455.4L454.49 296.426H445.91L445 299.026ZM446.3 304.226C446.668 304.226 446.977 304.101 447.227 303.851C447.476 303.602 447.601 303.293 447.6 302.926C447.599 302.558 447.474 302.25 447.226 302C446.977 301.75 446.668 301.626 446.3 301.626C445.932 301.626 445.623 301.75 445.374 302C445.126 302.25 445.001 302.558 445 302.926C444.999 303.293 445.124 303.602 445.374 303.852C445.625 304.103 445.933 304.227 446.3 304.226ZM454.1 304.226C454.468 304.226 454.777 304.101 455.027 303.851C455.276 303.602 455.401 303.293 455.4 302.926C455.399 302.558 455.274 302.25 455.026 302C454.777 301.75 454.468 301.626 454.1 301.626C453.732 301.626 453.423 301.75 453.174 302C452.926 302.25 452.801 302.558 452.8 302.926C452.799 303.293 452.924 303.602 453.174 303.852C453.425 304.103 453.733 304.227 454.1 304.226ZM434.6 308.776V307.476L435.9 306.176C434.817 306.176 433.896 305.796 433.137 305.038C432.379 304.28 432 303.359 432 302.276V291.876C432 290.446 432.639 289.438 433.917 288.853C435.196 288.268 437.373 287.976 440.45 287.976C443.657 287.976 445.867 288.257 447.08 288.821C448.293 289.384 448.9 290.402 448.9 291.876V293.176H446.3V291.876H434.6V299.676H441.1V308.776H434.6ZM435.9 303.576C436.268 303.576 436.577 303.451 436.827 303.201C437.076 302.952 437.201 302.643 437.2 302.276C437.199 301.908 437.074 301.6 436.826 301.35C436.577 301.1 436.268 300.976 435.9 300.976C435.532 300.976 435.223 301.1 434.974 301.35C434.726 301.6 434.601 301.908 434.6 302.276C434.599 302.643 434.724 302.952 434.974 303.202C435.225 303.453 435.533 303.577 435.9 303.576ZM444.35 304.876H456.05V300.976H444.35V304.876Z" fill="url(#paint17_linear_41_30)"/>
</g>
</g>
<defs>
<filter id="filter0_f_41_30" x="56" y="36.3755" width="401" height="401" filterUnits="userSpaceOnUse" color-interpolation-filters="sRGB">
<feFlood flood-opacity="0" result="BackgroundImageFix"/>
<feBlend mode="normal" in="SourceGraphic" in2="BackgroundImageFix" result="shape"/>
<feGaussianBlur stdDeviation="2" result="effect1_foregroundBlur_41_30"/>
</filter>
<filter id="filter1_f_41_30" x="98" y="78.3755" width="317" height="317" filterUnits="userSpaceOnUse" color-interpolation-filters="sRGB">
<feFlood flood-opacity="0" result="BackgroundImageFix"/>
<feBlend mode="normal" in="SourceGraphic" in2="BackgroundImageFix" result="shape"/>
<feGaussianBlur stdDeviation="1" result="effect1_foregroundBlur_41_30"/>
</filter>
<filter id="filter2_di_41_30" x="62.75" y="55.6255" width="387.5" height="387.5" filterUnits="userSpaceOnUse" color-interpolation-filters="sRGB">
<feFlood flood-opacity="0" result="BackgroundImageFix"/>
<feColorMatrix in="SourceAlpha" type="matrix" values="0 0 0 0 0 0 0 0 0 0 0 0 0 0 0 0 0 0 127 0" result="hardAlpha"/>
<feOffset dy="12.5"/>
<feGaussianBlur stdDeviation="53.125"/>
<feComposite in2="hardAlpha" operator="out"/>
<feColorMatrix type="matrix" values="0 0 0 0 0 0 0 0 0 0 0 0 0 0 0 0 0 0 0.25 0"/>
<feBlend mode="normal" in2="BackgroundImageFix" result="effect1_dropShadow_41_30"/>
<feBlend mode="normal" in="SourceGraphic" in2="effect1_dropShadow_41_30" result="shape"/>
<feColorMatrix in="SourceAlpha" type="matrix" values="0 0 0 0 0 0 0 0 0 0 0 0 0 0 0 0 0 0 127 0" result="hardAlpha"/>
<feOffset/>
<feGaussianBlur stdDeviation="31.25"/>
<feComposite in2="hardAlpha" operator="arithmetic" k2="-1" k3="1"/>
<feColorMatrix type="matrix" values="0 0 0 0 1 0 0 0 0 1 0 0 0 0 1 0 0 0 0.06 0"/>
<feBlend mode="normal" in2="shape" result="effect2_innerShadow_41_30"/>
</filter>
<filter id="filter3_f_41_30" x="128" y="195.375" width="257" height="257" filterUnits="userSpaceOnUse" color-interpolation-filters="sRGB">
<feFlood flood-opacity="0" result="BackgroundImageFix"/>
<feBlend mode="normal" in="SourceGraphic" in2="BackgroundImageFix" result="shape"/>
<feGaussianBlur stdDeviation="25" result="effect1_foregroundBlur_41_30"/>
</filter>
<filter id="filter4_dddi_41_30" x="78.1111" y="57.4866" width="357.778" height="357.778" filterUnits="userSpaceOnUse" color-interpolation-filters="sRGB">
<feFlood flood-opacity="0" result="BackgroundImageFix"/>
<feColorMatrix in="SourceAlpha" type="matrix" values="0 0 0 0 0 0 0 0 0 0 0 0 0 0 0 0 0 0 127 0" result="hardAlpha"/>
<feOffset dy="5.11111"/>
<feGaussianBlur stdDeviation="21.7222"/>
<feComposite in2="hardAlpha" operator="out"/>
<feColorMatrix type="matrix" values="0 0 0 0 0 0 0 0 0 0 0 0 0 0 0 0 0 0 0.25 0"/>
<feBlend mode="normal" in2="BackgroundImageFix" result="effect1_dropShadow_41_30"/>
<feColorMatrix in="SourceAlpha" type="matrix" values="0 0 0 0 0 0 0 0 0 0 0 0 0 0 0 0 0 0 127 0" result="hardAlpha"/>
<feOffset dy="8"/>
<feComposite in2="hardAlpha" operator="out"/>
<feColorMatrix type="matrix" values="0 0 0 0 0.493452 0 0 0 0 0 0 0 0 0 0.9138 0 0 0 1 0"/>
<feBlend mode="normal" in2="effect1_dropShadow_41_30" result="effect2_dropShadow_41_30"/>
<feColorMatrix in="SourceAlpha" type="matrix" values="0 0 0 0 0 0 0 0 0 0 0 0 0 0 0 0 0 0 127 0" result="hardAlpha"/>
<feOffset dy="12.5"/>
<feGaussianBlur stdDeviation="10"/>
<feComposite in2="hardAlpha" operator="out"/>
<feColorMatrix type="matrix" values="0 0 0 0 0 0 0 0 0 0 0 0 0 0 0 0 0 0 0.41 0"/>
<feBlend mode="normal" in2="effect2_dropShadow_41_30" result="effect3_dropShadow_41_30"/>
<feBlend mode="normal" in="SourceGraphic" in2="effect3_dropShadow_41_30" result="shape"/>
<feColorMatrix in="SourceAlpha" type="matrix" values="0 0 0 0 0 0 0 0 0 0 0 0 0 0 0 0 0 0 127 0" result="hardAlpha"/>
<feOffset/>
<feGaussianBlur stdDeviation="12.7778"/>
<feComposite in2="hardAlpha" operator="arithmetic" k2="-1" k3="1"/>
<feColorMatrix type="matrix" values="0 0 0 0 1 0 0 0 0 1 0 0 0 0 1 0 0 0 0.26 0"/>
<feBlend mode="normal" in2="shape" result="effect4_innerShadow_41_30"/>
</filter>
<filter id="filter5_f_41_30" x="-137.38" y="-58.3801" width="755.76" height="581.76" filterUnits="userSpaceOnUse" color-interpolation-filters="sRGB">
<feFlood flood-opacity="0" result="BackgroundImageFix"/>
<feBlend mode="normal" in="SourceGraphic" in2="BackgroundImageFix" result="shape"/>
<feGaussianBlur stdDeviation="89.6901" result="effect1_foregroundBlur_41_30"/>
</filter>
<filter id="filter6_ddddi_41_30" x="39.65" y="122.025" width="137.7" height="142.8" filterUnits="userSpaceOnUse" color-interpolation-filters="sRGB">
<feFlood flood-opacity="0" result="BackgroundImageFix"/>
<feColorMatrix in="SourceAlpha" type="matrix" values="0 0 0 0 0 0 0 0 0 0 0 0 0 0 0 0 0 0 127 0" result="hardAlpha"/>
<feOffset dy="2.125"/>
<feGaussianBlur stdDeviation="1.0625"/>
<feColorMatrix type="matrix" values="0 0 0 0 0 0 0 0 0 0 0 0 0 0 0 0 0 0 0.02 0"/>
<feBlend mode="normal" in2="BackgroundImageFix" result="effect1_dropShadow_41_30"/>
<feColorMatrix in="SourceAlpha" type="matrix" values="0 0 0 0 0 0 0 0 0 0 0 0 0 0 0 0 0 0 127 0" result="hardAlpha"/>
<feOffset dy="4.25"/>
<feGaussianBlur stdDeviation="2.125"/>
<feColorMatrix type="matrix" values="0 0 0 0 0 0 0 0 0 0 0 0 0 0 0 0 0 0 0.02 0"/>
<feBlend mode="normal" in2="effect1_dropShadow_41_30" result="effect2_dropShadow_41_30"/>
<feColorMatrix in="SourceAlpha" type="matrix" values="0 0 0 0 0 0 0 0 0 0 0 0 0 0 0 0 0 0 127 0" result="hardAlpha"/>
<feOffset dy="12.75"/>
<feGaussianBlur stdDeviation="3.1875"/>
<feColorMatrix type="matrix" values="0 0 0 0 0 0 0 0 0 0 0 0 0 0 0 0 0 0 0.01 0"/>
<feBlend mode="normal" in2="effect2_dropShadow_41_30" result="effect3_dropShadow_41_30"/>
<feColorMatrix in="SourceAlpha" type="matrix" values="0 0 0 0 0 0 0 0 0 0 0 0 0 0 0 0 0 0 127 0" result="hardAlpha"/>
<feOffset dy="5.1"/>
<feGaussianBlur stdDeviation="21.675"/>
<feComposite in2="hardAlpha" operator="out"/>
<feColorMatrix type="matrix" values="0 0 0 0 0 0 0 0 0 0 0 0 0 0 0 0 0 0 0.25 0"/>
<feBlend mode="normal" in2="effect3_dropShadow_41_30" result="effect4_dropShadow_41_30"/>
<feBlend mode="normal" in="SourceGraphic" in2="effect4_dropShadow_41_30" result="shape"/>
<feColorMatrix in="SourceAlpha" type="matrix" values="0 0 0 0 0 0 0 0 0 0 0 0 0 0 0 0 0 0 127 0" result="hardAlpha"/>
<feOffset/>
<feGaussianBlur stdDeviation="8.925"/>
<feComposite in2="hardAlpha" operator="arithmetic" k2="-1" k3="1"/>
<feColorMatrix type="matrix" values="0 0 0 0 1 0 0 0 0 1 0 0 0 0 1 0 0 0 0.07 0"/>
<feBlend mode="normal" in2="shape" result="effect5_innerShadow_41_30"/>
</filter>
<filter id="filter7_ddddi_41_30" x="324.2" y="84.5755" width="129.6" height="134.4" filterUnits="userSpaceOnUse" color-interpolation-filters="sRGB">
<feFlood flood-opacity="0" result="BackgroundImageFix"/>
<feColorMatrix in="SourceAlpha" type="matrix" values="0 0 0 0 0 0 0 0 0 0 0 0 0 0 0 0 0 0 127 0" result="hardAlpha"/>
<feOffset dy="2"/>
<feGaussianBlur stdDeviation="1"/>
<feColorMatrix type="matrix" values="0 0 0 0 0 0 0 0 0 0 0 0 0 0 0 0 0 0 0.02 0"/>
<feBlend mode="normal" in2="BackgroundImageFix" result="effect1_dropShadow_41_30"/>
<feColorMatrix in="SourceAlpha" type="matrix" values="0 0 0 0 0 0 0 0 0 0 0 0 0 0 0 0 0 0 127 0" result="hardAlpha"/>
<feOffset dy="4"/>
<feGaussianBlur stdDeviation="2"/>
<feColorMatrix type="matrix" values="0 0 0 0 0 0 0 0 0 0 0 0 0 0 0 0 0 0 0.02 0"/>
<feBlend mode="normal" in2="effect1_dropShadow_41_30" result="effect2_dropShadow_41_30"/>
<feColorMatrix in="SourceAlpha" type="matrix" values="0 0 0 0 0 0 0 0 0 0 0 0 0 0 0 0 0 0 127 0" result="hardAlpha"/>
<feOffset dy="12"/>
<feGaussianBlur stdDeviation="3"/>
<feColorMatrix type="matrix" values="0 0 0 0 0 0 0 0 0 0 0 0 0 0 0 0 0 0 0.01 0"/>
<feBlend mode="normal" in2="effect2_dropShadow_41_30" result="effect3_dropShadow_41_30"/>
<feColorMatrix in="SourceAlpha" type="matrix" values="0 0 0 0 0 0 0 0 0 0 0 0 0 0 0 0 0 0 127 0" result="hardAlpha"/>
<feOffset dy="4.8"/>
<feGaussianBlur stdDeviation="20.4"/>
<feComposite in2="hardAlpha" operator="out"/>
<feColorMatrix type="matrix" values="0 0 0 0 0 0 0 0 0 0 0 0 0 0 0 0 0 0 0.25 0"/>
<feBlend mode="normal" in2="effect3_dropShadow_41_30" result="effect4_dropShadow_41_30"/>
<feBlend mode="normal" in="SourceGraphic" in2="effect4_dropShadow_41_30" result="shape"/>
<feColorMatrix in="SourceAlpha" type="matrix" values="0 0 0 0 0 0 0 0 0 0 0 0 0 0 0 0 0 0 127 0" result="hardAlpha"/>
<feOffset/>
<feGaussianBlur stdDeviation="8.4"/>
<feComposite in2="hardAlpha" operator="arithmetic" k2="-1" k3="1"/>
<feColorMatrix type="matrix" values="0 0 0 0 1 0 0 0 0 1 0 0 0 0 1 0 0 0 0.07 0"/>
<feBlend mode="normal" in2="shape" result="effect5_innerShadow_41_30"/>
</filter>
<filter id="filter8_ddddif_41_30" x="380.2" y="233.575" width="129.6" height="134.4" filterUnits="userSpaceOnUse" color-interpolation-filters="sRGB">
<feFlood flood-opacity="0" result="BackgroundImageFix"/>
<feColorMatrix in="SourceAlpha" type="matrix" values="0 0 0 0 0 0 0 0 0 0 0 0 0 0 0 0 0 0 127 0" result="hardAlpha"/>
<feOffset dy="2"/>
<feGaussianBlur stdDeviation="1"/>
<feColorMatrix type="matrix" values="0 0 0 0 0 0 0 0 0 0 0 0 0 0 0 0 0 0 0.02 0"/>
<feBlend mode="normal" in2="BackgroundImageFix" result="effect1_dropShadow_41_30"/>
<feColorMatrix in="SourceAlpha" type="matrix" values="0 0 0 0 0 0 0 0 0 0 0 0 0 0 0 0 0 0 127 0" result="hardAlpha"/>
<feOffset dy="4"/>
<feGaussianBlur stdDeviation="2"/>
<feColorMatrix type="matrix" values="0 0 0 0 0 0 0 0 0 0 0 0 0 0 0 0 0 0 0.02 0"/>
<feBlend mode="normal" in2="effect1_dropShadow_41_30" result="effect2_dropShadow_41_30"/>
<feColorMatrix in="SourceAlpha" type="matrix" values="0 0 0 0 0 0 0 0 0 0 0 0 0 0 0 0 0 0 127 0" result="hardAlpha"/>
<feOffset dy="12"/>
<feGaussianBlur stdDeviation="3"/>
<feColorMatrix type="matrix" values="0 0 0 0 0 0 0 0 0 0 0 0 0 0 0 0 0 0 0.01 0"/>
<feBlend mode="normal" in2="effect2_dropShadow_41_30" result="effect3_dropShadow_41_30"/>
<feColorMatrix in="SourceAlpha" type="matrix" values="0 0 0 0 0 0 0 0 0 0 0 0 0 0 0 0 0 0 127 0" result="hardAlpha"/>
<feOffset dy="4.8"/>
<feGaussianBlur stdDeviation="20.4"/>
<feComposite in2="hardAlpha" operator="out"/>
<feColorMatrix type="matrix" values="0 0 0 0 0 0 0 0 0 0 0 0 0 0 0 0 0 0 0.25 0"/>
<feBlend mode="normal" in2="effect3_dropShadow_41_30" result="effect4_dropShadow_41_30"/>
<feBlend mode="normal" in="SourceGraphic" in2="effect4_dropShadow_41_30" result="shape"/>
<feColorMatrix in="SourceAlpha" type="matrix" values="0 0 0 0 0 0 0 0 0 0 0 0 0 0 0 0 0 0 127 0" result="hardAlpha"/>
<feOffset/>
<feGaussianBlur stdDeviation="8.4"/>
<feComposite in2="hardAlpha" operator="arithmetic" k2="-1" k3="1"/>
<feColorMatrix type="matrix" values="0 0 0 0 1 0 0 0 0 1 0 0 0 0 1 0 0 0 0.07 0"/>
<feBlend mode="normal" in2="shape" result="effect5_innerShadow_41_30"/>
<feGaussianBlur stdDeviation="1" result="effect6_foregroundBlur_41_30"/>
</filter>
<linearGradient id="paint0_linear_41_30" x1="-19.331" y1="-47.1622" x2="559.652" y2="319.312" gradientUnits="userSpaceOnUse">
<stop stop-color="white"/>
<stop offset="0.475" stop-color="white" stop-opacity="0.3"/>
<stop offset="1" stop-color="white"/>
</linearGradient>
<linearGradient id="paint1_linear_41_30" x1="45.3338" y1="-13.3484" x2="567.747" y2="206.884" gradientUnits="userSpaceOnUse">
<stop stop-color="white"/>
<stop offset="0.475" stop-color="white" stop-opacity="0.3"/>
<stop offset="1" stop-color="white"/>
</linearGradient>
<linearGradient id="paint2_linear_41_30" x1="60" y1="-30.7977" x2="535.485" y2="332.244" gradientUnits="userSpaceOnUse">
<stop stop-color="white"/>
<stop offset="1" stop-color="white" stop-opacity="0"/>
</linearGradient>
<linearGradient id="paint3_linear_41_30" x1="88.3193" y1="37.5878" x2="504.389" y2="212.989" gradientUnits="userSpaceOnUse">
<stop stop-color="white"/>
<stop offset="0.475" stop-color="white" stop-opacity="0.3"/>
<stop offset="1" stop-color="white"/>
</linearGradient>
<linearGradient id="paint4_linear_41_30" x1="100" y1="23.6905" x2="478.694" y2="312.831" gradientUnits="userSpaceOnUse">
<stop stop-color="white"/>
<stop offset="1" stop-color="white" stop-opacity="0"/>
</linearGradient>
<linearGradient id="paint5_linear_41_30" x1="129.155" y1="85.9771" x2="444.198" y2="218.789" gradientUnits="userSpaceOnUse">
<stop stop-color="white"/>
<stop offset="0.475" stop-color="white" stop-opacity="0.3"/>
<stop offset="1" stop-color="white"/>
</linearGradient>
<linearGradient id="paint6_linear_41_30" x1="138" y1="75.4542" x2="424.743" y2="294.388" gradientUnits="userSpaceOnUse">
<stop stop-color="white"/>
<stop offset="1" stop-color="white" stop-opacity="0"/>
</linearGradient>
<linearGradient id="paint7_linear_41_30" x1="162.469" y1="125.453" x2="395.096" y2="223.52" gradientUnits="userSpaceOnUse">
<stop stop-color="white"/>
<stop offset="0.475" stop-color="white" stop-opacity="0.3"/>
<stop offset="1" stop-color="white"/>
</linearGradient>
<linearGradient id="paint8_linear_41_30" x1="136.812" y1="151.393" x2="309.448" y2="432.131" gradientUnits="userSpaceOnUse">
<stop stop-color="#536FFF"/>
<stop offset="1" stop-color="#AA18FF"/>
</linearGradient>
<linearGradient id="paint9_linear_41_30" x1="207.567" y1="177.799" x2="329.862" y2="229.355" gradientUnits="userSpaceOnUse">
<stop stop-color="white"/>
<stop offset="0.475" stop-color="white" stop-opacity="0.3"/>
<stop offset="1" stop-color="white"/>
</linearGradient>
<linearGradient id="paint10_linear_41_30" x1="186.864" y1="135.303" x2="288.027" y2="299.812" gradientUnits="userSpaceOnUse">
<stop stop-color="#536FFF"/>
<stop offset="1" stop-color="#AA18FF"/>
</linearGradient>
<linearGradient id="paint11_linear_41_30" x1="211" y1="173.714" x2="322.31" y2="258.701" gradientUnits="userSpaceOnUse">
<stop stop-color="white"/>
<stop offset="1" stop-color="white" stop-opacity="0"/>
</linearGradient>
<linearGradient id="paint12_linear_41_30" x1="257" y1="202.833" x2="260.051" y2="260.92" gradientUnits="userSpaceOnUse">
<stop stop-color="white" stop-opacity="0.7"/>
<stop offset="1" stop-color="white" stop-opacity="0.19"/>
</linearGradient>
<linearGradient id="paint13_linear_41_30" x1="169" y1="117.683" x2="380.73" y2="279.342" gradientUnits="userSpaceOnUse">
<stop stop-color="white"/>
<stop offset="1" stop-color="white" stop-opacity="0"/>
</linearGradient>
<linearGradient id="paint14_linear_41_30" x1="109" y1="180.438" x2="109" y2="199.813" gradientUnits="userSpaceOnUse">
<stop stop-color="white" stop-opacity="0.5"/>
<stop offset="1" stop-color="white" stop-opacity="0.09"/>
</linearGradient>
<linearGradient id="paint15_linear_41_30" x1="389.886" y1="137.371" x2="389.886" y2="161.396" gradientUnits="userSpaceOnUse">
<stop stop-color="white" stop-opacity="0.5"/>
<stop offset="1" stop-color="white" stop-opacity="0.09"/>
</linearGradient>
<linearGradient id="paint16_linear_41_30" x1="383.687" y1="152.379" x2="383.687" y2="157.224" gradientUnits="userSpaceOnUse">
<stop stop-color="white" stop-opacity="0.5"/>
<stop offset="1" stop-color="white" stop-opacity="0.09"/>
</linearGradient>
<linearGradient id="paint17_linear_41_30" x1="445" y1="287.976" x2="445" y2="308.776" gradientUnits="userSpaceOnUse">
<stop stop-color="white" stop-opacity="0.5"/>
<stop offset="1" stop-color="white" stop-opacity="0.09"/>
</linearGradient>
<clipPath id="clip0_41_30">
<rect width="518" height="345" fill="white"/>
</clipPath>
<clipPath id="clip1_41_30">
<rect x="169" y="149.375" width="175" height="175" rx="87.5" fill="white"/>
</clipPath>
</defs>
</svg>
