<svg width="38" height="39" viewBox="0 0 38 39" fill="none" xmlns="http://www.w3.org/2000/svg">
<path d="M19 0.885742C29.2807 0.885742 37.6143 9.21935 37.6143 19.5C37.6143 29.7807 29.2807 38.1143 19 38.1143C8.71935 38.1143 0.385742 29.7807 0.385742 19.5C0.385742 9.21935 8.71935 0.885742 19 0.885742ZM19 5.05859C15.2895 5.05859 11.7263 6.48652 9.04492 9.03809L8.78809 9.28809C6.0798 11.9964 4.55859 15.6699 4.55859 19.5C4.55859 23.3301 6.0798 27.0036 8.78809 29.7119L9.04492 29.9619C11.7263 32.5135 15.2895 33.9414 19 33.9414C22.8301 33.9414 26.5036 32.4202 29.2119 29.7119C31.9202 27.0036 33.4414 23.3301 33.4414 19.5C33.4414 15.7895 32.0135 12.2263 29.4619 9.54492L29.2119 9.28809C26.5036 6.5798 22.8301 5.05859 19 5.05859ZM21.0869 10.0684V19.25H28.4326V23.4229H16.9141V10.0684H21.0869Z" fill="black"/>
<path d="M19 0.885742C29.2807 0.885742 37.6143 9.21935 37.6143 19.5C37.6143 29.7807 29.2807 38.1143 19 38.1143C8.71935 38.1143 0.385742 29.7807 0.385742 19.5C0.385742 9.21935 8.71935 0.885742 19 0.885742ZM19 5.05859C15.2895 5.05859 11.7263 6.48652 9.04492 9.03809L8.78809 9.28809C6.0798 11.9964 4.55859 15.6699 4.55859 19.5C4.55859 23.3301 6.0798 27.0036 8.78809 29.7119L9.04492 29.9619C11.7263 32.5135 15.2895 33.9414 19 33.9414C22.8301 33.9414 26.5036 32.4202 29.2119 29.7119C31.9202 27.0036 33.4414 23.3301 33.4414 19.5C33.4414 15.7895 32.0135 12.2263 29.4619 9.54492L29.2119 9.28809C26.5036 6.5798 22.8301 5.05859 19 5.05859ZM21.0869 10.0684V19.25H28.4326V23.4229H16.9141V10.0684H21.0869Z" fill="url(#paint0_linear_31005_66)"/>
<path d="M19 0.885742C29.2807 0.885742 37.6143 9.21935 37.6143 19.5C37.6143 29.7807 29.2807 38.1143 19 38.1143C8.71935 38.1143 0.385742 29.7807 0.385742 19.5C0.385742 9.21935 8.71935 0.885742 19 0.885742ZM19 5.05859C15.2895 5.05859 11.7263 6.48652 9.04492 9.03809L8.78809 9.28809C6.0798 11.9964 4.55859 15.6699 4.55859 19.5C4.55859 23.3301 6.0798 27.0036 8.78809 29.7119L9.04492 29.9619C11.7263 32.5135 15.2895 33.9414 19 33.9414C22.8301 33.9414 26.5036 32.4202 29.2119 29.7119C31.9202 27.0036 33.4414 23.3301 33.4414 19.5C33.4414 15.7895 32.0135 12.2263 29.4619 9.54492L29.2119 9.28809C26.5036 6.5798 22.8301 5.05859 19 5.05859ZM21.0869 10.0684V19.25H28.4326V23.4229H16.9141V10.0684H21.0869Z" stroke="url(#paint1_linear_31005_66)" stroke-width="0.5"/>
<defs>
<linearGradient id="paint0_linear_31005_66" x1="-8.99983" y1="-20.8505" x2="31.3867" y2="44.8253" gradientUnits="userSpaceOnUse">
<stop stop-color="#5672FF"/>
<stop offset="1" stop-color="#AA18FF"/>
</linearGradient>
<linearGradient id="paint1_linear_31005_66" x1="-8.99983" y1="-20.8505" x2="31.3867" y2="44.8253" gradientUnits="userSpaceOnUse">
<stop stop-color="#5672FF"/>
<stop offset="1" stop-color="#AA18FF"/>
</linearGradient>
</defs>
</svg>
