<svg width="1243" height="202" viewBox="0 0 1243 202" fill="none" xmlns="http://www.w3.org/2000/svg">
<mask id="path-1-outside-1_71_123" maskUnits="userSpaceOnUse" x="0" y="0" width="1243" height="202" fill="black">
<rect fill="white" width="1243" height="202"/>
<path d="M75.9829 198H1.48016V4.36842H75.2266C95.1444 4.36842 112.352 8.24484 126.849 15.9977C141.409 23.6875 152.629 34.7809 160.508 49.2781C168.45 63.7122 172.421 81.0143 172.421 101.184C172.421 121.354 168.481 138.688 160.602 153.185C152.723 167.619 141.567 178.712 127.133 186.465C112.699 194.155 95.6486 198 75.9829 198ZM54.0481 153.374H74.092C83.6727 153.374 91.8353 151.83 98.5796 148.741C105.387 145.653 110.555 140.327 114.085 132.763C117.678 125.199 119.474 114.673 119.474 101.184C119.474 87.6956 117.647 77.1694 113.991 69.6056C110.398 62.0419 105.103 56.7158 98.1069 53.6272C91.1734 50.5387 82.6642 48.9944 72.5793 48.9944H54.0481V153.374ZM232.159 198H175.431L239.344 4.36842H311.2L375.113 198H318.385L276.029 57.6928H274.516L232.159 198ZM221.57 121.606H328.218V160.938H221.57V121.606ZM363.398 4.36842H422.017L459.836 83.0313H461.349L499.167 4.36842H557.786L486.687 137.112V198H434.497V137.112L363.398 4.36842ZM572.26 198V4.36842H655.84C670.211 4.36842 682.785 7.20483 693.564 12.8776C704.342 18.5504 712.725 26.5239 718.713 36.7979C724.701 47.072 727.695 59.0794 727.695 72.8202C727.695 86.6871 724.606 98.6945 718.429 108.842C712.315 118.991 703.712 126.806 692.618 132.29C681.588 137.774 668.698 140.516 653.949 140.516H604.028V99.6715H643.359C649.536 99.6715 654.799 98.5999 659.149 96.4569C663.561 94.2508 666.933 91.1308 669.265 87.0968C671.66 83.0628 672.858 78.3039 672.858 72.8202C672.858 67.2735 671.66 62.5461 669.265 58.6382C666.933 54.6673 663.561 51.6418 659.149 49.5617C654.799 47.4187 649.536 46.3471 643.359 46.3471H624.828V198H572.26ZM931.901 101.184C931.901 122.741 927.709 140.925 919.326 155.738C910.943 170.487 899.629 181.675 885.384 189.302C871.139 196.865 855.255 200.647 837.732 200.647C820.083 200.647 804.137 196.834 789.892 189.207C775.71 181.517 764.427 170.298 756.044 155.549C747.724 140.736 743.564 122.615 743.564 101.184C743.564 79.6276 747.724 61.4746 756.044 46.7253C764.427 31.913 775.71 20.725 789.892 13.1613C804.137 5.5345 820.083 1.72112 837.732 1.72112C855.255 1.72112 871.139 5.5345 885.384 13.1613C899.629 20.725 910.943 31.913 919.326 46.7253C927.709 61.4746 931.901 79.6276 931.901 101.184ZM877.82 101.184C877.82 89.5865 876.276 79.8167 873.187 71.8747C870.162 63.8698 865.655 57.8188 859.667 53.7218C853.742 49.5617 846.43 47.4817 837.732 47.4817C829.034 47.4817 821.691 49.5617 815.703 53.7218C809.778 57.8188 805.271 63.8698 802.183 71.8747C799.157 79.8167 797.644 89.5865 797.644 101.184C797.644 112.782 799.157 122.583 802.183 130.588C805.271 138.53 809.778 144.581 815.703 148.741C821.691 152.838 829.034 154.887 837.732 154.887C846.43 154.887 853.742 152.838 859.667 148.741C865.655 144.581 870.162 138.53 873.187 130.588C876.276 122.583 877.82 112.782 877.82 101.184ZM1028.06 198H953.56V4.36842H1027.31C1047.22 4.36842 1064.43 8.24484 1078.93 15.9977C1093.49 23.6875 1104.71 34.7809 1112.59 49.2781C1120.53 63.7122 1124.5 81.0143 1124.5 101.184C1124.5 121.354 1120.56 138.688 1112.68 153.185C1104.8 167.619 1093.65 178.712 1079.21 186.465C1064.78 194.155 1047.73 198 1028.06 198ZM1006.13 153.374H1026.17C1035.75 153.374 1043.92 151.83 1050.66 148.741C1057.47 145.653 1062.64 140.327 1066.17 132.763C1069.76 125.199 1071.55 114.673 1071.55 101.184C1071.55 87.6956 1069.73 77.1694 1066.07 69.6056C1062.48 62.0419 1057.18 56.7158 1050.19 53.6272C1043.25 50.5387 1034.74 48.9944 1024.66 48.9944H1006.13V153.374ZM1241.46 4.36842V198H1188.9V52.7763H1187.76L1145.4 78.1148V33.4888L1193.06 4.36842H1241.46Z"/>
</mask>
<path d="M75.9829 198H1.48016V4.36842H75.2266C95.1444 4.36842 112.352 8.24484 126.849 15.9977C141.409 23.6875 152.629 34.7809 160.508 49.2781C168.45 63.7122 172.421 81.0143 172.421 101.184C172.421 121.354 168.481 138.688 160.602 153.185C152.723 167.619 141.567 178.712 127.133 186.465C112.699 194.155 95.6486 198 75.9829 198ZM54.0481 153.374H74.092C83.6727 153.374 91.8353 151.83 98.5796 148.741C105.387 145.653 110.555 140.327 114.085 132.763C117.678 125.199 119.474 114.673 119.474 101.184C119.474 87.6956 117.647 77.1694 113.991 69.6056C110.398 62.0419 105.103 56.7158 98.1069 53.6272C91.1734 50.5387 82.6642 48.9944 72.5793 48.9944H54.0481V153.374ZM232.159 198H175.431L239.344 4.36842H311.2L375.113 198H318.385L276.029 57.6928H274.516L232.159 198ZM221.57 121.606H328.218V160.938H221.57V121.606ZM363.398 4.36842H422.017L459.836 83.0313H461.349L499.167 4.36842H557.786L486.687 137.112V198H434.497V137.112L363.398 4.36842ZM572.26 198V4.36842H655.84C670.211 4.36842 682.785 7.20483 693.564 12.8776C704.342 18.5504 712.725 26.5239 718.713 36.7979C724.701 47.072 727.695 59.0794 727.695 72.8202C727.695 86.6871 724.606 98.6945 718.429 108.842C712.315 118.991 703.712 126.806 692.618 132.29C681.588 137.774 668.698 140.516 653.949 140.516H604.028V99.6715H643.359C649.536 99.6715 654.799 98.5999 659.149 96.4569C663.561 94.2508 666.933 91.1308 669.265 87.0968C671.66 83.0628 672.858 78.3039 672.858 72.8202C672.858 67.2735 671.66 62.5461 669.265 58.6382C666.933 54.6673 663.561 51.6418 659.149 49.5617C654.799 47.4187 649.536 46.3471 643.359 46.3471H624.828V198H572.26ZM931.901 101.184C931.901 122.741 927.709 140.925 919.326 155.738C910.943 170.487 899.629 181.675 885.384 189.302C871.139 196.865 855.255 200.647 837.732 200.647C820.083 200.647 804.137 196.834 789.892 189.207C775.71 181.517 764.427 170.298 756.044 155.549C747.724 140.736 743.564 122.615 743.564 101.184C743.564 79.6276 747.724 61.4746 756.044 46.7253C764.427 31.913 775.71 20.725 789.892 13.1613C804.137 5.5345 820.083 1.72112 837.732 1.72112C855.255 1.72112 871.139 5.5345 885.384 13.1613C899.629 20.725 910.943 31.913 919.326 46.7253C927.709 61.4746 931.901 79.6276 931.901 101.184ZM877.82 101.184C877.82 89.5865 876.276 79.8167 873.187 71.8747C870.162 63.8698 865.655 57.8188 859.667 53.7218C853.742 49.5617 846.43 47.4817 837.732 47.4817C829.034 47.4817 821.691 49.5617 815.703 53.7218C809.778 57.8188 805.271 63.8698 802.183 71.8747C799.157 79.8167 797.644 89.5865 797.644 101.184C797.644 112.782 799.157 122.583 802.183 130.588C805.271 138.53 809.778 144.581 815.703 148.741C821.691 152.838 829.034 154.887 837.732 154.887C846.43 154.887 853.742 152.838 859.667 148.741C865.655 144.581 870.162 138.53 873.187 130.588C876.276 122.583 877.82 112.782 877.82 101.184ZM1028.06 198H953.56V4.36842H1027.31C1047.22 4.36842 1064.43 8.24484 1078.93 15.9977C1093.49 23.6875 1104.71 34.7809 1112.59 49.2781C1120.53 63.7122 1124.5 81.0143 1124.5 101.184C1124.5 121.354 1120.56 138.688 1112.68 153.185C1104.8 167.619 1093.65 178.712 1079.21 186.465C1064.78 194.155 1047.73 198 1028.06 198ZM1006.13 153.374H1026.17C1035.75 153.374 1043.92 151.83 1050.66 148.741C1057.47 145.653 1062.64 140.327 1066.17 132.763C1069.76 125.199 1071.55 114.673 1071.55 101.184C1071.55 87.6956 1069.73 77.1694 1066.07 69.6056C1062.48 62.0419 1057.18 56.7158 1050.19 53.6272C1043.25 50.5387 1034.74 48.9944 1024.66 48.9944H1006.13V153.374ZM1241.46 4.36842V198H1188.9V52.7763H1187.76L1145.4 78.1148V33.4888L1193.06 4.36842H1241.46Z" fill="url(#paint0_linear_71_123)" fill-opacity="0.1"/>
<path d="M1.48016 198H0.527779V198.952H1.48016V198ZM1.48016 4.36842V3.41604H0.527779V4.36842H1.48016ZM126.849 15.9977L126.4 16.8375L126.404 16.8398L126.849 15.9977ZM160.508 49.2781L159.671 49.7329L159.673 49.7372L160.508 49.2781ZM160.602 153.185L161.438 153.641L161.439 153.64L160.602 153.185ZM127.133 186.465L127.58 187.306L127.583 187.304L127.133 186.465ZM54.0481 153.374H53.0957V154.326H54.0481V153.374ZM98.5796 148.741L98.1861 147.874L98.1831 147.875L98.5796 148.741ZM114.085 132.763L113.225 132.354L113.222 132.36L114.085 132.763ZM113.991 69.6056L113.13 70.0143L113.133 70.0201L113.991 69.6056ZM98.1069 53.6272L97.7193 54.4972L97.7222 54.4985L98.1069 53.6272ZM54.0481 48.9944V48.0421H53.0957V48.9944H54.0481ZM75.9829 198V197.048H1.48016V198V198.952H75.9829V198ZM1.48016 198H2.43254V4.36842H1.48016H0.527779V198H1.48016ZM1.48016 4.36842V5.32081H75.2266V4.36842V3.41604H1.48016V4.36842ZM75.2266 4.36842V5.32081C95.0206 5.32081 112.067 9.17265 126.4 16.8375L126.849 15.9977L127.298 15.1578C112.636 7.31703 95.2682 3.41604 75.2266 3.41604V4.36842ZM126.849 15.9977L126.404 16.8398C140.798 24.4417 151.881 35.4003 159.671 49.7329L160.508 49.2781L161.344 48.8233C153.376 34.1616 142.02 22.9332 127.294 15.1555L126.849 15.9977ZM160.508 49.2781L159.673 49.7372C167.522 64.0024 171.468 81.1391 171.468 101.184H172.421H173.373C173.373 80.8894 169.377 63.422 161.342 48.819L160.508 49.2781ZM172.421 101.184H171.468C171.468 121.23 167.553 138.4 159.765 152.73L160.602 153.185L161.439 153.64C169.409 138.975 173.373 121.478 173.373 101.184H172.421ZM160.602 153.185L159.766 152.729C151.976 167.001 140.953 177.961 126.682 185.626L127.133 186.465L127.583 187.304C142.181 179.464 153.471 168.237 161.438 153.641L160.602 153.185ZM127.133 186.465L126.685 185.625C112.414 193.228 95.5239 197.048 75.9829 197.048V198V198.952C95.7734 198.952 112.983 195.083 127.58 187.306L127.133 186.465ZM54.0481 153.374V154.326H74.092V153.374V152.422H54.0481V153.374ZM74.092 153.374V154.326C83.7712 154.326 92.0767 152.767 98.9761 149.607L98.5796 148.741L98.1831 147.875C91.5938 150.893 83.5742 152.422 74.092 152.422V153.374ZM98.5796 148.741L98.9731 149.608C106.012 146.415 111.334 140.91 114.948 133.166L114.085 132.763L113.222 132.36C109.777 139.744 104.762 144.89 98.1861 147.874L98.5796 148.741ZM114.085 132.763L114.946 133.171C118.625 125.425 120.427 114.738 120.427 101.184H119.474H118.522C118.522 114.608 116.731 124.973 113.225 132.354L114.085 132.763ZM119.474 101.184H120.427C120.427 87.6293 118.593 76.9392 114.848 69.1912L113.991 69.6056L113.133 70.0201C116.7 77.3995 118.522 87.7618 118.522 101.184H119.474ZM113.991 69.6056L114.851 69.197C111.17 61.4481 105.717 55.9457 98.4915 52.756L98.1069 53.6272L97.7222 54.4985C104.489 57.4858 109.626 62.6357 113.13 70.0142L113.991 69.6056ZM98.1069 53.6272L98.4944 52.7573C91.4059 49.5997 82.7561 48.0421 72.5793 48.0421V48.9944V49.9468C82.5724 49.9468 90.9409 51.4777 97.7193 54.4972L98.1069 53.6272ZM72.5793 48.9944V48.0421H54.0481V48.9944V49.9468H72.5793V48.9944ZM54.0481 48.9944H53.0957V153.374H54.0481H55.0005V48.9944H54.0481ZM232.159 198V198.952H232.866L233.071 198.275L232.159 198ZM175.431 198L174.527 197.701L174.114 198.952H175.431V198ZM239.344 4.36842V3.41604H238.656L238.44 4.06991L239.344 4.36842ZM311.2 4.36842L312.104 4.06991L311.888 3.41604H311.2V4.36842ZM375.113 198V198.952H376.431L376.018 197.701L375.113 198ZM318.385 198L317.474 198.275L317.678 198.952H318.385V198ZM276.029 57.6928L276.94 57.4175L276.736 56.7404H276.029V57.6928ZM274.516 57.6928V56.7404H273.808L273.604 57.4175L274.516 57.6928ZM221.57 121.606V120.654H220.617V121.606H221.57ZM328.218 121.606H329.171V120.654H328.218V121.606ZM328.218 160.938V161.89H329.171V160.938H328.218ZM221.57 160.938H220.617V161.89H221.57V160.938ZM232.159 198V197.048H175.431V198V198.952H232.159V198ZM175.431 198L176.335 198.299L240.249 4.66694L239.344 4.36842L238.44 4.06991L174.527 197.701L175.431 198ZM239.344 4.36842V5.32081H311.2V4.36842V3.41604H239.344V4.36842ZM311.2 4.36842L310.296 4.66694L374.209 198.299L375.113 198L376.018 197.701L312.104 4.06991L311.2 4.36842ZM375.113 198V197.048H318.385V198V198.952H375.113V198ZM318.385 198L319.297 197.725L276.94 57.4175L276.029 57.6928L275.117 57.968L317.474 198.275L318.385 198ZM276.029 57.6928V56.7404H274.516V57.6928V58.6451H276.029V57.6928ZM274.516 57.6928L273.604 57.4175L231.247 197.725L232.159 198L233.071 198.275L275.428 57.968L274.516 57.6928ZM221.57 121.606V122.559H328.218V121.606V120.654H221.57V121.606ZM328.218 121.606H327.266V160.938H328.218H329.171V121.606H328.218ZM328.218 160.938V159.985H221.57V160.938V161.89H328.218V160.938ZM221.57 160.938H222.522V121.606H221.57H220.617V160.938H221.57ZM363.398 4.36842V3.41604H361.808L362.559 4.81809L363.398 4.36842ZM422.017 4.36842L422.875 3.95576L422.616 3.41604H422.017V4.36842ZM459.836 83.0313L458.977 83.4439L459.237 83.9836H459.836V83.0313ZM461.349 83.0313V83.9836H461.947L462.207 83.4439L461.349 83.0313ZM499.167 4.36842V3.41604H498.568L498.309 3.95576L499.167 4.36842ZM557.786 4.36842L558.626 4.81809L559.377 3.41604H557.786V4.36842ZM486.687 137.112L485.847 136.662L485.735 136.873V137.112H486.687ZM486.687 198V198.952H487.639V198H486.687ZM434.497 198H433.545V198.952H434.497V198ZM434.497 137.112H435.45V136.873L435.337 136.662L434.497 137.112ZM363.398 4.36842V5.32081H422.017V4.36842V3.41604H363.398V4.36842ZM422.017 4.36842L421.159 4.78109L458.977 83.4439L459.836 83.0313L460.694 82.6186L422.875 3.95576L422.017 4.36842ZM459.836 83.0313V83.9836H461.349V83.0313V82.0789H459.836V83.0313ZM461.349 83.0313L462.207 83.4439L500.026 4.78109L499.167 4.36842L498.309 3.95576L460.49 82.6186L461.349 83.0313ZM499.167 4.36842V5.32081H557.786V4.36842V3.41604H499.167V4.36842ZM557.786 4.36842L556.947 3.91876L485.847 136.662L486.687 137.112L487.527 137.562L558.626 4.81809L557.786 4.36842ZM486.687 137.112H485.735V198H486.687H487.639V137.112H486.687ZM486.687 198V197.048H434.497V198V198.952H486.687V198ZM434.497 198H435.45V137.112H434.497H433.545V198H434.497ZM434.497 137.112L435.337 136.662L364.238 3.91876L363.398 4.36842L362.559 4.81809L433.658 137.562L434.497 137.112ZM572.26 198H571.308V198.952H572.26V198ZM572.26 4.36842V3.41604H571.308V4.36842H572.26ZM693.564 12.8776L693.12 13.7204L693.12 13.7204L693.564 12.8776ZM718.713 36.7979L719.536 36.3184L719.536 36.3184L718.713 36.7979ZM718.429 108.842L717.616 108.347L717.614 108.351L718.429 108.842ZM692.618 132.29L692.196 131.436L692.194 131.437L692.618 132.29ZM604.028 140.516H603.076V141.468H604.028V140.516ZM604.028 99.6715V98.7191H603.076V99.6715H604.028ZM659.149 96.4569L659.57 97.3112L659.575 97.3087L659.149 96.4569ZM669.265 87.0968L668.446 86.6105L668.441 86.6201L669.265 87.0968ZM669.265 58.6382L668.444 59.1205L668.448 59.1283L668.453 59.1359L669.265 58.6382ZM659.149 49.5617L658.728 50.416L658.735 50.4197L658.743 50.4232L659.149 49.5617ZM624.828 46.3471V45.3948H623.876V46.3471H624.828ZM624.828 198V198.952H625.781V198H624.828ZM572.26 198H573.213V4.36842H572.26H571.308V198H572.26ZM572.26 4.36842V5.32081H655.84V4.36842V3.41604H572.26V4.36842ZM655.84 4.36842V5.32081C670.084 5.32081 682.501 8.1315 693.12 13.7204L693.564 12.8776L694.007 12.0349C683.069 6.27815 670.337 3.41604 655.84 3.41604V4.36842ZM693.564 12.8776L693.12 13.7204C703.744 19.3122 711.994 27.1615 717.89 37.2775L718.713 36.7979L719.536 36.3184C713.456 25.8862 704.939 17.7887 694.007 12.0349L693.564 12.8776ZM718.713 36.7979L717.89 37.2775C723.781 47.3846 726.743 59.2214 726.743 72.8202H727.695H728.647C728.647 58.9375 725.621 46.7594 719.536 36.3184L718.713 36.7979ZM727.695 72.8202H726.743C726.743 86.542 723.688 98.3719 717.616 108.347L718.429 108.842L719.243 109.338C725.525 99.017 728.647 86.8321 728.647 72.8202H727.695ZM718.429 108.842L717.614 108.351C711.598 118.336 703.134 126.029 692.196 131.436L692.618 132.29L693.04 133.144C704.289 127.583 713.033 119.645 719.245 109.334L718.429 108.842ZM692.618 132.29L692.194 131.437C681.319 136.844 668.579 139.563 653.949 139.563V140.516V141.468C668.816 141.468 681.856 138.704 693.042 133.143L692.618 132.29ZM653.949 140.516V139.563H604.028V140.516V141.468H653.949V140.516ZM604.028 140.516H604.98V99.6715H604.028H603.076V140.516H604.028ZM604.028 99.6715V100.624H643.359V99.6715V98.7191H604.028V99.6715ZM643.359 99.6715V100.624C649.644 100.624 655.059 99.534 659.57 97.3112L659.149 96.4569L658.728 95.6026C654.54 97.6659 649.429 98.7191 643.359 98.7191V99.6715ZM659.149 96.4569L659.575 97.3087C664.143 95.0244 667.659 91.7785 670.09 87.5734L669.265 87.0968L668.441 86.6201C666.207 90.483 662.978 93.4772 658.723 95.605L659.149 96.4569ZM669.265 87.0968L670.084 87.583C672.58 83.3786 673.81 78.4458 673.81 72.8202H672.858H671.906C671.906 78.162 670.74 82.7469 668.446 86.6105L669.265 87.0968ZM672.858 72.8202H673.81C673.81 67.1349 672.582 62.227 670.077 58.1405L669.265 58.6382L668.453 59.1359C670.739 62.8653 671.906 67.4121 671.906 72.8202H672.858ZM669.265 58.6382L670.086 58.1559C667.651 54.0096 664.129 50.8569 659.555 48.7003L659.149 49.5617L658.743 50.4232C662.992 52.4266 666.215 55.3249 668.444 59.1205L669.265 58.6382ZM659.149 49.5617L659.57 48.7074C655.059 46.4846 649.644 45.3948 643.359 45.3948V46.3471V47.2995C649.429 47.2995 654.54 48.3527 658.728 50.416L659.149 49.5617ZM643.359 46.3471V45.3948H624.828V46.3471V47.2995H643.359V46.3471ZM624.828 46.3471H623.876V198H624.828H625.781V46.3471H624.828ZM624.828 198V197.048H572.26V198V198.952H624.828V198ZM919.326 155.738L920.154 156.208L920.155 156.207L919.326 155.738ZM885.384 189.302L885.83 190.143L885.833 190.141L885.384 189.302ZM789.892 189.207L789.438 190.044L789.442 190.047L789.892 189.207ZM756.044 155.549L755.213 156.015L755.216 156.019L756.044 155.549ZM756.044 46.7253L755.215 46.2562L755.214 46.2574L756.044 46.7253ZM789.892 13.1613L790.34 14.0016L790.341 14.0009L789.892 13.1613ZM885.384 13.1613L884.934 14.0009L884.937 14.0024L885.384 13.1613ZM919.326 46.7253L918.497 47.1944L918.498 47.1959L919.326 46.7253ZM873.187 71.8747L872.296 72.2115L872.3 72.2199L873.187 71.8747ZM859.667 53.7218L859.12 54.5013L859.129 54.5078L859.667 53.7218ZM815.703 53.7218L816.244 54.5051L816.246 54.5039L815.703 53.7218ZM802.183 71.8747L801.294 71.5319L801.293 71.5357L802.183 71.8747ZM802.183 130.588L801.292 130.925L801.295 130.933L802.183 130.588ZM815.703 148.741L815.155 149.521L815.165 149.527L815.703 148.741ZM859.667 148.741L860.209 149.525L860.21 149.523L859.667 148.741ZM873.187 130.588L872.299 130.245L872.297 130.249L873.187 130.588ZM931.901 101.184H930.948C930.948 122.619 926.78 140.633 918.497 155.269L919.326 155.738L920.155 156.207C928.638 141.218 932.853 122.862 932.853 101.184H931.901ZM919.326 155.738L918.498 155.267C910.199 169.868 899.013 180.924 884.934 188.462L885.384 189.302L885.833 190.141C900.245 182.425 911.687 171.106 920.154 156.208L919.326 155.738ZM885.384 189.302L884.937 188.461C870.841 195.945 855.113 199.695 837.732 199.695V200.647V201.6C855.397 201.6 871.436 197.786 885.83 190.143L885.384 189.302ZM837.732 200.647V199.695C820.226 199.695 804.435 195.914 790.341 188.368L789.892 189.207L789.442 190.047C803.838 197.754 819.941 201.6 837.732 201.6V200.647ZM789.892 189.207L790.346 188.37C776.328 180.769 765.172 169.681 756.872 155.078L756.044 155.549L755.216 156.019C763.682 170.915 775.091 182.265 789.438 190.044L789.892 189.207ZM756.044 155.549L756.874 155.082C748.652 140.445 744.516 122.493 744.516 101.184H743.564H742.611C742.611 122.736 746.795 141.028 755.213 156.015L756.044 155.549ZM743.564 101.184H744.516C744.516 79.7477 748.653 61.7659 756.873 47.1933L756.044 46.7253L755.214 46.2574C746.795 61.1834 742.611 79.5075 742.611 101.184H743.564ZM756.044 46.7253L756.873 47.1944C765.172 32.5298 776.327 21.4751 790.34 14.0016L789.892 13.1613L789.443 12.3209C775.092 19.9749 763.682 31.2963 755.215 46.2562L756.044 46.7253ZM789.892 13.1613L790.341 14.0009C804.435 6.45483 820.226 2.6735 837.732 2.6735V1.72112V0.768736C819.941 0.768736 803.838 4.61417 789.442 12.3216L789.892 13.1613ZM837.732 1.72112V2.6735C855.112 2.6735 870.839 6.4543 884.934 14.0009L885.384 13.1613L885.833 12.3216C871.438 4.6147 855.398 0.768736 837.732 0.768736V1.72112ZM885.384 13.1613L884.937 14.0024C899.013 21.4763 910.198 32.5309 918.497 47.1944L919.326 46.7253L920.155 46.2562C911.687 31.2952 900.245 19.9737 885.83 12.3201L885.384 13.1613ZM919.326 46.7253L918.498 47.1959C926.78 61.768 930.948 79.7487 930.948 101.184H931.901H932.853C932.853 79.5064 928.638 61.1813 920.154 46.2547L919.326 46.7253ZM877.82 101.184H878.772C878.772 89.5083 877.219 79.6134 874.075 71.5296L873.187 71.8747L872.3 72.2199C875.333 80.0199 876.868 89.6647 876.868 101.184H877.82ZM873.187 71.8747L874.078 71.538C870.996 63.3843 866.381 57.1616 860.205 52.9358L859.667 53.7218L859.129 54.5078C864.929 58.4761 869.327 64.3553 872.296 72.2115L873.187 71.8747ZM859.667 53.7218L860.214 52.9423C854.099 48.6486 846.586 46.5293 837.732 46.5293V47.4817V48.4341C846.275 48.4341 853.385 50.4748 859.12 54.5012L859.667 53.7218ZM837.732 47.4817V46.5293C828.878 46.5293 821.336 48.6487 815.159 52.9396L815.703 53.7218L816.246 54.5039C822.046 50.4747 829.19 48.4341 837.732 48.4341V47.4817ZM815.703 53.7218L815.161 52.9384C809.051 57.1636 804.438 63.3834 801.294 71.5319L802.183 71.8747L803.071 72.2176C806.104 64.3562 810.505 58.474 816.244 54.5051L815.703 53.7218ZM802.183 71.8747L801.293 71.5357C798.214 79.6175 796.692 89.5101 796.692 101.184H797.644H798.597C798.597 89.6629 800.1 80.0158 803.073 72.2138L802.183 71.8747ZM797.644 101.184H796.692C796.692 112.859 798.214 122.782 801.292 130.925L802.183 130.588L803.074 130.252C800.1 122.385 798.597 112.705 798.597 101.184H797.644ZM802.183 130.588L801.295 130.933C804.439 139.019 809.051 145.235 815.156 149.521L815.703 148.741L816.25 147.962C810.505 143.928 806.103 138.041 803.07 130.243L802.183 130.588ZM815.703 148.741L815.165 149.527C821.341 153.753 828.881 155.839 837.732 155.839V154.887V153.934C829.187 153.934 822.041 151.924 816.241 147.955L815.703 148.741ZM837.732 154.887V155.839C846.583 155.839 854.094 153.753 860.209 149.525L859.667 148.741L859.125 147.958C853.39 151.924 846.278 153.934 837.732 153.934V154.887ZM859.667 148.741L860.21 149.523C866.381 145.237 870.995 139.018 874.077 130.927L873.187 130.588L872.297 130.249C869.328 138.042 864.929 143.926 859.124 147.959L859.667 148.741ZM873.187 130.588L874.076 130.931C877.218 122.786 878.772 112.861 878.772 101.184H877.82H876.868C876.868 112.703 875.333 122.381 872.299 130.245L873.187 130.588ZM953.56 198H952.608V198.952H953.56V198ZM953.56 4.36842V3.41604H952.608V4.36842H953.56ZM1078.93 15.9977L1078.48 16.8375L1078.48 16.8398L1078.93 15.9977ZM1112.59 49.2781L1111.75 49.7329L1111.75 49.7372L1112.59 49.2781ZM1112.68 153.185L1113.52 153.641L1113.52 153.64L1112.68 153.185ZM1079.21 186.465L1079.66 187.306L1079.66 187.304L1079.21 186.465ZM1006.13 153.374H1005.18V154.326H1006.13V153.374ZM1050.66 148.741L1050.27 147.874L1050.26 147.875L1050.66 148.741ZM1066.17 132.763L1065.31 132.354L1065.3 132.36L1066.17 132.763ZM1066.07 69.6056L1065.21 70.0143L1065.21 70.0201L1066.07 69.6056ZM1050.19 53.6272L1049.8 54.4972L1049.8 54.4985L1050.19 53.6272ZM1006.13 48.9944V48.0421H1005.18V48.9944H1006.13ZM1028.06 198V197.048H953.56V198V198.952H1028.06V198ZM953.56 198H954.513V4.36842H953.56H952.608V198H953.56ZM953.56 4.36842V5.32081H1027.31V4.36842V3.41604H953.56V4.36842ZM1027.31 4.36842V5.32081C1047.1 5.32081 1064.15 9.17265 1078.48 16.8375L1078.93 15.9977L1079.38 15.1578C1064.72 7.31703 1047.35 3.41604 1027.31 3.41604V4.36842ZM1078.93 15.9977L1078.48 16.8398C1092.88 24.4417 1103.96 35.4003 1111.75 49.7329L1112.59 49.2781L1113.42 48.8233C1105.46 34.1616 1094.1 22.9332 1079.37 15.1555L1078.93 15.9977ZM1112.59 49.2781L1111.75 49.7372C1119.6 64.0024 1123.55 81.1391 1123.55 101.184H1124.5H1125.45C1125.45 80.8894 1121.46 63.422 1113.42 48.819L1112.59 49.2781ZM1124.5 101.184H1123.55C1123.55 121.23 1119.63 138.4 1111.85 152.73L1112.68 153.185L1113.52 153.64C1121.49 138.975 1125.45 121.478 1125.45 101.184H1124.5ZM1112.68 153.185L1111.85 152.729C1104.06 167.001 1093.03 177.961 1078.76 185.626L1079.21 186.465L1079.66 187.304C1094.26 179.464 1105.55 168.237 1113.52 153.641L1112.68 153.185ZM1079.21 186.465L1078.77 185.625C1064.49 193.228 1047.6 197.048 1028.06 197.048V198V198.952C1047.85 198.952 1065.06 195.083 1079.66 187.306L1079.21 186.465ZM1006.13 153.374V154.326H1026.17V153.374V152.422H1006.13V153.374ZM1026.17 153.374V154.326C1035.85 154.326 1044.16 152.767 1051.06 149.607L1050.66 148.741L1050.26 147.875C1043.67 150.893 1035.65 152.422 1026.17 152.422V153.374ZM1050.66 148.741L1051.05 149.608C1058.09 146.415 1063.41 140.91 1067.03 133.166L1066.17 132.763L1065.3 132.36C1061.86 139.744 1056.84 144.89 1050.27 147.874L1050.66 148.741ZM1066.17 132.763L1067.03 133.171C1070.71 125.425 1072.51 114.738 1072.51 101.184H1071.55H1070.6C1070.6 114.608 1068.81 124.973 1065.31 132.354L1066.17 132.763ZM1071.55 101.184H1072.51C1072.51 87.6293 1070.67 76.9392 1066.93 69.1912L1066.07 69.6056L1065.21 70.0201C1068.78 77.3995 1070.6 87.7618 1070.6 101.184H1071.55ZM1066.07 69.6056L1066.93 69.197C1063.25 61.4481 1057.8 55.9457 1050.57 52.756L1050.19 53.6272L1049.8 54.4985C1056.57 57.4858 1061.71 62.6357 1065.21 70.0142L1066.07 69.6056ZM1050.19 53.6272L1050.57 52.7573C1043.49 49.5997 1034.84 48.0421 1024.66 48.0421V48.9944V49.9468C1034.65 49.9468 1043.02 51.4777 1049.8 54.4972L1050.19 53.6272ZM1024.66 48.9944V48.0421H1006.13V48.9944V49.9468H1024.66V48.9944ZM1006.13 48.9944H1005.18V153.374H1006.13H1007.08V48.9944H1006.13ZM1241.46 4.36842H1242.42V3.41604H1241.46V4.36842ZM1241.46 198V198.952H1242.42V198H1241.46ZM1188.9 198H1187.94V198.952H1188.9V198ZM1188.9 52.7763H1189.85V51.8239H1188.9V52.7763ZM1187.76 52.7763V51.8239H1187.5L1187.27 51.959L1187.76 52.7763ZM1145.4 78.1148H1144.45V79.7943L1145.89 78.9321L1145.4 78.1148ZM1145.4 33.4888L1144.91 32.6761L1144.45 32.9547V33.4888H1145.4ZM1193.06 4.36842V3.41604H1192.79L1192.56 3.55578L1193.06 4.36842ZM1241.46 4.36842H1240.51V198H1241.46H1242.42V4.36842H1241.46ZM1241.46 198V197.048H1188.9V198V198.952H1241.46V198ZM1188.9 198H1189.85V52.7763H1188.9H1187.94V198H1188.9ZM1188.9 52.7763V51.8239H1187.76V52.7763V53.7287H1188.9V52.7763ZM1187.76 52.7763L1187.27 51.959L1144.92 77.2975L1145.4 78.1148L1145.89 78.9321L1188.25 53.5936L1187.76 52.7763ZM1145.4 78.1148H1146.36V33.4888H1145.4H1144.45V78.1148H1145.4ZM1145.4 33.4888L1145.9 34.3014L1193.55 5.18107L1193.06 4.36842L1192.56 3.55578L1144.91 32.6761L1145.4 33.4888ZM1193.06 4.36842V5.32081H1241.46V4.36842V3.41604H1193.06V4.36842Z" fill="url(#paint1_linear_71_123)" mask="url(#path-1-outside-1_71_123)"/>
<defs>
<linearGradient id="paint0_linear_71_123" x1="629" y1="-44" x2="629" y2="193" gradientUnits="userSpaceOnUse">
<stop stop-color="white" stop-opacity="0.3"/>
<stop offset="1" stop-color="white" stop-opacity="0"/>
</linearGradient>
<linearGradient id="paint1_linear_71_123" x1="629" y1="-44" x2="629" y2="193" gradientUnits="userSpaceOnUse">
<stop stop-color="white" stop-opacity="0.3"/>
<stop offset="1" stop-color="white" stop-opacity="0"/>
</linearGradient>
</defs>
</svg>
