<svg width="192" height="39" viewBox="0 0 192 39" fill="none" xmlns="http://www.w3.org/2000/svg">
<path d="M18.0283 2.62061V36.3795" stroke="white" stroke-opacity="0.9" stroke-width="3.82979" stroke-linecap="round"/>
<path d="M25.9717 2.62061V36.3795" stroke="white" stroke-opacity="0.9" stroke-width="3.82979" stroke-linecap="round"/>
<path d="M33.915 7.08887L33.915 21.6988" stroke="white" stroke-opacity="0.9" stroke-width="3.82979" stroke-linecap="round"/>
<path d="M42 11.5566L42 17.2304" stroke="white" stroke-opacity="0.9" stroke-width="3.82979" stroke-linecap="round"/>
<path d="M2 22.1953L2 27.8691" stroke="white" stroke-opacity="0.9" stroke-width="3.82979" stroke-linecap="round"/>
<path d="M10.085 17.7271L10.085 32.337" stroke="white" stroke-opacity="0.9" stroke-width="3.82979" stroke-linecap="round"/>
<path d="M70.6369 21.5162C72.0885 21.5162 73.2354 21.2115 74.0777 20.6022C74.9379 19.975 75.368 18.9804 75.368 17.6184V17.5646C75.368 16.2026 74.9379 15.2169 74.0777 14.6076C73.2354 13.9804 72.0885 13.6668 70.6369 13.6668H69.5885V21.5162H70.6369ZM63.2982 8.18296H70.5025C72.3663 8.18296 73.9971 8.40697 75.3949 8.855C76.8107 9.2851 77.9845 9.90338 78.9164 10.7098C79.8483 11.5163 80.5472 12.493 81.0131 13.6399C81.4791 14.7689 81.7121 16.0324 81.7121 17.4302V17.484C81.7121 18.8818 81.4701 20.1631 80.9863 21.328C80.5203 22.4929 79.8035 23.4964 78.8357 24.3387C77.8859 25.181 76.6942 25.8351 75.2605 26.3011C73.8447 26.767 72.187 27 70.2874 27H63.2982V8.18296ZM94.2395 20.0108L92.519 15.441L90.7986 20.0108H94.2395ZM89.4545 8.04855H95.6911L103.621 27H96.7932L95.7986 24.4731H89.2126L88.2449 27H81.5245L89.4545 8.04855ZM109.449 20.3334L102.352 8.18296H109.395L112.621 14.3657L115.874 8.18296H122.836L115.739 20.2527V27H109.449V20.3334ZM130.94 17.4033C131.746 17.4033 132.392 17.2331 132.875 16.8926C133.377 16.5341 133.628 16.0144 133.628 15.3334V15.2797C133.628 14.5987 133.395 14.0879 132.929 13.7474C132.463 13.389 131.809 13.2098 130.967 13.2098H129.246V17.4033H130.94ZM122.956 8.18296H131.424C132.678 8.18296 133.816 8.32633 134.838 8.61307C135.877 8.88188 136.764 9.29406 137.499 9.84961C138.234 10.4052 138.807 11.1041 139.22 11.9464C139.632 12.7887 139.838 13.7653 139.838 14.8765V14.9302C139.838 16.0592 139.632 17.0628 139.22 17.9409C138.807 18.8011 138.225 19.5269 137.472 20.1183C136.72 20.7097 135.815 21.1578 134.757 21.4624C133.718 21.7491 132.562 21.8925 131.289 21.8925H129.246V27H122.956V8.18296ZM150.503 21.8388C151.094 21.8388 151.632 21.7223 152.115 21.4893C152.599 21.2563 153.012 20.9517 153.352 20.5753C153.693 20.1811 153.952 19.733 154.132 19.2313C154.311 18.7295 154.4 18.2008 154.4 17.6452V17.5915C154.4 17.0359 154.302 16.5073 154.105 16.0055C153.926 15.4858 153.666 15.0288 153.325 14.6345C152.985 14.2403 152.572 13.9266 152.089 13.6937C151.605 13.4607 151.058 13.3442 150.449 13.3442C149.857 13.3442 149.32 13.4607 148.836 13.6937C148.352 13.9266 147.94 14.2403 147.599 14.6345C147.259 15.0109 146.999 15.4499 146.82 15.9517C146.641 16.4535 146.551 16.9822 146.551 17.5377V17.5915C146.551 18.147 146.641 18.6847 146.82 19.2044C147.017 19.7062 147.286 20.1542 147.626 20.5484C147.967 20.9427 148.379 21.2563 148.863 21.4893C149.347 21.7223 149.893 21.8388 150.503 21.8388ZM150.449 27.4032C148.997 27.4032 147.644 27.1523 146.39 26.6505C145.153 26.1488 144.069 25.4588 143.137 24.5807C142.223 23.7025 141.506 22.6721 140.987 21.4893C140.467 20.2886 140.207 19.0072 140.207 17.6452V17.5915C140.207 16.2295 140.467 14.9571 140.987 13.7743C141.524 12.5736 142.25 11.5342 143.164 10.6561C144.096 9.76001 145.189 9.06109 146.444 8.5593C147.698 8.03959 149.051 7.77974 150.503 7.77974C151.954 7.77974 153.298 8.03063 154.535 8.53242C155.789 9.03421 156.874 9.72417 157.787 10.6023C158.719 11.4804 159.445 12.5198 159.965 13.7205C160.485 14.9033 160.744 16.1757 160.744 17.5377V17.5915C160.744 18.9535 160.476 20.2348 159.938 21.4355C159.418 22.6183 158.693 23.6577 157.761 24.5538C156.847 25.4319 155.762 26.1308 154.508 26.6505C153.253 27.1523 151.9 27.4032 150.449 27.4032ZM169.253 21.5162C170.705 21.5162 171.852 21.2115 172.694 20.6022C173.554 19.975 173.984 18.9804 173.984 17.6184V17.5646C173.984 16.2026 173.554 15.2169 172.694 14.6076C171.852 13.9804 170.705 13.6668 169.253 13.6668H168.205V21.5162H169.253ZM161.914 8.18296H169.119C170.982 8.18296 172.613 8.40697 174.011 8.855C175.427 9.2851 176.601 9.90338 177.533 10.7098C178.464 11.5163 179.163 12.493 179.629 13.6399C180.095 14.7689 180.328 16.0324 180.328 17.4302V17.484C180.328 18.8818 180.086 20.1631 179.602 21.328C179.137 22.4929 178.42 23.4964 177.452 24.3387C176.502 25.181 175.31 25.8351 173.877 26.3011C172.461 26.767 170.803 27 168.904 27H161.914V8.18296ZM184.415 13.5593L181.35 14.2313L180.221 9.5808L185.84 8.04855H190.598V27H184.415V13.5593Z" fill="white"/>
</svg>
