<svg width="26" height="30" viewBox="0 0 26 30" fill="none" xmlns="http://www.w3.org/2000/svg">
<g filter="url(#filter0_dddi_31005_203)">
<path d="M12 15.3594H14V9.35938H12V15.3594ZM13 7.35938C13.2833 7.35938 13.521 7.26337 13.713 7.07137C13.905 6.87937 14.0007 6.64204 14 6.35938C13.9993 6.07671 13.9033 5.83938 13.712 5.64738C13.5207 5.45538 13.2833 5.35938 13 5.35938C12.7167 5.35938 12.4793 5.45538 12.288 5.64738C12.0967 5.83938 12.0007 6.07671 12 6.35938C11.9993 6.64204 12.0953 6.87971 12.288 7.07238C12.4807 7.26504 12.718 7.36071 13 7.35938ZM13 20.3594C11.6167 20.3594 10.3167 20.0967 9.1 19.5714C7.88334 19.046 6.825 18.3337 5.925 17.4344C5.025 16.535 4.31267 15.4767 3.788 14.2594C3.26333 13.042 3.00067 11.742 3 10.3594C2.99933 8.97671 3.262 7.67671 3.788 6.45938C4.314 5.24204 5.02633 4.18371 5.925 3.28438C6.82367 2.38504 7.882 1.67271 9.1 1.14738C10.318 0.622042 11.618 0.359375 13 0.359375C14.382 0.359375 15.682 0.622042 16.9 1.14738C18.118 1.67271 19.1763 2.38504 20.075 3.28438C20.9737 4.18371 21.6863 5.24204 22.213 6.45938C22.7397 7.67671 23.002 8.97671 23 10.3594C22.998 11.742 22.7353 13.042 22.212 14.2594C21.6887 15.4767 20.9763 16.535 20.075 17.4344C19.1737 18.3337 18.1153 19.0464 16.9 19.5724C15.6847 20.0984 14.3847 20.3607 13 20.3594Z" fill="black"/>
<path d="M12 15.3594H14V9.35938H12V15.3594ZM13 7.35938C13.2833 7.35938 13.521 7.26337 13.713 7.07137C13.905 6.87937 14.0007 6.64204 14 6.35938C13.9993 6.07671 13.9033 5.83938 13.712 5.64738C13.5207 5.45538 13.2833 5.35938 13 5.35938C12.7167 5.35938 12.4793 5.45538 12.288 5.64738C12.0967 5.83938 12.0007 6.07671 12 6.35938C11.9993 6.64204 12.0953 6.87971 12.288 7.07238C12.4807 7.26504 12.718 7.36071 13 7.35938ZM13 20.3594C11.6167 20.3594 10.3167 20.0967 9.1 19.5714C7.88334 19.046 6.825 18.3337 5.925 17.4344C5.025 16.535 4.31267 15.4767 3.788 14.2594C3.26333 13.042 3.00067 11.742 3 10.3594C2.99933 8.97671 3.262 7.67671 3.788 6.45938C4.314 5.24204 5.02633 4.18371 5.925 3.28438C6.82367 2.38504 7.882 1.67271 9.1 1.14738C10.318 0.622042 11.618 0.359375 13 0.359375C14.382 0.359375 15.682 0.622042 16.9 1.14738C18.118 1.67271 19.1763 2.38504 20.075 3.28438C20.9737 4.18371 21.6863 5.24204 22.213 6.45938C22.7397 7.67671 23.002 8.97671 23 10.3594C22.998 11.742 22.7353 13.042 22.212 14.2594C21.6887 15.4767 20.9763 16.535 20.075 17.4344C19.1737 18.3337 18.1153 19.0464 16.9 19.5724C15.6847 20.0984 14.3847 20.3607 13 20.3594Z" fill="url(#paint0_linear_31005_203)"/>
<path d="M12 15.3594H14V9.35938H12V15.3594ZM13 7.35938C13.2833 7.35938 13.521 7.26337 13.713 7.07137C13.905 6.87937 14.0007 6.64204 14 6.35938C13.9993 6.07671 13.9033 5.83938 13.712 5.64738C13.5207 5.45538 13.2833 5.35938 13 5.35938C12.7167 5.35938 12.4793 5.45538 12.288 5.64738C12.0967 5.83938 12.0007 6.07671 12 6.35938C11.9993 6.64204 12.0953 6.87971 12.288 7.07238C12.4807 7.26504 12.718 7.36071 13 7.35938ZM13 20.3594C11.6167 20.3594 10.3167 20.0967 9.1 19.5714C7.88334 19.046 6.825 18.3337 5.925 17.4344C5.025 16.535 4.31267 15.4767 3.788 14.2594C3.26333 13.042 3.00067 11.742 3 10.3594C2.99933 8.97671 3.262 7.67671 3.788 6.45938C4.314 5.24204 5.02633 4.18371 5.925 3.28438C6.82367 2.38504 7.882 1.67271 9.1 1.14738C10.318 0.622042 11.618 0.359375 13 0.359375C14.382 0.359375 15.682 0.622042 16.9 1.14738C18.118 1.67271 19.1763 2.38504 20.075 3.28438C20.9737 4.18371 21.6863 5.24204 22.213 6.45938C22.7397 7.67671 23.002 8.97671 23 10.3594C22.998 11.742 22.7353 13.042 22.212 14.2594C21.6887 15.4767 20.9763 16.535 20.075 17.4344C19.1737 18.3337 18.1153 19.0464 16.9 19.5724C15.6847 20.0984 14.3847 20.3607 13 20.3594Z" fill="url(#paint1_linear_31005_203)" fill-opacity="0.9"/>
</g>
<defs>
<filter id="filter0_dddi_31005_203" x="0" y="0.359375" width="26" height="29" filterUnits="userSpaceOnUse" color-interpolation-filters="sRGB">
<feFlood flood-opacity="0" result="BackgroundImageFix"/>
<feColorMatrix in="SourceAlpha" type="matrix" values="0 0 0 0 0 0 0 0 0 0 0 0 0 0 0 0 0 0 127 0" result="hardAlpha"/>
<feOffset dy="1"/>
<feGaussianBlur stdDeviation="0.5"/>
<feColorMatrix type="matrix" values="0 0 0 0 0 0 0 0 0 0 0 0 0 0 0 0 0 0 0.02 0"/>
<feBlend mode="normal" in2="BackgroundImageFix" result="effect1_dropShadow_31005_203"/>
<feColorMatrix in="SourceAlpha" type="matrix" values="0 0 0 0 0 0 0 0 0 0 0 0 0 0 0 0 0 0 127 0" result="hardAlpha"/>
<feOffset dy="2"/>
<feGaussianBlur stdDeviation="1"/>
<feColorMatrix type="matrix" values="0 0 0 0 0 0 0 0 0 0 0 0 0 0 0 0 0 0 0.02 0"/>
<feBlend mode="normal" in2="effect1_dropShadow_31005_203" result="effect2_dropShadow_31005_203"/>
<feColorMatrix in="SourceAlpha" type="matrix" values="0 0 0 0 0 0 0 0 0 0 0 0 0 0 0 0 0 0 127 0" result="hardAlpha"/>
<feOffset dy="6"/>
<feGaussianBlur stdDeviation="1.5"/>
<feColorMatrix type="matrix" values="0 0 0 0 0 0 0 0 0 0 0 0 0 0 0 0 0 0 0.01 0"/>
<feBlend mode="normal" in2="effect2_dropShadow_31005_203" result="effect3_dropShadow_31005_203"/>
<feBlend mode="normal" in="SourceGraphic" in2="effect3_dropShadow_31005_203" result="shape"/>
<feColorMatrix in="SourceAlpha" type="matrix" values="0 0 0 0 0 0 0 0 0 0 0 0 0 0 0 0 0 0 127 0" result="hardAlpha"/>
<feOffset/>
<feGaussianBlur stdDeviation="7"/>
<feComposite in2="hardAlpha" operator="arithmetic" k2="-1" k3="1"/>
<feColorMatrix type="matrix" values="0 0 0 0 1 0 0 0 0 1 0 0 0 0 1 0 0 0 0.25 0"/>
<feBlend mode="normal" in2="shape" result="effect4_innerShadow_31005_203"/>
</filter>
<linearGradient id="paint0_linear_31005_203" x1="13" y1="0.359375" x2="13" y2="20.3594" gradientUnits="userSpaceOnUse">
<stop stop-color="white" stop-opacity="0.3"/>
<stop offset="1" stop-color="white" stop-opacity="0.09"/>
</linearGradient>
<linearGradient id="paint1_linear_31005_203" x1="-2.24692" y1="-11.6129" x2="19.745" y2="24.1499" gradientUnits="userSpaceOnUse">
<stop stop-color="#5672FF"/>
<stop offset="1" stop-color="#AA18FF"/>
</linearGradient>
</defs>
</svg>
