<svg width="415" height="255" viewBox="0 0 415 255" fill="none" xmlns="http://www.w3.org/2000/svg">
<g filter="url(#filter0_di_82_135)">
<g clip-path="url(#clip0_82_135)">
<rect x="153" y="30" width="109" height="72" rx="16.8889" fill="url(#paint0_linear_82_135)" fill-opacity="0.06" shape-rendering="crispEdges"/>
<path d="M165 57.5V48.5C165 48.1833 165.071 47.8833 165.213 47.6C165.355 47.3167 165.551 47.0833 165.8 46.9L171.8 42.4C172.15 42.1333 172.55 42 173 42C173.45 42 173.85 42.1333 174.2 42.4L180.2 46.9C180.45 47.0833 180.646 47.3167 180.788 47.6C180.93 47.8833 181.001 48.1833 181 48.5V57.5C181 58.05 180.804 58.521 180.412 58.913C180.02 59.305 179.549 59.5007 179 59.5H176C175.717 59.5 175.479 59.404 175.288 59.212C175.097 59.02 175.001 58.7827 175 58.5V53.5C175 53.2167 174.904 52.9793 174.712 52.788C174.52 52.5967 174.283 52.5007 174 52.5H172C171.717 52.5 171.479 52.596 171.288 52.788C171.097 52.98 171.001 53.2173 171 53.5V58.5C171 58.7833 170.904 59.021 170.712 59.213C170.52 59.405 170.283 59.5007 170 59.5H167C166.45 59.5 165.979 59.3043 165.588 58.913C165.197 58.5217 165.001 58.0507 165 57.5Z" fill="url(#paint1_linear_82_135)"/>
<g filter="url(#filter1_f_82_135)">
<ellipse cx="263.5" cy="82" rx="47.5" ry="38" fill="white" fill-opacity="0.21"/>
</g>
<path d="M165.358 77.8182H166.77L169.594 82.571H169.713L172.537 77.8182H173.949L170.27 83.804V88H169.037V83.804L165.358 77.8182ZM177.407 88.1591C176.717 88.1591 176.112 87.995 175.592 87.6669C175.075 87.3388 174.671 86.8797 174.379 86.2898C174.091 85.6998 173.946 85.0104 173.946 84.2216C173.946 83.4261 174.091 82.7318 174.379 82.1385C174.671 81.5452 175.075 81.0845 175.592 80.7564C176.112 80.4283 176.717 80.2642 177.407 80.2642C178.096 80.2642 178.699 80.4283 179.216 80.7564C179.737 81.0845 180.141 81.5452 180.429 82.1385C180.721 82.7318 180.867 83.4261 180.867 84.2216C180.867 85.0104 180.721 85.6998 180.429 86.2898C180.141 86.8797 179.737 87.3388 179.216 87.6669C178.699 87.995 178.096 88.1591 177.407 88.1591ZM177.407 87.1051C177.93 87.1051 178.361 86.9709 178.699 86.7024C179.037 86.4339 179.288 86.081 179.45 85.6435C179.612 85.206 179.694 84.732 179.694 84.2216C179.694 83.7112 179.612 83.2356 179.45 82.7947C179.288 82.3539 179.037 81.9976 178.699 81.7259C178.361 81.4541 177.93 81.3182 177.407 81.3182C176.883 81.3182 176.452 81.4541 176.114 81.7259C175.776 81.9976 175.526 82.3539 175.363 82.7947C175.201 83.2356 175.12 83.7112 175.12 84.2216C175.12 84.732 175.201 85.206 175.363 85.6435C175.526 86.081 175.776 86.4339 176.114 86.7024C176.452 86.9709 176.883 87.1051 177.407 87.1051ZM187.47 84.8778V80.3636H188.644V88H187.47V86.7074H187.391C187.212 87.0952 186.933 87.425 186.556 87.6967C186.178 87.9652 185.7 88.0994 185.124 88.0994C184.646 88.0994 184.222 87.995 183.851 87.7862C183.48 87.5741 183.188 87.2559 182.976 86.8317C182.764 86.4041 182.658 85.8655 182.658 85.2159V80.3636H183.831V85.1364C183.831 85.6932 183.987 86.1373 184.298 86.4688C184.613 86.8002 185.014 86.9659 185.502 86.9659C185.793 86.9659 186.09 86.8913 186.392 86.7422C186.696 86.593 186.952 86.3643 187.157 86.0561C187.366 85.7479 187.47 85.3551 187.47 84.8778ZM190.793 88V80.3636H191.926V81.517H192.006C192.145 81.1392 192.397 80.8326 192.761 80.5973C193.126 80.362 193.537 80.2443 193.994 80.2443C194.08 80.2443 194.188 80.246 194.317 80.2493C194.447 80.2526 194.545 80.2576 194.611 80.2642V81.4574C194.571 81.4474 194.48 81.4325 194.337 81.4126C194.198 81.3894 194.051 81.3778 193.895 81.3778C193.524 81.3778 193.192 81.4557 192.901 81.6115C192.612 81.764 192.384 81.9761 192.214 82.2479C192.049 82.5163 191.966 82.8229 191.966 83.1676V88H190.793ZM200.098 88V77.8182H206.203V78.9119H201.331V82.3523H205.746V83.446H201.331V88H200.098ZM210.797 88.1591C210.061 88.1591 209.427 87.9967 208.893 87.6719C208.363 87.3438 207.953 86.8864 207.665 86.2997C207.38 85.7098 207.237 85.0237 207.237 84.2415C207.237 83.4593 207.38 82.7699 207.665 82.1733C207.953 81.5734 208.354 81.1061 208.868 80.7713C209.385 80.4332 209.988 80.2642 210.678 80.2642C211.075 80.2642 211.468 80.3305 211.856 80.4631C212.244 80.5956 212.597 80.8111 212.915 81.1094C213.233 81.4044 213.487 81.7955 213.676 82.2827C213.865 82.7699 213.959 83.3698 213.959 84.0824V84.5795H208.073V83.5653H212.766C212.766 83.1345 212.68 82.75 212.507 82.4119C212.338 82.0739 212.096 81.8071 211.781 81.6115C211.47 81.416 211.102 81.3182 210.678 81.3182C210.21 81.3182 209.806 81.4342 209.465 81.6662C209.127 81.8949 208.866 82.1932 208.684 82.5611C208.502 82.929 208.411 83.3234 208.411 83.7443V84.4205C208.411 84.9972 208.51 85.486 208.709 85.8871C208.911 86.2848 209.191 86.5881 209.549 86.7969C209.907 87.0024 210.323 87.1051 210.797 87.1051C211.105 87.1051 211.384 87.062 211.632 86.9759C211.884 86.8864 212.101 86.7538 212.284 86.5781C212.466 86.3991 212.607 86.1771 212.706 85.9119L213.84 86.2301C213.72 86.6146 213.52 86.9527 213.238 87.2443C212.956 87.5327 212.608 87.758 212.194 87.9205C211.78 88.0795 211.314 88.1591 210.797 88.1591ZM218.945 88.1591C218.21 88.1591 217.575 87.9967 217.041 87.6719C216.511 87.3438 216.102 86.8864 215.813 86.2997C215.528 85.7098 215.386 85.0237 215.386 84.2415C215.386 83.4593 215.528 82.7699 215.813 82.1733C216.102 81.5734 216.503 81.1061 217.017 80.7713C217.534 80.4332 218.137 80.2642 218.826 80.2642C219.224 80.2642 219.617 80.3305 220.004 80.4631C220.392 80.5956 220.745 80.8111 221.063 81.1094C221.382 81.4044 221.635 81.7955 221.824 82.2827C222.013 82.7699 222.107 83.3698 222.107 84.0824V84.5795H216.221V83.5653H220.914C220.914 83.1345 220.828 82.75 220.656 82.4119C220.487 82.0739 220.245 81.8071 219.93 81.6115C219.618 81.416 219.25 81.3182 218.826 81.3182C218.359 81.3182 217.954 81.4342 217.613 81.6662C217.275 81.8949 217.015 82.1932 216.833 82.5611C216.65 82.929 216.559 83.3234 216.559 83.7443V84.4205C216.559 84.9972 216.659 85.486 216.857 85.8871C217.06 86.2848 217.34 86.5881 217.698 86.7969C218.056 87.0024 218.472 87.1051 218.945 87.1051C219.254 87.1051 219.532 87.062 219.781 86.9759C220.033 86.8864 220.25 86.7538 220.432 86.5781C220.614 86.3991 220.755 86.1771 220.855 85.9119L221.988 86.2301C221.869 86.6146 221.668 86.9527 221.387 87.2443C221.105 87.5327 220.757 87.758 220.343 87.9205C219.928 88.0795 219.463 88.1591 218.945 88.1591ZM226.776 88.1591C226.139 88.1591 225.578 87.9983 225.09 87.6768C224.603 87.352 224.222 86.8946 223.947 86.3047C223.672 85.7114 223.534 85.0104 223.534 84.2017C223.534 83.3996 223.672 82.7036 223.947 82.1136C224.222 81.5237 224.605 81.0679 225.095 80.7464C225.586 80.425 226.153 80.2642 226.796 80.2642C227.293 80.2642 227.686 80.3471 227.974 80.5128C228.266 80.6752 228.488 80.8608 228.64 81.0696C228.796 81.2751 228.917 81.4441 229.003 81.5767H229.102V77.8182H230.276V88H229.142V86.8267H229.003C228.917 86.9659 228.794 87.1416 228.635 87.3537C228.476 87.5625 228.249 87.7498 227.954 87.9155C227.659 88.0779 227.266 88.1591 226.776 88.1591ZM226.935 87.1051C227.405 87.1051 227.803 86.9825 228.128 86.7372C228.453 86.4886 228.7 86.1456 228.869 85.7081C229.038 85.2673 229.122 84.7585 229.122 84.1818C229.122 83.6117 229.039 83.1129 228.874 82.6854C228.708 82.2545 228.463 81.9197 228.138 81.6811C227.813 81.4392 227.412 81.3182 226.935 81.3182C226.438 81.3182 226.023 81.4458 225.692 81.701C225.364 81.9529 225.117 82.2959 224.951 82.7301C224.789 83.161 224.708 83.6449 224.708 84.1818C224.708 84.7254 224.79 85.2192 224.956 85.6634C225.125 86.1042 225.374 86.4555 225.702 86.7173C226.033 86.9759 226.444 87.1051 226.935 87.1051Z" fill="url(#paint2_linear_82_135)"/>
</g>
<rect x="153.422" y="30.4222" width="108.156" height="71.1556" rx="16.4666" stroke="url(#paint3_linear_82_135)" stroke-opacity="0.1" stroke-width="0.844443" shape-rendering="crispEdges"/>
</g>
<g filter="url(#filter2_di_82_135)">
<rect x="153" y="144.359" width="109" height="72" rx="16.8889" fill="url(#paint4_linear_82_135)" fill-opacity="0.06" shape-rendering="crispEdges"/>
<rect x="153.422" y="144.782" width="108.156" height="71.1556" rx="16.4666" stroke="url(#paint5_linear_82_135)" stroke-opacity="0.1" stroke-width="0.844443" shape-rendering="crispEdges"/>
</g>
<g filter="url(#filter3_di_82_135)">
<g clip-path="url(#clip1_82_135)">
<rect x="272" y="126.359" width="109" height="72" rx="16.8889" fill="url(#paint6_linear_82_135)" fill-opacity="0.06" shape-rendering="crispEdges"/>
<g filter="url(#filter4_f_82_135)">
<ellipse cx="330" cy="126.359" rx="31" ry="25" fill="url(#paint7_linear_82_135)"/>
</g>
<g filter="url(#filter5_i_82_135)">
<path d="M295.556 138.359C296.004 138.359 296.436 138.529 296.765 138.834C297.094 139.139 297.295 139.557 297.329 140.004L297.333 140.137V144.582H298.667C298.998 144.582 299.318 144.705 299.563 144.928C299.808 145.151 299.962 145.457 299.994 145.787L300 145.915V152.582C300 153.262 299.74 153.916 299.274 154.411C298.807 154.906 298.169 155.204 297.49 155.244L297.333 155.248H285.778C285.329 155.248 284.897 155.079 284.568 154.774C284.24 154.469 284.038 154.051 284.004 153.604L284 153.47V140.137C284 139.689 284.169 139.257 284.474 138.928C284.779 138.599 285.197 138.397 285.644 138.364L285.778 138.359H295.556ZM298.222 146.359H297.333V153.47C297.569 153.47 297.795 153.377 297.962 153.21C298.129 153.043 298.222 152.817 298.222 152.582V146.359ZM291.111 147.248H288.444C288.218 147.249 288 147.335 287.835 147.491C287.67 147.646 287.571 147.859 287.558 148.085C287.545 148.311 287.618 148.534 287.764 148.708C287.909 148.881 288.115 148.993 288.34 149.02L288.444 149.026H291.111C291.338 149.026 291.556 148.939 291.72 148.784C291.885 148.628 291.984 148.415 291.997 148.189C292.011 147.963 291.937 147.74 291.792 147.567C291.646 147.393 291.44 147.281 291.215 147.254L291.111 147.248ZM292.889 142.804H288.444C288.209 142.804 287.983 142.897 287.816 143.064C287.649 143.231 287.556 143.457 287.556 143.693C287.556 143.928 287.649 144.155 287.816 144.321C287.983 144.488 288.209 144.582 288.444 144.582H292.889C293.125 144.582 293.351 144.488 293.517 144.321C293.684 144.155 293.778 143.928 293.778 143.693C293.778 143.457 293.684 143.231 293.517 143.064C293.351 142.897 293.125 142.804 292.889 142.804Z" fill="black"/>
<path d="M295.556 138.359C296.004 138.359 296.436 138.529 296.765 138.834C297.094 139.139 297.295 139.557 297.329 140.004L297.333 140.137V144.582H298.667C298.998 144.582 299.318 144.705 299.563 144.928C299.808 145.151 299.962 145.457 299.994 145.787L300 145.915V152.582C300 153.262 299.74 153.916 299.274 154.411C298.807 154.906 298.169 155.204 297.49 155.244L297.333 155.248H285.778C285.329 155.248 284.897 155.079 284.568 154.774C284.24 154.469 284.038 154.051 284.004 153.604L284 153.47V140.137C284 139.689 284.169 139.257 284.474 138.928C284.779 138.599 285.197 138.397 285.644 138.364L285.778 138.359H295.556ZM298.222 146.359H297.333V153.47C297.569 153.47 297.795 153.377 297.962 153.21C298.129 153.043 298.222 152.817 298.222 152.582V146.359ZM291.111 147.248H288.444C288.218 147.249 288 147.335 287.835 147.491C287.67 147.646 287.571 147.859 287.558 148.085C287.545 148.311 287.618 148.534 287.764 148.708C287.909 148.881 288.115 148.993 288.34 149.02L288.444 149.026H291.111C291.338 149.026 291.556 148.939 291.72 148.784C291.885 148.628 291.984 148.415 291.997 148.189C292.011 147.963 291.937 147.74 291.792 147.567C291.646 147.393 291.44 147.281 291.215 147.254L291.111 147.248ZM292.889 142.804H288.444C288.209 142.804 287.983 142.897 287.816 143.064C287.649 143.231 287.556 143.457 287.556 143.693C287.556 143.928 287.649 144.155 287.816 144.321C287.983 144.488 288.209 144.582 288.444 144.582H292.889C293.125 144.582 293.351 144.488 293.517 144.321C293.684 144.155 293.778 143.928 293.778 143.693C293.778 143.457 293.684 143.231 293.517 143.064C293.351 142.897 293.125 142.804 292.889 142.804Z" fill="url(#paint8_linear_82_135)"/>
</g>
<path d="M290.801 176.723C290.741 176.219 290.5 175.828 290.075 175.55C289.651 175.271 289.131 175.132 288.514 175.132C288.063 175.132 287.669 175.205 287.331 175.351C286.996 175.497 286.734 175.697 286.545 175.952C286.36 176.208 286.267 176.498 286.267 176.822C286.267 177.094 286.332 177.328 286.461 177.523C286.594 177.716 286.763 177.876 286.968 178.006C287.174 178.132 287.389 178.236 287.614 178.319C287.84 178.398 288.047 178.463 288.236 178.513L289.27 178.791C289.535 178.861 289.83 178.957 290.155 179.08C290.483 179.202 290.796 179.37 291.094 179.582C291.396 179.79 291.645 180.059 291.84 180.387C292.036 180.715 292.134 181.118 292.134 181.595C292.134 182.145 291.989 182.643 291.701 183.087C291.416 183.531 290.998 183.884 290.448 184.146C289.901 184.407 289.237 184.538 288.455 184.538C287.725 184.538 287.094 184.421 286.56 184.185C286.03 183.95 285.612 183.622 285.308 183.201C285.006 182.78 284.835 182.291 284.795 181.734H286.068C286.101 182.119 286.231 182.437 286.456 182.689C286.685 182.937 286.973 183.123 287.321 183.246C287.672 183.365 288.05 183.425 288.455 183.425C288.925 183.425 289.348 183.348 289.722 183.196C290.097 183.04 290.393 182.825 290.612 182.55C290.831 182.271 290.94 181.946 290.94 181.575C290.94 181.237 290.846 180.962 290.657 180.75C290.468 180.538 290.219 180.366 289.911 180.233C289.603 180.1 289.27 179.984 288.912 179.885L287.659 179.527C286.864 179.298 286.234 178.972 285.77 178.548C285.306 178.123 285.074 177.568 285.074 176.882C285.074 176.312 285.228 175.815 285.536 175.391C285.848 174.963 286.265 174.632 286.789 174.396C287.316 174.158 287.904 174.038 288.554 174.038C289.21 174.038 289.794 174.156 290.304 174.391C290.814 174.623 291.219 174.942 291.517 175.346C291.819 175.75 291.978 176.209 291.994 176.723H290.801ZM297.104 184.518C296.414 184.518 295.81 184.354 295.289 184.026C294.772 183.698 294.368 183.239 294.076 182.649C293.788 182.059 293.644 181.37 293.644 180.581C293.644 179.786 293.788 179.091 294.076 178.498C294.368 177.905 294.772 177.444 295.289 177.116C295.81 176.788 296.414 176.624 297.104 176.624C297.793 176.624 298.396 176.788 298.914 177.116C299.434 177.444 299.838 177.905 300.127 178.498C300.418 179.091 300.564 179.786 300.564 180.581C300.564 181.37 300.418 182.059 300.127 182.649C299.838 183.239 299.434 183.698 298.914 184.026C298.396 184.354 297.793 184.518 297.104 184.518ZM297.104 183.464C297.628 183.464 298.058 183.33 298.396 183.062C298.735 182.793 298.985 182.44 299.147 182.003C299.31 181.565 299.391 181.091 299.391 180.581C299.391 180.071 299.31 179.595 299.147 179.154C298.985 178.713 298.735 178.357 298.396 178.085C298.058 177.813 297.628 177.678 297.104 177.678C296.58 177.678 296.149 177.813 295.811 178.085C295.473 178.357 295.223 178.713 295.061 179.154C294.898 179.595 294.817 180.071 294.817 180.581C294.817 181.091 294.898 181.565 295.061 182.003C295.223 182.44 295.473 182.793 295.811 183.062C296.149 183.33 296.58 183.464 297.104 183.464ZM307.168 181.237V176.723H308.341V184.359H307.168V183.067H307.088C306.909 183.455 306.631 183.784 306.253 184.056C305.875 184.325 305.398 184.459 304.821 184.459C304.344 184.459 303.92 184.354 303.548 184.146C303.177 183.933 302.885 183.615 302.673 183.191C302.461 182.763 302.355 182.225 302.355 181.575V176.723H303.528V181.496C303.528 182.053 303.684 182.497 303.996 182.828C304.311 183.16 304.712 183.325 305.199 183.325C305.491 183.325 305.787 183.251 306.089 183.102C306.394 182.952 306.649 182.724 306.854 182.415C307.063 182.107 307.168 181.714 307.168 181.237ZM310.49 184.359V176.723H311.623V177.876H311.703C311.842 177.499 312.094 177.192 312.459 176.957C312.823 176.721 313.234 176.604 313.692 176.604C313.778 176.604 313.885 176.605 314.015 176.609C314.144 176.612 314.242 176.617 314.308 176.624V177.817C314.268 177.807 314.177 177.792 314.035 177.772C313.895 177.749 313.748 177.737 313.592 177.737C313.221 177.737 312.89 177.815 312.598 177.971C312.309 178.123 312.081 178.335 311.912 178.607C311.746 178.876 311.663 179.182 311.663 179.527V184.359H310.49ZM318.569 184.518C317.853 184.518 317.236 184.349 316.719 184.011C316.202 183.673 315.805 183.208 315.526 182.614C315.248 182.021 315.108 181.343 315.108 180.581C315.108 179.805 315.251 179.121 315.536 178.528C315.824 177.931 316.225 177.465 316.739 177.131C317.256 176.793 317.859 176.624 318.549 176.624C319.086 176.624 319.57 176.723 320.001 176.922C320.431 177.121 320.784 177.399 321.059 177.757C321.335 178.115 321.505 178.533 321.572 179.01H320.398C320.309 178.662 320.11 178.354 319.802 178.085C319.497 177.813 319.086 177.678 318.569 177.678C318.111 177.678 317.71 177.797 317.366 178.036C317.024 178.271 316.757 178.604 316.565 179.035C316.376 179.462 316.282 179.964 316.282 180.541C316.282 181.131 316.375 181.645 316.56 182.082C316.749 182.52 317.014 182.86 317.356 183.102C317.7 183.344 318.105 183.464 318.569 183.464C318.874 183.464 319.15 183.411 319.399 183.305C319.648 183.199 319.858 183.047 320.03 182.848C320.203 182.649 320.325 182.411 320.398 182.132H321.572C321.505 182.583 321.341 182.989 321.079 183.35C320.821 183.708 320.478 183.993 320.05 184.205C319.626 184.414 319.132 184.518 318.569 184.518ZM326.488 184.518C325.753 184.518 325.118 184.356 324.584 184.031C324.054 183.703 323.645 183.246 323.356 182.659C323.071 182.069 322.929 181.383 322.929 180.601C322.929 179.819 323.071 179.129 323.356 178.533C323.645 177.933 324.046 177.465 324.559 177.131C325.077 176.793 325.68 176.624 326.369 176.624C326.767 176.624 327.16 176.69 327.547 176.822C327.935 176.955 328.288 177.17 328.606 177.469C328.925 177.764 329.178 178.155 329.367 178.642C329.556 179.129 329.65 179.729 329.65 180.442V180.939H323.764V179.925H328.457C328.457 179.494 328.371 179.109 328.199 178.771C328.03 178.433 327.788 178.166 327.473 177.971C327.161 177.775 326.793 177.678 326.369 177.678C325.902 177.678 325.497 177.794 325.156 178.026C324.818 178.254 324.558 178.553 324.376 178.92C324.193 179.288 324.102 179.683 324.102 180.104V180.78C324.102 181.357 324.202 181.845 324.4 182.246C324.603 182.644 324.883 182.947 325.241 183.156C325.599 183.362 326.015 183.464 326.488 183.464C326.797 183.464 327.075 183.421 327.324 183.335C327.576 183.246 327.793 183.113 327.975 182.938C328.157 182.759 328.298 182.536 328.398 182.271L329.531 182.589C329.412 182.974 329.211 183.312 328.93 183.604C328.648 183.892 328.3 184.117 327.885 184.28C327.471 184.439 327.006 184.518 326.488 184.518ZM338.793 184.499C338.137 184.499 337.552 184.386 337.038 184.161C336.528 183.935 336.122 183.622 335.82 183.221C335.522 182.817 335.359 182.348 335.333 181.814H336.586C336.612 182.142 336.725 182.425 336.924 182.664C337.123 182.899 337.383 183.082 337.704 183.211C338.026 183.34 338.382 183.405 338.773 183.405C339.211 183.405 339.599 183.329 339.937 183.176C340.275 183.024 340.54 182.812 340.732 182.54C340.924 182.268 341.02 181.953 341.02 181.595C341.02 181.221 340.928 180.891 340.742 180.606C340.556 180.317 340.285 180.092 339.927 179.93C339.569 179.767 339.131 179.686 338.614 179.686H337.799V178.592H338.614C339.019 178.592 339.373 178.519 339.678 178.374C339.986 178.228 340.227 178.022 340.399 177.757C340.575 177.492 340.662 177.18 340.662 176.822C340.662 176.478 340.586 176.178 340.434 175.923C340.281 175.667 340.066 175.469 339.787 175.326C339.512 175.183 339.188 175.112 338.813 175.112C338.462 175.112 338.13 175.177 337.819 175.306C337.51 175.432 337.259 175.616 337.063 175.858C336.867 176.097 336.761 176.385 336.745 176.723H335.552C335.572 176.189 335.732 175.722 336.034 175.321C336.336 174.917 336.73 174.602 337.217 174.376C337.708 174.151 338.246 174.038 338.833 174.038C339.463 174.038 340.003 174.166 340.454 174.421C340.904 174.673 341.251 175.006 341.493 175.42C341.735 175.835 341.856 176.282 341.856 176.763C341.856 177.336 341.705 177.825 341.403 178.229C341.105 178.634 340.699 178.914 340.185 179.07V179.149C340.828 179.255 341.33 179.529 341.692 179.969C342.053 180.407 342.233 180.949 342.233 181.595C342.233 182.149 342.083 182.646 341.781 183.087C341.483 183.524 341.075 183.869 340.558 184.121C340.041 184.373 339.453 184.499 338.793 184.499Z" fill="url(#paint9_linear_82_135)"/>
</g>
<rect x="272.422" y="126.782" width="108.156" height="71.1556" rx="16.4666" stroke="url(#paint10_linear_82_135)" stroke-opacity="0.1" stroke-width="0.844443" shape-rendering="crispEdges"/>
</g>
<path d="M207.5 103V113.359M207.5 113.359H94C91.2386 113.359 89 115.598 89 118.359V126.859M207.5 113.359H322C324.761 113.359 327 115.598 327 118.359V128.859" stroke="white"/>
<path d="M207.5 103V113.359M207.5 113.359H94C91.2386 113.359 89 115.598 89 118.359V126.859M207.5 113.359H322C324.761 113.359 327 115.598 327 118.359V128.859" stroke="url(#paint11_linear_82_135)" stroke-opacity="0.9"/>
<g filter="url(#filter6_di_82_135)">
<g clip-path="url(#clip2_82_135)">
<rect x="34" y="126.359" width="109" height="72" rx="16.8889" fill="url(#paint12_linear_82_135)" fill-opacity="0.06" shape-rendering="crispEdges"/>
<g filter="url(#filter7_i_82_135)">
<path d="M57.5556 139.359C58.0041 139.359 58.4361 139.529 58.7649 139.834C59.0938 140.139 59.2953 140.557 59.3289 141.004L59.3333 141.137V145.582H60.6667C60.9981 145.582 61.3177 145.705 61.563 145.928C61.8084 146.151 61.962 146.457 61.9938 146.787L62 146.915V153.582C62 154.262 61.7402 154.916 61.2735 155.411C60.8069 155.906 60.1688 156.204 59.4898 156.244L59.3333 156.248H47.7778C47.3293 156.248 46.8973 156.079 46.5684 155.774C46.2395 155.469 46.0381 155.051 46.0044 154.604L46 154.47V141.137C45.9999 140.689 46.1693 140.257 46.4742 139.928C46.7792 139.599 47.1972 139.397 47.6444 139.364L47.7778 139.359H57.5556ZM60.2222 147.359H59.3333V154.47C59.5691 154.47 59.7952 154.377 59.9619 154.21C60.1286 154.043 60.2222 153.817 60.2222 153.582V147.359ZM53.1111 148.248H50.4444C50.2179 148.249 50 148.335 49.8352 148.491C49.6705 148.646 49.5713 148.859 49.5581 149.085C49.5448 149.311 49.6184 149.534 49.7638 149.708C49.9092 149.881 50.1155 149.993 50.3404 150.02L50.4444 150.026H53.1111C53.3377 150.026 53.5556 149.939 53.7203 149.784C53.8851 149.628 53.9842 149.415 53.9975 149.189C54.0108 148.963 53.9372 148.74 53.7918 148.567C53.6464 148.393 53.4401 148.281 53.2151 148.254L53.1111 148.248ZM54.8889 143.804H50.4444C50.2087 143.804 49.9826 143.897 49.8159 144.064C49.6492 144.231 49.5556 144.457 49.5556 144.693C49.5556 144.928 49.6492 145.155 49.8159 145.321C49.9826 145.488 50.2087 145.582 50.4444 145.582H54.8889C55.1246 145.582 55.3507 145.488 55.5174 145.321C55.6841 145.155 55.7778 144.928 55.7778 144.693C55.7778 144.457 55.6841 144.231 55.5174 144.064C55.3507 143.897 55.1246 143.804 54.8889 143.804Z" fill="black"/>
<path d="M57.5556 139.359C58.0041 139.359 58.4361 139.529 58.7649 139.834C59.0938 140.139 59.2953 140.557 59.3289 141.004L59.3333 141.137V145.582H60.6667C60.9981 145.582 61.3177 145.705 61.563 145.928C61.8084 146.151 61.962 146.457 61.9938 146.787L62 146.915V153.582C62 154.262 61.7402 154.916 61.2735 155.411C60.8069 155.906 60.1688 156.204 59.4898 156.244L59.3333 156.248H47.7778C47.3293 156.248 46.8973 156.079 46.5684 155.774C46.2395 155.469 46.0381 155.051 46.0044 154.604L46 154.47V141.137C45.9999 140.689 46.1693 140.257 46.4742 139.928C46.7792 139.599 47.1972 139.397 47.6444 139.364L47.7778 139.359H57.5556ZM60.2222 147.359H59.3333V154.47C59.5691 154.47 59.7952 154.377 59.9619 154.21C60.1286 154.043 60.2222 153.817 60.2222 153.582V147.359ZM53.1111 148.248H50.4444C50.2179 148.249 50 148.335 49.8352 148.491C49.6705 148.646 49.5713 148.859 49.5581 149.085C49.5448 149.311 49.6184 149.534 49.7638 149.708C49.9092 149.881 50.1155 149.993 50.3404 150.02L50.4444 150.026H53.1111C53.3377 150.026 53.5556 149.939 53.7203 149.784C53.8851 149.628 53.9842 149.415 53.9975 149.189C54.0108 148.963 53.9372 148.74 53.7918 148.567C53.6464 148.393 53.4401 148.281 53.2151 148.254L53.1111 148.248ZM54.8889 143.804H50.4444C50.2087 143.804 49.9826 143.897 49.8159 144.064C49.6492 144.231 49.5556 144.457 49.5556 144.693C49.5556 144.928 49.6492 145.155 49.8159 145.321C49.9826 145.488 50.2087 145.582 50.4444 145.582H54.8889C55.1246 145.582 55.3507 145.488 55.5174 145.321C55.6841 145.155 55.7778 144.928 55.7778 144.693C55.7778 144.457 55.6841 144.231 55.5174 144.064C55.3507 143.897 55.1246 143.804 54.8889 143.804Z" fill="url(#paint13_linear_82_135)"/>
</g>
<g filter="url(#filter8_f_82_135)">
<ellipse cx="87" cy="126.359" rx="31" ry="25" fill="url(#paint14_linear_82_135)"/>
</g>
<path d="M52.8011 176.723C52.7415 176.219 52.4995 175.828 52.0753 175.55C51.651 175.271 51.1307 175.132 50.5142 175.132C50.0634 175.132 49.669 175.205 49.331 175.351C48.9962 175.497 48.7344 175.697 48.5455 175.952C48.3598 176.208 48.267 176.498 48.267 176.822C48.267 177.094 48.3317 177.328 48.4609 177.523C48.5935 177.716 48.7625 177.876 48.968 178.006C49.1735 178.132 49.389 178.236 49.6143 178.319C49.8397 178.398 50.0469 178.463 50.2358 178.513L51.2699 178.791C51.535 178.861 51.83 178.957 52.1548 179.08C52.483 179.202 52.7962 179.37 53.0945 179.582C53.3961 179.79 53.6446 180.059 53.8402 180.387C54.0357 180.715 54.1335 181.118 54.1335 181.595C54.1335 182.145 53.9893 182.643 53.701 183.087C53.416 183.531 52.9983 183.884 52.4482 184.146C51.9013 184.407 51.2367 184.538 50.4545 184.538C49.7254 184.538 49.094 184.421 48.5604 184.185C48.0301 183.95 47.6125 183.622 47.3075 183.201C47.0059 182.78 46.8352 182.291 46.7955 181.734H48.0682C48.1013 182.119 48.2306 182.437 48.456 182.689C48.6847 182.937 48.973 183.123 49.321 183.246C49.6723 183.365 50.0502 183.425 50.4545 183.425C50.9252 183.425 51.3478 183.348 51.7223 183.196C52.0968 183.04 52.3935 182.825 52.6122 182.55C52.831 182.271 52.9403 181.946 52.9403 181.575C52.9403 181.237 52.8459 180.962 52.657 180.75C52.468 180.538 52.2195 180.366 51.9112 180.233C51.603 180.1 51.2699 179.984 50.9119 179.885L49.6591 179.527C48.8636 179.298 48.2339 178.972 47.7699 178.548C47.3059 178.123 47.0739 177.568 47.0739 176.882C47.0739 176.312 47.228 175.815 47.5362 175.391C47.8478 174.963 48.2654 174.632 48.7891 174.396C49.3161 174.158 49.9044 174.038 50.554 174.038C51.2102 174.038 51.7936 174.156 52.304 174.391C52.8144 174.623 53.2188 174.942 53.517 175.346C53.8187 175.75 53.9777 176.209 53.9943 176.723H52.8011ZM59.1039 184.518C58.4145 184.518 57.8096 184.354 57.2892 184.026C56.7722 183.698 56.3678 183.239 56.0762 182.649C55.7878 182.059 55.6436 181.37 55.6436 180.581C55.6436 179.786 55.7878 179.091 56.0762 178.498C56.3678 177.905 56.7722 177.444 57.2892 177.116C57.8096 176.788 58.4145 176.624 59.1039 176.624C59.7933 176.624 60.3965 176.788 60.9135 177.116C61.4339 177.444 61.8382 177.905 62.1266 178.498C62.4183 179.091 62.5641 179.786 62.5641 180.581C62.5641 181.37 62.4183 182.059 62.1266 182.649C61.8382 183.239 61.4339 183.698 60.9135 184.026C60.3965 184.354 59.7933 184.518 59.1039 184.518ZM59.1039 183.464C59.6275 183.464 60.0584 183.33 60.3965 183.062C60.7346 182.793 60.9848 182.44 61.1472 182.003C61.3096 181.565 61.3908 181.091 61.3908 180.581C61.3908 180.071 61.3096 179.595 61.1472 179.154C60.9848 178.713 60.7346 178.357 60.3965 178.085C60.0584 177.813 59.6275 177.678 59.1039 177.678C58.5802 177.678 58.1493 177.813 57.8113 178.085C57.4732 178.357 57.223 178.713 57.0605 179.154C56.8981 179.595 56.8169 180.071 56.8169 180.581C56.8169 181.091 56.8981 181.565 57.0605 182.003C57.223 182.44 57.4732 182.793 57.8113 183.062C58.1493 183.33 58.5802 183.464 59.1039 183.464ZM69.1676 181.237V176.723H70.3409V184.359H69.1676V183.067H69.0881C68.9091 183.455 68.6307 183.784 68.2528 184.056C67.875 184.325 67.3977 184.459 66.821 184.459C66.3438 184.459 65.9195 184.354 65.5483 184.146C65.1771 183.933 64.8854 183.615 64.6733 183.191C64.4612 182.763 64.3551 182.225 64.3551 181.575V176.723H65.5284V181.496C65.5284 182.053 65.6842 182.497 65.9957 182.828C66.3106 183.16 66.7116 183.325 67.1989 183.325C67.4905 183.325 67.7872 183.251 68.0888 183.102C68.3937 182.952 68.6489 182.724 68.8544 182.415C69.0632 182.107 69.1676 181.714 69.1676 181.237ZM72.4899 184.359V176.723H73.6234V177.876H73.7029C73.8422 177.499 74.094 177.192 74.4586 176.957C74.8232 176.721 75.2342 176.604 75.6916 176.604C75.7778 176.604 75.8855 176.605 76.0147 176.609C76.144 176.612 76.2418 176.617 76.3081 176.624V177.817C76.2683 177.807 76.1771 177.792 76.0346 177.772C75.8954 177.749 75.7479 177.737 75.5922 177.737C75.2209 177.737 74.8895 177.815 74.5978 177.971C74.3095 178.123 74.0808 178.335 73.9118 178.607C73.746 178.876 73.6632 179.182 73.6632 179.527V184.359H72.4899ZM80.5687 184.518C79.8528 184.518 79.2363 184.349 78.7193 184.011C78.2022 183.673 77.8045 183.208 77.5261 182.614C77.2477 182.021 77.1085 181.343 77.1085 180.581C77.1085 179.805 77.251 179.121 77.536 178.528C77.8244 177.931 78.2254 177.465 78.7392 177.131C79.2562 176.793 79.8594 176.624 80.5488 176.624C81.0858 176.624 81.5697 176.723 82.0005 176.922C82.4314 177.121 82.7844 177.399 83.0595 177.757C83.3346 178.115 83.5053 178.533 83.5716 179.01H82.3983C82.3088 178.662 82.1099 178.354 81.8017 178.085C81.4967 177.813 81.0858 177.678 80.5687 177.678C80.1113 177.678 79.7103 177.797 79.3656 178.036C79.0242 178.271 78.7574 178.604 78.5652 179.035C78.3762 179.462 78.2818 179.964 78.2818 180.541C78.2818 181.131 78.3746 181.645 78.5602 182.082C78.7491 182.52 79.0143 182.86 79.3556 183.102C79.7003 183.344 80.1047 183.464 80.5687 183.464C80.8736 183.464 81.1504 183.411 81.399 183.305C81.6475 183.199 81.858 183.047 82.0304 182.848C82.2027 182.649 82.3253 182.411 82.3983 182.132H83.5716C83.5053 182.583 83.3412 182.989 83.0794 183.35C82.8208 183.708 82.4778 183.993 82.0502 184.205C81.626 184.414 81.1322 184.518 80.5687 184.518ZM88.4885 184.518C87.7527 184.518 87.118 184.356 86.5843 184.031C86.054 183.703 85.6447 183.246 85.3564 182.659C85.0713 182.069 84.9288 181.383 84.9288 180.601C84.9288 179.819 85.0713 179.129 85.3564 178.533C85.6447 177.933 86.0458 177.465 86.5595 177.131C87.0765 176.793 87.6797 176.624 88.3691 176.624C88.7669 176.624 89.1596 176.69 89.5474 176.822C89.9352 176.955 90.2882 177.17 90.6064 177.469C90.9245 177.764 91.1781 178.155 91.367 178.642C91.5559 179.129 91.6504 179.729 91.6504 180.442V180.939H85.764V179.925H90.4572C90.4572 179.494 90.371 179.109 90.1987 178.771C90.0297 178.433 89.7877 178.166 89.4728 177.971C89.1613 177.775 88.7934 177.678 88.3691 177.678C87.9018 177.678 87.4975 177.794 87.1561 178.026C86.818 178.254 86.5578 178.553 86.3755 178.92C86.1932 179.288 86.1021 179.683 86.1021 180.104V180.78C86.1021 181.357 86.2015 181.845 86.4004 182.246C86.6026 182.644 86.8826 182.947 87.2406 183.156C87.5985 183.362 88.0145 183.464 88.4885 183.464C88.7967 183.464 89.0751 183.421 89.3237 183.335C89.5756 183.246 89.7927 183.113 89.975 182.938C90.1573 182.759 90.2981 182.536 90.3975 182.271L91.5311 182.589C91.4118 182.974 91.2112 183.312 90.9295 183.604C90.6478 183.892 90.2998 184.117 89.8855 184.28C89.4712 184.439 89.0055 184.518 88.4885 184.518ZM100.932 174.178V184.359H99.6994V175.47H99.6397L97.1539 177.121V175.868L99.6994 174.178H100.932Z" fill="url(#paint15_linear_82_135)"/>
</g>
<rect x="34.4222" y="126.782" width="108.156" height="71.1556" rx="16.4666" stroke="url(#paint16_linear_82_135)" stroke-opacity="0.1" stroke-width="0.844443" shape-rendering="crispEdges"/>
</g>
<path d="M176.556 156.359C177.004 156.359 177.436 156.529 177.765 156.834C178.094 157.139 178.295 157.557 178.329 158.004L178.333 158.137V162.582H179.667C179.998 162.582 180.318 162.705 180.563 162.928C180.808 163.151 180.962 163.457 180.994 163.787L181 163.915V170.582C181 171.262 180.74 171.916 180.274 172.411C179.807 172.906 179.169 173.204 178.49 173.244L178.333 173.248H166.778C166.329 173.248 165.897 173.079 165.568 172.774C165.24 172.469 165.038 172.051 165.004 171.604L165 171.47V158.137C165 157.689 165.169 157.257 165.474 156.928C165.779 156.599 166.197 156.397 166.644 156.364L166.778 156.359H176.556ZM179.222 164.359H178.333V171.47C178.569 171.47 178.795 171.377 178.962 171.21C179.129 171.043 179.222 170.817 179.222 170.582V164.359ZM172.111 165.248H169.444C169.218 165.249 169 165.335 168.835 165.491C168.67 165.646 168.571 165.859 168.558 166.085C168.545 166.311 168.618 166.534 168.764 166.708C168.909 166.881 169.115 166.993 169.34 167.02L169.444 167.026H172.111C172.338 167.026 172.556 166.939 172.72 166.784C172.885 166.628 172.984 166.415 172.997 166.189C173.011 165.963 172.937 165.74 172.792 165.567C172.646 165.393 172.44 165.281 172.215 165.254L172.111 165.248ZM173.889 160.804H169.444C169.209 160.804 168.983 160.897 168.816 161.064C168.649 161.231 168.556 161.457 168.556 161.693C168.556 161.928 168.649 162.155 168.816 162.321C168.983 162.488 169.209 162.582 169.444 162.582H173.889C174.125 162.582 174.351 162.488 174.517 162.321C174.684 162.155 174.778 161.928 174.778 161.693C174.778 161.457 174.684 161.231 174.517 161.064C174.351 160.897 174.125 160.804 173.889 160.804Z" fill="url(#paint17_linear_82_135)"/>
<path d="M171.801 194.723C171.741 194.219 171.5 193.828 171.075 193.55C170.651 193.271 170.131 193.132 169.514 193.132C169.063 193.132 168.669 193.205 168.331 193.351C167.996 193.497 167.734 193.697 167.545 193.952C167.36 194.208 167.267 194.498 167.267 194.822C167.267 195.094 167.332 195.328 167.461 195.523C167.594 195.716 167.763 195.876 167.968 196.006C168.174 196.132 168.389 196.236 168.614 196.319C168.84 196.398 169.047 196.463 169.236 196.513L170.27 196.791C170.535 196.861 170.83 196.957 171.155 197.08C171.483 197.202 171.796 197.37 172.094 197.582C172.396 197.79 172.645 198.059 172.84 198.387C173.036 198.715 173.134 199.118 173.134 199.595C173.134 200.145 172.989 200.643 172.701 201.087C172.416 201.531 171.998 201.884 171.448 202.146C170.901 202.407 170.237 202.538 169.455 202.538C168.725 202.538 168.094 202.421 167.56 202.185C167.03 201.95 166.612 201.622 166.308 201.201C166.006 200.78 165.835 200.291 165.795 199.734H167.068C167.101 200.119 167.231 200.437 167.456 200.689C167.685 200.937 167.973 201.123 168.321 201.246C168.672 201.365 169.05 201.425 169.455 201.425C169.925 201.425 170.348 201.348 170.722 201.196C171.097 201.04 171.393 200.825 171.612 200.55C171.831 200.271 171.94 199.946 171.94 199.575C171.94 199.237 171.846 198.962 171.657 198.75C171.468 198.538 171.219 198.366 170.911 198.233C170.603 198.1 170.27 197.984 169.912 197.885L168.659 197.527C167.864 197.298 167.234 196.972 166.77 196.548C166.306 196.123 166.074 195.568 166.074 194.882C166.074 194.312 166.228 193.815 166.536 193.391C166.848 192.963 167.265 192.632 167.789 192.396C168.316 192.158 168.904 192.038 169.554 192.038C170.21 192.038 170.794 192.156 171.304 192.391C171.814 192.623 172.219 192.942 172.517 193.346C172.819 193.75 172.978 194.209 172.994 194.723H171.801ZM178.104 202.518C177.414 202.518 176.81 202.354 176.289 202.026C175.772 201.698 175.368 201.239 175.076 200.649C174.788 200.059 174.644 199.37 174.644 198.581C174.644 197.786 174.788 197.091 175.076 196.498C175.368 195.905 175.772 195.444 176.289 195.116C176.81 194.788 177.414 194.624 178.104 194.624C178.793 194.624 179.396 194.788 179.914 195.116C180.434 195.444 180.838 195.905 181.127 196.498C181.418 197.091 181.564 197.786 181.564 198.581C181.564 199.37 181.418 200.059 181.127 200.649C180.838 201.239 180.434 201.698 179.914 202.026C179.396 202.354 178.793 202.518 178.104 202.518ZM178.104 201.464C178.628 201.464 179.058 201.33 179.396 201.062C179.735 200.793 179.985 200.44 180.147 200.003C180.31 199.565 180.391 199.091 180.391 198.581C180.391 198.071 180.31 197.595 180.147 197.154C179.985 196.713 179.735 196.357 179.396 196.085C179.058 195.813 178.628 195.678 178.104 195.678C177.58 195.678 177.149 195.813 176.811 196.085C176.473 196.357 176.223 196.713 176.061 197.154C175.898 197.595 175.817 198.071 175.817 198.581C175.817 199.091 175.898 199.565 176.061 200.003C176.223 200.44 176.473 200.793 176.811 201.062C177.149 201.33 177.58 201.464 178.104 201.464ZM188.168 199.237V194.723H189.341V202.359H188.168V201.067H188.088C187.909 201.455 187.631 201.784 187.253 202.056C186.875 202.325 186.398 202.459 185.821 202.459C185.344 202.459 184.92 202.354 184.548 202.146C184.177 201.933 183.885 201.615 183.673 201.191C183.461 200.763 183.355 200.225 183.355 199.575V194.723H184.528V199.496C184.528 200.053 184.684 200.497 184.996 200.828C185.311 201.16 185.712 201.325 186.199 201.325C186.491 201.325 186.787 201.251 187.089 201.102C187.394 200.952 187.649 200.724 187.854 200.415C188.063 200.107 188.168 199.714 188.168 199.237ZM191.49 202.359V194.723H192.623V195.876H192.703C192.842 195.499 193.094 195.192 193.459 194.957C193.823 194.721 194.234 194.604 194.692 194.604C194.778 194.604 194.885 194.605 195.015 194.609C195.144 194.612 195.242 194.617 195.308 194.624V195.817C195.268 195.807 195.177 195.792 195.035 195.772C194.895 195.749 194.748 195.737 194.592 195.737C194.221 195.737 193.89 195.815 193.598 195.971C193.309 196.123 193.081 196.335 192.912 196.607C192.746 196.876 192.663 197.182 192.663 197.527V202.359H191.49ZM199.569 202.518C198.853 202.518 198.236 202.349 197.719 202.011C197.202 201.673 196.805 201.208 196.526 200.614C196.248 200.021 196.108 199.343 196.108 198.581C196.108 197.805 196.251 197.121 196.536 196.528C196.824 195.931 197.225 195.465 197.739 195.131C198.256 194.793 198.859 194.624 199.549 194.624C200.086 194.624 200.57 194.723 201.001 194.922C201.431 195.121 201.784 195.399 202.059 195.757C202.335 196.115 202.505 196.533 202.572 197.01H201.398C201.309 196.662 201.11 196.354 200.802 196.085C200.497 195.813 200.086 195.678 199.569 195.678C199.111 195.678 198.71 195.797 198.366 196.036C198.024 196.271 197.757 196.604 197.565 197.035C197.376 197.462 197.282 197.964 197.282 198.541C197.282 199.131 197.375 199.645 197.56 200.082C197.749 200.52 198.014 200.86 198.356 201.102C198.7 201.344 199.105 201.464 199.569 201.464C199.874 201.464 200.15 201.411 200.399 201.305C200.648 201.199 200.858 201.047 201.03 200.848C201.203 200.649 201.325 200.411 201.398 200.132H202.572C202.505 200.583 202.341 200.989 202.079 201.35C201.821 201.708 201.478 201.993 201.05 202.205C200.626 202.414 200.132 202.518 199.569 202.518ZM207.488 202.518C206.753 202.518 206.118 202.356 205.584 202.031C205.054 201.703 204.645 201.246 204.356 200.659C204.071 200.069 203.929 199.383 203.929 198.601C203.929 197.819 204.071 197.129 204.356 196.533C204.645 195.933 205.046 195.465 205.559 195.131C206.077 194.793 206.68 194.624 207.369 194.624C207.767 194.624 208.16 194.69 208.547 194.822C208.935 194.955 209.288 195.17 209.606 195.469C209.925 195.764 210.178 196.155 210.367 196.642C210.556 197.129 210.65 197.729 210.65 198.442V198.939H204.764V197.925H209.457C209.457 197.494 209.371 197.109 209.199 196.771C209.03 196.433 208.788 196.166 208.473 195.971C208.161 195.775 207.793 195.678 207.369 195.678C206.902 195.678 206.497 195.794 206.156 196.026C205.818 196.254 205.558 196.553 205.376 196.92C205.193 197.288 205.102 197.683 205.102 198.104V198.78C205.102 199.357 205.202 199.845 205.4 200.246C205.603 200.644 205.883 200.947 206.241 201.156C206.599 201.362 207.015 201.464 207.488 201.464C207.797 201.464 208.075 201.421 208.324 201.335C208.576 201.246 208.793 201.113 208.975 200.938C209.157 200.759 209.298 200.536 209.398 200.271L210.531 200.589C210.412 200.974 210.211 201.312 209.93 201.604C209.648 201.892 209.3 202.117 208.885 202.28C208.471 202.439 208.006 202.518 207.488 202.518ZM216.353 202.359V201.464L219.714 197.786C220.108 197.355 220.433 196.98 220.688 196.662C220.943 196.34 221.132 196.039 221.255 195.757C221.381 195.472 221.444 195.174 221.444 194.862C221.444 194.504 221.358 194.194 221.185 193.933C221.016 193.671 220.784 193.469 220.489 193.326C220.194 193.183 219.863 193.112 219.495 193.112C219.104 193.112 218.762 193.193 218.471 193.356C218.182 193.515 217.959 193.739 217.8 194.027C217.644 194.315 217.566 194.653 217.566 195.041H216.393C216.393 194.445 216.53 193.921 216.805 193.47C217.08 193.019 217.455 192.668 217.929 192.416C218.406 192.164 218.941 192.038 219.535 192.038C220.131 192.038 220.66 192.164 221.121 192.416C221.581 192.668 221.943 193.008 222.204 193.435C222.466 193.863 222.597 194.339 222.597 194.862C222.597 195.237 222.529 195.603 222.393 195.961C222.261 196.316 222.029 196.712 221.697 197.149C221.369 197.583 220.913 198.114 220.33 198.74L218.043 201.186V201.266H222.776V202.359H216.353Z" fill="url(#paint18_linear_82_135)"/>
<g filter="url(#filter9_ddd_82_135)">
<rect x="81" y="124.359" width="16" height="16" rx="8" fill="url(#paint19_linear_82_135)"/>
<rect x="81.5" y="124.859" width="15" height="15" rx="7.5" stroke="white"/>
<rect x="81.5" y="124.859" width="15" height="15" rx="7.5" stroke="url(#paint20_linear_82_135)" stroke-opacity="0.9"/>
<path d="M88.4993 131.65V128.95H89.3993V131.65H92.0991V132.55H89.3993V135.25H88.4993V132.55H85.7994V131.65H88.4993Z" fill="white"/>
</g>
<g filter="url(#filter10_ddd_82_135)">
<rect x="319" y="123.359" width="16" height="16" rx="8" fill="url(#paint21_linear_82_135)"/>
<rect x="319.5" y="123.859" width="15" height="15" rx="7.5" stroke="white"/>
<rect x="319.5" y="123.859" width="15" height="15" rx="7.5" stroke="url(#paint22_linear_82_135)" stroke-opacity="0.9"/>
<path d="M326.499 130.65V127.95H327.399V130.65H330.099V131.55H327.399V134.25H326.499V131.55H323.799V130.65H326.499Z" fill="white"/>
</g>
<defs>
<filter id="filter0_di_82_135" x="49" y="-74" width="317" height="280" filterUnits="userSpaceOnUse" color-interpolation-filters="sRGB">
<feFlood flood-opacity="0" result="BackgroundImageFix"/>
<feColorMatrix in="SourceAlpha" type="matrix" values="0 0 0 0 0 0 0 0 0 0 0 0 0 0 0 0 0 0 127 0" result="hardAlpha"/>
<feOffset dy="4"/>
<feGaussianBlur stdDeviation="17"/>
<feComposite in2="hardAlpha" operator="out"/>
<feColorMatrix type="matrix" values="0 0 0 0 0 0 0 0 0 0 0 0 0 0 0 0 0 0 0.25 0"/>
<feBlend mode="normal" in2="BackgroundImageFix" result="effect1_dropShadow_82_135"/>
<feBlend mode="normal" in="SourceGraphic" in2="effect1_dropShadow_82_135" result="shape"/>
<feColorMatrix in="SourceAlpha" type="matrix" values="0 0 0 0 0 0 0 0 0 0 0 0 0 0 0 0 0 0 127 0" result="hardAlpha"/>
<feOffset/>
<feGaussianBlur stdDeviation="10"/>
<feComposite in2="hardAlpha" operator="arithmetic" k2="-1" k3="1"/>
<feColorMatrix type="matrix" values="0 0 0 0 1 0 0 0 0 1 0 0 0 0 1 0 0 0 0.06 0"/>
<feBlend mode="normal" in2="shape" result="effect2_innerShadow_82_135"/>
</filter>
<filter id="filter1_f_82_135" x="116" y="-56" width="295" height="276" filterUnits="userSpaceOnUse" color-interpolation-filters="sRGB">
<feFlood flood-opacity="0" result="BackgroundImageFix"/>
<feBlend mode="normal" in="SourceGraphic" in2="BackgroundImageFix" result="shape"/>
<feGaussianBlur stdDeviation="50" result="effect1_foregroundBlur_82_135"/>
</filter>
<filter id="filter2_di_82_135" x="49" y="40.3594" width="317" height="280" filterUnits="userSpaceOnUse" color-interpolation-filters="sRGB">
<feFlood flood-opacity="0" result="BackgroundImageFix"/>
<feColorMatrix in="SourceAlpha" type="matrix" values="0 0 0 0 0 0 0 0 0 0 0 0 0 0 0 0 0 0 127 0" result="hardAlpha"/>
<feOffset dy="4"/>
<feGaussianBlur stdDeviation="17"/>
<feComposite in2="hardAlpha" operator="out"/>
<feColorMatrix type="matrix" values="0 0 0 0 0 0 0 0 0 0 0 0 0 0 0 0 0 0 0.25 0"/>
<feBlend mode="normal" in2="BackgroundImageFix" result="effect1_dropShadow_82_135"/>
<feBlend mode="normal" in="SourceGraphic" in2="effect1_dropShadow_82_135" result="shape"/>
<feColorMatrix in="SourceAlpha" type="matrix" values="0 0 0 0 0 0 0 0 0 0 0 0 0 0 0 0 0 0 127 0" result="hardAlpha"/>
<feOffset/>
<feGaussianBlur stdDeviation="10"/>
<feComposite in2="hardAlpha" operator="arithmetic" k2="-1" k3="1"/>
<feColorMatrix type="matrix" values="0 0 0 0 1 0 0 0 0 1 0 0 0 0 1 0 0 0 0.06 0"/>
<feBlend mode="normal" in2="shape" result="effect2_innerShadow_82_135"/>
</filter>
<filter id="filter3_di_82_135" x="168" y="22.3594" width="317" height="280" filterUnits="userSpaceOnUse" color-interpolation-filters="sRGB">
<feFlood flood-opacity="0" result="BackgroundImageFix"/>
<feColorMatrix in="SourceAlpha" type="matrix" values="0 0 0 0 0 0 0 0 0 0 0 0 0 0 0 0 0 0 127 0" result="hardAlpha"/>
<feOffset dy="4"/>
<feGaussianBlur stdDeviation="17"/>
<feComposite in2="hardAlpha" operator="out"/>
<feColorMatrix type="matrix" values="0 0 0 0 0 0 0 0 0 0 0 0 0 0 0 0 0 0 0.25 0"/>
<feBlend mode="normal" in2="BackgroundImageFix" result="effect1_dropShadow_82_135"/>
<feBlend mode="normal" in="SourceGraphic" in2="effect1_dropShadow_82_135" result="shape"/>
<feColorMatrix in="SourceAlpha" type="matrix" values="0 0 0 0 0 0 0 0 0 0 0 0 0 0 0 0 0 0 127 0" result="hardAlpha"/>
<feOffset/>
<feGaussianBlur stdDeviation="10"/>
<feComposite in2="hardAlpha" operator="arithmetic" k2="-1" k3="1"/>
<feColorMatrix type="matrix" values="0 0 0 0 1 0 0 0 0 1 0 0 0 0 1 0 0 0 0.06 0"/>
<feBlend mode="normal" in2="shape" result="effect2_innerShadow_82_135"/>
</filter>
<filter id="filter4_f_82_135" x="249" y="51.3594" width="162" height="150" filterUnits="userSpaceOnUse" color-interpolation-filters="sRGB">
<feFlood flood-opacity="0" result="BackgroundImageFix"/>
<feBlend mode="normal" in="SourceGraphic" in2="BackgroundImageFix" result="shape"/>
<feGaussianBlur stdDeviation="25" result="effect1_foregroundBlur_82_135"/>
</filter>
<filter id="filter5_i_82_135" x="284" y="138.359" width="16" height="20.4445" filterUnits="userSpaceOnUse" color-interpolation-filters="sRGB">
<feFlood flood-opacity="0" result="BackgroundImageFix"/>
<feBlend mode="normal" in="SourceGraphic" in2="BackgroundImageFix" result="shape"/>
<feColorMatrix in="SourceAlpha" type="matrix" values="0 0 0 0 0 0 0 0 0 0 0 0 0 0 0 0 0 0 127 0" result="hardAlpha"/>
<feOffset dy="3.55556"/>
<feGaussianBlur stdDeviation="1.77778"/>
<feComposite in2="hardAlpha" operator="arithmetic" k2="-1" k3="1"/>
<feColorMatrix type="matrix" values="0 0 0 0 1 0 0 0 0 1 0 0 0 0 1 0 0 0 0.25 0"/>
<feBlend mode="normal" in2="shape" result="effect1_innerShadow_82_135"/>
</filter>
<filter id="filter6_di_82_135" x="-70" y="22.3594" width="317" height="280" filterUnits="userSpaceOnUse" color-interpolation-filters="sRGB">
<feFlood flood-opacity="0" result="BackgroundImageFix"/>
<feColorMatrix in="SourceAlpha" type="matrix" values="0 0 0 0 0 0 0 0 0 0 0 0 0 0 0 0 0 0 127 0" result="hardAlpha"/>
<feOffset dy="4"/>
<feGaussianBlur stdDeviation="17"/>
<feComposite in2="hardAlpha" operator="out"/>
<feColorMatrix type="matrix" values="0 0 0 0 0 0 0 0 0 0 0 0 0 0 0 0 0 0 0.25 0"/>
<feBlend mode="normal" in2="BackgroundImageFix" result="effect1_dropShadow_82_135"/>
<feBlend mode="normal" in="SourceGraphic" in2="effect1_dropShadow_82_135" result="shape"/>
<feColorMatrix in="SourceAlpha" type="matrix" values="0 0 0 0 0 0 0 0 0 0 0 0 0 0 0 0 0 0 127 0" result="hardAlpha"/>
<feOffset/>
<feGaussianBlur stdDeviation="10"/>
<feComposite in2="hardAlpha" operator="arithmetic" k2="-1" k3="1"/>
<feColorMatrix type="matrix" values="0 0 0 0 1 0 0 0 0 1 0 0 0 0 1 0 0 0 0.06 0"/>
<feBlend mode="normal" in2="shape" result="effect2_innerShadow_82_135"/>
</filter>
<filter id="filter7_i_82_135" x="46" y="139.359" width="16" height="20.4445" filterUnits="userSpaceOnUse" color-interpolation-filters="sRGB">
<feFlood flood-opacity="0" result="BackgroundImageFix"/>
<feBlend mode="normal" in="SourceGraphic" in2="BackgroundImageFix" result="shape"/>
<feColorMatrix in="SourceAlpha" type="matrix" values="0 0 0 0 0 0 0 0 0 0 0 0 0 0 0 0 0 0 127 0" result="hardAlpha"/>
<feOffset dy="3.55556"/>
<feGaussianBlur stdDeviation="1.77778"/>
<feComposite in2="hardAlpha" operator="arithmetic" k2="-1" k3="1"/>
<feColorMatrix type="matrix" values="0 0 0 0 1 0 0 0 0 1 0 0 0 0 1 0 0 0 0.25 0"/>
<feBlend mode="normal" in2="shape" result="effect1_innerShadow_82_135"/>
</filter>
<filter id="filter8_f_82_135" x="6" y="51.3594" width="162" height="150" filterUnits="userSpaceOnUse" color-interpolation-filters="sRGB">
<feFlood flood-opacity="0" result="BackgroundImageFix"/>
<feBlend mode="normal" in="SourceGraphic" in2="BackgroundImageFix" result="shape"/>
<feGaussianBlur stdDeviation="25" result="effect1_foregroundBlur_82_135"/>
</filter>
<filter id="filter9_ddd_82_135" x="-23" y="20.3594" width="224" height="224" filterUnits="userSpaceOnUse" color-interpolation-filters="sRGB">
<feFlood flood-opacity="0" result="BackgroundImageFix"/>
<feColorMatrix in="SourceAlpha" type="matrix" values="0 0 0 0 0 0 0 0 0 0 0 0 0 0 0 0 0 0 127 0" result="hardAlpha"/>
<feOffset dy="0.666667"/>
<feGaussianBlur stdDeviation="0.333333"/>
<feColorMatrix type="matrix" values="0 0 0 0 0 0 0 0 0 0 0 0 0 0 0 0 0 0 0.02 0"/>
<feBlend mode="normal" in2="BackgroundImageFix" result="effect1_dropShadow_82_135"/>
<feColorMatrix in="SourceAlpha" type="matrix" values="0 0 0 0 0 0 0 0 0 0 0 0 0 0 0 0 0 0 127 0" result="hardAlpha"/>
<feOffset dy="1.33333"/>
<feGaussianBlur stdDeviation="0.666667"/>
<feColorMatrix type="matrix" values="0 0 0 0 0 0 0 0 0 0 0 0 0 0 0 0 0 0 0.02 0"/>
<feBlend mode="normal" in2="effect1_dropShadow_82_135" result="effect2_dropShadow_82_135"/>
<feColorMatrix in="SourceAlpha" type="matrix" values="0 0 0 0 0 0 0 0 0 0 0 0 0 0 0 0 0 0 127 0" result="hardAlpha"/>
<feOffset dy="4"/>
<feGaussianBlur stdDeviation="1"/>
<feColorMatrix type="matrix" values="0 0 0 0 0 0 0 0 0 0 0 0 0 0 0 0 0 0 0.01 0"/>
<feBlend mode="normal" in2="effect2_dropShadow_82_135" result="effect3_dropShadow_82_135"/>
<feBlend mode="normal" in="SourceGraphic" in2="effect3_dropShadow_82_135" result="shape"/>
</filter>
<filter id="filter10_ddd_82_135" x="215" y="19.3594" width="224" height="224" filterUnits="userSpaceOnUse" color-interpolation-filters="sRGB">
<feFlood flood-opacity="0" result="BackgroundImageFix"/>
<feColorMatrix in="SourceAlpha" type="matrix" values="0 0 0 0 0 0 0 0 0 0 0 0 0 0 0 0 0 0 127 0" result="hardAlpha"/>
<feOffset dy="0.666667"/>
<feGaussianBlur stdDeviation="0.333333"/>
<feColorMatrix type="matrix" values="0 0 0 0 0 0 0 0 0 0 0 0 0 0 0 0 0 0 0.02 0"/>
<feBlend mode="normal" in2="BackgroundImageFix" result="effect1_dropShadow_82_135"/>
<feColorMatrix in="SourceAlpha" type="matrix" values="0 0 0 0 0 0 0 0 0 0 0 0 0 0 0 0 0 0 127 0" result="hardAlpha"/>
<feOffset dy="1.33333"/>
<feGaussianBlur stdDeviation="0.666667"/>
<feColorMatrix type="matrix" values="0 0 0 0 0 0 0 0 0 0 0 0 0 0 0 0 0 0 0.02 0"/>
<feBlend mode="normal" in2="effect1_dropShadow_82_135" result="effect2_dropShadow_82_135"/>
<feColorMatrix in="SourceAlpha" type="matrix" values="0 0 0 0 0 0 0 0 0 0 0 0 0 0 0 0 0 0 127 0" result="hardAlpha"/>
<feOffset dy="4"/>
<feGaussianBlur stdDeviation="1"/>
<feColorMatrix type="matrix" values="0 0 0 0 0 0 0 0 0 0 0 0 0 0 0 0 0 0 0.01 0"/>
<feBlend mode="normal" in2="effect2_dropShadow_82_135" result="effect3_dropShadow_82_135"/>
<feBlend mode="normal" in="SourceGraphic" in2="effect3_dropShadow_82_135" result="shape"/>
</filter>
<linearGradient id="paint0_linear_82_135" x1="148.932" y1="20.1575" x2="270.188" y2="97.5433" gradientUnits="userSpaceOnUse">
<stop stop-color="white"/>
<stop offset="0.475" stop-color="white" stop-opacity="0.3"/>
<stop offset="1" stop-color="white"/>
</linearGradient>
<linearGradient id="paint1_linear_82_135" x1="173" y1="37" x2="174.5" y2="60.5" gradientUnits="userSpaceOnUse">
<stop stop-color="white" stop-opacity="0.5"/>
<stop offset="1" stop-color="white" stop-opacity="0.09"/>
</linearGradient>
<linearGradient id="paint2_linear_82_135" x1="198.5" y1="75" x2="198.5" y2="90" gradientUnits="userSpaceOnUse">
<stop stop-color="white" stop-opacity="0.7"/>
<stop offset="1" stop-color="white" stop-opacity="0.19"/>
</linearGradient>
<linearGradient id="paint3_linear_82_135" x1="153" y1="16.9606" x2="242.363" y2="120.253" gradientUnits="userSpaceOnUse">
<stop stop-color="white"/>
<stop offset="1" stop-color="white" stop-opacity="0"/>
</linearGradient>
<linearGradient id="paint4_linear_82_135" x1="148.932" y1="134.517" x2="270.188" y2="211.903" gradientUnits="userSpaceOnUse">
<stop stop-color="white"/>
<stop offset="0.475" stop-color="white" stop-opacity="0.3"/>
<stop offset="1" stop-color="white"/>
</linearGradient>
<linearGradient id="paint5_linear_82_135" x1="153" y1="131.32" x2="242.363" y2="234.613" gradientUnits="userSpaceOnUse">
<stop stop-color="white"/>
<stop offset="1" stop-color="white" stop-opacity="0"/>
</linearGradient>
<linearGradient id="paint6_linear_82_135" x1="267.932" y1="116.517" x2="389.188" y2="193.903" gradientUnits="userSpaceOnUse">
<stop stop-color="white"/>
<stop offset="0.475" stop-color="white" stop-opacity="0.3"/>
<stop offset="1" stop-color="white"/>
</linearGradient>
<linearGradient id="paint7_linear_82_135" x1="282.735" y1="71.4286" x2="331.778" y2="170.323" gradientUnits="userSpaceOnUse">
<stop stop-color="#5672FF"/>
<stop offset="1" stop-color="#AA18FF"/>
</linearGradient>
<linearGradient id="paint8_linear_82_135" x1="279.802" y1="128.249" x2="298.81" y2="157.532" gradientUnits="userSpaceOnUse">
<stop stop-color="#5672FF"/>
<stop offset="1" stop-color="#AA18FF"/>
</linearGradient>
<linearGradient id="paint9_linear_82_135" x1="314" y1="171.359" x2="314" y2="186.359" gradientUnits="userSpaceOnUse">
<stop stop-color="white" stop-opacity="0.7"/>
<stop offset="1" stop-color="white" stop-opacity="0.19"/>
</linearGradient>
<linearGradient id="paint10_linear_82_135" x1="272" y1="113.32" x2="361.363" y2="216.613" gradientUnits="userSpaceOnUse">
<stop stop-color="white"/>
<stop offset="1" stop-color="white" stop-opacity="0"/>
</linearGradient>
<linearGradient id="paint11_linear_82_135" x1="18.6759" y1="77.2175" x2="29.2973" y2="179.617" gradientUnits="userSpaceOnUse">
<stop stop-color="#5672FF"/>
<stop offset="1" stop-color="#AA18FF"/>
</linearGradient>
<linearGradient id="paint12_linear_82_135" x1="29.9323" y1="116.517" x2="151.188" y2="193.903" gradientUnits="userSpaceOnUse">
<stop stop-color="white"/>
<stop offset="0.475" stop-color="white" stop-opacity="0.3"/>
<stop offset="1" stop-color="white"/>
</linearGradient>
<linearGradient id="paint13_linear_82_135" x1="41.8025" y1="129.249" x2="60.8095" y2="158.532" gradientUnits="userSpaceOnUse">
<stop stop-color="#5672FF"/>
<stop offset="1" stop-color="#AA18FF"/>
</linearGradient>
<linearGradient id="paint14_linear_82_135" x1="39.7346" y1="71.4286" x2="88.7781" y2="170.323" gradientUnits="userSpaceOnUse">
<stop stop-color="#5672FF"/>
<stop offset="1" stop-color="#AA18FF"/>
</linearGradient>
<linearGradient id="paint15_linear_82_135" x1="74.5" y1="171.359" x2="74.5" y2="186.359" gradientUnits="userSpaceOnUse">
<stop stop-color="white" stop-opacity="0.7"/>
<stop offset="1" stop-color="white" stop-opacity="0.19"/>
</linearGradient>
<linearGradient id="paint16_linear_82_135" x1="34" y1="113.32" x2="123.363" y2="216.613" gradientUnits="userSpaceOnUse">
<stop stop-color="white"/>
<stop offset="1" stop-color="white" stop-opacity="0"/>
</linearGradient>
<linearGradient id="paint17_linear_82_135" x1="173" y1="151.534" x2="174.397" y2="174.22" gradientUnits="userSpaceOnUse">
<stop stop-color="white" stop-opacity="0.5"/>
<stop offset="1" stop-color="white" stop-opacity="0.09"/>
</linearGradient>
<linearGradient id="paint18_linear_82_135" x1="194.5" y1="189.359" x2="194.5" y2="204.359" gradientUnits="userSpaceOnUse">
<stop stop-color="white" stop-opacity="0.7"/>
<stop offset="1" stop-color="white" stop-opacity="0.19"/>
</linearGradient>
<linearGradient id="paint19_linear_82_135" x1="76.8025" y1="114.782" x2="94.396" y2="143.392" gradientUnits="userSpaceOnUse">
<stop stop-color="#5672FF"/>
<stop offset="1" stop-color="#AA18FF"/>
</linearGradient>
<linearGradient id="paint20_linear_82_135" x1="76.8025" y1="114.782" x2="94.396" y2="143.392" gradientUnits="userSpaceOnUse">
<stop stop-color="#5672FF"/>
<stop offset="1" stop-color="#AA18FF"/>
</linearGradient>
<linearGradient id="paint21_linear_82_135" x1="314.802" y1="113.782" x2="332.396" y2="142.392" gradientUnits="userSpaceOnUse">
<stop stop-color="#5672FF"/>
<stop offset="1" stop-color="#AA18FF"/>
</linearGradient>
<linearGradient id="paint22_linear_82_135" x1="314.802" y1="113.782" x2="332.396" y2="142.392" gradientUnits="userSpaceOnUse">
<stop stop-color="#5672FF"/>
<stop offset="1" stop-color="#AA18FF"/>
</linearGradient>
<clipPath id="clip0_82_135">
<rect x="153" y="30" width="109" height="72" rx="16.8889" fill="white"/>
</clipPath>
<clipPath id="clip1_82_135">
<rect x="272" y="126.359" width="109" height="72" rx="16.8889" fill="white"/>
</clipPath>
<clipPath id="clip2_82_135">
<rect x="34" y="126.359" width="109" height="72" rx="16.8889" fill="white"/>
</clipPath>
</defs>
</svg>
