<svg width="435" height="270" viewBox="0 0 435 270" fill="none" xmlns="http://www.w3.org/2000/svg">
<g filter="url(#filter0_di_76_131)">
<g clip-path="url(#clip0_76_131)">
<rect x="34" y="30" width="326.799" height="56" rx="16.8889" fill="url(#paint0_linear_76_131)" fill-opacity="0.06" shape-rendering="crispEdges"/>
<path fill-rule="evenodd" clip-rule="evenodd" d="M49.0022 54.625H66.9977C66.9842 52.1781 66.8763 50.8529 66.0111 49.9889C65.0234 49 63.4315 49 60.25 49H55.75C52.5685 49 50.9766 49 49.9889 49.9889C49.1238 50.8529 49.0157 52.1781 49.0022 54.625ZM67 56.875H49V60.25C49 63.4315 49 65.0234 49.9889 66.0111C50.9766 67 52.5685 67 55.75 67H60.25C63.4315 67 65.0234 67 66.0111 66.0111C67 65.0234 67 63.4315 67 60.25V56.875Z" fill="url(#paint1_linear_76_131)"/>
<path d="M88.2784 64V52.3636H92.5398C93.3655 52.3636 94.0492 52.5 94.5909 52.7727C95.1326 53.0417 95.5379 53.4072 95.8068 53.8693C96.0758 54.3277 96.2102 54.8447 96.2102 55.4205C96.2102 55.9053 96.1212 56.3144 95.9432 56.6477C95.7652 56.9773 95.5265 57.2424 95.2273 57.4432C94.9318 57.6402 94.6061 57.7841 94.25 57.875V57.9886C94.6364 58.0076 95.0133 58.1326 95.3807 58.3636C95.7519 58.5909 96.0587 58.9148 96.3011 59.3352C96.5436 59.7557 96.6648 60.267 96.6648 60.8693C96.6648 61.464 96.5246 61.9981 96.2443 62.4716C95.9678 62.9413 95.5398 63.3144 94.9602 63.5909C94.3807 63.8636 93.6402 64 92.7386 64H88.2784ZM90.0341 62.4943H92.5682C93.4091 62.4943 94.0114 62.3314 94.375 62.0057C94.7386 61.6799 94.9205 61.2727 94.9205 60.7841C94.9205 60.4167 94.8277 60.0795 94.642 59.7727C94.4564 59.4659 94.1913 59.2216 93.8466 59.0398C93.5057 58.858 93.1004 58.767 92.6307 58.767H90.0341V62.4943ZM90.0341 57.3977H92.3864C92.7803 57.3977 93.1345 57.322 93.4489 57.1705C93.767 57.0189 94.0189 56.8068 94.2045 56.5341C94.3939 56.2576 94.4886 55.9318 94.4886 55.5568C94.4886 55.0758 94.3201 54.6723 93.983 54.3466C93.6458 54.0208 93.1288 53.858 92.4318 53.858H90.0341V57.3977ZM98.6108 64V55.2727H100.253V56.6591H100.344C100.503 56.1894 100.783 55.8201 101.185 55.5511C101.59 55.2784 102.048 55.142 102.56 55.142C102.666 55.142 102.791 55.1458 102.935 55.1534C103.082 55.161 103.198 55.1705 103.281 55.1818V56.8068C103.213 56.7879 103.092 56.767 102.918 56.7443C102.743 56.7178 102.569 56.7045 102.395 56.7045C101.993 56.7045 101.635 56.7898 101.321 56.9602C101.01 57.1269 100.764 57.3598 100.582 57.6591C100.401 57.9545 100.31 58.2917 100.31 58.6705V64H98.6108ZM108.2 64.1761C107.34 64.1761 106.6 63.9924 105.979 63.625C105.361 63.2538 104.884 62.733 104.547 62.0625C104.214 61.3883 104.047 60.5985 104.047 59.6932C104.047 58.7992 104.214 58.0114 104.547 57.3295C104.884 56.6477 105.354 56.1155 105.956 55.733C106.562 55.3504 107.27 55.1591 108.081 55.1591C108.573 55.1591 109.051 55.2405 109.513 55.4034C109.975 55.5663 110.39 55.822 110.757 56.1705C111.125 56.5189 111.414 56.9716 111.626 57.5284C111.839 58.0814 111.945 58.7538 111.945 59.5455V60.1477H105.007V58.875H110.28C110.28 58.428 110.189 58.0322 110.007 57.6875C109.825 57.339 109.57 57.0644 109.24 56.8636C108.914 56.6629 108.532 56.5625 108.092 56.5625C107.615 56.5625 107.198 56.6799 106.842 56.9148C106.49 57.1458 106.217 57.4489 106.024 57.8239C105.835 58.1951 105.74 58.5985 105.74 59.0341V60.0284C105.74 60.6117 105.842 61.108 106.047 61.517C106.255 61.9261 106.545 62.2386 106.916 62.4545C107.287 62.6667 107.721 62.7727 108.217 62.7727C108.539 62.7727 108.833 62.7273 109.098 62.6364C109.363 62.5417 109.592 62.4015 109.786 62.2159C109.979 62.0303 110.126 61.8011 110.229 61.5284L111.837 61.8182C111.708 62.2917 111.477 62.7064 111.143 63.0625C110.814 63.4148 110.399 63.6894 109.899 63.8864C109.403 64.0795 108.837 64.1761 108.2 64.1761ZM116.369 64.1932C115.816 64.1932 115.316 64.0909 114.869 63.8864C114.422 63.678 114.068 63.3769 113.807 62.983C113.549 62.589 113.42 62.1061 113.42 61.5341C113.42 61.0417 113.515 60.6364 113.705 60.3182C113.894 60 114.15 59.7481 114.472 59.5625C114.794 59.3769 115.153 59.2367 115.551 59.142C115.949 59.0473 116.354 58.9754 116.767 58.9261C117.29 58.8655 117.714 58.8163 118.04 58.7784C118.366 58.7367 118.602 58.6705 118.75 58.5795C118.898 58.4886 118.972 58.3409 118.972 58.1364V58.0966C118.972 57.6004 118.831 57.2159 118.551 56.9432C118.275 56.6705 117.862 56.5341 117.312 56.5341C116.741 56.5341 116.29 56.661 115.96 56.9148C115.634 57.1648 115.409 57.4432 115.284 57.75L113.688 57.3864C113.877 56.8561 114.153 56.428 114.517 56.1023C114.884 55.7727 115.307 55.5341 115.784 55.3864C116.261 55.2348 116.763 55.1591 117.29 55.1591C117.638 55.1591 118.008 55.2008 118.398 55.2841C118.792 55.3636 119.159 55.5114 119.5 55.7273C119.845 55.9432 120.127 56.2519 120.347 56.6534C120.566 57.0511 120.676 57.5682 120.676 58.2045V64H119.017V62.8068H118.949C118.839 63.0265 118.674 63.2424 118.455 63.4545C118.235 63.6667 117.953 63.8428 117.608 63.983C117.263 64.1231 116.85 64.1932 116.369 64.1932ZM116.739 62.8295C117.208 62.8295 117.61 62.7367 117.943 62.5511C118.28 62.3655 118.536 62.1231 118.71 61.8239C118.888 61.5208 118.977 61.197 118.977 60.8523V59.7273C118.917 59.7879 118.799 59.8447 118.625 59.8977C118.455 59.947 118.259 59.9905 118.04 60.0284C117.82 60.0625 117.606 60.0947 117.398 60.125C117.189 60.1515 117.015 60.1742 116.875 60.1932C116.545 60.2348 116.244 60.3049 115.972 60.4034C115.703 60.5019 115.487 60.6439 115.324 60.8295C115.165 61.0114 115.085 61.2538 115.085 61.5568C115.085 61.9773 115.241 62.2955 115.551 62.5114C115.862 62.7235 116.258 62.8295 116.739 62.8295ZM124.501 61.0398L124.49 58.9659H124.786L128.263 55.2727H130.297L126.331 59.4773H126.064L124.501 61.0398ZM122.939 64V52.3636H124.638V64H122.939ZM128.45 64L125.325 59.8523L126.496 58.6648L130.536 64H128.45ZM131.845 64V55.2727H133.544V64H131.845ZM132.703 53.9261C132.408 53.9261 132.154 53.8277 131.942 53.6307C131.733 53.4299 131.629 53.1913 131.629 52.9148C131.629 52.6345 131.733 52.3958 131.942 52.1989C132.154 51.9981 132.408 51.8977 132.703 51.8977C132.999 51.8977 133.25 51.9981 133.459 52.1989C133.671 52.3958 133.777 52.6345 133.777 52.9148C133.777 53.1913 133.671 53.4299 133.459 53.6307C133.25 53.8277 132.999 53.9261 132.703 53.9261ZM137.528 58.8182V64H135.83V55.2727H137.46V56.6932H137.568C137.769 56.2311 138.083 55.8598 138.511 55.5795C138.943 55.2992 139.487 55.1591 140.142 55.1591C140.737 55.1591 141.258 55.2841 141.705 55.5341C142.152 55.7803 142.498 56.1477 142.744 56.6364C142.991 57.125 143.114 57.7292 143.114 58.4489V64H141.415V58.6534C141.415 58.0208 141.25 57.5265 140.92 57.1705C140.591 56.8106 140.138 56.6307 139.562 56.6307C139.169 56.6307 138.818 56.7159 138.511 56.8864C138.208 57.0568 137.968 57.3068 137.79 57.6364C137.616 57.9621 137.528 58.3561 137.528 58.8182ZM149.051 67.4545C148.358 67.4545 147.761 67.3636 147.261 67.1818C146.765 67 146.36 66.7595 146.045 66.4602C145.731 66.161 145.496 65.8333 145.341 65.4773L146.801 64.875C146.903 65.0417 147.04 65.2178 147.21 65.4034C147.384 65.5928 147.619 65.7538 147.915 65.8864C148.214 66.0189 148.598 66.0852 149.068 66.0852C149.712 66.0852 150.244 65.928 150.665 65.6136C151.085 65.303 151.295 64.8068 151.295 64.125V62.4091H151.188C151.085 62.5947 150.938 62.8011 150.744 63.0284C150.555 63.2557 150.294 63.4527 149.96 63.6193C149.627 63.786 149.193 63.8693 148.659 63.8693C147.97 63.8693 147.348 63.7083 146.795 63.3864C146.246 63.0606 145.811 62.5814 145.489 61.9489C145.17 61.3125 145.011 60.5303 145.011 59.6023C145.011 58.6742 145.169 57.8788 145.483 57.2159C145.801 56.553 146.237 56.0455 146.79 55.6932C147.343 55.3371 147.97 55.1591 148.67 55.1591C149.212 55.1591 149.65 55.25 149.983 55.4318C150.316 55.6098 150.576 55.8182 150.761 56.0568C150.951 56.2955 151.097 56.5057 151.199 56.6875H151.324V55.2727H152.989V64.1932C152.989 64.9432 152.814 65.5587 152.466 66.0398C152.117 66.5208 151.646 66.8769 151.051 67.108C150.46 67.339 149.794 67.4545 149.051 67.4545ZM149.034 62.4602C149.523 62.4602 149.936 62.3466 150.273 62.1193C150.614 61.8883 150.871 61.5587 151.045 61.1307C151.223 60.6989 151.312 60.1818 151.312 59.5795C151.312 58.9924 151.225 58.4754 151.051 58.0284C150.877 57.5814 150.621 57.233 150.284 56.983C149.947 56.7292 149.53 56.6023 149.034 56.6023C148.523 56.6023 148.097 56.7348 147.756 57C147.415 57.2614 147.157 57.6174 146.983 58.0682C146.813 58.5189 146.727 59.0227 146.727 59.5795C146.727 60.1515 146.814 60.6534 146.989 61.0852C147.163 61.517 147.42 61.8542 147.761 62.0966C148.106 62.339 148.53 62.4602 149.034 62.4602ZM169.03 52.3636V64H167.416L161.501 55.4659H161.393V64H159.638V52.3636H161.263L167.183 60.9091H167.291V52.3636H169.03ZM175.216 64.1761C174.356 64.1761 173.616 63.9924 172.994 63.625C172.377 63.2538 171.9 62.733 171.562 62.0625C171.229 61.3883 171.062 60.5985 171.062 59.6932C171.062 58.7992 171.229 58.0114 171.562 57.3295C171.9 56.6477 172.369 56.1155 172.972 55.733C173.578 55.3504 174.286 55.1591 175.097 55.1591C175.589 55.1591 176.066 55.2405 176.528 55.4034C176.991 55.5663 177.405 55.822 177.773 56.1705C178.14 56.5189 178.43 56.9716 178.642 57.5284C178.854 58.0814 178.96 58.7538 178.96 59.5455V60.1477H172.023V58.875H177.295C177.295 58.428 177.205 58.0322 177.023 57.6875C176.841 57.339 176.585 57.0644 176.256 56.8636C175.93 56.6629 175.547 56.5625 175.108 56.5625C174.631 56.5625 174.214 56.6799 173.858 56.9148C173.506 57.1458 173.233 57.4489 173.04 57.8239C172.85 58.1951 172.756 58.5985 172.756 59.0341V60.0284C172.756 60.6117 172.858 61.108 173.062 61.517C173.271 61.9261 173.561 62.2386 173.932 62.4545C174.303 62.6667 174.737 62.7727 175.233 62.7727C175.555 62.7727 175.848 62.7273 176.114 62.6364C176.379 62.5417 176.608 62.4015 176.801 62.2159C176.994 62.0303 177.142 61.8011 177.244 61.5284L178.852 61.8182C178.723 62.2917 178.492 62.7064 178.159 63.0625C177.83 63.4148 177.415 63.6894 176.915 63.8864C176.419 64.0795 175.852 64.1761 175.216 64.1761ZM182.722 64L180.153 55.2727H181.909L183.619 61.6818H183.705L185.42 55.2727H187.176L188.881 61.6534H188.966L190.665 55.2727H192.42L189.858 64H188.125L186.352 57.6989H186.222L184.449 64H182.722ZM200.572 57.4034L199.033 57.6761C198.968 57.4792 198.866 57.2917 198.726 57.1136C198.589 56.9356 198.404 56.7898 198.169 56.6761C197.934 56.5625 197.641 56.5057 197.288 56.5057C196.807 56.5057 196.406 56.6136 196.084 56.8295C195.762 57.0417 195.601 57.3163 195.601 57.6534C195.601 57.9451 195.709 58.1799 195.925 58.358C196.141 58.536 196.489 58.6818 196.97 58.7955L198.357 59.1136C199.16 59.2992 199.758 59.5852 200.152 59.9716C200.546 60.358 200.743 60.8598 200.743 61.4773C200.743 62 200.591 62.4659 200.288 62.875C199.989 63.2803 199.571 63.5985 199.033 63.8295C198.499 64.0606 197.879 64.1761 197.175 64.1761C196.197 64.1761 195.4 63.9678 194.783 63.5511C194.165 63.1307 193.786 62.5341 193.646 61.7614L195.288 61.5114C195.391 61.9394 195.601 62.2633 195.919 62.483C196.237 62.6989 196.652 62.8068 197.163 62.8068C197.72 62.8068 198.165 62.6913 198.499 62.4602C198.832 62.2254 198.999 61.9394 198.999 61.6023C198.999 61.3295 198.896 61.1004 198.692 60.9148C198.491 60.7292 198.182 60.589 197.766 60.4943L196.288 60.1705C195.474 59.9848 194.872 59.6894 194.482 59.2841C194.095 58.8788 193.902 58.3655 193.902 57.7443C193.902 57.2292 194.046 56.7784 194.334 56.392C194.622 56.0057 195.019 55.7045 195.527 55.4886C196.035 55.2689 196.616 55.1591 197.271 55.1591C198.214 55.1591 198.957 55.3636 199.499 55.7727C200.04 56.178 200.398 56.7216 200.572 57.4034Z" fill="url(#paint2_linear_76_131)"/>
<g filter="url(#filter1_ddd_76_131)">
<rect x="321.8" y="46" width="24" height="24" rx="12" fill="url(#paint3_linear_76_131)"/>
<path d="M333.048 56.9355V52.8857H334.398V56.9355H338.448V58.2855H334.398V62.3353H333.048V58.2855H328.999V56.9355H333.048Z" fill="white" fill-opacity="0.34"/>
</g>
<g filter="url(#filter2_f_76_131)">
<ellipse cx="341" cy="71" rx="62" ry="50" fill="white" fill-opacity="0.11"/>
</g>
</g>
<rect x="34.4222" y="30.4222" width="325.955" height="55.1556" rx="16.4666" stroke="url(#paint4_linear_76_131)" stroke-opacity="0.1" stroke-width="0.844443" shape-rendering="crispEdges"/>
</g>
<g filter="url(#filter3_di_76_131)">
<g clip-path="url(#clip1_76_131)">
<rect x="74" y="103" width="326.799" height="56" rx="16.8889" fill="url(#paint5_linear_76_131)" fill-opacity="0.06" shape-rendering="crispEdges"/>
<g filter="url(#filter4_f_76_131)">
<ellipse cx="381" cy="144" rx="62" ry="50" fill="url(#paint6_linear_76_131)"/>
</g>
<path d="M93.2222 141.555L89 137.333L93.2222 133.111L94.7 134.642L93.0639 136.278H103.778V132.055H105.889V138.389H93.0639L94.7 140.025L93.2222 141.555ZM91.1111 129.944V123.611H103.936L102.3 121.975L103.778 120.444L108 124.667L103.778 128.889L102.3 127.358L103.936 125.722H93.2222V129.944H91.1111Z" fill="url(#paint7_linear_76_131)"/>
<path d="M129.278 137V125.364H133.426C134.328 125.364 135.076 125.519 135.67 125.83C136.269 126.14 136.716 126.57 137.011 127.119C137.307 127.665 137.455 128.295 137.455 129.011C137.455 129.723 137.305 130.35 137.006 130.892C136.71 131.43 136.263 131.848 135.665 132.148C135.07 132.447 134.322 132.597 133.42 132.597H130.278V131.085H133.261C133.83 131.085 134.292 131.004 134.648 130.841C135.008 130.678 135.271 130.441 135.438 130.131C135.604 129.82 135.688 129.447 135.688 129.011C135.688 128.572 135.602 128.191 135.432 127.869C135.265 127.547 135.002 127.301 134.642 127.131C134.286 126.956 133.818 126.869 133.239 126.869H131.034V137H129.278ZM135.023 131.75L137.898 137H135.898L133.08 131.75H135.023ZM143.107 137.176C142.247 137.176 141.506 136.992 140.885 136.625C140.268 136.254 139.79 135.733 139.453 135.062C139.12 134.388 138.953 133.598 138.953 132.693C138.953 131.799 139.12 131.011 139.453 130.33C139.79 129.648 140.26 129.116 140.862 128.733C141.468 128.35 142.177 128.159 142.987 128.159C143.48 128.159 143.957 128.241 144.419 128.403C144.881 128.566 145.296 128.822 145.663 129.17C146.031 129.519 146.321 129.972 146.533 130.528C146.745 131.081 146.851 131.754 146.851 132.545V133.148H139.913V131.875H145.186C145.186 131.428 145.095 131.032 144.913 130.688C144.732 130.339 144.476 130.064 144.146 129.864C143.821 129.663 143.438 129.562 142.999 129.562C142.521 129.562 142.105 129.68 141.749 129.915C141.396 130.146 141.124 130.449 140.93 130.824C140.741 131.195 140.646 131.598 140.646 132.034V133.028C140.646 133.612 140.749 134.108 140.953 134.517C141.161 134.926 141.451 135.239 141.822 135.455C142.194 135.667 142.627 135.773 143.124 135.773C143.446 135.773 143.739 135.727 144.004 135.636C144.269 135.542 144.499 135.402 144.692 135.216C144.885 135.03 145.033 134.801 145.135 134.528L146.743 134.818C146.614 135.292 146.383 135.706 146.05 136.062C145.72 136.415 145.305 136.689 144.805 136.886C144.309 137.08 143.743 137.176 143.107 137.176ZM148.736 140.273V128.273H150.395V129.688H150.537C150.635 129.506 150.777 129.295 150.963 129.057C151.149 128.818 151.406 128.61 151.736 128.432C152.065 128.25 152.501 128.159 153.043 128.159C153.747 128.159 154.376 128.337 154.929 128.693C155.482 129.049 155.916 129.562 156.23 130.233C156.548 130.903 156.707 131.71 156.707 132.653C156.707 133.597 156.55 134.405 156.236 135.08C155.921 135.75 155.49 136.267 154.94 136.631C154.391 136.991 153.764 137.17 153.06 137.17C152.529 137.17 152.096 137.081 151.759 136.903C151.425 136.725 151.164 136.517 150.974 136.278C150.785 136.04 150.639 135.828 150.537 135.642H150.435V140.273H148.736ZM150.401 132.636C150.401 133.25 150.49 133.788 150.668 134.25C150.846 134.712 151.103 135.074 151.44 135.335C151.777 135.593 152.19 135.722 152.679 135.722C153.187 135.722 153.611 135.587 153.952 135.318C154.293 135.045 154.55 134.676 154.724 134.21C154.902 133.744 154.991 133.22 154.991 132.636C154.991 132.061 154.904 131.544 154.73 131.085C154.56 130.627 154.302 130.265 153.957 130C153.616 129.735 153.19 129.602 152.679 129.602C152.187 129.602 151.77 129.729 151.429 129.983C151.092 130.237 150.836 130.591 150.662 131.045C150.488 131.5 150.401 132.03 150.401 132.636ZM162.372 137.176C161.512 137.176 160.772 136.992 160.151 136.625C159.533 136.254 159.056 135.733 158.719 135.062C158.385 134.388 158.219 133.598 158.219 132.693C158.219 131.799 158.385 131.011 158.719 130.33C159.056 129.648 159.526 129.116 160.128 128.733C160.734 128.35 161.442 128.159 162.253 128.159C162.745 128.159 163.223 128.241 163.685 128.403C164.147 128.566 164.562 128.822 164.929 129.17C165.296 129.519 165.586 129.972 165.798 130.528C166.01 131.081 166.116 131.754 166.116 132.545V133.148H159.179V131.875H164.452C164.452 131.428 164.361 131.032 164.179 130.688C163.997 130.339 163.741 130.064 163.412 129.864C163.086 129.663 162.704 129.562 162.264 129.562C161.787 129.562 161.37 129.68 161.014 129.915C160.662 130.146 160.389 130.449 160.196 130.824C160.007 131.195 159.912 131.598 159.912 132.034V133.028C159.912 133.612 160.014 134.108 160.219 134.517C160.427 134.926 160.717 135.239 161.088 135.455C161.459 135.667 161.893 135.773 162.389 135.773C162.711 135.773 163.005 135.727 163.27 135.636C163.535 135.542 163.764 135.402 163.957 135.216C164.151 135.03 164.298 134.801 164.401 134.528L166.009 134.818C165.88 135.292 165.649 135.706 165.315 136.062C164.986 136.415 164.571 136.689 164.071 136.886C163.575 137.08 163.009 137.176 162.372 137.176ZM170.541 137.193C169.988 137.193 169.488 137.091 169.041 136.886C168.594 136.678 168.24 136.377 167.979 135.983C167.721 135.589 167.592 135.106 167.592 134.534C167.592 134.042 167.687 133.636 167.876 133.318C168.066 133 168.321 132.748 168.643 132.562C168.965 132.377 169.325 132.237 169.723 132.142C170.121 132.047 170.526 131.975 170.939 131.926C171.462 131.866 171.886 131.816 172.212 131.778C172.537 131.737 172.774 131.67 172.922 131.58C173.07 131.489 173.143 131.341 173.143 131.136V131.097C173.143 130.6 173.003 130.216 172.723 129.943C172.446 129.67 172.034 129.534 171.484 129.534C170.912 129.534 170.462 129.661 170.132 129.915C169.806 130.165 169.581 130.443 169.456 130.75L167.859 130.386C168.049 129.856 168.325 129.428 168.689 129.102C169.056 128.773 169.479 128.534 169.956 128.386C170.433 128.235 170.935 128.159 171.462 128.159C171.81 128.159 172.179 128.201 172.57 128.284C172.964 128.364 173.331 128.511 173.672 128.727C174.017 128.943 174.299 129.252 174.518 129.653C174.738 130.051 174.848 130.568 174.848 131.205V137H173.189V135.807H173.121C173.011 136.027 172.846 136.242 172.626 136.455C172.407 136.667 172.125 136.843 171.78 136.983C171.435 137.123 171.022 137.193 170.541 137.193ZM170.911 135.83C171.38 135.83 171.782 135.737 172.115 135.551C172.452 135.366 172.708 135.123 172.882 134.824C173.06 134.521 173.149 134.197 173.149 133.852V132.727C173.089 132.788 172.971 132.845 172.797 132.898C172.626 132.947 172.431 132.991 172.212 133.028C171.992 133.062 171.778 133.095 171.57 133.125C171.361 133.152 171.187 133.174 171.047 133.193C170.717 133.235 170.416 133.305 170.143 133.403C169.875 133.502 169.659 133.644 169.496 133.83C169.337 134.011 169.257 134.254 169.257 134.557C169.257 134.977 169.412 135.295 169.723 135.511C170.034 135.723 170.429 135.83 170.911 135.83ZM181.185 128.273V129.636H176.418V128.273H181.185ZM177.696 126.182H179.395V134.438C179.395 134.767 179.444 135.015 179.543 135.182C179.641 135.345 179.768 135.456 179.923 135.517C180.082 135.574 180.255 135.602 180.44 135.602C180.577 135.602 180.696 135.593 180.798 135.574C180.901 135.555 180.98 135.54 181.037 135.528L181.344 136.932C181.245 136.97 181.105 137.008 180.923 137.045C180.741 137.087 180.514 137.11 180.241 137.114C179.795 137.121 179.378 137.042 178.991 136.875C178.605 136.708 178.293 136.451 178.054 136.102C177.815 135.754 177.696 135.316 177.696 134.79V126.182ZM183.064 137V128.273H184.763V137H183.064ZM183.922 126.926C183.626 126.926 183.373 126.828 183.161 126.631C182.952 126.43 182.848 126.191 182.848 125.915C182.848 125.634 182.952 125.396 183.161 125.199C183.373 124.998 183.626 124.898 183.922 124.898C184.217 124.898 184.469 124.998 184.678 125.199C184.89 125.396 184.996 125.634 184.996 125.915C184.996 126.191 184.89 126.43 184.678 126.631C184.469 126.828 184.217 126.926 183.922 126.926ZM188.747 131.818V137H187.048V128.273H188.679V129.693H188.787C188.988 129.231 189.302 128.86 189.73 128.58C190.162 128.299 190.705 128.159 191.361 128.159C191.955 128.159 192.476 128.284 192.923 128.534C193.37 128.78 193.717 129.148 193.963 129.636C194.209 130.125 194.332 130.729 194.332 131.449V137H192.634V131.653C192.634 131.021 192.469 130.527 192.139 130.17C191.81 129.811 191.357 129.631 190.781 129.631C190.387 129.631 190.037 129.716 189.73 129.886C189.427 130.057 189.187 130.307 189.009 130.636C188.834 130.962 188.747 131.356 188.747 131.818ZM200.27 140.455C199.577 140.455 198.98 140.364 198.48 140.182C197.984 140 197.579 139.759 197.264 139.46C196.95 139.161 196.715 138.833 196.56 138.477L198.02 137.875C198.122 138.042 198.259 138.218 198.429 138.403C198.603 138.593 198.838 138.754 199.134 138.886C199.433 139.019 199.817 139.085 200.287 139.085C200.931 139.085 201.463 138.928 201.884 138.614C202.304 138.303 202.514 137.807 202.514 137.125V135.409H202.406C202.304 135.595 202.156 135.801 201.963 136.028C201.774 136.256 201.512 136.453 201.179 136.619C200.846 136.786 200.412 136.869 199.878 136.869C199.188 136.869 198.567 136.708 198.014 136.386C197.465 136.061 197.029 135.581 196.707 134.949C196.389 134.312 196.23 133.53 196.23 132.602C196.23 131.674 196.387 130.879 196.702 130.216C197.02 129.553 197.455 129.045 198.009 128.693C198.562 128.337 199.188 128.159 199.889 128.159C200.431 128.159 200.868 128.25 201.202 128.432C201.535 128.61 201.795 128.818 201.98 129.057C202.17 129.295 202.315 129.506 202.418 129.688H202.543V128.273H204.207V137.193C204.207 137.943 204.033 138.559 203.685 139.04C203.336 139.521 202.865 139.877 202.27 140.108C201.679 140.339 201.012 140.455 200.27 140.455ZM200.253 135.46C200.741 135.46 201.154 135.347 201.491 135.119C201.832 134.888 202.09 134.559 202.264 134.131C202.442 133.699 202.531 133.182 202.531 132.58C202.531 131.992 202.444 131.475 202.27 131.028C202.096 130.581 201.84 130.233 201.503 129.983C201.166 129.729 200.749 129.602 200.253 129.602C199.741 129.602 199.315 129.735 198.974 130C198.634 130.261 198.376 130.617 198.202 131.068C198.031 131.519 197.946 132.023 197.946 132.58C197.946 133.152 198.033 133.653 198.207 134.085C198.382 134.517 198.639 134.854 198.98 135.097C199.325 135.339 199.749 135.46 200.253 135.46ZM220.249 125.364V137H218.635L212.72 128.466H212.612V137H210.857V125.364H212.482L218.402 133.909H218.51V125.364H220.249ZM226.435 137.176C225.575 137.176 224.834 136.992 224.213 136.625C223.596 136.254 223.118 135.733 222.781 135.062C222.448 134.388 222.281 133.598 222.281 132.693C222.281 131.799 222.448 131.011 222.781 130.33C223.118 129.648 223.588 129.116 224.19 128.733C224.796 128.35 225.505 128.159 226.315 128.159C226.808 128.159 227.285 128.241 227.747 128.403C228.209 128.566 228.624 128.822 228.991 129.17C229.359 129.519 229.649 129.972 229.861 130.528C230.073 131.081 230.179 131.754 230.179 132.545V133.148H223.241V131.875H228.514C228.514 131.428 228.423 131.032 228.241 130.688C228.06 130.339 227.804 130.064 227.474 129.864C227.149 129.663 226.766 129.562 226.327 129.562C225.849 129.562 225.433 129.68 225.077 129.915C224.724 130.146 224.452 130.449 224.259 130.824C224.069 131.195 223.974 131.598 223.974 132.034V133.028C223.974 133.612 224.077 134.108 224.281 134.517C224.49 134.926 224.779 135.239 225.151 135.455C225.522 135.667 225.955 135.773 226.452 135.773C226.774 135.773 227.067 135.727 227.332 135.636C227.598 135.542 227.827 135.402 228.02 135.216C228.213 135.03 228.361 134.801 228.463 134.528L230.071 134.818C229.942 135.292 229.711 135.706 229.378 136.062C229.048 136.415 228.634 136.689 228.134 136.886C227.637 137.08 227.071 137.176 226.435 137.176ZM233.94 137L231.372 128.273H233.128L234.838 134.682H234.923L236.639 128.273H238.395L240.099 134.653H240.185L241.884 128.273H243.639L241.077 137H239.344L237.571 130.699H237.44L235.668 137H233.94ZM251.791 130.403L250.251 130.676C250.187 130.479 250.085 130.292 249.945 130.114C249.808 129.936 249.623 129.79 249.388 129.676C249.153 129.562 248.859 129.506 248.507 129.506C248.026 129.506 247.625 129.614 247.303 129.83C246.981 130.042 246.82 130.316 246.82 130.653C246.82 130.945 246.928 131.18 247.143 131.358C247.359 131.536 247.708 131.682 248.189 131.795L249.575 132.114C250.378 132.299 250.977 132.585 251.371 132.972C251.765 133.358 251.962 133.86 251.962 134.477C251.962 135 251.81 135.466 251.507 135.875C251.208 136.28 250.789 136.598 250.251 136.83C249.717 137.061 249.098 137.176 248.393 137.176C247.416 137.176 246.619 136.968 246.001 136.551C245.384 136.131 245.005 135.534 244.865 134.761L246.507 134.511C246.609 134.939 246.82 135.263 247.138 135.483C247.456 135.699 247.871 135.807 248.382 135.807C248.939 135.807 249.384 135.691 249.717 135.46C250.051 135.225 250.217 134.939 250.217 134.602C250.217 134.33 250.115 134.1 249.911 133.915C249.71 133.729 249.401 133.589 248.984 133.494L247.507 133.17C246.693 132.985 246.09 132.689 245.7 132.284C245.314 131.879 245.121 131.366 245.121 130.744C245.121 130.229 245.265 129.778 245.553 129.392C245.84 129.006 246.238 128.705 246.746 128.489C247.253 128.269 247.835 128.159 248.49 128.159C249.433 128.159 250.176 128.364 250.717 128.773C251.259 129.178 251.617 129.722 251.791 130.403Z" fill="url(#paint8_linear_76_131)"/>
<g filter="url(#filter5_ddddi_76_131)">
<rect x="361.8" y="119" width="24" height="24" rx="12" fill="url(#paint9_linear_76_131)" shape-rendering="crispEdges"/>
<rect x="361.8" y="119" width="24" height="24" rx="12" fill="url(#paint10_linear_76_131)" fill-opacity="0.9" shape-rendering="crispEdges"/>
<path d="M378.397 131.885H368.999V130.114H378.397V131.885Z" fill="white"/>
</g>
</g>
<rect x="74.4222" y="103.422" width="325.955" height="55.1556" rx="16.4666" stroke="url(#paint11_linear_76_131)" stroke-opacity="0.1" stroke-width="0.844443" shape-rendering="crispEdges"/>
</g>
<g filter="url(#filter6_di_76_131)">
<g clip-path="url(#clip2_76_131)">
<rect x="34" y="175.772" width="326.799" height="56" rx="16.8889" fill="url(#paint12_linear_76_131)" fill-opacity="0.06" shape-rendering="crispEdges"/>
<path fill-rule="evenodd" clip-rule="evenodd" d="M49.0022 200.397H66.9977C66.9842 197.95 66.8763 196.625 66.0111 195.761C65.0234 194.772 63.4315 194.772 60.25 194.772H55.75C52.5685 194.772 50.9766 194.772 49.9889 195.761C49.1238 196.625 49.0157 197.95 49.0022 200.397ZM67 202.647H49V206.022C49 209.203 49 210.795 49.9889 211.783C50.9766 212.772 52.5685 212.772 55.75 212.772H60.25C63.4315 212.772 65.0234 212.772 66.0111 211.783C67 210.795 67 209.203 67 206.022V202.647Z" fill="url(#paint13_linear_76_131)"/>
<path d="M88.2784 209.772V198.135H92.5398C93.3655 198.135 94.0492 198.272 94.5909 198.544C95.1326 198.813 95.5379 199.179 95.8068 199.641C96.0758 200.099 96.2102 200.616 96.2102 201.192C96.2102 201.677 96.1212 202.086 95.9432 202.419C95.7652 202.749 95.5265 203.014 95.2273 203.215C94.9318 203.412 94.6061 203.556 94.25 203.647V203.76C94.6364 203.779 95.0133 203.904 95.3807 204.135C95.7519 204.363 96.0587 204.687 96.3011 205.107C96.5436 205.527 96.6648 206.039 96.6648 206.641C96.6648 207.236 96.5246 207.77 96.2443 208.243C95.9678 208.713 95.5398 209.086 94.9602 209.363C94.3807 209.635 93.6402 209.772 92.7386 209.772H88.2784ZM90.0341 208.266H92.5682C93.4091 208.266 94.0114 208.103 94.375 207.777C94.7386 207.452 94.9205 207.044 94.9205 206.556C94.9205 206.188 94.8277 205.851 94.642 205.544C94.4564 205.238 94.1913 204.993 93.8466 204.812C93.5057 204.63 93.1004 204.539 92.6307 204.539H90.0341V208.266ZM90.0341 203.169H92.3864C92.7803 203.169 93.1345 203.094 93.4489 202.942C93.767 202.791 94.0189 202.579 94.2045 202.306C94.3939 202.029 94.4886 201.704 94.4886 201.329C94.4886 200.847 94.3201 200.444 93.983 200.118C93.6458 199.793 93.1288 199.63 92.4318 199.63H90.0341V203.169ZM98.6108 209.772V201.044H100.253V202.431H100.344C100.503 201.961 100.783 201.592 101.185 201.323C101.59 201.05 102.048 200.914 102.56 200.914C102.666 200.914 102.791 200.918 102.935 200.925C103.082 200.933 103.198 200.942 103.281 200.954V202.579C103.213 202.56 103.092 202.539 102.918 202.516C102.743 202.49 102.569 202.476 102.395 202.476C101.993 202.476 101.635 202.562 101.321 202.732C101.01 202.899 100.764 203.132 100.582 203.431C100.401 203.726 100.31 204.063 100.31 204.442V209.772H98.6108ZM108.2 209.948C107.34 209.948 106.6 209.764 105.979 209.397C105.361 209.026 104.884 208.505 104.547 207.834C104.214 207.16 104.047 206.37 104.047 205.465C104.047 204.571 104.214 203.783 104.547 203.101C104.884 202.419 105.354 201.887 105.956 201.505C106.562 201.122 107.27 200.931 108.081 200.931C108.573 200.931 109.051 201.012 109.513 201.175C109.975 201.338 110.39 201.594 110.757 201.942C111.125 202.291 111.414 202.743 111.626 203.3C111.839 203.853 111.945 204.526 111.945 205.317V205.919H105.007V204.647H110.28C110.28 204.2 110.189 203.804 110.007 203.459C109.825 203.111 109.57 202.836 109.24 202.635C108.914 202.435 108.532 202.334 108.092 202.334C107.615 202.334 107.198 202.452 106.842 202.687C106.49 202.918 106.217 203.221 106.024 203.596C105.835 203.967 105.74 204.37 105.74 204.806V205.8C105.74 206.383 105.842 206.88 106.047 207.289C106.255 207.698 106.545 208.01 106.916 208.226C107.287 208.438 107.721 208.544 108.217 208.544C108.539 208.544 108.833 208.499 109.098 208.408C109.363 208.313 109.592 208.173 109.786 207.988C109.979 207.802 110.126 207.573 110.229 207.3L111.837 207.59C111.708 208.063 111.477 208.478 111.143 208.834C110.814 209.187 110.399 209.461 109.899 209.658C109.403 209.851 108.837 209.948 108.2 209.948ZM116.369 209.965C115.816 209.965 115.316 209.863 114.869 209.658C114.422 209.45 114.068 209.149 113.807 208.755C113.549 208.361 113.42 207.878 113.42 207.306C113.42 206.813 113.515 206.408 113.705 206.09C113.894 205.772 114.15 205.52 114.472 205.334C114.794 205.149 115.153 205.008 115.551 204.914C115.949 204.819 116.354 204.747 116.767 204.698C117.29 204.637 117.714 204.588 118.04 204.55C118.366 204.508 118.602 204.442 118.75 204.351C118.898 204.26 118.972 204.113 118.972 203.908V203.868C118.972 203.372 118.831 202.988 118.551 202.715C118.275 202.442 117.862 202.306 117.312 202.306C116.741 202.306 116.29 202.433 115.96 202.687C115.634 202.937 115.409 203.215 115.284 203.522L113.688 203.158C113.877 202.628 114.153 202.2 114.517 201.874C114.884 201.544 115.307 201.306 115.784 201.158C116.261 201.007 116.763 200.931 117.29 200.931C117.638 200.931 118.008 200.972 118.398 201.056C118.792 201.135 119.159 201.283 119.5 201.499C119.845 201.715 120.127 202.024 120.347 202.425C120.566 202.823 120.676 203.34 120.676 203.976V209.772H119.017V208.579H118.949C118.839 208.798 118.674 209.014 118.455 209.226C118.235 209.438 117.953 209.615 117.608 209.755C117.263 209.895 116.85 209.965 116.369 209.965ZM116.739 208.601C117.208 208.601 117.61 208.508 117.943 208.323C118.28 208.137 118.536 207.895 118.71 207.596C118.888 207.293 118.977 206.969 118.977 206.624V205.499C118.917 205.56 118.799 205.616 118.625 205.669C118.455 205.719 118.259 205.762 118.04 205.8C117.82 205.834 117.606 205.866 117.398 205.897C117.189 205.923 117.015 205.946 116.875 205.965C116.545 206.007 116.244 206.077 115.972 206.175C115.703 206.274 115.487 206.416 115.324 206.601C115.165 206.783 115.085 207.026 115.085 207.329C115.085 207.749 115.241 208.067 115.551 208.283C115.862 208.495 116.258 208.601 116.739 208.601ZM124.501 206.812L124.49 204.738H124.786L128.263 201.044H130.297L126.331 205.249H126.064L124.501 206.812ZM122.939 209.772V198.135H124.638V209.772H122.939ZM128.45 209.772L125.325 205.624L126.496 204.437L130.536 209.772H128.45ZM131.845 209.772V201.044H133.544V209.772H131.845ZM132.703 199.698C132.408 199.698 132.154 199.599 131.942 199.402C131.733 199.202 131.629 198.963 131.629 198.687C131.629 198.406 131.733 198.168 131.942 197.971C132.154 197.77 132.408 197.669 132.703 197.669C132.999 197.669 133.25 197.77 133.459 197.971C133.671 198.168 133.777 198.406 133.777 198.687C133.777 198.963 133.671 199.202 133.459 199.402C133.25 199.599 132.999 199.698 132.703 199.698ZM137.528 204.59V209.772H135.83V201.044H137.46V202.465H137.568C137.769 202.003 138.083 201.632 138.511 201.351C138.943 201.071 139.487 200.931 140.142 200.931C140.737 200.931 141.258 201.056 141.705 201.306C142.152 201.552 142.498 201.919 142.744 202.408C142.991 202.897 143.114 203.501 143.114 204.221V209.772H141.415V204.425C141.415 203.793 141.25 203.298 140.92 202.942C140.591 202.582 140.138 202.402 139.562 202.402C139.169 202.402 138.818 202.488 138.511 202.658C138.208 202.829 137.968 203.079 137.79 203.408C137.616 203.734 137.528 204.128 137.528 204.59ZM149.051 213.226C148.358 213.226 147.761 213.135 147.261 212.954C146.765 212.772 146.36 212.531 146.045 212.232C145.731 211.933 145.496 211.605 145.341 211.249L146.801 210.647C146.903 210.813 147.04 210.99 147.21 211.175C147.384 211.365 147.619 211.526 147.915 211.658C148.214 211.791 148.598 211.857 149.068 211.857C149.712 211.857 150.244 211.7 150.665 211.385C151.085 211.075 151.295 210.579 151.295 209.897V208.181H151.188C151.085 208.366 150.938 208.573 150.744 208.8C150.555 209.027 150.294 209.224 149.96 209.391C149.627 209.558 149.193 209.641 148.659 209.641C147.97 209.641 147.348 209.48 146.795 209.158C146.246 208.832 145.811 208.353 145.489 207.721C145.17 207.084 145.011 206.302 145.011 205.374C145.011 204.446 145.169 203.651 145.483 202.988C145.801 202.325 146.237 201.817 146.79 201.465C147.343 201.109 147.97 200.931 148.67 200.931C149.212 200.931 149.65 201.022 149.983 201.204C150.316 201.382 150.576 201.59 150.761 201.829C150.951 202.067 151.097 202.277 151.199 202.459H151.324V201.044H152.989V209.965C152.989 210.715 152.814 211.33 152.466 211.812C152.117 212.293 151.646 212.649 151.051 212.88C150.46 213.111 149.794 213.226 149.051 213.226ZM149.034 208.232C149.523 208.232 149.936 208.118 150.273 207.891C150.614 207.66 150.871 207.33 151.045 206.902C151.223 206.471 151.312 205.954 151.312 205.351C151.312 204.764 151.225 204.247 151.051 203.8C150.877 203.353 150.621 203.005 150.284 202.755C149.947 202.501 149.53 202.374 149.034 202.374C148.523 202.374 148.097 202.507 147.756 202.772C147.415 203.033 147.157 203.389 146.983 203.84C146.813 204.291 146.727 204.794 146.727 205.351C146.727 205.923 146.814 206.425 146.989 206.857C147.163 207.289 147.42 207.626 147.761 207.868C148.106 208.111 148.53 208.232 149.034 208.232ZM169.03 198.135V209.772H167.416L161.501 201.238H161.393V209.772H159.638V198.135H161.263L167.183 206.681H167.291V198.135H169.03ZM175.216 209.948C174.356 209.948 173.616 209.764 172.994 209.397C172.377 209.026 171.9 208.505 171.562 207.834C171.229 207.16 171.062 206.37 171.062 205.465C171.062 204.571 171.229 203.783 171.562 203.101C171.9 202.419 172.369 201.887 172.972 201.505C173.578 201.122 174.286 200.931 175.097 200.931C175.589 200.931 176.066 201.012 176.528 201.175C176.991 201.338 177.405 201.594 177.773 201.942C178.14 202.291 178.43 202.743 178.642 203.3C178.854 203.853 178.96 204.526 178.96 205.317V205.919H172.023V204.647H177.295C177.295 204.2 177.205 203.804 177.023 203.459C176.841 203.111 176.585 202.836 176.256 202.635C175.93 202.435 175.547 202.334 175.108 202.334C174.631 202.334 174.214 202.452 173.858 202.687C173.506 202.918 173.233 203.221 173.04 203.596C172.85 203.967 172.756 204.37 172.756 204.806V205.8C172.756 206.383 172.858 206.88 173.062 207.289C173.271 207.698 173.561 208.01 173.932 208.226C174.303 208.438 174.737 208.544 175.233 208.544C175.555 208.544 175.848 208.499 176.114 208.408C176.379 208.313 176.608 208.173 176.801 207.988C176.994 207.802 177.142 207.573 177.244 207.3L178.852 207.59C178.723 208.063 178.492 208.478 178.159 208.834C177.83 209.187 177.415 209.461 176.915 209.658C176.419 209.851 175.852 209.948 175.216 209.948ZM182.722 209.772L180.153 201.044H181.909L183.619 207.454H183.705L185.42 201.044H187.176L188.881 207.425H188.966L190.665 201.044H192.42L189.858 209.772H188.125L186.352 203.471H186.222L184.449 209.772H182.722ZM200.572 203.175L199.033 203.448C198.968 203.251 198.866 203.063 198.726 202.885C198.589 202.707 198.404 202.562 198.169 202.448C197.934 202.334 197.641 202.277 197.288 202.277C196.807 202.277 196.406 202.385 196.084 202.601C195.762 202.813 195.601 203.088 195.601 203.425C195.601 203.717 195.709 203.952 195.925 204.13C196.141 204.308 196.489 204.454 196.97 204.567L198.357 204.885C199.16 205.071 199.758 205.357 200.152 205.743C200.546 206.13 200.743 206.632 200.743 207.249C200.743 207.772 200.591 208.238 200.288 208.647C199.989 209.052 199.571 209.37 199.033 209.601C198.499 209.832 197.879 209.948 197.175 209.948C196.197 209.948 195.4 209.74 194.783 209.323C194.165 208.902 193.786 208.306 193.646 207.533L195.288 207.283C195.391 207.711 195.601 208.035 195.919 208.255C196.237 208.471 196.652 208.579 197.163 208.579C197.72 208.579 198.165 208.463 198.499 208.232C198.832 207.997 198.999 207.711 198.999 207.374C198.999 207.101 198.896 206.872 198.692 206.687C198.491 206.501 198.182 206.361 197.766 206.266L196.288 205.942C195.474 205.757 194.872 205.461 194.482 205.056C194.095 204.651 193.902 204.137 193.902 203.516C193.902 203.001 194.046 202.55 194.334 202.164C194.622 201.777 195.019 201.476 195.527 201.26C196.035 201.041 196.616 200.931 197.271 200.931C198.214 200.931 198.957 201.135 199.499 201.544C200.04 201.95 200.398 202.493 200.572 203.175Z" fill="url(#paint14_linear_76_131)"/>
<g filter="url(#filter7_ddd_76_131)">
<rect x="321.8" y="191.772" width="24" height="24" rx="12" fill="url(#paint15_linear_76_131)"/>
<path d="M333.048 202.707V198.657H334.398V202.707H338.448V204.057H334.398V208.107H333.048V204.057H328.999V202.707H333.048Z" fill="white" fill-opacity="0.34"/>
</g>
<g filter="url(#filter8_f_76_131)">
<ellipse cx="341" cy="217" rx="62" ry="50" fill="white" fill-opacity="0.11"/>
</g>
</g>
<rect x="34.4222" y="176.194" width="325.955" height="55.1556" rx="16.4666" stroke="url(#paint16_linear_76_131)" stroke-opacity="0.1" stroke-width="0.844443" shape-rendering="crispEdges"/>
</g>
<g filter="url(#filter9_dddi_76_131)">
<path d="M390.615 141.936C390.35 141.867 390.071 141.876 389.811 141.96C389.55 142.044 389.319 142.201 389.144 142.412C388.969 142.622 388.858 142.878 388.823 143.15C388.788 143.421 388.831 143.697 388.947 143.945L397.499 162.256C398.066 163.468 399.831 163.326 400.196 162.04L402.318 154.559C402.402 154.26 402.551 153.983 402.752 153.747C402.953 153.51 403.203 153.32 403.485 153.188L410.799 149.772C412.026 149.199 411.86 147.403 410.549 147.066L390.615 141.936Z" fill="white"/>
<path d="M390.615 141.936C390.35 141.867 390.071 141.876 389.811 141.96C389.55 142.044 389.319 142.201 389.144 142.412C388.969 142.622 388.858 142.878 388.823 143.15C388.788 143.421 388.831 143.697 388.947 143.945L397.499 162.256C398.066 163.468 399.831 163.326 400.196 162.04L402.318 154.559C402.402 154.26 402.551 153.983 402.752 153.747C402.953 153.51 403.203 153.32 403.485 153.188L410.799 149.772C412.026 149.199 411.86 147.403 410.549 147.066L390.615 141.936Z" fill="url(#paint17_linear_76_131)" fill-opacity="0.9"/>
</g>
<defs>
<filter id="filter0_di_76_131" x="0" y="0" width="394.8" height="124" filterUnits="userSpaceOnUse" color-interpolation-filters="sRGB">
<feFlood flood-opacity="0" result="BackgroundImageFix"/>
<feColorMatrix in="SourceAlpha" type="matrix" values="0 0 0 0 0 0 0 0 0 0 0 0 0 0 0 0 0 0 127 0" result="hardAlpha"/>
<feOffset dy="4"/>
<feGaussianBlur stdDeviation="17"/>
<feComposite in2="hardAlpha" operator="out"/>
<feColorMatrix type="matrix" values="0 0 0 0 0 0 0 0 0 0 0 0 0 0 0 0 0 0 0.25 0"/>
<feBlend mode="normal" in2="BackgroundImageFix" result="effect1_dropShadow_76_131"/>
<feBlend mode="normal" in="SourceGraphic" in2="effect1_dropShadow_76_131" result="shape"/>
<feColorMatrix in="SourceAlpha" type="matrix" values="0 0 0 0 0 0 0 0 0 0 0 0 0 0 0 0 0 0 127 0" result="hardAlpha"/>
<feOffset/>
<feGaussianBlur stdDeviation="10"/>
<feComposite in2="hardAlpha" operator="arithmetic" k2="-1" k3="1"/>
<feColorMatrix type="matrix" values="0 0 0 0 1 0 0 0 0 1 0 0 0 0 1 0 0 0 0.06 0"/>
<feBlend mode="normal" in2="shape" result="effect2_innerShadow_76_131"/>
</filter>
<filter id="filter1_ddd_76_131" x="318.8" y="46" width="30" height="33" filterUnits="userSpaceOnUse" color-interpolation-filters="sRGB">
<feFlood flood-opacity="0" result="BackgroundImageFix"/>
<feColorMatrix in="SourceAlpha" type="matrix" values="0 0 0 0 0 0 0 0 0 0 0 0 0 0 0 0 0 0 127 0" result="hardAlpha"/>
<feOffset dy="1"/>
<feGaussianBlur stdDeviation="0.5"/>
<feColorMatrix type="matrix" values="0 0 0 0 0 0 0 0 0 0 0 0 0 0 0 0 0 0 0.02 0"/>
<feBlend mode="normal" in2="BackgroundImageFix" result="effect1_dropShadow_76_131"/>
<feColorMatrix in="SourceAlpha" type="matrix" values="0 0 0 0 0 0 0 0 0 0 0 0 0 0 0 0 0 0 127 0" result="hardAlpha"/>
<feOffset dy="2"/>
<feGaussianBlur stdDeviation="1"/>
<feColorMatrix type="matrix" values="0 0 0 0 0 0 0 0 0 0 0 0 0 0 0 0 0 0 0.02 0"/>
<feBlend mode="normal" in2="effect1_dropShadow_76_131" result="effect2_dropShadow_76_131"/>
<feColorMatrix in="SourceAlpha" type="matrix" values="0 0 0 0 0 0 0 0 0 0 0 0 0 0 0 0 0 0 127 0" result="hardAlpha"/>
<feOffset dy="6"/>
<feGaussianBlur stdDeviation="1.5"/>
<feColorMatrix type="matrix" values="0 0 0 0 0 0 0 0 0 0 0 0 0 0 0 0 0 0 0.01 0"/>
<feBlend mode="normal" in2="effect2_dropShadow_76_131" result="effect3_dropShadow_76_131"/>
<feBlend mode="normal" in="SourceGraphic" in2="effect3_dropShadow_76_131" result="shape"/>
</filter>
<filter id="filter2_f_76_131" x="179" y="-79" width="324" height="300" filterUnits="userSpaceOnUse" color-interpolation-filters="sRGB">
<feFlood flood-opacity="0" result="BackgroundImageFix"/>
<feBlend mode="normal" in="SourceGraphic" in2="BackgroundImageFix" result="shape"/>
<feGaussianBlur stdDeviation="50" result="effect1_foregroundBlur_76_131"/>
</filter>
<filter id="filter3_di_76_131" x="40" y="73" width="394.8" height="124" filterUnits="userSpaceOnUse" color-interpolation-filters="sRGB">
<feFlood flood-opacity="0" result="BackgroundImageFix"/>
<feColorMatrix in="SourceAlpha" type="matrix" values="0 0 0 0 0 0 0 0 0 0 0 0 0 0 0 0 0 0 127 0" result="hardAlpha"/>
<feOffset dy="4"/>
<feGaussianBlur stdDeviation="17"/>
<feComposite in2="hardAlpha" operator="out"/>
<feColorMatrix type="matrix" values="0 0 0 0 0 0 0 0 0 0 0 0 0 0 0 0 0 0 0.25 0"/>
<feBlend mode="normal" in2="BackgroundImageFix" result="effect1_dropShadow_76_131"/>
<feBlend mode="normal" in="SourceGraphic" in2="effect1_dropShadow_76_131" result="shape"/>
<feColorMatrix in="SourceAlpha" type="matrix" values="0 0 0 0 0 0 0 0 0 0 0 0 0 0 0 0 0 0 127 0" result="hardAlpha"/>
<feOffset/>
<feGaussianBlur stdDeviation="10"/>
<feComposite in2="hardAlpha" operator="arithmetic" k2="-1" k3="1"/>
<feColorMatrix type="matrix" values="0 0 0 0 1 0 0 0 0 1 0 0 0 0 1 0 0 0 0.06 0"/>
<feBlend mode="normal" in2="shape" result="effect2_innerShadow_76_131"/>
</filter>
<filter id="filter4_f_76_131" x="229" y="4" width="304" height="280" filterUnits="userSpaceOnUse" color-interpolation-filters="sRGB">
<feFlood flood-opacity="0" result="BackgroundImageFix"/>
<feBlend mode="normal" in="SourceGraphic" in2="BackgroundImageFix" result="shape"/>
<feGaussianBlur stdDeviation="45" result="effect1_foregroundBlur_76_131"/>
</filter>
<filter id="filter5_ddddi_76_131" x="353.4" y="115.6" width="40.8" height="40.8" filterUnits="userSpaceOnUse" color-interpolation-filters="sRGB">
<feFlood flood-opacity="0" result="BackgroundImageFix"/>
<feColorMatrix in="SourceAlpha" type="matrix" values="0 0 0 0 0 0 0 0 0 0 0 0 0 0 0 0 0 0 127 0" result="hardAlpha"/>
<feOffset dy="1"/>
<feGaussianBlur stdDeviation="0.5"/>
<feColorMatrix type="matrix" values="0 0 0 0 0 0 0 0 0 0 0 0 0 0 0 0 0 0 0.02 0"/>
<feBlend mode="normal" in2="BackgroundImageFix" result="effect1_dropShadow_76_131"/>
<feColorMatrix in="SourceAlpha" type="matrix" values="0 0 0 0 0 0 0 0 0 0 0 0 0 0 0 0 0 0 127 0" result="hardAlpha"/>
<feOffset dy="2"/>
<feGaussianBlur stdDeviation="1"/>
<feColorMatrix type="matrix" values="0 0 0 0 0 0 0 0 0 0 0 0 0 0 0 0 0 0 0.02 0"/>
<feBlend mode="normal" in2="effect1_dropShadow_76_131" result="effect2_dropShadow_76_131"/>
<feColorMatrix in="SourceAlpha" type="matrix" values="0 0 0 0 0 0 0 0 0 0 0 0 0 0 0 0 0 0 127 0" result="hardAlpha"/>
<feOffset dy="6"/>
<feGaussianBlur stdDeviation="1.5"/>
<feColorMatrix type="matrix" values="0 0 0 0 0 0 0 0 0 0 0 0 0 0 0 0 0 0 0.01 0"/>
<feBlend mode="normal" in2="effect2_dropShadow_76_131" result="effect3_dropShadow_76_131"/>
<feColorMatrix in="SourceAlpha" type="matrix" values="0 0 0 0 0 0 0 0 0 0 0 0 0 0 0 0 0 0 127 0" result="hardAlpha"/>
<feOffset dy="5"/>
<feGaussianBlur stdDeviation="4.2"/>
<feComposite in2="hardAlpha" operator="out"/>
<feColorMatrix type="matrix" values="0 0 0 0 0 0 0 0 0 0 0 0 0 0 0 0 0 0 0.07 0"/>
<feBlend mode="normal" in2="effect3_dropShadow_76_131" result="effect4_dropShadow_76_131"/>
<feBlend mode="normal" in="SourceGraphic" in2="effect4_dropShadow_76_131" result="shape"/>
<feColorMatrix in="SourceAlpha" type="matrix" values="0 0 0 0 0 0 0 0 0 0 0 0 0 0 0 0 0 0 127 0" result="hardAlpha"/>
<feOffset/>
<feGaussianBlur stdDeviation="7"/>
<feComposite in2="hardAlpha" operator="arithmetic" k2="-1" k3="1"/>
<feColorMatrix type="matrix" values="0 0 0 0 1 0 0 0 0 1 0 0 0 0 1 0 0 0 0.25 0"/>
<feBlend mode="normal" in2="shape" result="effect5_innerShadow_76_131"/>
</filter>
<filter id="filter6_di_76_131" x="0" y="145.772" width="394.8" height="124" filterUnits="userSpaceOnUse" color-interpolation-filters="sRGB">
<feFlood flood-opacity="0" result="BackgroundImageFix"/>
<feColorMatrix in="SourceAlpha" type="matrix" values="0 0 0 0 0 0 0 0 0 0 0 0 0 0 0 0 0 0 127 0" result="hardAlpha"/>
<feOffset dy="4"/>
<feGaussianBlur stdDeviation="17"/>
<feComposite in2="hardAlpha" operator="out"/>
<feColorMatrix type="matrix" values="0 0 0 0 0 0 0 0 0 0 0 0 0 0 0 0 0 0 0.25 0"/>
<feBlend mode="normal" in2="BackgroundImageFix" result="effect1_dropShadow_76_131"/>
<feBlend mode="normal" in="SourceGraphic" in2="effect1_dropShadow_76_131" result="shape"/>
<feColorMatrix in="SourceAlpha" type="matrix" values="0 0 0 0 0 0 0 0 0 0 0 0 0 0 0 0 0 0 127 0" result="hardAlpha"/>
<feOffset/>
<feGaussianBlur stdDeviation="10"/>
<feComposite in2="hardAlpha" operator="arithmetic" k2="-1" k3="1"/>
<feColorMatrix type="matrix" values="0 0 0 0 1 0 0 0 0 1 0 0 0 0 1 0 0 0 0.06 0"/>
<feBlend mode="normal" in2="shape" result="effect2_innerShadow_76_131"/>
</filter>
<filter id="filter7_ddd_76_131" x="318.8" y="191.772" width="30" height="33" filterUnits="userSpaceOnUse" color-interpolation-filters="sRGB">
<feFlood flood-opacity="0" result="BackgroundImageFix"/>
<feColorMatrix in="SourceAlpha" type="matrix" values="0 0 0 0 0 0 0 0 0 0 0 0 0 0 0 0 0 0 127 0" result="hardAlpha"/>
<feOffset dy="1"/>
<feGaussianBlur stdDeviation="0.5"/>
<feColorMatrix type="matrix" values="0 0 0 0 0 0 0 0 0 0 0 0 0 0 0 0 0 0 0.02 0"/>
<feBlend mode="normal" in2="BackgroundImageFix" result="effect1_dropShadow_76_131"/>
<feColorMatrix in="SourceAlpha" type="matrix" values="0 0 0 0 0 0 0 0 0 0 0 0 0 0 0 0 0 0 127 0" result="hardAlpha"/>
<feOffset dy="2"/>
<feGaussianBlur stdDeviation="1"/>
<feColorMatrix type="matrix" values="0 0 0 0 0 0 0 0 0 0 0 0 0 0 0 0 0 0 0.02 0"/>
<feBlend mode="normal" in2="effect1_dropShadow_76_131" result="effect2_dropShadow_76_131"/>
<feColorMatrix in="SourceAlpha" type="matrix" values="0 0 0 0 0 0 0 0 0 0 0 0 0 0 0 0 0 0 127 0" result="hardAlpha"/>
<feOffset dy="6"/>
<feGaussianBlur stdDeviation="1.5"/>
<feColorMatrix type="matrix" values="0 0 0 0 0 0 0 0 0 0 0 0 0 0 0 0 0 0 0.01 0"/>
<feBlend mode="normal" in2="effect2_dropShadow_76_131" result="effect3_dropShadow_76_131"/>
<feBlend mode="normal" in="SourceGraphic" in2="effect3_dropShadow_76_131" result="shape"/>
</filter>
<filter id="filter8_f_76_131" x="179" y="67.0002" width="324" height="300" filterUnits="userSpaceOnUse" color-interpolation-filters="sRGB">
<feFlood flood-opacity="0" result="BackgroundImageFix"/>
<feBlend mode="normal" in="SourceGraphic" in2="BackgroundImageFix" result="shape"/>
<feGaussianBlur stdDeviation="50" result="effect1_foregroundBlur_76_131"/>
</filter>
<filter id="filter9_dddi_76_131" x="385.557" y="141.89" width="29.3294" height="30.9622" filterUnits="userSpaceOnUse" color-interpolation-filters="sRGB">
<feFlood flood-opacity="0" result="BackgroundImageFix"/>
<feColorMatrix in="SourceAlpha" type="matrix" values="0 0 0 0 0 0 0 0 0 0 0 0 0 0 0 0 0 0 127 0" result="hardAlpha"/>
<feOffset dy="1.08475"/>
<feGaussianBlur stdDeviation="0.542375"/>
<feColorMatrix type="matrix" values="0 0 0 0 0 0 0 0 0 0 0 0 0 0 0 0 0 0 0.02 0"/>
<feBlend mode="normal" in2="BackgroundImageFix" result="effect1_dropShadow_76_131"/>
<feColorMatrix in="SourceAlpha" type="matrix" values="0 0 0 0 0 0 0 0 0 0 0 0 0 0 0 0 0 0 127 0" result="hardAlpha"/>
<feOffset dy="2.1695"/>
<feGaussianBlur stdDeviation="1.08475"/>
<feColorMatrix type="matrix" values="0 0 0 0 0 0 0 0 0 0 0 0 0 0 0 0 0 0 0.02 0"/>
<feBlend mode="normal" in2="effect1_dropShadow_76_131" result="effect2_dropShadow_76_131"/>
<feColorMatrix in="SourceAlpha" type="matrix" values="0 0 0 0 0 0 0 0 0 0 0 0 0 0 0 0 0 0 127 0" result="hardAlpha"/>
<feOffset dy="6.5085"/>
<feGaussianBlur stdDeviation="1.62712"/>
<feColorMatrix type="matrix" values="0 0 0 0 0 0 0 0 0 0 0 0 0 0 0 0 0 0 0.01 0"/>
<feBlend mode="normal" in2="effect2_dropShadow_76_131" result="effect3_dropShadow_76_131"/>
<feBlend mode="normal" in="SourceGraphic" in2="effect3_dropShadow_76_131" result="shape"/>
<feColorMatrix in="SourceAlpha" type="matrix" values="0 0 0 0 0 0 0 0 0 0 0 0 0 0 0 0 0 0 127 0" result="hardAlpha"/>
<feOffset dy="4.339"/>
<feGaussianBlur stdDeviation="2.1695"/>
<feComposite in2="hardAlpha" operator="arithmetic" k2="-1" k3="1"/>
<feColorMatrix type="matrix" values="0 0 0 0 1 0 0 0 0 1 0 0 0 0 1 0 0 0 0.25 0"/>
<feBlend mode="normal" in2="shape" result="effect4_innerShadow_76_131"/>
</filter>
<linearGradient id="paint0_linear_76_131" x1="21.8043" y1="22.3447" x2="94.3503" y2="200.818" gradientUnits="userSpaceOnUse">
<stop stop-color="white"/>
<stop offset="0.475" stop-color="white" stop-opacity="0.3"/>
<stop offset="1" stop-color="white"/>
</linearGradient>
<linearGradient id="paint1_linear_76_131" x1="58" y1="49" x2="58" y2="67" gradientUnits="userSpaceOnUse">
<stop stop-color="white" stop-opacity="0.5"/>
<stop offset="1" stop-color="white" stop-opacity="0.09"/>
</linearGradient>
<linearGradient id="paint2_linear_76_131" x1="144.5" y1="45" x2="144.5" y2="71" gradientUnits="userSpaceOnUse">
<stop stop-color="white" stop-opacity="0.7"/>
<stop offset="1" stop-color="white" stop-opacity="0.19"/>
</linearGradient>
<linearGradient id="paint3_linear_76_131" x1="333.8" y1="46" x2="333.8" y2="70" gradientUnits="userSpaceOnUse">
<stop stop-color="white" stop-opacity="0.3"/>
<stop offset="1" stop-color="white" stop-opacity="0.09"/>
</linearGradient>
<linearGradient id="paint4_linear_76_131" x1="34" y1="19.8583" x2="64.0143" y2="153.592" gradientUnits="userSpaceOnUse">
<stop stop-color="white"/>
<stop offset="1" stop-color="white" stop-opacity="0"/>
</linearGradient>
<linearGradient id="paint5_linear_76_131" x1="61.8043" y1="95.3447" x2="134.35" y2="273.818" gradientUnits="userSpaceOnUse">
<stop stop-color="white"/>
<stop offset="0.475" stop-color="white" stop-opacity="0.3"/>
<stop offset="1" stop-color="white"/>
</linearGradient>
<linearGradient id="paint6_linear_76_131" x1="286.469" y1="34.1384" x2="384.556" y2="231.928" gradientUnits="userSpaceOnUse">
<stop stop-color="#5672FF"/>
<stop offset="1" stop-color="#AA18FF"/>
</linearGradient>
<linearGradient id="paint7_linear_76_131" x1="98.5" y1="120.444" x2="98.5" y2="141.555" gradientUnits="userSpaceOnUse">
<stop stop-color="white" stop-opacity="0.5"/>
<stop offset="1" stop-color="white" stop-opacity="0.09"/>
</linearGradient>
<linearGradient id="paint8_linear_76_131" x1="190.5" y1="118" x2="190.5" y2="144" gradientUnits="userSpaceOnUse">
<stop stop-color="white" stop-opacity="0.7"/>
<stop offset="1" stop-color="white" stop-opacity="0.19"/>
</linearGradient>
<linearGradient id="paint9_linear_76_131" x1="373.8" y1="119" x2="373.8" y2="143" gradientUnits="userSpaceOnUse">
<stop stop-color="white" stop-opacity="0.3"/>
<stop offset="1" stop-color="white" stop-opacity="0.09"/>
</linearGradient>
<linearGradient id="paint10_linear_76_131" x1="355.503" y1="104.633" x2="381.894" y2="147.549" gradientUnits="userSpaceOnUse">
<stop stop-color="#5672FF"/>
<stop offset="1" stop-color="#AA18FF"/>
</linearGradient>
<linearGradient id="paint11_linear_76_131" x1="74" y1="92.8583" x2="104.014" y2="226.592" gradientUnits="userSpaceOnUse">
<stop stop-color="white"/>
<stop offset="1" stop-color="white" stop-opacity="0"/>
</linearGradient>
<linearGradient id="paint12_linear_76_131" x1="21.8043" y1="168.116" x2="94.3503" y2="346.59" gradientUnits="userSpaceOnUse">
<stop stop-color="white"/>
<stop offset="0.475" stop-color="white" stop-opacity="0.3"/>
<stop offset="1" stop-color="white"/>
</linearGradient>
<linearGradient id="paint13_linear_76_131" x1="58" y1="194.772" x2="58" y2="212.772" gradientUnits="userSpaceOnUse">
<stop stop-color="white" stop-opacity="0.5"/>
<stop offset="1" stop-color="white" stop-opacity="0.09"/>
</linearGradient>
<linearGradient id="paint14_linear_76_131" x1="144.5" y1="190.772" x2="144.5" y2="216.772" gradientUnits="userSpaceOnUse">
<stop stop-color="white" stop-opacity="0.7"/>
<stop offset="1" stop-color="white" stop-opacity="0.19"/>
</linearGradient>
<linearGradient id="paint15_linear_76_131" x1="333.8" y1="191.772" x2="333.8" y2="215.772" gradientUnits="userSpaceOnUse">
<stop stop-color="white" stop-opacity="0.3"/>
<stop offset="1" stop-color="white" stop-opacity="0.09"/>
</linearGradient>
<linearGradient id="paint16_linear_76_131" x1="34" y1="165.63" x2="64.0143" y2="299.364" gradientUnits="userSpaceOnUse">
<stop stop-color="white"/>
<stop offset="1" stop-color="white" stop-opacity="0"/>
</linearGradient>
<linearGradient id="paint17_linear_76_131" x1="378.02" y1="132.192" x2="418.16" y2="153.409" gradientUnits="userSpaceOnUse">
<stop stop-color="#5672FF"/>
<stop offset="1" stop-color="#AA18FF"/>
</linearGradient>
<clipPath id="clip0_76_131">
<rect x="34" y="30" width="326.799" height="56" rx="16.8889" fill="white"/>
</clipPath>
<clipPath id="clip1_76_131">
<rect x="74" y="103" width="326.799" height="56" rx="16.8889" fill="white"/>
</clipPath>
<clipPath id="clip2_76_131">
<rect x="34" y="175.772" width="326.799" height="56" rx="16.8889" fill="white"/>
</clipPath>
</defs>
</svg>
