<svg width="307" height="344" viewBox="0 0 307 344" fill="none" xmlns="http://www.w3.org/2000/svg">
<g clip-path="url(#clip0_50_819)">
<rect width="306.667" height="344" fill="black"/>
<rect width="306.667" height="344" fill="black" fill-opacity="0.38"/>
<rect width="306.667" height="344" fill="url(#paint0_linear_50_819)" fill-opacity="0.08"/>
<g filter="url(#filter0_f_50_819)">
<ellipse cx="47" cy="278.5" rx="137" ry="88.5" fill="white" fill-opacity="0.12"/>
</g>
<g filter="url(#filter1_di_50_819)">
<g clip-path="url(#clip1_50_819)">
<rect x="41" y="113.375" width="224" height="48.4284" rx="14.3152" fill="url(#paint1_linear_50_819)" fill-opacity="0.06" shape-rendering="crispEdges"/>
<g filter="url(#filter2_f_50_819)">
<ellipse cx="282.216" cy="148.127" rx="52.5521" ry="42.3807" fill="white" fill-opacity="0.11"/>
</g>
<path fill-rule="evenodd" clip-rule="evenodd" d="M53.7161 134.729H68.9694C68.9579 132.655 68.8664 131.531 68.1331 130.799C67.2959 129.961 65.9466 129.961 63.2499 129.961H59.4356C56.7389 129.961 55.3896 129.961 54.5524 130.799C53.8191 131.531 53.7276 132.655 53.7161 134.729ZM68.9713 136.636H53.7142V139.497C53.7142 142.193 53.7142 143.543 54.5524 144.38C55.3896 145.218 56.7389 145.218 59.4356 145.218H63.2499C65.9466 145.218 67.2959 145.218 68.1331 144.38C68.9713 143.543 68.9713 142.193 68.9713 139.497V136.636Z" fill="url(#paint2_linear_50_819)"/>
<path d="M92.3866 134.817C92.3353 134.361 92.1234 134.008 91.7509 133.758C91.3785 133.504 90.9097 133.377 90.3447 133.377C89.9401 133.377 89.5902 133.441 89.2948 133.57C88.9994 133.695 88.7698 133.868 88.6061 134.09C88.4456 134.308 88.3653 134.557 88.3653 134.836C88.3653 135.071 88.4199 135.273 88.529 135.443C88.6414 135.613 88.7875 135.756 88.9673 135.872C89.1503 135.984 89.3461 136.079 89.5548 136.156C89.7635 136.23 89.9642 136.291 90.1568 136.339L91.12 136.589C91.4347 136.667 91.7574 136.771 92.0881 136.903C92.4188 137.034 92.7254 137.208 93.0079 137.423C93.2904 137.638 93.5184 137.904 93.6918 138.222C93.8684 138.54 93.9567 138.92 93.9567 139.364C93.9567 139.922 93.8122 140.418 93.5232 140.852C93.2375 141.285 92.8217 141.627 92.2759 141.877C91.7333 142.128 91.0767 142.253 90.3061 142.253C89.5677 142.253 88.9288 142.136 88.3894 141.902C87.85 141.667 87.4278 141.335 87.1228 140.905C86.8178 140.471 86.6492 139.957 86.6171 139.364H88.11C88.1389 139.72 88.2545 140.017 88.4568 140.254C88.6623 140.489 88.9239 140.664 89.2418 140.779C89.5629 140.892 89.9144 140.948 90.2965 140.948C90.7171 140.948 91.0911 140.882 91.4186 140.751C91.7493 140.616 92.0094 140.429 92.1988 140.192C92.3883 139.951 92.483 139.67 92.483 139.349C92.483 139.057 92.3995 138.818 92.2325 138.631C92.0688 138.445 91.8456 138.291 91.5631 138.169C91.2838 138.047 90.9675 137.94 90.6144 137.846L89.4489 137.529C88.6591 137.313 88.033 136.997 87.5707 136.58C87.1115 136.162 86.882 135.61 86.882 134.923C86.882 134.355 87.0361 133.859 87.3443 133.435C87.6525 133.011 88.0699 132.682 88.5965 132.448C89.123 132.21 89.717 132.091 90.3784 132.091C91.0462 132.091 91.6354 132.209 92.1458 132.443C92.6596 132.677 93.0641 133 93.3595 133.411C93.6549 133.819 93.809 134.287 93.8218 134.817H92.3866ZM98.7353 142.239C98.0418 142.239 97.4366 142.08 96.9197 141.762C96.4028 141.444 96.0014 140.999 95.7157 140.428C95.43 139.856 95.2871 139.189 95.2871 138.424C95.2871 137.657 95.43 136.986 95.7157 136.411C96.0014 135.837 96.4028 135.39 96.9197 135.072C97.4366 134.755 98.0418 134.596 98.7353 134.596C99.4288 134.596 100.034 134.755 100.551 135.072C101.068 135.39 101.469 135.837 101.755 136.411C102.041 136.986 102.184 137.657 102.184 138.424C102.184 139.189 102.041 139.856 101.755 140.428C101.469 140.999 101.068 141.444 100.551 141.762C100.034 142.08 99.4288 142.239 98.7353 142.239ZM98.7401 141.03C99.1896 141.03 99.5621 140.911 99.8575 140.673C100.153 140.436 100.371 140.12 100.512 139.725C100.657 139.33 100.729 138.895 100.729 138.42C100.729 137.948 100.657 137.514 100.512 137.119C100.371 136.721 100.153 136.402 99.8575 136.161C99.5621 135.92 99.1896 135.8 98.7401 135.8C98.2874 135.8 97.9118 135.92 97.6132 136.161C97.3178 136.402 97.0979 136.721 96.9534 137.119C96.8121 137.514 96.7415 137.948 96.7415 138.42C96.7415 138.895 96.8121 139.33 96.9534 139.725C97.0979 140.12 97.3178 140.436 97.6132 140.673C97.9118 140.911 98.2874 141.03 98.7401 141.03ZM108.477 139.022V134.692H109.922V142.089H108.506V140.808H108.429C108.259 141.203 107.986 141.532 107.61 141.796C107.238 142.056 106.774 142.186 106.218 142.186C105.743 142.186 105.322 142.081 104.956 141.873C104.594 141.661 104.308 141.348 104.099 140.934C103.894 140.519 103.791 140.007 103.791 139.397V134.692H105.231V139.224C105.231 139.728 105.371 140.129 105.65 140.428C105.929 140.726 106.292 140.876 106.738 140.876C107.008 140.876 107.276 140.808 107.543 140.673C107.812 140.539 108.035 140.335 108.212 140.062C108.392 139.789 108.48 139.442 108.477 139.022ZM111.856 142.089V134.692H113.248V135.867H113.325C113.46 135.469 113.698 135.156 114.038 134.928C114.382 134.697 114.77 134.581 115.204 134.581C115.294 134.581 115.399 134.584 115.521 134.591C115.647 134.597 115.745 134.605 115.815 134.615V135.992C115.757 135.976 115.655 135.959 115.507 135.939C115.359 135.917 115.212 135.906 115.064 135.906C114.724 135.906 114.42 135.978 114.154 136.122C113.89 136.264 113.682 136.461 113.528 136.715C113.374 136.965 113.296 137.251 113.296 137.572V142.089H111.856ZM119.912 142.239C119.196 142.239 118.58 142.077 118.063 141.752C117.549 141.425 117.154 140.974 116.878 140.399C116.602 139.824 116.464 139.166 116.464 138.424C116.464 137.673 116.605 137.01 116.888 136.435C117.171 135.857 117.569 135.406 118.082 135.082C118.596 134.758 119.201 134.596 119.898 134.596C120.46 134.596 120.961 134.7 121.401 134.909C121.84 135.114 122.195 135.403 122.465 135.776C122.738 136.148 122.9 136.583 122.951 137.081H121.55C121.473 136.734 121.296 136.435 121.02 136.185C120.747 135.935 120.381 135.809 119.922 135.809C119.521 135.809 119.169 135.915 118.867 136.127C118.569 136.336 118.336 136.634 118.169 137.023C118.002 137.408 117.919 137.864 117.919 138.391C117.919 138.93 118 139.396 118.164 139.787C118.328 140.179 118.559 140.482 118.858 140.698C119.16 140.913 119.514 141.02 119.922 141.02C120.195 141.02 120.442 140.97 120.664 140.871C120.888 140.768 121.076 140.622 121.227 140.433C121.381 140.243 121.489 140.015 121.55 139.749H122.951C122.9 140.227 122.744 140.654 122.484 141.03C122.224 141.405 121.876 141.701 121.439 141.916C121.006 142.131 120.497 142.239 119.912 142.239ZM127.679 142.239C126.951 142.239 126.323 142.083 125.796 141.772C125.273 141.457 124.869 141.015 124.583 140.447C124.3 139.876 124.159 139.206 124.159 138.439C124.159 137.681 124.3 137.013 124.583 136.435C124.869 135.857 125.267 135.406 125.777 135.082C126.291 134.758 126.891 134.596 127.578 134.596C127.996 134.596 128.4 134.665 128.792 134.803C129.184 134.941 129.535 135.158 129.847 135.453C130.158 135.748 130.404 136.132 130.583 136.604C130.763 137.073 130.853 137.643 130.853 138.314V138.824H124.973V137.745H129.442C129.442 137.366 129.365 137.031 129.211 136.739C129.057 136.443 128.84 136.211 128.561 136.04C128.285 135.87 127.96 135.785 127.588 135.785C127.183 135.785 126.83 135.885 126.528 136.084C126.23 136.28 125.999 136.537 125.835 136.854C125.674 137.169 125.594 137.511 125.594 137.88V138.723C125.594 139.217 125.681 139.638 125.854 139.985C126.031 140.332 126.276 140.596 126.591 140.779C126.906 140.959 127.273 141.049 127.694 141.049C127.967 141.049 128.216 141.011 128.44 140.934C128.665 140.853 128.859 140.734 129.023 140.577C129.187 140.42 129.312 140.226 129.399 139.994L130.762 140.24C130.653 140.641 130.457 140.993 130.174 141.295C129.895 141.593 129.543 141.826 129.119 141.993C128.699 142.157 128.219 142.239 127.679 142.239ZM136.021 142.089V141.011L139.358 137.553C139.715 137.177 140.008 136.848 140.24 136.565C140.474 136.28 140.649 136.008 140.764 135.752C140.88 135.495 140.938 135.222 140.938 134.933C140.938 134.605 140.861 134.323 140.707 134.085C140.553 133.844 140.342 133.66 140.076 133.531C139.809 133.4 139.509 133.334 139.175 133.334C138.822 133.334 138.514 133.406 138.251 133.551C137.987 133.695 137.785 133.899 137.644 134.162C137.502 134.426 137.432 134.734 137.432 135.087H136.011C136.011 134.487 136.149 133.962 136.425 133.512C136.701 133.063 137.08 132.714 137.562 132.467C138.043 132.217 138.591 132.091 139.204 132.091C139.824 132.091 140.37 132.215 140.842 132.462C141.317 132.706 141.688 133.04 141.954 133.464C142.221 133.885 142.354 134.36 142.354 134.889C142.354 135.255 142.285 135.613 142.147 135.963C142.012 136.313 141.776 136.703 141.439 137.134C141.102 137.561 140.633 138.079 140.032 138.689L138.072 140.741V140.813H142.513V142.089H136.021Z" fill="url(#paint3_linear_50_819)"/>
<g filter="url(#filter3_ddd_50_819)">
<rect x="231.943" y="127.418" width="20.3427" height="20.3427" rx="10.1714" fill="url(#paint4_linear_50_819)"/>
<path d="M246.011 137.375H242.578H241.434H238.002V138.519H241.434H242.578H246.011V137.375Z" fill="#D9D9D9"/>
</g>
</g>
<rect x="41.3579" y="113.733" width="223.284" height="47.7127" rx="13.9574" stroke="url(#paint5_linear_50_819)" stroke-opacity="0.1" stroke-width="0.715762" shape-rendering="crispEdges"/>
</g>
<g filter="url(#filter4_di_50_819)">
<g clip-path="url(#clip2_50_819)">
<rect x="41" y="182.375" width="224" height="48.4284" rx="14.3152" fill="url(#paint6_linear_50_819)" fill-opacity="0.06" shape-rendering="crispEdges"/>
<g filter="url(#filter5_f_50_819)">
<ellipse cx="258" cy="223.518" rx="62" ry="50" fill="url(#paint7_linear_50_819)"/>
</g>
<path fill-rule="evenodd" clip-rule="evenodd" d="M53.7161 203.729H68.9694C68.9579 201.655 68.8664 200.531 68.1331 199.799C67.2959 198.961 65.9466 198.961 63.2499 198.961H59.4356C56.7389 198.961 55.3896 198.961 54.5524 199.799C53.8191 200.531 53.7276 201.655 53.7161 203.729ZM68.9713 205.636H53.7142V208.497C53.7142 211.193 53.7142 212.543 54.5524 213.38C55.3896 214.218 56.7389 214.218 59.4356 214.218H63.2499C65.9466 214.218 67.2959 214.218 68.1331 213.38C68.9713 212.543 68.9713 211.193 68.9713 208.497V205.636Z" fill="url(#paint8_linear_50_819)"/>
<path d="M92.3866 203.817C92.3353 203.361 92.1234 203.008 91.7509 202.758C91.3785 202.504 90.9097 202.377 90.3447 202.377C89.9401 202.377 89.5902 202.441 89.2948 202.57C88.9994 202.695 88.7698 202.868 88.6061 203.09C88.4456 203.308 88.3653 203.557 88.3653 203.836C88.3653 204.071 88.4199 204.273 88.529 204.443C88.6414 204.613 88.7875 204.756 88.9673 204.872C89.1503 204.984 89.3461 205.079 89.5548 205.156C89.7635 205.23 89.9642 205.291 90.1568 205.339L91.12 205.589C91.4347 205.667 91.7574 205.771 92.0881 205.903C92.4188 206.034 92.7254 206.208 93.0079 206.423C93.2904 206.638 93.5184 206.904 93.6918 207.222C93.8684 207.54 93.9567 207.92 93.9567 208.364C93.9567 208.922 93.8122 209.418 93.5232 209.852C93.2375 210.285 92.8217 210.627 92.2759 210.877C91.7333 211.128 91.0767 211.253 90.3061 211.253C89.5677 211.253 88.9288 211.136 88.3894 210.902C87.85 210.667 87.4278 210.335 87.1228 209.905C86.8178 209.471 86.6492 208.957 86.6171 208.364H88.11C88.1389 208.72 88.2545 209.017 88.4568 209.254C88.6623 209.489 88.9239 209.664 89.2418 209.779C89.5629 209.892 89.9144 209.948 90.2965 209.948C90.7171 209.948 91.0911 209.882 91.4186 209.751C91.7493 209.616 92.0094 209.429 92.1988 209.192C92.3883 208.951 92.483 208.67 92.483 208.349C92.483 208.057 92.3995 207.818 92.2325 207.631C92.0688 207.445 91.8456 207.291 91.5631 207.169C91.2838 207.047 90.9675 206.94 90.6144 206.846L89.4489 206.529C88.6591 206.313 88.033 205.997 87.5707 205.58C87.1115 205.162 86.882 204.61 86.882 203.923C86.882 203.355 87.0361 202.859 87.3443 202.435C87.6525 202.011 88.0699 201.682 88.5965 201.448C89.123 201.21 89.717 201.091 90.3784 201.091C91.0462 201.091 91.6354 201.209 92.1458 201.443C92.6596 201.677 93.0641 202 93.3595 202.411C93.6549 202.819 93.809 203.287 93.8218 203.817H92.3866ZM98.7353 211.239C98.0418 211.239 97.4366 211.08 96.9197 210.762C96.4028 210.444 96.0014 209.999 95.7157 209.428C95.43 208.856 95.2871 208.189 95.2871 207.424C95.2871 206.657 95.43 205.986 95.7157 205.411C96.0014 204.837 96.4028 204.39 96.9197 204.072C97.4366 203.755 98.0418 203.596 98.7353 203.596C99.4288 203.596 100.034 203.755 100.551 204.072C101.068 204.39 101.469 204.837 101.755 205.411C102.041 205.986 102.184 206.657 102.184 207.424C102.184 208.189 102.041 208.856 101.755 209.428C101.469 209.999 101.068 210.444 100.551 210.762C100.034 211.08 99.4288 211.239 98.7353 211.239ZM98.7401 210.03C99.1896 210.03 99.5621 209.911 99.8575 209.673C100.153 209.436 100.371 209.12 100.512 208.725C100.657 208.33 100.729 207.895 100.729 207.42C100.729 206.948 100.657 206.514 100.512 206.119C100.371 205.721 100.153 205.402 99.8575 205.161C99.5621 204.92 99.1896 204.8 98.7401 204.8C98.2874 204.8 97.9118 204.92 97.6132 205.161C97.3178 205.402 97.0979 205.721 96.9534 206.119C96.8121 206.514 96.7415 206.948 96.7415 207.42C96.7415 207.895 96.8121 208.33 96.9534 208.725C97.0979 209.12 97.3178 209.436 97.6132 209.673C97.9118 209.911 98.2874 210.03 98.7401 210.03ZM108.477 208.022V203.692H109.922V211.089H108.506V209.808H108.429C108.259 210.203 107.986 210.532 107.61 210.796C107.238 211.056 106.774 211.186 106.218 211.186C105.743 211.186 105.322 211.081 104.956 210.873C104.594 210.661 104.308 210.348 104.099 209.934C103.894 209.519 103.791 209.007 103.791 208.397V203.692H105.231V208.224C105.231 208.728 105.371 209.129 105.65 209.428C105.929 209.726 106.292 209.876 106.738 209.876C107.008 209.876 107.276 209.808 107.543 209.673C107.812 209.539 108.035 209.335 108.212 209.062C108.392 208.789 108.48 208.442 108.477 208.022ZM111.856 211.089V203.692H113.248V204.867H113.325C113.46 204.469 113.698 204.156 114.038 203.928C114.382 203.697 114.77 203.581 115.204 203.581C115.294 203.581 115.399 203.584 115.521 203.591C115.647 203.597 115.745 203.605 115.815 203.615V204.992C115.757 204.976 115.655 204.959 115.507 204.939C115.359 204.917 115.212 204.906 115.064 204.906C114.724 204.906 114.42 204.978 114.154 205.122C113.89 205.264 113.682 205.461 113.528 205.715C113.374 205.965 113.296 206.251 113.296 206.572V211.089H111.856ZM119.912 211.239C119.196 211.239 118.58 211.077 118.063 210.752C117.549 210.425 117.154 209.974 116.878 209.399C116.602 208.824 116.464 208.166 116.464 207.424C116.464 206.673 116.605 206.01 116.888 205.435C117.171 204.857 117.569 204.406 118.082 204.082C118.596 203.758 119.201 203.596 119.898 203.596C120.46 203.596 120.961 203.7 121.401 203.909C121.84 204.114 122.195 204.403 122.465 204.776C122.738 205.148 122.9 205.583 122.951 206.081H121.55C121.473 205.734 121.296 205.435 121.02 205.185C120.747 204.935 120.381 204.809 119.922 204.809C119.521 204.809 119.169 204.915 118.867 205.127C118.569 205.336 118.336 205.634 118.169 206.023C118.002 206.408 117.919 206.864 117.919 207.391C117.919 207.93 118 208.396 118.164 208.787C118.328 209.179 118.559 209.482 118.858 209.698C119.16 209.913 119.514 210.02 119.922 210.02C120.195 210.02 120.442 209.97 120.664 209.871C120.888 209.768 121.076 209.622 121.227 209.433C121.381 209.243 121.489 209.015 121.55 208.749H122.951C122.9 209.227 122.744 209.654 122.484 210.03C122.224 210.405 121.876 210.701 121.439 210.916C121.006 211.131 120.497 211.239 119.912 211.239ZM127.679 211.239C126.951 211.239 126.323 211.083 125.796 210.772C125.273 210.457 124.869 210.015 124.583 209.447C124.3 208.876 124.159 208.206 124.159 207.439C124.159 206.681 124.3 206.013 124.583 205.435C124.869 204.857 125.267 204.406 125.777 204.082C126.291 203.758 126.891 203.596 127.578 203.596C127.996 203.596 128.4 203.665 128.792 203.803C129.184 203.941 129.535 204.158 129.847 204.453C130.158 204.748 130.404 205.132 130.583 205.604C130.763 206.073 130.853 206.643 130.853 207.314V207.824H124.973V206.745H129.442C129.442 206.366 129.365 206.031 129.211 205.739C129.057 205.443 128.84 205.211 128.561 205.04C128.285 204.87 127.96 204.785 127.588 204.785C127.183 204.785 126.83 204.885 126.528 205.084C126.23 205.28 125.999 205.537 125.835 205.854C125.674 206.169 125.594 206.511 125.594 206.88V207.723C125.594 208.217 125.681 208.638 125.854 208.985C126.031 209.332 126.276 209.596 126.591 209.779C126.906 209.959 127.273 210.049 127.694 210.049C127.967 210.049 128.216 210.011 128.44 209.934C128.665 209.853 128.859 209.734 129.023 209.577C129.187 209.42 129.312 209.226 129.399 208.994L130.762 209.24C130.653 209.641 130.457 209.993 130.174 210.295C129.895 210.593 129.543 210.826 129.119 210.993C128.699 211.157 128.219 211.239 127.679 211.239ZM139.455 211.224C138.793 211.224 138.202 211.11 137.682 210.882C137.165 210.654 136.756 210.338 136.454 209.934C136.156 209.526 135.995 209.054 135.973 208.518H137.485C137.504 208.81 137.602 209.063 137.779 209.279C137.958 209.49 138.193 209.654 138.482 209.77C138.771 209.885 139.092 209.943 139.445 209.943C139.833 209.943 140.177 209.876 140.476 209.741C140.777 209.606 141.013 209.418 141.183 209.177C141.354 208.933 141.439 208.652 141.439 208.335C141.439 208.004 141.354 207.713 141.183 207.463C141.017 207.209 140.771 207.01 140.447 206.866C140.126 206.721 139.737 206.649 139.281 206.649H138.448V205.435H139.281C139.647 205.435 139.968 205.37 140.244 205.238C140.524 205.106 140.742 204.923 140.899 204.689C141.057 204.451 141.135 204.174 141.135 203.856C141.135 203.551 141.066 203.286 140.928 203.061C140.793 202.833 140.601 202.655 140.35 202.527C140.103 202.398 139.811 202.334 139.474 202.334C139.153 202.334 138.853 202.393 138.573 202.512C138.297 202.628 138.072 202.795 137.899 203.013C137.726 203.228 137.632 203.487 137.62 203.788H136.18C136.196 203.255 136.353 202.787 136.652 202.382C136.953 201.977 137.352 201.661 137.846 201.433C138.34 201.205 138.889 201.091 139.493 201.091C140.126 201.091 140.671 201.215 141.131 201.462C141.593 201.706 141.949 202.032 142.2 202.44C142.453 202.848 142.579 203.294 142.575 203.779C142.579 204.331 142.424 204.8 142.113 205.185C141.805 205.57 141.394 205.829 140.88 205.96V206.037C141.535 206.137 142.042 206.397 142.402 206.818C142.765 207.238 142.945 207.76 142.941 208.383C142.945 208.925 142.794 209.412 142.489 209.842C142.187 210.272 141.774 210.611 141.251 210.858C140.728 211.102 140.129 211.224 139.455 211.224Z" fill="url(#paint9_linear_50_819)"/>
<g filter="url(#filter6_ddd_50_819)">
<rect x="231.943" y="196.418" width="20.3427" height="20.3427" rx="10.1714" fill="url(#paint10_linear_50_819)"/>
<rect x="231.943" y="196.418" width="20.3427" height="20.3427" rx="10.1714" fill="url(#paint11_linear_50_819)" fill-opacity="0.9"/>
<path d="M241.434 205.808V202.375H242.578V205.808H246.011V206.952H242.578V210.385H241.434V206.952H238.002V205.808H241.434Z" fill="white" fill-opacity="0.8"/>
</g>
</g>
<rect x="41.3579" y="182.733" width="223.284" height="47.7127" rx="13.9574" stroke="url(#paint12_linear_50_819)" stroke-opacity="0.1" stroke-width="0.715762" shape-rendering="crispEdges"/>
</g>
<g filter="url(#filter7_di_50_819)">
<g clip-path="url(#clip3_50_819)">
<rect x="41" y="250.375" width="224" height="48.4284" rx="14.3152" fill="url(#paint13_linear_50_819)" fill-opacity="0.06" shape-rendering="crispEdges"/>
<g filter="url(#filter8_f_50_819)">
<ellipse cx="258" cy="291.518" rx="62" ry="50" fill="url(#paint14_linear_50_819)"/>
</g>
<path fill-rule="evenodd" clip-rule="evenodd" d="M53.7161 271.729H68.9694C68.9579 269.655 68.8664 268.531 68.1331 267.799C67.2959 266.961 65.9466 266.961 63.2499 266.961H59.4356C56.7389 266.961 55.3896 266.961 54.5524 267.799C53.8191 268.531 53.7276 269.655 53.7161 271.729ZM68.9713 273.636H53.7142V276.497C53.7142 279.193 53.7142 280.543 54.5524 281.38C55.3896 282.218 56.7389 282.218 59.4356 282.218H63.2499C65.9466 282.218 67.2959 282.218 68.1331 281.38C68.9713 280.543 68.9713 279.193 68.9713 276.497V273.636Z" fill="url(#paint15_linear_50_819)"/>
<path d="M92.3866 271.817C92.3353 271.361 92.1234 271.008 91.7509 270.758C91.3785 270.504 90.9097 270.377 90.3447 270.377C89.9401 270.377 89.5902 270.441 89.2948 270.57C88.9994 270.695 88.7698 270.868 88.6061 271.09C88.4456 271.308 88.3653 271.557 88.3653 271.836C88.3653 272.071 88.4199 272.273 88.529 272.443C88.6414 272.613 88.7875 272.756 88.9673 272.872C89.1503 272.984 89.3461 273.079 89.5548 273.156C89.7635 273.23 89.9642 273.291 90.1568 273.339L91.12 273.589C91.4347 273.667 91.7574 273.771 92.0881 273.903C92.4188 274.034 92.7254 274.208 93.0079 274.423C93.2904 274.638 93.5184 274.904 93.6918 275.222C93.8684 275.54 93.9567 275.92 93.9567 276.364C93.9567 276.922 93.8122 277.418 93.5232 277.852C93.2375 278.285 92.8217 278.627 92.2759 278.877C91.7333 279.128 91.0767 279.253 90.3061 279.253C89.5677 279.253 88.9288 279.136 88.3894 278.902C87.85 278.667 87.4278 278.335 87.1228 277.905C86.8178 277.471 86.6492 276.957 86.6171 276.364H88.11C88.1389 276.72 88.2545 277.017 88.4568 277.254C88.6623 277.489 88.9239 277.664 89.2418 277.779C89.5629 277.892 89.9144 277.948 90.2965 277.948C90.7171 277.948 91.0911 277.882 91.4186 277.751C91.7493 277.616 92.0094 277.429 92.1988 277.192C92.3883 276.951 92.483 276.67 92.483 276.349C92.483 276.057 92.3995 275.818 92.2325 275.631C92.0688 275.445 91.8456 275.291 91.5631 275.169C91.2838 275.047 90.9675 274.94 90.6144 274.846L89.4489 274.529C88.6591 274.313 88.033 273.997 87.5707 273.58C87.1115 273.162 86.882 272.61 86.882 271.923C86.882 271.355 87.0361 270.859 87.3443 270.435C87.6525 270.011 88.0699 269.682 88.5965 269.448C89.123 269.21 89.717 269.091 90.3784 269.091C91.0462 269.091 91.6354 269.209 92.1458 269.443C92.6596 269.677 93.0641 270 93.3595 270.411C93.6549 270.819 93.809 271.287 93.8218 271.817H92.3866ZM98.7353 279.239C98.0418 279.239 97.4366 279.08 96.9197 278.762C96.4028 278.444 96.0014 277.999 95.7157 277.428C95.43 276.856 95.2871 276.189 95.2871 275.424C95.2871 274.657 95.43 273.986 95.7157 273.411C96.0014 272.837 96.4028 272.39 96.9197 272.072C97.4366 271.755 98.0418 271.596 98.7353 271.596C99.4288 271.596 100.034 271.755 100.551 272.072C101.068 272.39 101.469 272.837 101.755 273.411C102.041 273.986 102.184 274.657 102.184 275.424C102.184 276.189 102.041 276.856 101.755 277.428C101.469 277.999 101.068 278.444 100.551 278.762C100.034 279.08 99.4288 279.239 98.7353 279.239ZM98.7401 278.03C99.1896 278.03 99.5621 277.911 99.8575 277.673C100.153 277.436 100.371 277.12 100.512 276.725C100.657 276.33 100.729 275.895 100.729 275.42C100.729 274.948 100.657 274.514 100.512 274.119C100.371 273.721 100.153 273.402 99.8575 273.161C99.5621 272.92 99.1896 272.8 98.7401 272.8C98.2874 272.8 97.9118 272.92 97.6132 273.161C97.3178 273.402 97.0979 273.721 96.9534 274.119C96.8121 274.514 96.7415 274.948 96.7415 275.42C96.7415 275.895 96.8121 276.33 96.9534 276.725C97.0979 277.12 97.3178 277.436 97.6132 277.673C97.9118 277.911 98.2874 278.03 98.7401 278.03ZM108.477 276.022V271.692H109.922V279.089H108.506V277.808H108.429C108.259 278.203 107.986 278.532 107.61 278.796C107.238 279.056 106.774 279.186 106.218 279.186C105.743 279.186 105.322 279.081 104.956 278.873C104.594 278.661 104.308 278.348 104.099 277.934C103.894 277.519 103.791 277.007 103.791 276.397V271.692H105.231V276.224C105.231 276.728 105.371 277.129 105.65 277.428C105.929 277.726 106.292 277.876 106.738 277.876C107.008 277.876 107.276 277.808 107.543 277.673C107.812 277.539 108.035 277.335 108.212 277.062C108.392 276.789 108.48 276.442 108.477 276.022ZM111.856 279.089V271.692H113.248V272.867H113.325C113.46 272.469 113.698 272.156 114.038 271.928C114.382 271.697 114.77 271.581 115.204 271.581C115.294 271.581 115.399 271.584 115.521 271.591C115.647 271.597 115.745 271.605 115.815 271.615V272.992C115.757 272.976 115.655 272.959 115.507 272.939C115.359 272.917 115.212 272.906 115.064 272.906C114.724 272.906 114.42 272.978 114.154 273.122C113.89 273.264 113.682 273.461 113.528 273.715C113.374 273.965 113.296 274.251 113.296 274.572V279.089H111.856ZM119.912 279.239C119.196 279.239 118.58 279.077 118.063 278.752C117.549 278.425 117.154 277.974 116.878 277.399C116.602 276.824 116.464 276.166 116.464 275.424C116.464 274.673 116.605 274.01 116.888 273.435C117.171 272.857 117.569 272.406 118.082 272.082C118.596 271.758 119.201 271.596 119.898 271.596C120.46 271.596 120.961 271.7 121.401 271.909C121.84 272.114 122.195 272.403 122.465 272.776C122.738 273.148 122.9 273.583 122.951 274.081H121.55C121.473 273.734 121.296 273.435 121.02 273.185C120.747 272.935 120.381 272.809 119.922 272.809C119.521 272.809 119.169 272.915 118.867 273.127C118.569 273.336 118.336 273.634 118.169 274.023C118.002 274.408 117.919 274.864 117.919 275.391C117.919 275.93 118 276.396 118.164 276.787C118.328 277.179 118.559 277.482 118.858 277.698C119.16 277.913 119.514 278.02 119.922 278.02C120.195 278.02 120.442 277.97 120.664 277.871C120.888 277.768 121.076 277.622 121.227 277.433C121.381 277.243 121.489 277.015 121.55 276.749H122.951C122.9 277.227 122.744 277.654 122.484 278.03C122.224 278.405 121.876 278.701 121.439 278.916C121.006 279.131 120.497 279.239 119.912 279.239ZM127.679 279.239C126.951 279.239 126.323 279.083 125.796 278.772C125.273 278.457 124.869 278.015 124.583 277.447C124.3 276.876 124.159 276.206 124.159 275.439C124.159 274.681 124.3 274.013 124.583 273.435C124.869 272.857 125.267 272.406 125.777 272.082C126.291 271.758 126.891 271.596 127.578 271.596C127.996 271.596 128.4 271.665 128.792 271.803C129.184 271.941 129.535 272.158 129.847 272.453C130.158 272.748 130.404 273.132 130.583 273.604C130.763 274.073 130.853 274.643 130.853 275.314V275.824H124.973V274.745H129.442C129.442 274.366 129.365 274.031 129.211 273.739C129.057 273.443 128.84 273.211 128.561 273.04C128.285 272.87 127.96 272.785 127.588 272.785C127.183 272.785 126.83 272.885 126.528 273.084C126.23 273.28 125.999 273.537 125.835 273.854C125.674 274.169 125.594 274.511 125.594 274.88V275.723C125.594 276.217 125.681 276.638 125.854 276.985C126.031 277.332 126.276 277.596 126.591 277.779C126.906 277.959 127.273 278.049 127.694 278.049C127.967 278.049 128.216 278.011 128.44 277.934C128.665 277.853 128.859 277.734 129.023 277.577C129.187 277.42 129.312 277.226 129.399 276.994L130.762 277.24C130.653 277.641 130.457 277.993 130.174 278.295C129.895 278.593 129.543 278.826 129.119 278.993C128.699 279.157 128.219 279.239 127.679 279.239ZM135.814 277.163V275.959L140.076 269.226H141.025V270.998H140.423L137.374 275.824V275.901H143.216V277.163H135.814ZM140.49 279.089V276.797L140.5 276.248V269.226H141.911V279.089H140.49Z" fill="url(#paint16_linear_50_819)"/>
<g filter="url(#filter9_ddd_50_819)">
<rect x="231.943" y="264.418" width="20.3427" height="20.3427" rx="10.1714" fill="url(#paint17_linear_50_819)"/>
<rect x="231.943" y="264.418" width="20.3427" height="20.3427" rx="10.1714" fill="url(#paint18_linear_50_819)" fill-opacity="0.9"/>
<path d="M241.434 273.808V270.375H242.578V273.808H246.011V274.952H242.578V278.385H241.434V274.952H238.002V273.808H241.434Z" fill="white" fill-opacity="0.8"/>
</g>
</g>
<rect x="41.3579" y="250.733" width="223.284" height="47.7127" rx="13.9574" stroke="url(#paint19_linear_50_819)" stroke-opacity="0.1" stroke-width="0.715762" shape-rendering="crispEdges"/>
</g>
<g filter="url(#filter10_di_50_819)">
<g clip-path="url(#clip4_50_819)">
<rect x="41" y="45.3752" width="224" height="48.4284" rx="14.3152" fill="url(#paint20_linear_50_819)" fill-opacity="0.06" shape-rendering="crispEdges"/>
<g filter="url(#filter11_f_50_819)">
<ellipse cx="258" cy="86.5183" rx="62" ry="50" fill="url(#paint21_linear_50_819)"/>
</g>
<path fill-rule="evenodd" clip-rule="evenodd" d="M53.7161 66.7288H68.9694C68.9579 64.6548 68.8664 63.5315 68.1331 62.7991C67.2959 61.9609 65.9466 61.9609 63.2499 61.9609H59.4356C56.7389 61.9609 55.3896 61.9609 54.5524 62.7991C53.8191 63.5315 53.7276 64.6548 53.7161 66.7288ZM68.9713 68.6359H53.7142V71.4966C53.7142 74.1933 53.7142 75.5426 54.5524 76.3798C55.3896 77.218 56.7389 77.218 59.4356 77.218H63.2499C65.9466 77.218 67.2959 77.218 68.1331 76.3798C68.9713 75.5426 68.9713 74.1933 68.9713 71.4966V68.6359Z" fill="url(#paint22_linear_50_819)"/>
<path d="M92.3866 66.8172C92.3353 66.3613 92.1234 66.0081 91.7509 65.7577C91.3785 65.504 90.9097 65.3772 90.3447 65.3772C89.9401 65.3772 89.5902 65.4414 89.2948 65.5699C88.9994 65.6951 88.7698 65.8685 88.6061 66.09C88.4456 66.3083 88.3653 66.5571 88.3653 66.8365C88.3653 67.0709 88.4199 67.2731 88.529 67.4433C88.6414 67.6135 88.7875 67.7563 88.9673 67.8719C89.1503 67.9843 89.3461 68.079 89.5548 68.1561C89.7635 68.2299 89.9642 68.2909 90.1568 68.3391L91.12 68.5895C91.4347 68.6665 91.7574 68.7709 92.0881 68.9025C92.4188 69.0342 92.7254 69.2075 93.0079 69.4227C93.2904 69.6378 93.5184 69.9043 93.6918 70.2221C93.8684 70.54 93.9567 70.9204 93.9567 71.3635C93.9567 71.9222 93.8122 72.4182 93.5232 72.8516C93.2375 73.2851 92.8217 73.627 92.2759 73.8775C91.7333 74.1279 91.0767 74.2531 90.3061 74.2531C89.5677 74.2531 88.9288 74.1359 88.3894 73.9015C87.85 73.6672 87.4278 73.3349 87.1228 72.9046C86.8178 72.4712 86.6492 71.9575 86.6171 71.3635H88.11C88.1389 71.7199 88.2545 72.0169 88.4568 72.2545C88.6623 72.4888 88.9239 72.6638 89.2418 72.7794C89.5629 72.8918 89.9144 72.948 90.2965 72.948C90.7171 72.948 91.0911 72.8821 91.4186 72.7505C91.7493 72.6157 92.0094 72.4294 92.1988 72.1919C92.3883 71.9511 92.483 71.6701 92.483 71.3491C92.483 71.0569 92.3995 70.8177 92.2325 70.6315C92.0688 70.4453 91.8456 70.2911 91.5631 70.1691C91.2838 70.0471 90.9675 69.9396 90.6144 69.8465L89.4489 69.5286C88.6591 69.3135 88.033 68.9972 87.5707 68.5799C87.1115 68.1625 86.882 67.6102 86.882 66.9232C86.882 66.3549 87.0361 65.8588 87.3443 65.435C87.6525 65.0112 88.0699 64.6821 88.5965 64.4477C89.123 64.2102 89.717 64.0914 90.3784 64.0914C91.0462 64.0914 91.6354 64.2085 92.1458 64.4429C92.6596 64.6773 93.0641 65 93.3595 65.4109C93.6549 65.8187 93.809 66.2874 93.8218 66.8172H92.3866ZM98.7353 74.2387C98.0418 74.2387 97.4366 74.0797 96.9197 73.7619C96.4028 73.444 96.0014 72.9993 95.7157 72.4278C95.43 71.8563 95.2871 71.1885 95.2871 70.4244C95.2871 69.657 95.43 68.986 95.7157 68.4113C96.0014 67.8366 96.4028 67.3903 96.9197 67.0725C97.4366 66.7546 98.0418 66.5957 98.7353 66.5957C99.4288 66.5957 100.034 66.7546 100.551 67.0725C101.068 67.3903 101.469 67.8366 101.755 68.4113C102.041 68.986 102.184 69.657 102.184 70.4244C102.184 71.1885 102.041 71.8563 101.755 72.4278C101.469 72.9993 101.068 73.444 100.551 73.7619C100.034 74.0797 99.4288 74.2387 98.7353 74.2387ZM98.7401 73.0298C99.1896 73.0298 99.5621 72.911 99.8575 72.6735C100.153 72.4359 100.371 72.1196 100.512 71.7247C100.657 71.3298 100.729 70.8947 100.729 70.4196C100.729 69.9476 100.657 69.5142 100.512 69.1193C100.371 68.7211 100.153 68.4017 99.8575 68.1609C99.5621 67.9201 99.1896 67.7997 98.7401 67.7997C98.2874 67.7997 97.9118 67.9201 97.6132 68.1609C97.3178 68.4017 97.0979 68.7211 96.9534 69.1193C96.8121 69.5142 96.7415 69.9476 96.7415 70.4196C96.7415 70.8947 96.8121 71.3298 96.9534 71.7247C97.0979 72.1196 97.3178 72.4359 97.6132 72.6735C97.9118 72.911 98.2874 73.0298 98.7401 73.0298ZM108.477 71.0216V66.692H109.922V74.0894H108.506V72.8083H108.429C108.259 73.2032 107.986 73.5323 107.61 73.7956C107.238 74.0556 106.774 74.1857 106.218 74.1857C105.743 74.1857 105.322 74.0813 104.956 73.8726C104.594 73.6607 104.308 73.3477 104.099 72.9335C103.894 72.5193 103.791 72.0072 103.791 71.3972V66.692H105.231V71.2238C105.231 71.7279 105.371 72.1292 105.65 72.4278C105.929 72.7264 106.292 72.8757 106.738 72.8757C107.008 72.8757 107.276 72.8083 107.543 72.6735C107.812 72.5386 108.035 72.3347 108.212 72.0618C108.392 71.7889 108.48 71.4422 108.477 71.0216ZM111.856 74.0894V66.692H113.248V67.8671H113.325C113.46 67.469 113.698 67.1559 114.038 66.928C114.382 66.6968 114.77 66.5812 115.204 66.5812C115.294 66.5812 115.399 66.5844 115.521 66.5909C115.647 66.5973 115.745 66.6053 115.815 66.6149V67.9923C115.757 67.9763 115.655 67.9586 115.507 67.9393C115.359 67.9169 115.212 67.9056 115.064 67.9056C114.724 67.9056 114.42 67.9779 114.154 68.1223C113.89 68.2636 113.682 68.4611 113.528 68.7147C113.374 68.9651 113.296 69.2509 113.296 69.572V74.0894H111.856ZM119.912 74.2387C119.196 74.2387 118.58 74.0765 118.063 73.7522C117.549 73.4247 117.154 72.9737 116.878 72.3989C116.602 71.8242 116.464 71.166 116.464 70.4244C116.464 69.6731 116.605 69.0101 116.888 68.4354C117.171 67.8575 117.569 67.4064 118.082 67.0821C118.596 66.7578 119.201 66.5957 119.898 66.5957C120.46 66.5957 120.961 66.7 121.401 66.9087C121.84 67.1142 122.195 67.4032 122.465 67.7756C122.738 68.148 122.9 68.5831 122.951 69.0807H121.55C121.473 68.734 121.296 68.4354 121.02 68.1849C120.747 67.9345 120.381 67.8093 119.922 67.8093C119.521 67.8093 119.169 67.9153 118.867 68.1272C118.569 68.3359 118.336 68.6344 118.169 69.0229C118.002 69.4082 117.919 69.8641 117.919 70.3907C117.919 70.9301 118 71.3956 118.164 71.7873C118.328 72.179 118.559 72.4824 118.858 72.6975C119.16 72.9126 119.514 73.0202 119.922 73.0202C120.195 73.0202 120.442 72.9704 120.664 72.8709C120.888 72.7682 121.076 72.6221 121.227 72.4327C121.381 72.2432 121.489 72.0153 121.55 71.7488H122.951C122.9 72.2272 122.744 72.6542 122.484 73.0298C122.224 73.4055 121.876 73.7009 121.439 73.916C121.006 74.1311 120.497 74.2387 119.912 74.2387ZM127.679 74.2387C126.951 74.2387 126.323 74.0829 125.796 73.7715C125.273 73.4569 124.869 73.0154 124.583 72.4471C124.3 71.8756 124.159 71.2062 124.159 70.4388C124.159 69.6811 124.3 69.0133 124.583 68.4354C124.869 67.8575 125.267 67.4064 125.777 67.0821C126.291 66.7578 126.891 66.5957 127.578 66.5957C127.996 66.5957 128.4 66.6647 128.792 66.8028C129.184 66.9408 129.535 67.1575 129.847 67.4529C130.158 67.7483 130.404 68.132 130.583 68.6039C130.763 69.0727 130.853 69.6426 130.853 70.3136V70.8241H124.973V69.7453H129.442C129.442 69.3665 129.365 69.031 129.211 68.7388C129.057 68.4434 128.84 68.2106 128.561 68.0405C128.285 67.8703 127.96 67.7852 127.588 67.7852C127.183 67.7852 126.83 67.8848 126.528 68.0838C126.23 68.2797 125.999 68.5365 125.835 68.8544C125.674 69.169 125.594 69.511 125.594 69.8802V70.723C125.594 71.2174 125.681 71.638 125.854 71.9848C126.031 72.3315 126.276 72.5964 126.591 72.7794C126.906 72.9592 127.273 73.0491 127.694 73.0491C127.967 73.0491 128.216 73.0106 128.44 72.9335C128.665 72.8533 128.859 72.7345 129.023 72.5771C129.187 72.4198 129.312 72.2256 129.399 71.9944L130.762 72.24C130.653 72.6413 130.457 72.9929 130.174 73.2947C129.895 73.5933 129.543 73.8261 129.119 73.993C128.699 74.1568 128.219 74.2387 127.679 74.2387ZM139.763 64.2262V74.0894H138.27V65.7192H138.212L135.852 67.2603V65.8347L138.313 64.2262H139.763Z" fill="url(#paint23_linear_50_819)"/>
<g filter="url(#filter12_ddd_50_819)">
<rect x="231.943" y="59.418" width="20.3427" height="20.3427" rx="10.1714" fill="url(#paint24_linear_50_819)"/>
<rect x="231.943" y="59.418" width="20.3427" height="20.3427" rx="10.1714" fill="url(#paint25_linear_50_819)" fill-opacity="0.9"/>
<path d="M241.434 68.8077V65.375H242.578V68.8077H246.011V69.9519H242.578V73.3846H241.434V69.9519H238.002V68.8077H241.434Z" fill="white" fill-opacity="0.8"/>
</g>
</g>
<rect x="41.3579" y="45.7331" width="223.284" height="47.7127" rx="13.9574" stroke="url(#paint26_linear_50_819)" stroke-opacity="0.1" stroke-width="0.715762" shape-rendering="crispEdges"/>
</g>
<g filter="url(#filter13_ddddi_50_819)">
<path d="M271.28 297.622C271.014 297.553 270.735 297.562 270.475 297.646C270.214 297.73 269.983 297.887 269.808 298.097C269.633 298.308 269.522 298.564 269.487 298.836C269.452 299.107 269.495 299.383 269.611 299.631L278.163 317.942C278.73 319.154 280.495 319.011 280.86 317.726L282.982 310.245C283.067 309.946 283.215 309.669 283.416 309.433C283.617 309.196 283.867 309.006 284.149 308.874L291.463 305.458C292.69 304.885 292.524 303.089 291.213 302.751L271.28 297.622Z" fill="white"/>
<path d="M271.28 297.622C271.014 297.553 270.735 297.562 270.475 297.646C270.214 297.73 269.983 297.887 269.808 298.097C269.633 298.308 269.522 298.564 269.487 298.836C269.452 299.107 269.495 299.383 269.611 299.631L278.163 317.942C278.73 319.154 280.495 319.011 280.86 317.726L282.982 310.245C283.067 309.946 283.215 309.669 283.416 309.433C283.617 309.196 283.867 309.006 284.149 308.874L291.463 305.458C292.69 304.885 292.524 303.089 291.213 302.751L271.28 297.622Z" fill="url(#paint27_linear_50_819)" fill-opacity="0.9"/>
</g>
</g>
<defs>
<filter id="filter0_f_50_819" x="-269.38" y="10.6199" width="632.76" height="535.76" filterUnits="userSpaceOnUse" color-interpolation-filters="sRGB">
<feFlood flood-opacity="0" result="BackgroundImageFix"/>
<feBlend mode="normal" in="SourceGraphic" in2="BackgroundImageFix" result="shape"/>
<feGaussianBlur stdDeviation="89.6901" result="effect1_foregroundBlur_50_819"/>
</filter>
<filter id="filter1_di_50_819" x="12.1811" y="87.9468" width="281.638" height="106.066" filterUnits="userSpaceOnUse" color-interpolation-filters="sRGB">
<feFlood flood-opacity="0" result="BackgroundImageFix"/>
<feColorMatrix in="SourceAlpha" type="matrix" values="0 0 0 0 0 0 0 0 0 0 0 0 0 0 0 0 0 0 127 0" result="hardAlpha"/>
<feOffset dy="3.39046"/>
<feGaussianBlur stdDeviation="14.4094"/>
<feComposite in2="hardAlpha" operator="out"/>
<feColorMatrix type="matrix" values="0 0 0 0 0 0 0 0 0 0 0 0 0 0 0 0 0 0 0.25 0"/>
<feBlend mode="normal" in2="BackgroundImageFix" result="effect1_dropShadow_50_819"/>
<feBlend mode="normal" in="SourceGraphic" in2="effect1_dropShadow_50_819" result="shape"/>
<feColorMatrix in="SourceAlpha" type="matrix" values="0 0 0 0 0 0 0 0 0 0 0 0 0 0 0 0 0 0 127 0" result="hardAlpha"/>
<feOffset/>
<feGaussianBlur stdDeviation="8.47614"/>
<feComposite in2="hardAlpha" operator="arithmetic" k2="-1" k3="1"/>
<feColorMatrix type="matrix" values="0 0 0 0 1 0 0 0 0 1 0 0 0 0 1 0 0 0 0.06 0"/>
<feBlend mode="normal" in2="shape" result="effect2_innerShadow_50_819"/>
</filter>
<filter id="filter2_f_50_819" x="144.903" y="20.9849" width="274.627" height="254.284" filterUnits="userSpaceOnUse" color-interpolation-filters="sRGB">
<feFlood flood-opacity="0" result="BackgroundImageFix"/>
<feBlend mode="normal" in="SourceGraphic" in2="BackgroundImageFix" result="shape"/>
<feGaussianBlur stdDeviation="42.3807" result="effect1_foregroundBlur_50_819"/>
</filter>
<filter id="filter3_ddd_50_819" x="229.4" y="127.418" width="25.4285" height="27.9713" filterUnits="userSpaceOnUse" color-interpolation-filters="sRGB">
<feFlood flood-opacity="0" result="BackgroundImageFix"/>
<feColorMatrix in="SourceAlpha" type="matrix" values="0 0 0 0 0 0 0 0 0 0 0 0 0 0 0 0 0 0 127 0" result="hardAlpha"/>
<feOffset dy="0.847615"/>
<feGaussianBlur stdDeviation="0.423807"/>
<feColorMatrix type="matrix" values="0 0 0 0 0 0 0 0 0 0 0 0 0 0 0 0 0 0 0.02 0"/>
<feBlend mode="normal" in2="BackgroundImageFix" result="effect1_dropShadow_50_819"/>
<feColorMatrix in="SourceAlpha" type="matrix" values="0 0 0 0 0 0 0 0 0 0 0 0 0 0 0 0 0 0 127 0" result="hardAlpha"/>
<feOffset dy="1.69523"/>
<feGaussianBlur stdDeviation="0.847615"/>
<feColorMatrix type="matrix" values="0 0 0 0 0 0 0 0 0 0 0 0 0 0 0 0 0 0 0.02 0"/>
<feBlend mode="normal" in2="effect1_dropShadow_50_819" result="effect2_dropShadow_50_819"/>
<feColorMatrix in="SourceAlpha" type="matrix" values="0 0 0 0 0 0 0 0 0 0 0 0 0 0 0 0 0 0 127 0" result="hardAlpha"/>
<feOffset dy="5.08569"/>
<feGaussianBlur stdDeviation="1.27142"/>
<feColorMatrix type="matrix" values="0 0 0 0 0 0 0 0 0 0 0 0 0 0 0 0 0 0 0.01 0"/>
<feBlend mode="normal" in2="effect2_dropShadow_50_819" result="effect3_dropShadow_50_819"/>
<feBlend mode="normal" in="SourceGraphic" in2="effect3_dropShadow_50_819" result="shape"/>
</filter>
<filter id="filter4_di_50_819" x="12.1811" y="156.947" width="281.638" height="106.066" filterUnits="userSpaceOnUse" color-interpolation-filters="sRGB">
<feFlood flood-opacity="0" result="BackgroundImageFix"/>
<feColorMatrix in="SourceAlpha" type="matrix" values="0 0 0 0 0 0 0 0 0 0 0 0 0 0 0 0 0 0 127 0" result="hardAlpha"/>
<feOffset dy="3.39046"/>
<feGaussianBlur stdDeviation="14.4094"/>
<feComposite in2="hardAlpha" operator="out"/>
<feColorMatrix type="matrix" values="0 0 0 0 0 0 0 0 0 0 0 0 0 0 0 0 0 0 0.25 0"/>
<feBlend mode="normal" in2="BackgroundImageFix" result="effect1_dropShadow_50_819"/>
<feBlend mode="normal" in="SourceGraphic" in2="effect1_dropShadow_50_819" result="shape"/>
<feColorMatrix in="SourceAlpha" type="matrix" values="0 0 0 0 0 0 0 0 0 0 0 0 0 0 0 0 0 0 127 0" result="hardAlpha"/>
<feOffset/>
<feGaussianBlur stdDeviation="8.47614"/>
<feComposite in2="hardAlpha" operator="arithmetic" k2="-1" k3="1"/>
<feColorMatrix type="matrix" values="0 0 0 0 1 0 0 0 0 1 0 0 0 0 1 0 0 0 0.06 0"/>
<feBlend mode="normal" in2="shape" result="effect2_innerShadow_50_819"/>
</filter>
<filter id="filter5_f_50_819" x="106" y="83.5183" width="304" height="280" filterUnits="userSpaceOnUse" color-interpolation-filters="sRGB">
<feFlood flood-opacity="0" result="BackgroundImageFix"/>
<feBlend mode="normal" in="SourceGraphic" in2="BackgroundImageFix" result="shape"/>
<feGaussianBlur stdDeviation="45" result="effect1_foregroundBlur_50_819"/>
</filter>
<filter id="filter6_ddd_50_819" x="229.4" y="196.418" width="25.4285" height="27.9713" filterUnits="userSpaceOnUse" color-interpolation-filters="sRGB">
<feFlood flood-opacity="0" result="BackgroundImageFix"/>
<feColorMatrix in="SourceAlpha" type="matrix" values="0 0 0 0 0 0 0 0 0 0 0 0 0 0 0 0 0 0 127 0" result="hardAlpha"/>
<feOffset dy="0.847615"/>
<feGaussianBlur stdDeviation="0.423807"/>
<feColorMatrix type="matrix" values="0 0 0 0 0 0 0 0 0 0 0 0 0 0 0 0 0 0 0.02 0"/>
<feBlend mode="normal" in2="BackgroundImageFix" result="effect1_dropShadow_50_819"/>
<feColorMatrix in="SourceAlpha" type="matrix" values="0 0 0 0 0 0 0 0 0 0 0 0 0 0 0 0 0 0 127 0" result="hardAlpha"/>
<feOffset dy="1.69523"/>
<feGaussianBlur stdDeviation="0.847615"/>
<feColorMatrix type="matrix" values="0 0 0 0 0 0 0 0 0 0 0 0 0 0 0 0 0 0 0.02 0"/>
<feBlend mode="normal" in2="effect1_dropShadow_50_819" result="effect2_dropShadow_50_819"/>
<feColorMatrix in="SourceAlpha" type="matrix" values="0 0 0 0 0 0 0 0 0 0 0 0 0 0 0 0 0 0 127 0" result="hardAlpha"/>
<feOffset dy="5.08569"/>
<feGaussianBlur stdDeviation="1.27142"/>
<feColorMatrix type="matrix" values="0 0 0 0 0 0 0 0 0 0 0 0 0 0 0 0 0 0 0.01 0"/>
<feBlend mode="normal" in2="effect2_dropShadow_50_819" result="effect3_dropShadow_50_819"/>
<feBlend mode="normal" in="SourceGraphic" in2="effect3_dropShadow_50_819" result="shape"/>
</filter>
<filter id="filter7_di_50_819" x="12.1811" y="224.947" width="281.638" height="106.066" filterUnits="userSpaceOnUse" color-interpolation-filters="sRGB">
<feFlood flood-opacity="0" result="BackgroundImageFix"/>
<feColorMatrix in="SourceAlpha" type="matrix" values="0 0 0 0 0 0 0 0 0 0 0 0 0 0 0 0 0 0 127 0" result="hardAlpha"/>
<feOffset dy="3.39046"/>
<feGaussianBlur stdDeviation="14.4094"/>
<feComposite in2="hardAlpha" operator="out"/>
<feColorMatrix type="matrix" values="0 0 0 0 0 0 0 0 0 0 0 0 0 0 0 0 0 0 0.25 0"/>
<feBlend mode="normal" in2="BackgroundImageFix" result="effect1_dropShadow_50_819"/>
<feBlend mode="normal" in="SourceGraphic" in2="effect1_dropShadow_50_819" result="shape"/>
<feColorMatrix in="SourceAlpha" type="matrix" values="0 0 0 0 0 0 0 0 0 0 0 0 0 0 0 0 0 0 127 0" result="hardAlpha"/>
<feOffset/>
<feGaussianBlur stdDeviation="8.47614"/>
<feComposite in2="hardAlpha" operator="arithmetic" k2="-1" k3="1"/>
<feColorMatrix type="matrix" values="0 0 0 0 1 0 0 0 0 1 0 0 0 0 1 0 0 0 0.06 0"/>
<feBlend mode="normal" in2="shape" result="effect2_innerShadow_50_819"/>
</filter>
<filter id="filter8_f_50_819" x="106" y="151.518" width="304" height="280" filterUnits="userSpaceOnUse" color-interpolation-filters="sRGB">
<feFlood flood-opacity="0" result="BackgroundImageFix"/>
<feBlend mode="normal" in="SourceGraphic" in2="BackgroundImageFix" result="shape"/>
<feGaussianBlur stdDeviation="45" result="effect1_foregroundBlur_50_819"/>
</filter>
<filter id="filter9_ddd_50_819" x="229.4" y="264.418" width="25.4285" height="27.9713" filterUnits="userSpaceOnUse" color-interpolation-filters="sRGB">
<feFlood flood-opacity="0" result="BackgroundImageFix"/>
<feColorMatrix in="SourceAlpha" type="matrix" values="0 0 0 0 0 0 0 0 0 0 0 0 0 0 0 0 0 0 127 0" result="hardAlpha"/>
<feOffset dy="0.847615"/>
<feGaussianBlur stdDeviation="0.423807"/>
<feColorMatrix type="matrix" values="0 0 0 0 0 0 0 0 0 0 0 0 0 0 0 0 0 0 0.02 0"/>
<feBlend mode="normal" in2="BackgroundImageFix" result="effect1_dropShadow_50_819"/>
<feColorMatrix in="SourceAlpha" type="matrix" values="0 0 0 0 0 0 0 0 0 0 0 0 0 0 0 0 0 0 127 0" result="hardAlpha"/>
<feOffset dy="1.69523"/>
<feGaussianBlur stdDeviation="0.847615"/>
<feColorMatrix type="matrix" values="0 0 0 0 0 0 0 0 0 0 0 0 0 0 0 0 0 0 0.02 0"/>
<feBlend mode="normal" in2="effect1_dropShadow_50_819" result="effect2_dropShadow_50_819"/>
<feColorMatrix in="SourceAlpha" type="matrix" values="0 0 0 0 0 0 0 0 0 0 0 0 0 0 0 0 0 0 127 0" result="hardAlpha"/>
<feOffset dy="5.08569"/>
<feGaussianBlur stdDeviation="1.27142"/>
<feColorMatrix type="matrix" values="0 0 0 0 0 0 0 0 0 0 0 0 0 0 0 0 0 0 0.01 0"/>
<feBlend mode="normal" in2="effect2_dropShadow_50_819" result="effect3_dropShadow_50_819"/>
<feBlend mode="normal" in="SourceGraphic" in2="effect3_dropShadow_50_819" result="shape"/>
</filter>
<filter id="filter10_di_50_819" x="12.1811" y="19.9468" width="281.638" height="106.066" filterUnits="userSpaceOnUse" color-interpolation-filters="sRGB">
<feFlood flood-opacity="0" result="BackgroundImageFix"/>
<feColorMatrix in="SourceAlpha" type="matrix" values="0 0 0 0 0 0 0 0 0 0 0 0 0 0 0 0 0 0 127 0" result="hardAlpha"/>
<feOffset dy="3.39046"/>
<feGaussianBlur stdDeviation="14.4094"/>
<feComposite in2="hardAlpha" operator="out"/>
<feColorMatrix type="matrix" values="0 0 0 0 0 0 0 0 0 0 0 0 0 0 0 0 0 0 0.25 0"/>
<feBlend mode="normal" in2="BackgroundImageFix" result="effect1_dropShadow_50_819"/>
<feBlend mode="normal" in="SourceGraphic" in2="effect1_dropShadow_50_819" result="shape"/>
<feColorMatrix in="SourceAlpha" type="matrix" values="0 0 0 0 0 0 0 0 0 0 0 0 0 0 0 0 0 0 127 0" result="hardAlpha"/>
<feOffset/>
<feGaussianBlur stdDeviation="8.47614"/>
<feComposite in2="hardAlpha" operator="arithmetic" k2="-1" k3="1"/>
<feColorMatrix type="matrix" values="0 0 0 0 1 0 0 0 0 1 0 0 0 0 1 0 0 0 0.06 0"/>
<feBlend mode="normal" in2="shape" result="effect2_innerShadow_50_819"/>
</filter>
<filter id="filter11_f_50_819" x="106" y="-53.4817" width="304" height="280" filterUnits="userSpaceOnUse" color-interpolation-filters="sRGB">
<feFlood flood-opacity="0" result="BackgroundImageFix"/>
<feBlend mode="normal" in="SourceGraphic" in2="BackgroundImageFix" result="shape"/>
<feGaussianBlur stdDeviation="45" result="effect1_foregroundBlur_50_819"/>
</filter>
<filter id="filter12_ddd_50_819" x="229.4" y="59.418" width="25.4285" height="27.9713" filterUnits="userSpaceOnUse" color-interpolation-filters="sRGB">
<feFlood flood-opacity="0" result="BackgroundImageFix"/>
<feColorMatrix in="SourceAlpha" type="matrix" values="0 0 0 0 0 0 0 0 0 0 0 0 0 0 0 0 0 0 127 0" result="hardAlpha"/>
<feOffset dy="0.847615"/>
<feGaussianBlur stdDeviation="0.423807"/>
<feColorMatrix type="matrix" values="0 0 0 0 0 0 0 0 0 0 0 0 0 0 0 0 0 0 0.02 0"/>
<feBlend mode="normal" in2="BackgroundImageFix" result="effect1_dropShadow_50_819"/>
<feColorMatrix in="SourceAlpha" type="matrix" values="0 0 0 0 0 0 0 0 0 0 0 0 0 0 0 0 0 0 127 0" result="hardAlpha"/>
<feOffset dy="1.69523"/>
<feGaussianBlur stdDeviation="0.847615"/>
<feColorMatrix type="matrix" values="0 0 0 0 0 0 0 0 0 0 0 0 0 0 0 0 0 0 0.02 0"/>
<feBlend mode="normal" in2="effect1_dropShadow_50_819" result="effect2_dropShadow_50_819"/>
<feColorMatrix in="SourceAlpha" type="matrix" values="0 0 0 0 0 0 0 0 0 0 0 0 0 0 0 0 0 0 127 0" result="hardAlpha"/>
<feOffset dy="5.08569"/>
<feGaussianBlur stdDeviation="1.27142"/>
<feColorMatrix type="matrix" values="0 0 0 0 0 0 0 0 0 0 0 0 0 0 0 0 0 0 0.01 0"/>
<feBlend mode="normal" in2="effect2_dropShadow_50_819" result="effect3_dropShadow_50_819"/>
<feBlend mode="normal" in="SourceGraphic" in2="effect3_dropShadow_50_819" result="shape"/>
</filter>
<filter id="filter13_ddddi_50_819" x="249.875" y="280.976" width="62.0209" height="60.3995" filterUnits="userSpaceOnUse" color-interpolation-filters="sRGB">
<feFlood flood-opacity="0" result="BackgroundImageFix"/>
<feColorMatrix in="SourceAlpha" type="matrix" values="0 0 0 0 0 0 0 0 0 0 0 0 0 0 0 0 0 0 127 0" result="hardAlpha"/>
<feOffset dy="1.08475"/>
<feGaussianBlur stdDeviation="0.542375"/>
<feColorMatrix type="matrix" values="0 0 0 0 0 0 0 0 0 0 0 0 0 0 0 0 0 0 0.02 0"/>
<feBlend mode="normal" in2="BackgroundImageFix" result="effect1_dropShadow_50_819"/>
<feColorMatrix in="SourceAlpha" type="matrix" values="0 0 0 0 0 0 0 0 0 0 0 0 0 0 0 0 0 0 127 0" result="hardAlpha"/>
<feOffset dy="2.1695"/>
<feGaussianBlur stdDeviation="1.08475"/>
<feColorMatrix type="matrix" values="0 0 0 0 0 0 0 0 0 0 0 0 0 0 0 0 0 0 0.02 0"/>
<feBlend mode="normal" in2="effect1_dropShadow_50_819" result="effect2_dropShadow_50_819"/>
<feColorMatrix in="SourceAlpha" type="matrix" values="0 0 0 0 0 0 0 0 0 0 0 0 0 0 0 0 0 0 127 0" result="hardAlpha"/>
<feOffset dy="6.5085"/>
<feGaussianBlur stdDeviation="1.62712"/>
<feColorMatrix type="matrix" values="0 0 0 0 0 0 0 0 0 0 0 0 0 0 0 0 0 0 0.01 0"/>
<feBlend mode="normal" in2="effect2_dropShadow_50_819" result="effect3_dropShadow_50_819"/>
<feColorMatrix in="SourceAlpha" type="matrix" values="0 0 0 0 0 0 0 0 0 0 0 0 0 0 0 0 0 0 127 0" result="hardAlpha"/>
<feOffset dy="3"/>
<feGaussianBlur stdDeviation="9.8"/>
<feComposite in2="hardAlpha" operator="out"/>
<feColorMatrix type="matrix" values="0 0 0 0 0.583856 0 0 0 0 0.172549 0 0 0 0 0.968627 0 0 0 1 0"/>
<feBlend mode="normal" in2="effect3_dropShadow_50_819" result="effect4_dropShadow_50_819"/>
<feBlend mode="normal" in="SourceGraphic" in2="effect4_dropShadow_50_819" result="shape"/>
<feColorMatrix in="SourceAlpha" type="matrix" values="0 0 0 0 0 0 0 0 0 0 0 0 0 0 0 0 0 0 127 0" result="hardAlpha"/>
<feOffset dy="4.339"/>
<feGaussianBlur stdDeviation="2.1695"/>
<feComposite in2="hardAlpha" operator="arithmetic" k2="-1" k3="1"/>
<feColorMatrix type="matrix" values="0 0 0 0 1 0 0 0 0 1 0 0 0 0 1 0 0 0 0.25 0"/>
<feBlend mode="normal" in2="shape" result="effect5_innerShadow_50_819"/>
</filter>
<linearGradient id="paint0_linear_50_819" x1="-11.4444" y1="-47.0255" x2="409.237" y2="111.073" gradientUnits="userSpaceOnUse">
<stop stop-color="white"/>
<stop offset="0.475" stop-color="white" stop-opacity="0.3"/>
<stop offset="1" stop-color="white"/>
</linearGradient>
<linearGradient id="paint1_linear_50_819" x1="32.6406" y1="106.755" x2="105.666" y2="249.148" gradientUnits="userSpaceOnUse">
<stop stop-color="white"/>
<stop offset="0.475" stop-color="white" stop-opacity="0.3"/>
<stop offset="1" stop-color="white"/>
</linearGradient>
<linearGradient id="paint2_linear_50_819" x1="61.3428" y1="129.961" x2="61.3428" y2="145.218" gradientUnits="userSpaceOnUse">
<stop stop-color="white" stop-opacity="0.5"/>
<stop offset="1" stop-color="white" stop-opacity="0.09"/>
</linearGradient>
<linearGradient id="paint3_linear_50_819" x1="114.924" y1="126.089" x2="114.924" y2="149.089" gradientUnits="userSpaceOnUse">
<stop stop-color="white" stop-opacity="0.7"/>
<stop offset="1" stop-color="white" stop-opacity="0.19"/>
</linearGradient>
<linearGradient id="paint4_linear_50_819" x1="242.114" y1="127.418" x2="242.114" y2="147.761" gradientUnits="userSpaceOnUse">
<stop stop-color="white" stop-opacity="0.3"/>
<stop offset="1" stop-color="white" stop-opacity="0.09"/>
</linearGradient>
<linearGradient id="paint5_linear_50_819" x1="41" y1="104.605" x2="72.8444" y2="217.065" gradientUnits="userSpaceOnUse">
<stop stop-color="white"/>
<stop offset="1" stop-color="white" stop-opacity="0"/>
</linearGradient>
<linearGradient id="paint6_linear_50_819" x1="32.6406" y1="175.755" x2="105.666" y2="318.148" gradientUnits="userSpaceOnUse">
<stop stop-color="white"/>
<stop offset="0.475" stop-color="white" stop-opacity="0.3"/>
<stop offset="1" stop-color="white"/>
</linearGradient>
<linearGradient id="paint7_linear_50_819" x1="163.469" y1="113.657" x2="261.556" y2="311.446" gradientUnits="userSpaceOnUse">
<stop stop-color="#5672FF"/>
<stop offset="1" stop-color="#AA18FF"/>
</linearGradient>
<linearGradient id="paint8_linear_50_819" x1="61.3428" y1="198.961" x2="61.3428" y2="214.218" gradientUnits="userSpaceOnUse">
<stop stop-color="white" stop-opacity="0.5"/>
<stop offset="1" stop-color="white" stop-opacity="0.09"/>
</linearGradient>
<linearGradient id="paint9_linear_50_819" x1="114.924" y1="195.089" x2="114.924" y2="218.089" gradientUnits="userSpaceOnUse">
<stop stop-color="white" stop-opacity="0.7"/>
<stop offset="1" stop-color="white" stop-opacity="0.19"/>
</linearGradient>
<linearGradient id="paint10_linear_50_819" x1="242.114" y1="196.418" x2="242.114" y2="216.761" gradientUnits="userSpaceOnUse">
<stop stop-color="white" stop-opacity="0.3"/>
<stop offset="1" stop-color="white" stop-opacity="0.09"/>
</linearGradient>
<linearGradient id="paint11_linear_50_819" x1="226.606" y1="184.24" x2="248.975" y2="220.616" gradientUnits="userSpaceOnUse">
<stop stop-color="#5672FF"/>
<stop offset="1" stop-color="#AA18FF"/>
</linearGradient>
<linearGradient id="paint12_linear_50_819" x1="41" y1="173.605" x2="72.8444" y2="286.065" gradientUnits="userSpaceOnUse">
<stop stop-color="white"/>
<stop offset="1" stop-color="white" stop-opacity="0"/>
</linearGradient>
<linearGradient id="paint13_linear_50_819" x1="32.6406" y1="243.755" x2="105.666" y2="386.148" gradientUnits="userSpaceOnUse">
<stop stop-color="white"/>
<stop offset="0.475" stop-color="white" stop-opacity="0.3"/>
<stop offset="1" stop-color="white"/>
</linearGradient>
<linearGradient id="paint14_linear_50_819" x1="163.469" y1="181.657" x2="261.556" y2="379.446" gradientUnits="userSpaceOnUse">
<stop stop-color="#5672FF"/>
<stop offset="1" stop-color="#AA18FF"/>
</linearGradient>
<linearGradient id="paint15_linear_50_819" x1="61.3428" y1="266.961" x2="61.3428" y2="282.218" gradientUnits="userSpaceOnUse">
<stop stop-color="white" stop-opacity="0.5"/>
<stop offset="1" stop-color="white" stop-opacity="0.09"/>
</linearGradient>
<linearGradient id="paint16_linear_50_819" x1="115.424" y1="263.089" x2="115.424" y2="286.089" gradientUnits="userSpaceOnUse">
<stop stop-color="white" stop-opacity="0.7"/>
<stop offset="1" stop-color="white" stop-opacity="0.19"/>
</linearGradient>
<linearGradient id="paint17_linear_50_819" x1="242.114" y1="264.418" x2="242.114" y2="284.761" gradientUnits="userSpaceOnUse">
<stop stop-color="white" stop-opacity="0.3"/>
<stop offset="1" stop-color="white" stop-opacity="0.09"/>
</linearGradient>
<linearGradient id="paint18_linear_50_819" x1="226.606" y1="252.24" x2="248.975" y2="288.616" gradientUnits="userSpaceOnUse">
<stop stop-color="#5672FF"/>
<stop offset="1" stop-color="#AA18FF"/>
</linearGradient>
<linearGradient id="paint19_linear_50_819" x1="41" y1="241.605" x2="72.8444" y2="354.065" gradientUnits="userSpaceOnUse">
<stop stop-color="white"/>
<stop offset="1" stop-color="white" stop-opacity="0"/>
</linearGradient>
<linearGradient id="paint20_linear_50_819" x1="32.6406" y1="38.755" x2="105.666" y2="181.148" gradientUnits="userSpaceOnUse">
<stop stop-color="white"/>
<stop offset="0.475" stop-color="white" stop-opacity="0.3"/>
<stop offset="1" stop-color="white"/>
</linearGradient>
<linearGradient id="paint21_linear_50_819" x1="163.469" y1="-23.3433" x2="261.556" y2="174.446" gradientUnits="userSpaceOnUse">
<stop stop-color="#5672FF"/>
<stop offset="1" stop-color="#AA18FF"/>
</linearGradient>
<linearGradient id="paint22_linear_50_819" x1="61.3428" y1="61.9609" x2="61.3428" y2="77.218" gradientUnits="userSpaceOnUse">
<stop stop-color="white" stop-opacity="0.5"/>
<stop offset="1" stop-color="white" stop-opacity="0.09"/>
</linearGradient>
<linearGradient id="paint23_linear_50_819" x1="113.924" y1="58.0894" x2="113.924" y2="81.0894" gradientUnits="userSpaceOnUse">
<stop stop-color="white" stop-opacity="0.7"/>
<stop offset="1" stop-color="white" stop-opacity="0.19"/>
</linearGradient>
<linearGradient id="paint24_linear_50_819" x1="242.114" y1="59.418" x2="242.114" y2="79.7607" gradientUnits="userSpaceOnUse">
<stop stop-color="white" stop-opacity="0.3"/>
<stop offset="1" stop-color="white" stop-opacity="0.09"/>
</linearGradient>
<linearGradient id="paint25_linear_50_819" x1="226.606" y1="47.2405" x2="248.975" y2="83.6162" gradientUnits="userSpaceOnUse">
<stop stop-color="#5672FF"/>
<stop offset="1" stop-color="#AA18FF"/>
</linearGradient>
<linearGradient id="paint26_linear_50_819" x1="41" y1="36.6047" x2="72.8444" y2="149.065" gradientUnits="userSpaceOnUse">
<stop stop-color="white"/>
<stop offset="1" stop-color="white" stop-opacity="0"/>
</linearGradient>
<linearGradient id="paint27_linear_50_819" x1="258.684" y1="287.878" x2="298.824" y2="309.095" gradientUnits="userSpaceOnUse">
<stop stop-color="#5672FF"/>
<stop offset="1" stop-color="#AA18FF"/>
</linearGradient>
<clipPath id="clip0_50_819">
<rect width="306.667" height="344" fill="white"/>
</clipPath>
<clipPath id="clip1_50_819">
<rect x="41" y="113.375" width="224" height="48.4284" rx="14.3152" fill="white"/>
</clipPath>
<clipPath id="clip2_50_819">
<rect x="41" y="182.375" width="224" height="48.4284" rx="14.3152" fill="white"/>
</clipPath>
<clipPath id="clip3_50_819">
<rect x="41" y="250.375" width="224" height="48.4284" rx="14.3152" fill="white"/>
</clipPath>
<clipPath id="clip4_50_819">
<rect x="41" y="45.3752" width="224" height="48.4284" rx="14.3152" fill="white"/>
</clipPath>
</defs>
</svg>
