<svg width="308" height="345" viewBox="0 0 308 345" fill="none" xmlns="http://www.w3.org/2000/svg">
<g clip-path="url(#clip0_50_851)">
<rect width="306.667" height="344" transform="translate(0.666992 0.983887)" fill="black"/>
<rect width="306.667" height="344" transform="translate(0.666992 0.983887)" fill="black" fill-opacity="0.38"/>
<rect width="306.667" height="344" transform="translate(0.666992 0.983887)" fill="url(#paint0_linear_50_851)" fill-opacity="0.08"/>
<g filter="url(#filter0_f_50_851)">
<ellipse cx="256.999" cy="73.4839" rx="137" ry="88.5" fill="white" fill-opacity="0.12"/>
</g>
<mask id="mask0_50_851" style="mask-type:alpha" maskUnits="userSpaceOnUse" x="40" y="35" width="228" height="139">
<ellipse cx="154.499" cy="104.359" rx="113.5" ry="69" fill="#D9D9D9"/>
</mask>
<g mask="url(#mask0_50_851)">
<path d="M44.999 92.3591L44.999 116.359" stroke="white" stroke-opacity="0.4" stroke-linecap="round"/>
<path d="M49.999 94.3591L49.999 114.359" stroke="white" stroke-opacity="0.4" stroke-linecap="round"/>
<path d="M54.999 73.3591L54.999 135.359" stroke="white" stroke-opacity="0.4" stroke-linecap="round"/>
<path d="M59.999 64.3591L59.999 144.359" stroke="white" stroke-opacity="0.4" stroke-linecap="round"/>
<path d="M64.999 72.3591L64.999 136.359" stroke="white" stroke-opacity="0.4" stroke-linecap="round"/>
<path d="M69.999 92.3591L69.999 116.359" stroke="white" stroke-opacity="0.4" stroke-linecap="round"/>
<path d="M74.999 81.3591L74.999 127.359" stroke="white" stroke-opacity="0.4" stroke-linecap="round"/>
<path d="M79.999 92.3591L79.999 116.359" stroke="white" stroke-opacity="0.4" stroke-linecap="round"/>
<path d="M84.999 90.3591L84.999 118.359" stroke="white" stroke-opacity="0.4" stroke-linecap="round"/>
<path d="M89.999 85.3591L89.999 123.359" stroke="white" stroke-opacity="0.4" stroke-linecap="round"/>
<path d="M94.999 87.3591L94.999 121.359" stroke="white" stroke-opacity="0.4" stroke-linecap="round"/>
<path d="M99.999 91.3591L99.999 117.359" stroke="white" stroke-opacity="0.4" stroke-linecap="round"/>
<path d="M104.999 96.3591L104.999 112.359" stroke="white" stroke-opacity="0.4" stroke-linecap="round"/>
<path d="M109.999 92.3591L109.999 116.359" stroke="white" stroke-opacity="0.4" stroke-linecap="round"/>
<path d="M114.999 85.3591L114.999 123.359" stroke="white" stroke-opacity="0.4" stroke-linecap="round"/>
<path d="M119.999 82.3591L119.999 126.359" stroke="white" stroke-opacity="0.4" stroke-linecap="round"/>
<path d="M124.999 82.3591L124.999 126.359" stroke="white" stroke-opacity="0.4" stroke-linecap="round"/>
<path d="M129.999 76.3591L129.999 104.359L129.999 132.359" stroke="white" stroke-opacity="0.4" stroke-linecap="round"/>
<path d="M134.999 93.3591L134.999 115.359" stroke="white" stroke-opacity="0.4" stroke-linecap="round"/>
<path d="M139.999 97.3591L139.999 111.359" stroke="white" stroke-opacity="0.4" stroke-linecap="round"/>
<path d="M144.999 90.3591L144.999 118.359" stroke="white" stroke-opacity="0.4" stroke-linecap="round"/>
<path d="M149.999 98.3591L149.999 110.359" stroke="white" stroke-opacity="0.4" stroke-linecap="round"/>
<path d="M154.999 48.3591L154.999 160.359" stroke="url(#paint1_linear_50_851)" stroke-linecap="round"/>
<path d="M264.999 92.3591L264.999 116.359" stroke="white" stroke-opacity="0.4" stroke-linecap="round"/>
<path d="M259.999 94.3591L259.999 114.359" stroke="white" stroke-opacity="0.4" stroke-linecap="round"/>
<path d="M254.999 73.3591L254.999 135.359" stroke="white" stroke-opacity="0.4" stroke-linecap="round"/>
<path d="M249.999 64.3591L249.999 144.359" stroke="white" stroke-opacity="0.4" stroke-linecap="round"/>
<path d="M244.999 72.3591L244.999 136.359" stroke="white" stroke-opacity="0.4" stroke-linecap="round"/>
<path d="M239.999 92.3591L239.999 116.359" stroke="white" stroke-opacity="0.4" stroke-linecap="round"/>
<path d="M234.999 81.3591L234.999 127.359" stroke="white" stroke-opacity="0.4" stroke-linecap="round"/>
<path d="M229.999 92.3591L229.999 116.359" stroke="white" stroke-opacity="0.4" stroke-linecap="round"/>
<path d="M224.999 90.3591L224.999 118.359" stroke="white" stroke-opacity="0.4" stroke-linecap="round"/>
<path d="M219.999 85.3591L219.999 123.359" stroke="white" stroke-opacity="0.4" stroke-linecap="round"/>
<path d="M214.999 87.3591L214.999 121.359" stroke="white" stroke-opacity="0.4" stroke-linecap="round"/>
<path d="M209.999 91.3591L209.999 117.359" stroke="white" stroke-opacity="0.4" stroke-linecap="round"/>
<path d="M204.999 96.3591L204.999 112.359" stroke="white" stroke-opacity="0.4" stroke-linecap="round"/>
<path d="M199.999 92.3591L199.999 116.359" stroke="white" stroke-opacity="0.4" stroke-linecap="round"/>
<path d="M194.999 85.3591L194.999 123.359" stroke="white" stroke-opacity="0.4" stroke-linecap="round"/>
<path d="M189.999 82.3591L189.999 126.359" stroke="white" stroke-opacity="0.4" stroke-linecap="round"/>
<path d="M184.999 82.3591L184.999 126.359" stroke="white" stroke-opacity="0.4" stroke-linecap="round"/>
<path d="M179.999 76.3591L179.999 132.359" stroke="white" stroke-opacity="0.4" stroke-linecap="round"/>
<path d="M174.999 93.3591L174.999 115.359" stroke="white" stroke-opacity="0.4" stroke-linecap="round"/>
<path d="M169.999 97.3591L169.999 111.359" stroke="white" stroke-opacity="0.4" stroke-linecap="round"/>
<path d="M164.999 90.3591L164.999 118.359" stroke="white" stroke-opacity="0.4" stroke-linecap="round"/>
<path d="M159.999 98.3591L159.999 110.359" stroke="white" stroke-opacity="0.4" stroke-linecap="round"/>
</g>
<g opacity="0.7" filter="url(#filter1_f_50_851)">
<ellipse cx="200.999" cy="104.859" rx="47" ry="25.5" fill="url(#paint2_linear_50_851)"/>
</g>
<g filter="url(#filter2_di_50_851)">
<g clip-path="url(#clip1_50_851)">
<rect x="20.999" y="180.359" width="255" height="44" rx="14.3152" fill="url(#paint3_linear_50_851)" fill-opacity="0.06" shape-rendering="crispEdges"/>
<g filter="url(#filter3_f_50_851)">
<ellipse cx="268.215" cy="215.111" rx="52.5521" ry="42.3807" fill="white" fill-opacity="0.11"/>
</g>
<path d="M39.624 206.984C42.1783 206.984 44.249 204.913 44.249 202.359C44.249 199.805 42.1783 197.734 39.624 197.734C37.0697 197.734 34.999 199.805 34.999 202.359C34.999 204.913 37.0697 206.984 39.624 206.984Z" stroke="white" stroke-opacity="0.44" stroke-width="0.8" stroke-linecap="round" stroke-linejoin="round"/>
<path d="M39.1111 200.303V202.873H41.6805" stroke="white" stroke-opacity="0.44" stroke-width="0.8" stroke-linecap="round" stroke-linejoin="round"/>
<path d="M51.1297 206.359V199.086H52.0104V205.578H55.3911V206.359H51.1297ZM56.6411 206.359V200.905H57.4791V206.359H56.6411ZM57.0672 199.995C56.9039 199.995 56.763 199.94 56.6446 199.829C56.5286 199.717 56.4706 199.584 56.4706 199.427C56.4706 199.271 56.5286 199.137 56.6446 199.026C56.763 198.915 56.9039 198.859 57.0672 198.859C57.2306 198.859 57.3702 198.915 57.4862 199.026C57.6046 199.137 57.6638 199.271 57.6638 199.427C57.6638 199.584 57.6046 199.717 57.4862 199.829C57.3702 199.94 57.2306 199.995 57.0672 199.995ZM62.8778 202.126L62.1249 202.339C62.0776 202.214 62.0077 202.092 61.9154 201.973C61.8254 201.853 61.7023 201.753 61.5461 201.675C61.3898 201.597 61.1898 201.558 60.9459 201.558C60.6121 201.558 60.334 201.635 60.1114 201.789C59.8912 201.94 59.7812 202.133 59.7812 202.368C59.7812 202.576 59.8569 202.741 60.0084 202.861C60.1599 202.982 60.3967 203.083 60.7187 203.163L61.5283 203.362C62.016 203.48 62.3794 203.661 62.6185 203.905C62.8576 204.147 62.9772 204.458 62.9772 204.839C62.9772 205.152 62.8872 205.431 62.7073 205.677C62.5297 205.924 62.2812 206.118 61.9616 206.26C61.642 206.402 61.2703 206.473 60.8465 206.473C60.2902 206.473 59.8297 206.352 59.4651 206.111C59.1005 205.869 58.8697 205.516 58.7726 205.052L59.5681 204.853C59.6439 205.147 59.7871 205.367 59.9978 205.514C60.2108 205.661 60.489 205.734 60.8323 205.734C61.2229 205.734 61.5331 205.651 61.7627 205.486C61.9947 205.317 62.1107 205.116 62.1107 204.882C62.1107 204.692 62.0444 204.534 61.9118 204.406C61.7793 204.276 61.5757 204.179 61.301 204.115L60.392 203.902C59.8924 203.783 59.5255 203.6 59.2911 203.351C59.0591 203.1 58.9431 202.787 58.9431 202.41C58.9431 202.103 59.0295 201.83 59.2023 201.594C59.3775 201.357 59.6154 201.171 59.9161 201.036C60.2191 200.901 60.5624 200.834 60.9459 200.834C61.4857 200.834 61.9095 200.952 62.2172 201.189C62.5274 201.425 62.7475 201.738 62.8778 202.126ZM66.6109 200.905V201.615H63.7842V200.905H66.6109ZM64.608 199.598H65.4461V204.797C65.4461 205.033 65.4804 205.211 65.5491 205.329C65.6201 205.445 65.7101 205.523 65.819 205.564C65.9302 205.602 66.0474 205.62 66.1705 205.62C66.2629 205.62 66.3386 205.616 66.3978 205.606C66.457 205.594 66.5044 205.585 66.5399 205.578L66.7103 206.331C66.6535 206.352 66.5742 206.373 66.4724 206.395C66.3706 206.418 66.2416 206.43 66.0853 206.43C65.8486 206.43 65.6166 206.379 65.3893 206.277C65.1644 206.176 64.9774 206.021 64.8282 205.812C64.6814 205.604 64.608 205.341 64.608 205.024V199.598ZM70.0999 206.473C69.5743 206.473 69.1209 206.357 68.7398 206.125C68.361 205.89 68.0686 205.564 67.8627 205.145C67.6591 204.723 67.5573 204.233 67.5573 203.674C67.5573 203.116 67.6591 202.623 67.8627 202.197C68.0686 201.769 68.3551 201.435 68.722 201.196C69.0914 200.954 69.5222 200.834 70.0146 200.834C70.2987 200.834 70.5793 200.881 70.8563 200.976C71.1333 201.07 71.3854 201.224 71.6127 201.437C71.8399 201.648 72.021 201.927 72.156 202.275C72.2909 202.623 72.3584 203.052 72.3584 203.561V203.916H68.1539V203.192H71.5061C71.5061 202.884 71.4446 202.609 71.3215 202.368C71.2007 202.126 71.0279 201.936 70.803 201.796C70.5805 201.656 70.3177 201.586 70.0146 201.586C69.6808 201.586 69.392 201.669 69.1482 201.835C68.9067 201.998 68.7209 202.211 68.5906 202.474C68.4604 202.737 68.3953 203.019 68.3953 203.319V203.802C68.3953 204.214 68.4664 204.563 68.6084 204.85C68.7528 205.134 68.9529 205.351 69.2085 205.5C69.4642 205.647 69.7613 205.72 70.0999 205.72C70.32 205.72 70.5189 205.689 70.6965 205.628C70.8764 205.564 71.0315 205.469 71.1617 205.344C71.2919 205.216 71.3925 205.057 71.4635 204.868L72.2732 205.095C72.1879 205.37 72.0447 205.611 71.8435 205.819C71.6423 206.025 71.3937 206.186 71.0977 206.302C70.8018 206.416 70.4692 206.473 70.0999 206.473ZM74.4713 203.078V206.359H73.6333V200.905H74.4429V201.757H74.5139C74.6418 201.48 74.8359 201.257 75.0963 201.089C75.3567 200.919 75.6929 200.834 76.1048 200.834C76.4742 200.834 76.7973 200.909 77.0743 201.061C77.3513 201.21 77.5667 201.437 77.7206 201.743C77.8745 202.046 77.9514 202.429 77.9514 202.893V206.359H77.1134V202.95C77.1134 202.522 77.0021 202.188 76.7796 201.949C76.557 201.707 76.2516 201.586 75.8634 201.586C75.5959 201.586 75.3567 201.644 75.146 201.76C74.9377 201.876 74.7732 202.046 74.6524 202.268C74.5317 202.491 74.4713 202.761 74.4713 203.078ZM83.5312 206.359L81.8692 200.905H82.7499L83.9289 205.081H83.9857L85.1505 200.905H86.0454L87.1959 205.067H87.2528L88.4317 200.905H89.3124L87.6505 206.359H86.8266L85.6334 202.169H85.5482L84.355 206.359H83.5312ZM91.2584 203.078V206.359H90.4204V199.086H91.2584V201.757H91.3295C91.4573 201.475 91.6491 201.251 91.9047 201.086C92.1628 200.918 92.5061 200.834 92.9346 200.834C93.3063 200.834 93.6318 200.908 93.9111 201.057C94.1905 201.204 94.4071 201.43 94.561 201.736C94.7172 202.039 94.7954 202.424 94.7954 202.893V206.359H93.9573V202.95C93.9573 202.517 93.8448 202.182 93.6199 201.945C93.3974 201.706 93.0885 201.586 92.6931 201.586C92.4185 201.586 92.1723 201.644 91.9545 201.76C91.739 201.876 91.5686 202.046 91.4431 202.268C91.32 202.491 91.2584 202.761 91.2584 203.078ZM96.3286 206.359V200.905H97.1666V206.359H96.3286ZM96.7547 199.995C96.5914 199.995 96.4505 199.94 96.3321 199.829C96.2161 199.717 96.1581 199.584 96.1581 199.427C96.1581 199.271 96.2161 199.137 96.3321 199.026C96.4505 198.915 96.5914 198.859 96.7547 198.859C96.9181 198.859 97.0577 198.915 97.1737 199.026C97.2921 199.137 97.3513 199.271 97.3513 199.427C97.3513 199.584 97.2921 199.717 97.1737 199.829C97.0577 199.94 96.9181 199.995 96.7547 199.995ZM99.5397 199.086V206.359H98.7016V199.086H99.5397ZM103.362 206.473C102.836 206.473 102.383 206.357 102.002 206.125C101.623 205.89 101.33 205.564 101.124 205.145C100.921 204.723 100.819 204.233 100.819 203.674C100.819 203.116 100.921 202.623 101.124 202.197C101.33 201.769 101.617 201.435 101.984 201.196C102.353 200.954 102.784 200.834 103.276 200.834C103.56 200.834 103.841 200.881 104.118 200.976C104.395 201.07 104.647 201.224 104.874 201.437C105.102 201.648 105.283 201.927 105.418 202.275C105.553 202.623 105.62 203.052 105.62 203.561V203.916H101.416V203.192H104.768C104.768 202.884 104.706 202.609 104.583 202.368C104.462 202.126 104.29 201.936 104.065 201.796C103.842 201.656 103.579 201.586 103.276 201.586C102.943 201.586 102.654 201.669 102.41 201.835C102.168 201.998 101.983 202.211 101.852 202.474C101.722 202.737 101.657 203.019 101.657 203.319V203.802C101.657 204.214 101.728 204.563 101.87 204.85C102.015 205.134 102.215 205.351 102.47 205.5C102.726 205.647 103.023 205.72 103.362 205.72C103.582 205.72 103.781 205.689 103.958 205.628C104.138 205.564 104.293 205.469 104.423 205.344C104.554 205.216 104.654 205.057 104.725 204.868L105.535 205.095C105.45 205.37 105.306 205.611 105.105 205.819C104.904 206.025 104.655 206.186 104.359 206.302C104.064 206.416 103.731 206.473 103.362 206.473ZM111.767 206.473C111.313 206.473 110.911 206.358 110.563 206.128C110.215 205.896 109.943 205.57 109.747 205.148C109.55 204.724 109.452 204.224 109.452 203.646C109.452 203.073 109.55 202.576 109.747 202.155C109.943 201.733 110.216 201.408 110.567 201.178C110.917 200.948 111.322 200.834 111.781 200.834C112.136 200.834 112.417 200.893 112.623 201.011C112.831 201.127 112.99 201.26 113.099 201.409C113.21 201.556 113.296 201.676 113.358 201.771H113.429V199.086H114.267V206.359H113.457V205.521H113.358C113.296 205.62 113.209 205.746 113.095 205.897C112.982 206.047 112.819 206.18 112.609 206.299C112.398 206.415 112.118 206.473 111.767 206.473ZM111.881 205.72C112.217 205.72 112.501 205.632 112.733 205.457C112.965 205.28 113.141 205.035 113.262 204.722C113.383 204.407 113.443 204.044 113.443 203.632C113.443 203.225 113.384 202.868 113.266 202.563C113.147 202.255 112.972 202.016 112.74 201.846C112.508 201.673 112.222 201.586 111.881 201.586C111.526 201.586 111.23 201.678 110.993 201.86C110.759 202.04 110.582 202.285 110.464 202.595C110.348 202.903 110.29 203.248 110.29 203.632C110.29 204.02 110.349 204.373 110.467 204.69C110.588 205.005 110.766 205.256 111 205.443C111.237 205.628 111.53 205.72 111.881 205.72ZM118.134 206.473C117.642 206.473 117.21 206.356 116.838 206.121C116.469 205.887 116.18 205.559 115.972 205.138C115.766 204.716 115.663 204.224 115.663 203.66C115.663 203.092 115.766 202.596 115.972 202.172C116.18 201.749 116.469 201.42 116.838 201.185C117.21 200.951 117.642 200.834 118.134 200.834C118.627 200.834 119.058 200.951 119.427 201.185C119.799 201.42 120.087 201.749 120.293 202.172C120.502 202.596 120.606 203.092 120.606 203.66C120.606 204.224 120.502 204.716 120.293 205.138C120.087 205.559 119.799 205.887 119.427 206.121C119.058 206.356 118.627 206.473 118.134 206.473ZM118.134 205.72C118.508 205.72 118.816 205.624 119.058 205.432C119.299 205.241 119.478 204.988 119.594 204.676C119.71 204.363 119.768 204.025 119.768 203.66C119.768 203.296 119.71 202.956 119.594 202.641C119.478 202.326 119.299 202.072 119.058 201.878C118.816 201.683 118.508 201.586 118.134 201.586C117.76 201.586 117.453 201.683 117.211 201.878C116.97 202.072 116.791 202.326 116.675 202.641C116.559 202.956 116.501 203.296 116.501 203.66C116.501 204.025 116.559 204.363 116.675 204.676C116.791 204.988 116.97 205.241 117.211 205.432C117.453 205.624 117.76 205.72 118.134 205.72ZM121.885 206.359V200.905H122.723V206.359H121.885ZM122.311 199.995C122.148 199.995 122.007 199.94 121.889 199.829C121.773 199.717 121.715 199.584 121.715 199.427C121.715 199.271 121.773 199.137 121.889 199.026C122.007 198.915 122.148 198.859 122.311 198.859C122.475 198.859 122.614 198.915 122.73 199.026C122.849 199.137 122.908 199.271 122.908 199.427C122.908 199.584 122.849 199.717 122.73 199.829C122.614 199.94 122.475 199.995 122.311 199.995ZM125.096 203.078V206.359H124.258V200.905H125.068V201.757H125.139C125.267 201.48 125.461 201.257 125.721 201.089C125.982 200.919 126.318 200.834 126.73 200.834C127.099 200.834 127.422 200.909 127.699 201.061C127.976 201.21 128.192 201.437 128.346 201.743C128.499 202.046 128.576 202.429 128.576 202.893V206.359H127.738V202.95C127.738 202.522 127.627 202.188 127.405 201.949C127.182 201.707 126.877 201.586 126.488 201.586C126.221 201.586 125.982 201.644 125.771 201.76C125.563 201.876 125.398 202.046 125.277 202.268C125.157 202.491 125.096 202.761 125.096 203.078ZM132.31 208.518C131.905 208.518 131.557 208.466 131.266 208.362C130.974 208.26 130.732 208.125 130.538 207.957C130.346 207.791 130.193 207.614 130.079 207.424L130.747 206.956C130.823 207.055 130.919 207.169 131.035 207.297C131.151 207.427 131.309 207.539 131.511 207.634C131.714 207.731 131.98 207.78 132.31 207.78C132.75 207.78 133.113 207.673 133.4 207.46C133.686 207.247 133.829 206.913 133.829 206.459V205.351H133.758C133.697 205.45 133.609 205.573 133.496 205.72C133.384 205.864 133.223 205.993 133.013 206.107C132.804 206.218 132.523 206.274 132.168 206.274C131.727 206.274 131.332 206.17 130.981 205.961C130.633 205.753 130.358 205.45 130.154 205.052C129.953 204.655 129.852 204.172 129.852 203.603C129.852 203.045 129.95 202.558 130.147 202.144C130.343 201.727 130.617 201.405 130.967 201.178C131.318 200.948 131.722 200.834 132.182 200.834C132.537 200.834 132.819 200.893 133.027 201.011C133.238 201.127 133.399 201.26 133.51 201.409C133.623 201.556 133.711 201.676 133.773 201.771H133.858V200.905H134.668V206.515C134.668 206.984 134.561 207.365 134.348 207.659C134.137 207.955 133.853 208.171 133.496 208.309C133.141 208.448 132.745 208.518 132.31 208.518ZM132.281 205.521C132.617 205.521 132.901 205.444 133.133 205.29C133.365 205.136 133.542 204.915 133.663 204.626C133.783 204.337 133.844 203.992 133.844 203.589C133.844 203.196 133.784 202.849 133.666 202.549C133.548 202.248 133.373 202.013 133.141 201.842C132.909 201.672 132.622 201.586 132.281 201.586C131.926 201.586 131.63 201.676 131.393 201.856C131.159 202.036 130.983 202.278 130.864 202.581C130.748 202.884 130.69 203.22 130.69 203.589C130.69 203.968 130.749 204.303 130.868 204.594C130.989 204.883 131.166 205.11 131.4 205.276C131.637 205.439 131.931 205.521 132.281 205.521ZM140.449 206.359L138.46 199.086H139.355L140.875 205.01H140.946L142.494 199.086H143.489L145.037 205.01H145.108L146.628 199.086H147.523L145.534 206.359H144.625L143.02 200.564H142.963L141.358 206.359H140.449ZM150.214 206.473C149.722 206.473 149.29 206.356 148.918 206.121C148.549 205.887 148.26 205.559 148.052 205.138C147.846 204.716 147.743 204.224 147.743 203.66C147.743 203.092 147.846 202.596 148.052 202.172C148.26 201.749 148.549 201.42 148.918 201.185C149.29 200.951 149.722 200.834 150.214 200.834C150.707 200.834 151.138 200.951 151.507 201.185C151.879 201.42 152.168 201.749 152.373 202.172C152.582 202.596 152.686 203.092 152.686 203.66C152.686 204.224 152.582 204.716 152.373 205.138C152.168 205.559 151.879 205.887 151.507 206.121C151.138 206.356 150.707 206.473 150.214 206.473ZM150.214 205.72C150.588 205.72 150.896 205.624 151.138 205.432C151.379 205.241 151.558 204.988 151.674 204.676C151.79 204.363 151.848 204.025 151.848 203.66C151.848 203.296 151.79 202.956 151.674 202.641C151.558 202.326 151.379 202.072 151.138 201.878C150.896 201.683 150.588 201.586 150.214 201.586C149.84 201.586 149.533 201.683 149.291 201.878C149.05 202.072 148.871 202.326 148.755 202.641C148.639 202.956 148.581 203.296 148.581 203.66C148.581 204.025 148.639 204.363 148.755 204.676C148.871 204.988 149.05 205.241 149.291 205.432C149.533 205.624 149.84 205.72 150.214 205.72ZM153.965 206.359V200.905H154.775V201.728H154.832C154.931 201.459 155.111 201.24 155.372 201.071C155.632 200.903 155.926 200.819 156.252 200.819C156.314 200.819 156.391 200.821 156.483 200.823C156.575 200.825 156.645 200.829 156.693 200.834V201.686C156.664 201.679 156.599 201.668 156.497 201.654C156.398 201.637 156.292 201.629 156.181 201.629C155.916 201.629 155.679 201.685 155.471 201.796C155.265 201.905 155.102 202.056 154.981 202.25C154.863 202.442 154.803 202.661 154.803 202.907V206.359H153.965ZM158.467 204.37L158.453 203.334H158.623L161.01 200.905H162.047L159.504 203.476H159.433L158.467 204.37ZM157.686 206.359V199.086H158.524V206.359H157.686ZM161.152 206.359L159.021 203.66L159.618 203.078L162.217 206.359H161.152ZM165.117 206.473C164.624 206.473 164.192 206.356 163.821 206.121C163.451 205.887 163.162 205.559 162.954 205.138C162.748 204.716 162.645 204.224 162.645 203.66C162.645 203.092 162.748 202.596 162.954 202.172C163.162 201.749 163.451 201.42 163.821 201.185C164.192 200.951 164.624 200.834 165.117 200.834C165.609 200.834 166.04 200.951 166.409 201.185C166.781 201.42 167.07 201.749 167.276 202.172C167.484 202.596 167.588 203.092 167.588 203.66C167.588 204.224 167.484 204.716 167.276 205.138C167.07 205.559 166.781 205.887 166.409 206.121C166.04 206.356 165.609 206.473 165.117 206.473ZM165.117 205.72C165.491 205.72 165.799 205.624 166.04 205.432C166.282 205.241 166.46 204.988 166.576 204.676C166.692 204.363 166.75 204.025 166.75 203.66C166.75 203.296 166.692 202.956 166.576 202.641C166.46 202.326 166.282 202.072 166.04 201.878C165.799 201.683 165.491 201.586 165.117 201.586C164.743 201.586 164.435 201.683 164.193 201.878C163.952 202.072 163.773 202.326 163.657 202.641C163.541 202.956 163.483 203.296 163.483 203.66C163.483 204.025 163.541 204.363 163.657 204.676C163.773 204.988 163.952 205.241 164.193 205.432C164.435 205.624 164.743 205.72 165.117 205.72ZM172.305 204.129V200.905H173.143V206.359H172.305V205.436H172.248C172.12 205.713 171.922 205.948 171.652 206.143C171.382 206.334 171.041 206.43 170.629 206.43C170.288 206.43 169.985 206.356 169.72 206.206C169.455 206.055 169.246 205.828 169.095 205.525C168.943 205.219 168.868 204.835 168.868 204.37V200.905H169.706V204.314C169.706 204.711 169.817 205.029 170.04 205.265C170.264 205.502 170.551 205.62 170.899 205.62C171.107 205.62 171.319 205.567 171.535 205.461C171.752 205.354 171.935 205.191 172.081 204.971C172.231 204.75 172.305 204.47 172.305 204.129ZM177.05 200.905V201.615H174.224V200.905H177.05ZM175.047 199.598H175.886V204.797C175.886 205.033 175.92 205.211 175.989 205.329C176.06 205.445 176.15 205.523 176.258 205.564C176.37 205.602 176.487 205.62 176.61 205.62C176.702 205.62 176.778 205.616 176.837 205.606C176.896 205.594 176.944 205.585 176.979 205.578L177.15 206.331C177.093 206.352 177.014 206.373 176.912 206.395C176.81 206.418 176.681 206.43 176.525 206.43C176.288 206.43 176.056 206.379 175.829 206.277C175.604 206.176 175.417 206.021 175.268 205.812C175.121 205.604 175.047 205.341 175.047 205.024V199.598Z" fill="url(#paint4_linear_50_851)"/>
<rect x="208.999" y="190.359" width="57" height="24" rx="12" fill="white" fill-opacity="0.09"/>
<path d="M220.167 206.459C219.868 206.454 219.57 206.397 219.272 206.288C218.973 206.179 218.701 205.996 218.455 205.738C218.209 205.477 218.011 205.126 217.862 204.683C217.713 204.238 217.638 203.679 217.638 203.007C217.638 202.363 217.699 201.792 217.819 201.295C217.94 200.796 218.115 200.375 218.345 200.035C218.575 199.691 218.852 199.431 219.176 199.253C219.503 199.076 219.871 198.987 220.28 198.987C220.687 198.987 221.05 199.069 221.367 199.232C221.687 199.393 221.947 199.618 222.148 199.907C222.349 200.196 222.48 200.528 222.539 200.905H221.672C221.592 200.578 221.436 200.307 221.204 200.091C220.972 199.876 220.664 199.768 220.28 199.768C219.717 199.768 219.273 200.013 218.949 200.503C218.627 200.993 218.464 201.681 218.462 202.567H218.519C218.651 202.365 218.809 202.194 218.991 202.052C219.176 201.907 219.379 201.796 219.602 201.718C219.825 201.64 220.06 201.601 220.309 201.601C220.725 201.601 221.107 201.705 221.452 201.913C221.798 202.119 222.075 202.404 222.283 202.769C222.491 203.131 222.596 203.547 222.596 204.015C222.596 204.465 222.495 204.877 222.294 205.251C222.093 205.623 221.81 205.919 221.445 206.139C221.083 206.357 220.657 206.463 220.167 206.459ZM220.167 205.677C220.465 205.677 220.732 205.603 220.969 205.454C221.208 205.304 221.397 205.104 221.534 204.853C221.674 204.603 221.743 204.323 221.743 204.015C221.743 203.715 221.676 203.441 221.541 203.195C221.408 202.946 221.225 202.749 220.991 202.602C220.758 202.455 220.493 202.382 220.195 202.382C219.97 202.382 219.761 202.427 219.566 202.517C219.372 202.604 219.202 202.725 219.055 202.879C218.911 203.033 218.797 203.209 218.714 203.408C218.631 203.605 218.59 203.812 218.59 204.03C218.59 204.318 218.657 204.588 218.792 204.839C218.93 205.09 219.117 205.293 219.353 205.446C219.593 205.6 219.864 205.677 220.167 205.677ZM224.617 205.429C224.442 205.429 224.292 205.366 224.166 205.241C224.041 205.115 223.978 204.965 223.978 204.79C223.978 204.614 224.041 204.464 224.166 204.339C224.292 204.213 224.442 204.15 224.617 204.15C224.792 204.15 224.943 204.213 225.068 204.339C225.194 204.464 225.256 204.614 225.256 204.79C225.256 204.906 225.227 205.012 225.168 205.109C225.111 205.206 225.034 205.284 224.937 205.344C224.842 205.4 224.735 205.429 224.617 205.429ZM224.617 201.75C224.442 201.75 224.292 201.687 224.166 201.562C224.041 201.436 223.978 201.286 223.978 201.111C223.978 200.935 224.041 200.785 224.166 200.66C224.292 200.534 224.442 200.471 224.617 200.471C224.792 200.471 224.943 200.534 225.068 200.66C225.194 200.785 225.256 200.935 225.256 201.111C225.256 201.227 225.227 201.333 225.168 201.43C225.111 201.527 225.034 201.605 224.937 201.665C224.842 201.721 224.735 201.75 224.617 201.75ZM229.203 206.459C228.735 206.459 228.317 206.378 227.95 206.217C227.585 206.056 227.295 205.832 227.08 205.546C226.867 205.257 226.751 204.922 226.732 204.541H227.627C227.646 204.775 227.726 204.978 227.868 205.148C228.01 205.316 228.196 205.446 228.426 205.539C228.655 205.631 228.91 205.677 229.189 205.677C229.502 205.677 229.779 205.623 230.02 205.514C230.262 205.405 230.451 205.254 230.588 205.059C230.726 204.865 230.794 204.64 230.794 204.385C230.794 204.117 230.728 203.882 230.595 203.678C230.463 203.472 230.269 203.311 230.013 203.195C229.757 203.079 229.445 203.021 229.076 203.021H228.493V202.24H229.076C229.364 202.24 229.618 202.188 229.835 202.084C230.056 201.979 230.227 201.833 230.35 201.643C230.476 201.454 230.539 201.231 230.539 200.976C230.539 200.729 230.484 200.515 230.375 200.333C230.266 200.151 230.112 200.009 229.914 199.907C229.717 199.805 229.485 199.754 229.218 199.754C228.967 199.754 228.73 199.8 228.507 199.893C228.287 199.982 228.107 200.114 227.968 200.287C227.828 200.457 227.752 200.663 227.74 200.905H226.888C226.902 200.523 227.017 200.19 227.233 199.903C227.448 199.614 227.73 199.389 228.078 199.228C228.428 199.067 228.813 198.987 229.232 198.987C229.682 198.987 230.068 199.078 230.389 199.26C230.711 199.44 230.959 199.678 231.132 199.974C231.304 200.27 231.391 200.59 231.391 200.933C231.391 201.343 231.283 201.692 231.068 201.981C230.855 202.269 230.565 202.469 230.198 202.581V202.638C230.657 202.713 231.016 202.909 231.274 203.223C231.532 203.536 231.661 203.923 231.661 204.385C231.661 204.78 231.553 205.135 231.338 205.45C231.125 205.763 230.833 206.009 230.464 206.189C230.095 206.369 229.675 206.459 229.203 206.459ZM235.485 206.459C234.95 206.459 234.495 206.313 234.118 206.022C233.742 205.728 233.454 205.303 233.255 204.747C233.056 204.188 232.957 203.513 232.957 202.723C232.957 201.937 233.056 201.266 233.255 200.709C233.456 200.151 233.745 199.724 234.122 199.431C234.501 199.135 234.955 198.987 235.485 198.987C236.016 198.987 236.469 199.135 236.845 199.431C237.224 199.724 237.513 200.151 237.712 200.709C237.913 201.266 238.014 201.937 238.014 202.723C238.014 203.513 237.914 204.188 237.715 204.747C237.517 205.303 237.229 205.728 236.853 206.022C236.476 206.313 236.02 206.459 235.485 206.459ZM235.485 205.677C236.016 205.677 236.428 205.422 236.721 204.91C237.015 204.399 237.161 203.67 237.161 202.723C237.161 202.093 237.094 201.557 236.959 201.114C236.826 200.671 236.635 200.334 236.384 200.102C236.135 199.87 235.836 199.754 235.485 199.754C234.96 199.754 234.549 200.013 234.253 200.532C233.957 201.048 233.809 201.778 233.809 202.723C233.809 203.353 233.876 203.888 234.008 204.328C234.141 204.768 234.331 205.103 234.58 205.333C234.831 205.562 235.133 205.677 235.485 205.677ZM242.602 206.359H241.679L244.349 199.086H245.258L247.929 206.359H247.005L244.832 200.237H244.775L242.602 206.359ZM242.943 203.518H246.664V204.299H242.943V203.518ZM249.061 199.086H250.112L252.584 205.123H252.669L255.141 199.086H256.192V206.359H255.368V200.834H255.297L253.024 206.359H252.229L249.956 200.834H249.885V206.359H249.061V199.086Z" fill="url(#paint5_linear_50_851)"/>
</g>
<rect x="21.3569" y="180.717" width="254.284" height="43.2842" rx="13.9574" stroke="url(#paint6_linear_50_851)" stroke-opacity="0.1" stroke-width="0.715762" shape-rendering="crispEdges"/>
</g>
<g opacity="0.7" filter="url(#filter4_di_50_851)">
<g clip-path="url(#clip2_50_851)">
<rect x="29.999" y="232.359" width="255" height="44" rx="14.3152" fill="url(#paint7_linear_50_851)" fill-opacity="0.06" shape-rendering="crispEdges"/>
<g filter="url(#filter5_f_50_851)">
<ellipse cx="67.5511" cy="267.111" rx="52.5521" ry="42.3807" fill="white" fill-opacity="0.11"/>
</g>
<path d="M48.624 258.984C51.1783 258.984 53.249 256.913 53.249 254.359C53.249 251.805 51.1783 249.734 48.624 249.734C46.0697 249.734 43.999 251.805 43.999 254.359C43.999 256.913 46.0697 258.984 48.624 258.984Z" stroke="white" stroke-opacity="0.44" stroke-width="0.8" stroke-linecap="round" stroke-linejoin="round"/>
<path d="M48.1111 252.303V254.873H50.6805" stroke="white" stroke-opacity="0.44" stroke-width="0.8" stroke-linecap="round" stroke-linejoin="round"/>
<path d="M60.1297 258.359V251.086H61.0104V257.578H64.3911V258.359H60.1297ZM65.6411 258.359V252.905H66.4791V258.359H65.6411ZM66.0672 251.995C65.9039 251.995 65.763 251.94 65.6446 251.829C65.5286 251.717 65.4706 251.584 65.4706 251.427C65.4706 251.271 65.5286 251.137 65.6446 251.026C65.763 250.915 65.9039 250.859 66.0672 250.859C66.2306 250.859 66.3702 250.915 66.4862 251.026C66.6046 251.137 66.6638 251.271 66.6638 251.427C66.6638 251.584 66.6046 251.717 66.4862 251.829C66.3702 251.94 66.2306 251.995 66.0672 251.995ZM71.8778 254.126L71.1249 254.339C71.0776 254.214 71.0077 254.092 70.9154 253.973C70.8254 253.853 70.7023 253.753 70.5461 253.675C70.3898 253.597 70.1898 253.558 69.9459 253.558C69.6121 253.558 69.334 253.635 69.1114 253.789C68.8912 253.94 68.7812 254.133 68.7812 254.368C68.7812 254.576 68.8569 254.741 69.0084 254.861C69.1599 254.982 69.3967 255.083 69.7187 255.163L70.5283 255.362C71.016 255.48 71.3794 255.661 71.6185 255.905C71.8576 256.147 71.9772 256.458 71.9772 256.839C71.9772 257.152 71.8872 257.431 71.7073 257.677C71.5297 257.924 71.2812 258.118 70.9616 258.26C70.642 258.402 70.2703 258.473 69.8465 258.473C69.2902 258.473 68.8297 258.352 68.4651 258.111C68.1005 257.869 67.8697 257.516 67.7726 257.052L68.5681 256.853C68.6439 257.147 68.7871 257.367 68.9978 257.514C69.2108 257.661 69.489 257.734 69.8323 257.734C70.2229 257.734 70.5331 257.651 70.7627 257.486C70.9947 257.317 71.1107 257.116 71.1107 256.882C71.1107 256.692 71.0444 256.534 70.9118 256.406C70.7793 256.276 70.5757 256.179 70.301 256.115L69.392 255.902C68.8924 255.783 68.5255 255.6 68.2911 255.351C68.0591 255.1 67.9431 254.787 67.9431 254.41C67.9431 254.103 68.0295 253.83 68.2023 253.594C68.3775 253.357 68.6154 253.171 68.9161 253.036C69.2191 252.901 69.5624 252.834 69.9459 252.834C70.4857 252.834 70.9095 252.952 71.2172 253.189C71.5274 253.425 71.7475 253.738 71.8778 254.126ZM75.6109 252.905V253.615H72.7842V252.905H75.6109ZM73.608 251.598H74.4461V256.797C74.4461 257.033 74.4804 257.211 74.5491 257.329C74.6201 257.445 74.7101 257.523 74.819 257.564C74.9302 257.602 75.0474 257.62 75.1705 257.62C75.2629 257.62 75.3386 257.616 75.3978 257.606C75.457 257.594 75.5044 257.585 75.5399 257.578L75.7103 258.331C75.6535 258.352 75.5742 258.373 75.4724 258.395C75.3706 258.418 75.2416 258.43 75.0853 258.43C74.8486 258.43 74.6166 258.379 74.3893 258.277C74.1644 258.176 73.9774 258.021 73.8282 257.812C73.6814 257.604 73.608 257.341 73.608 257.024V251.598ZM79.0999 258.473C78.5743 258.473 78.1209 258.357 77.7398 258.125C77.361 257.89 77.0686 257.564 76.8627 257.145C76.6591 256.723 76.5573 256.233 76.5573 255.674C76.5573 255.116 76.6591 254.623 76.8627 254.197C77.0686 253.769 77.3551 253.435 77.722 253.196C78.0914 252.954 78.5222 252.834 79.0146 252.834C79.2987 252.834 79.5793 252.881 79.8563 252.976C80.1333 253.07 80.3854 253.224 80.6127 253.437C80.8399 253.648 81.021 253.927 81.156 254.275C81.2909 254.623 81.3584 255.052 81.3584 255.561V255.916H77.1539V255.192H80.5061C80.5061 254.884 80.4446 254.609 80.3215 254.368C80.2007 254.126 80.0279 253.936 79.803 253.796C79.5805 253.656 79.3177 253.586 79.0146 253.586C78.6808 253.586 78.392 253.669 78.1482 253.835C77.9067 253.998 77.7209 254.211 77.5906 254.474C77.4604 254.737 77.3953 255.019 77.3953 255.319V255.802C77.3953 256.214 77.4664 256.563 77.6084 256.85C77.7528 257.134 77.9529 257.351 78.2085 257.5C78.4642 257.647 78.7613 257.72 79.0999 257.72C79.32 257.72 79.5189 257.689 79.6965 257.628C79.8764 257.564 80.0315 257.469 80.1617 257.344C80.2919 257.216 80.3925 257.057 80.4635 256.868L81.2732 257.095C81.1879 257.37 81.0447 257.611 80.8435 257.819C80.6423 258.025 80.3937 258.186 80.0977 258.302C79.8018 258.416 79.4692 258.473 79.0999 258.473ZM83.4713 255.078V258.359H82.6333V252.905H83.4429V253.757H83.5139C83.6418 253.48 83.8359 253.257 84.0963 253.089C84.3567 252.919 84.6929 252.834 85.1048 252.834C85.4742 252.834 85.7973 252.909 86.0743 253.061C86.3513 253.21 86.5667 253.437 86.7206 253.743C86.8745 254.046 86.9514 254.429 86.9514 254.893V258.359H86.1134V254.95C86.1134 254.522 86.0021 254.188 85.7796 253.949C85.557 253.707 85.2516 253.586 84.8634 253.586C84.5959 253.586 84.3567 253.644 84.146 253.76C83.9377 253.876 83.7732 254.046 83.6524 254.268C83.5317 254.491 83.4713 254.761 83.4713 255.078ZM92.5312 258.359L90.8692 252.905H91.7499L92.9289 257.081H92.9857L94.1505 252.905H95.0454L96.1959 257.067H96.2528L97.4317 252.905H98.3124L96.6505 258.359H95.8266L94.6334 254.169H94.5482L93.355 258.359H92.5312ZM100.258 255.078V258.359H99.4204V251.086H100.258V253.757H100.329C100.457 253.475 100.649 253.251 100.905 253.086C101.163 252.918 101.506 252.834 101.935 252.834C102.306 252.834 102.632 252.908 102.911 253.057C103.19 253.204 103.407 253.43 103.561 253.736C103.717 254.039 103.795 254.424 103.795 254.893V258.359H102.957V254.95C102.957 254.517 102.845 254.182 102.62 253.945C102.397 253.706 102.088 253.586 101.693 253.586C101.418 253.586 101.172 253.644 100.954 253.76C100.739 253.876 100.569 254.046 100.443 254.268C100.32 254.491 100.258 254.761 100.258 255.078ZM105.329 258.359V252.905H106.167V258.359H105.329ZM105.755 251.995C105.591 251.995 105.45 251.94 105.332 251.829C105.216 251.717 105.158 251.584 105.158 251.427C105.158 251.271 105.216 251.137 105.332 251.026C105.45 250.915 105.591 250.859 105.755 250.859C105.918 250.859 106.058 250.915 106.174 251.026C106.292 251.137 106.351 251.271 106.351 251.427C106.351 251.584 106.292 251.717 106.174 251.829C106.058 251.94 105.918 251.995 105.755 251.995ZM108.54 251.086V258.359H107.702V251.086H108.54ZM112.362 258.473C111.836 258.473 111.383 258.357 111.002 258.125C110.623 257.89 110.33 257.564 110.124 257.145C109.921 256.723 109.819 256.233 109.819 255.674C109.819 255.116 109.921 254.623 110.124 254.197C110.33 253.769 110.617 253.435 110.984 253.196C111.353 252.954 111.784 252.834 112.276 252.834C112.56 252.834 112.841 252.881 113.118 252.976C113.395 253.07 113.647 253.224 113.874 253.437C114.102 253.648 114.283 253.927 114.418 254.275C114.553 254.623 114.62 255.052 114.62 255.561V255.916H110.416V255.192H113.768C113.768 254.884 113.706 254.609 113.583 254.368C113.462 254.126 113.29 253.936 113.065 253.796C112.842 253.656 112.579 253.586 112.276 253.586C111.943 253.586 111.654 253.669 111.41 253.835C111.168 253.998 110.983 254.211 110.852 254.474C110.722 254.737 110.657 255.019 110.657 255.319V255.802C110.657 256.214 110.728 256.563 110.87 256.85C111.015 257.134 111.215 257.351 111.47 257.5C111.726 257.647 112.023 257.72 112.362 257.72C112.582 257.72 112.781 257.689 112.958 257.628C113.138 257.564 113.293 257.469 113.423 257.344C113.554 257.216 113.654 257.057 113.725 256.868L114.535 257.095C114.45 257.37 114.306 257.611 114.105 257.819C113.904 258.025 113.655 258.186 113.359 258.302C113.064 258.416 112.731 258.473 112.362 258.473ZM119.546 255.078V258.359H118.707V251.086H119.546V253.757H119.617C119.744 253.475 119.936 253.251 120.192 253.086C120.45 252.918 120.793 252.834 121.222 252.834C121.593 252.834 121.919 252.908 122.198 253.057C122.478 253.204 122.694 253.43 122.848 253.736C123.004 254.039 123.082 254.424 123.082 254.893V258.359H122.244V254.95C122.244 254.517 122.132 254.182 121.907 253.945C121.685 253.706 121.376 253.586 120.98 253.586C120.706 253.586 120.459 253.644 120.242 253.76C120.026 253.876 119.856 254.046 119.73 254.268C119.607 254.491 119.546 254.761 119.546 255.078ZM126.221 258.487C125.875 258.487 125.561 258.422 125.28 258.292C124.998 258.159 124.774 257.969 124.609 257.72C124.443 257.469 124.36 257.166 124.36 256.811C124.36 256.498 124.422 256.245 124.545 256.051C124.668 255.854 124.832 255.701 125.038 255.589C125.244 255.478 125.472 255.395 125.72 255.341C125.971 255.284 126.223 255.239 126.476 255.206C126.808 255.163 127.077 255.131 127.283 255.11C127.491 255.086 127.642 255.047 127.737 254.993C127.834 254.938 127.883 254.844 127.883 254.709V254.68C127.883 254.33 127.787 254.058 127.595 253.863C127.406 253.669 127.118 253.572 126.732 253.572C126.332 253.572 126.018 253.66 125.791 253.835C125.564 254.01 125.404 254.197 125.312 254.396L124.516 254.112C124.658 253.781 124.848 253.522 125.084 253.338C125.324 253.151 125.584 253.021 125.866 252.947C126.15 252.871 126.429 252.834 126.704 252.834C126.879 252.834 127.08 252.855 127.307 252.897C127.537 252.938 127.758 253.022 127.972 253.15C128.187 253.277 128.366 253.47 128.508 253.728C128.65 253.986 128.721 254.332 128.721 254.765V258.359H127.883V257.62H127.84C127.783 257.739 127.689 257.866 127.556 258C127.423 258.135 127.247 258.25 127.027 258.345C126.807 258.44 126.538 258.487 126.221 258.487ZM126.349 257.734C126.68 257.734 126.959 257.669 127.187 257.539C127.416 257.409 127.589 257.241 127.705 257.035C127.824 256.829 127.883 256.612 127.883 256.385V255.618C127.847 255.66 127.769 255.699 127.648 255.735C127.53 255.768 127.393 255.798 127.236 255.824C127.083 255.847 126.932 255.869 126.785 255.888C126.641 255.904 126.524 255.918 126.434 255.93C126.216 255.959 126.012 256.005 125.823 256.069C125.636 256.13 125.485 256.224 125.369 256.349C125.255 256.472 125.198 256.64 125.198 256.853C125.198 257.145 125.306 257.365 125.521 257.514C125.739 257.661 126.015 257.734 126.349 257.734ZM134.515 252.905L132.498 258.359H131.646L129.629 252.905H130.538L132.044 257.251H132.101L133.606 252.905H134.515ZM135.622 258.359V252.905H136.46V258.359H135.622ZM136.048 251.995C135.884 251.995 135.743 251.94 135.625 251.829C135.509 251.717 135.451 251.584 135.451 251.427C135.451 251.271 135.509 251.137 135.625 251.026C135.743 250.915 135.884 250.859 136.048 250.859C136.211 250.859 136.351 250.915 136.467 251.026C136.585 251.137 136.644 251.271 136.644 251.427C136.644 251.584 136.585 251.717 136.467 251.829C136.351 251.94 136.211 251.995 136.048 251.995ZM138.833 255.078V258.359H137.995V252.905H138.804V253.757H138.875C139.003 253.48 139.197 253.257 139.458 253.089C139.718 252.919 140.054 252.834 140.466 252.834C140.835 252.834 141.159 252.909 141.436 253.061C141.713 253.21 141.928 253.437 142.082 253.743C142.236 254.046 142.313 254.429 142.313 254.893V258.359H141.475V254.95C141.475 254.522 141.363 254.188 141.141 253.949C140.918 253.707 140.613 253.586 140.225 253.586C139.957 253.586 139.718 253.644 139.507 253.76C139.299 253.876 139.134 254.046 139.014 254.268C138.893 254.491 138.833 254.761 138.833 255.078ZM146.046 260.518C145.641 260.518 145.293 260.466 145.002 260.362C144.711 260.26 144.468 260.125 144.274 259.957C144.082 259.791 143.929 259.614 143.816 259.424L144.483 258.956C144.559 259.055 144.655 259.169 144.771 259.297C144.887 259.427 145.046 259.539 145.247 259.634C145.45 259.731 145.717 259.78 146.046 259.78C146.486 259.78 146.85 259.673 147.136 259.46C147.423 259.247 147.566 258.913 147.566 258.459V257.351H147.495C147.433 257.45 147.346 257.573 147.232 257.72C147.121 257.864 146.96 257.993 146.749 258.107C146.541 258.218 146.259 258.274 145.904 258.274C145.464 258.274 145.068 258.17 144.718 257.961C144.37 257.753 144.094 257.45 143.89 257.052C143.689 256.655 143.589 256.172 143.589 255.603C143.589 255.045 143.687 254.558 143.883 254.144C144.08 253.727 144.353 253.405 144.704 253.178C145.054 252.948 145.459 252.834 145.918 252.834C146.273 252.834 146.555 252.893 146.763 253.011C146.974 253.127 147.135 253.26 147.246 253.409C147.36 253.556 147.447 253.676 147.509 253.771H147.594V252.905H148.404V258.515C148.404 258.984 148.297 259.365 148.084 259.659C147.874 259.955 147.589 260.171 147.232 260.309C146.877 260.448 146.482 260.518 146.046 260.518ZM146.017 257.521C146.354 257.521 146.638 257.444 146.87 257.29C147.102 257.136 147.278 256.915 147.399 256.626C147.52 256.337 147.58 255.992 147.58 255.589C147.58 255.196 147.521 254.849 147.402 254.549C147.284 254.248 147.109 254.013 146.877 253.842C146.645 253.672 146.358 253.586 146.017 253.586C145.662 253.586 145.366 253.676 145.13 253.856C144.895 254.036 144.719 254.278 144.601 254.581C144.485 254.884 144.427 255.22 144.427 255.589C144.427 255.968 144.486 256.303 144.604 256.594C144.725 256.883 144.902 257.11 145.137 257.276C145.374 257.439 145.667 257.521 146.017 257.521ZM152.864 258.359V251.086H153.745V257.578H157.125V258.359H152.864ZM161.813 256.129V252.905H162.651V258.359H161.813V257.436H161.756C161.628 257.713 161.429 257.948 161.16 258.143C160.89 258.334 160.549 258.43 160.137 258.43C159.796 258.43 159.493 258.356 159.228 258.206C158.963 258.055 158.754 257.828 158.603 257.525C158.451 257.219 158.375 256.835 158.375 256.37V252.905H159.214V256.314C159.214 256.711 159.325 257.029 159.547 257.265C159.772 257.502 160.059 257.62 160.407 257.62C160.615 257.62 160.827 257.567 161.042 257.461C161.26 257.354 161.442 257.191 161.589 256.971C161.738 256.75 161.813 256.47 161.813 256.129ZM165.024 255.078V258.359H164.186V252.905H164.996V253.757H165.067C165.195 253.48 165.389 253.257 165.649 253.089C165.909 252.919 166.246 252.834 166.658 252.834C167.027 252.834 167.35 252.909 167.627 253.061C167.904 253.21 168.119 253.437 168.273 253.743C168.427 254.046 168.504 254.429 168.504 254.893V258.359H167.666V254.95C167.666 254.522 167.555 254.188 167.332 253.949C167.11 253.707 166.804 253.586 166.416 253.586C166.149 253.586 165.909 253.644 165.699 253.76C165.49 253.876 165.326 254.046 165.205 254.268C165.084 254.491 165.024 254.761 165.024 255.078ZM172.252 258.473C171.74 258.473 171.3 258.352 170.93 258.111C170.561 257.869 170.277 257.536 170.078 257.113C169.879 256.689 169.78 256.205 169.78 255.66C169.78 255.106 169.882 254.617 170.085 254.194C170.291 253.768 170.578 253.435 170.945 253.196C171.314 252.954 171.745 252.834 172.237 252.834C172.621 252.834 172.966 252.905 173.274 253.047C173.582 253.189 173.834 253.388 174.031 253.643C174.227 253.899 174.349 254.197 174.396 254.538H173.558C173.494 254.29 173.352 254.069 173.132 253.878C172.914 253.683 172.621 253.586 172.252 253.586C171.925 253.586 171.638 253.672 171.392 253.842C171.148 254.01 170.958 254.248 170.82 254.556C170.685 254.861 170.618 255.22 170.618 255.632C170.618 256.053 170.684 256.42 170.817 256.733C170.952 257.045 171.141 257.288 171.385 257.461C171.631 257.634 171.92 257.72 172.252 257.72C172.469 257.72 172.667 257.682 172.845 257.606C173.022 257.531 173.172 257.422 173.296 257.28C173.419 257.138 173.506 256.967 173.558 256.768H174.396C174.349 257.09 174.232 257.38 174.045 257.638C173.86 257.894 173.615 258.098 173.31 258.249C173.007 258.398 172.654 258.473 172.252 258.473ZM176.46 255.078V258.359H175.622V251.086H176.46V253.757H176.531C176.658 253.475 176.85 253.251 177.106 253.086C177.364 252.918 177.707 252.834 178.136 252.834C178.507 252.834 178.833 252.908 179.112 253.057C179.392 253.204 179.608 253.43 179.762 253.736C179.918 254.039 179.997 254.424 179.997 254.893V258.359H179.158V254.95C179.158 254.517 179.046 254.182 178.821 253.945C178.599 253.706 178.29 253.586 177.894 253.586C177.62 253.586 177.373 253.644 177.156 253.76C176.94 253.876 176.77 254.046 176.644 254.268C176.521 254.491 176.46 254.761 176.46 255.078Z" fill="url(#paint8_linear_50_851)"/>
<rect x="219.999" y="242.359" width="55" height="24" rx="12" fill="white" fill-opacity="0.09"/>
<path d="M231.309 251.086V258.359H230.428V252.01H230.385L228.61 253.189V252.294L230.428 251.086H231.309ZM234.025 257.429C233.85 257.429 233.7 257.366 233.574 257.241C233.449 257.115 233.386 256.965 233.386 256.79C233.386 256.614 233.449 256.464 233.574 256.339C233.7 256.213 233.85 256.15 234.025 256.15C234.2 256.15 234.351 256.213 234.476 256.339C234.602 256.464 234.665 256.614 234.665 256.79C234.665 256.906 234.635 257.012 234.576 257.109C234.519 257.206 234.442 257.284 234.345 257.344C234.25 257.4 234.144 257.429 234.025 257.429ZM234.025 253.75C233.85 253.75 233.7 253.687 233.574 253.562C233.449 253.436 233.386 253.286 233.386 253.111C233.386 252.935 233.449 252.785 233.574 252.66C233.7 252.534 233.85 252.471 234.025 252.471C234.2 252.471 234.351 252.534 234.476 252.66C234.602 252.785 234.665 252.935 234.665 253.111C234.665 253.227 234.635 253.333 234.576 253.43C234.519 253.527 234.442 253.605 234.345 253.665C234.25 253.721 234.144 253.75 234.025 253.75ZM238.612 258.459C238.143 258.459 237.725 258.378 237.358 258.217C236.993 258.056 236.703 257.832 236.488 257.546C236.275 257.257 236.159 256.922 236.14 256.541H237.035C237.054 256.775 237.134 256.978 237.276 257.148C237.418 257.316 237.604 257.446 237.834 257.539C238.064 257.631 238.318 257.677 238.597 257.677C238.91 257.677 239.187 257.623 239.428 257.514C239.67 257.405 239.859 257.254 239.997 257.059C240.134 256.865 240.203 256.64 240.203 256.385C240.203 256.117 240.136 255.882 240.004 255.678C239.871 255.472 239.677 255.311 239.421 255.195C239.166 255.079 238.853 255.021 238.484 255.021H237.901V254.24H238.484C238.773 254.24 239.026 254.188 239.244 254.084C239.464 253.979 239.636 253.833 239.759 253.643C239.884 253.454 239.947 253.231 239.947 252.976C239.947 252.729 239.892 252.515 239.783 252.333C239.675 252.151 239.521 252.009 239.322 251.907C239.125 251.805 238.893 251.754 238.626 251.754C238.375 251.754 238.138 251.8 237.916 251.893C237.695 251.982 237.515 252.114 237.376 252.287C237.236 252.457 237.16 252.663 237.149 252.905H236.296C236.31 252.523 236.425 252.19 236.641 251.903C236.856 251.614 237.138 251.389 237.486 251.228C237.836 251.067 238.221 250.987 238.64 250.987C239.09 250.987 239.476 251.078 239.798 251.26C240.12 251.44 240.367 251.678 240.54 251.974C240.713 252.27 240.799 252.59 240.799 252.933C240.799 253.343 240.691 253.692 240.476 253.981C240.263 254.269 239.973 254.469 239.606 254.581V254.638C240.065 254.713 240.424 254.909 240.682 255.223C240.94 255.536 241.069 255.923 241.069 256.385C241.069 256.78 240.961 257.135 240.746 257.45C240.533 257.763 240.242 258.009 239.872 258.189C239.503 258.369 239.083 258.459 238.612 258.459ZM244.894 258.459C244.359 258.459 243.903 258.313 243.526 258.022C243.15 257.728 242.862 257.303 242.663 256.747C242.465 256.188 242.365 255.513 242.365 254.723C242.365 253.937 242.465 253.266 242.663 252.709C242.865 252.151 243.153 251.724 243.53 251.431C243.909 251.135 244.363 250.987 244.894 250.987C245.424 250.987 245.877 251.135 246.254 251.431C246.632 251.724 246.921 252.151 247.12 252.709C247.321 253.266 247.422 253.937 247.422 254.723C247.422 255.513 247.323 256.188 247.124 256.747C246.925 257.303 246.637 257.728 246.261 258.022C245.884 258.313 245.429 258.459 244.894 258.459ZM244.894 257.677C245.424 257.677 245.836 257.422 246.129 256.91C246.423 256.399 246.57 255.67 246.57 254.723C246.57 254.093 246.502 253.557 246.367 253.114C246.235 252.671 246.043 252.334 245.792 252.102C245.543 251.87 245.244 251.754 244.894 251.754C244.368 251.754 243.957 252.013 243.661 252.532C243.365 253.048 243.217 253.778 243.217 254.723C243.217 255.353 243.284 255.888 243.416 256.328C243.549 256.768 243.739 257.103 243.988 257.333C244.239 257.562 244.541 257.677 244.894 257.677ZM251.712 258.359V251.086H254.169C254.74 251.086 255.206 251.189 255.568 251.395C255.933 251.599 256.203 251.875 256.378 252.223C256.553 252.571 256.641 252.959 256.641 253.388C256.641 253.816 256.553 254.205 256.378 254.556C256.205 254.906 255.938 255.186 255.575 255.394C255.213 255.6 254.749 255.703 254.183 255.703H252.422V254.922H254.155C254.546 254.922 254.859 254.854 255.096 254.719C255.333 254.584 255.504 254.402 255.611 254.172C255.72 253.94 255.774 253.679 255.774 253.388C255.774 253.096 255.72 252.836 255.611 252.606C255.504 252.377 255.332 252.197 255.092 252.067C254.853 251.934 254.536 251.868 254.141 251.868H252.592V258.359H251.712ZM258.059 251.086H259.111L261.582 257.123H261.667L264.139 251.086H265.19V258.359H264.366V252.834H264.295L262.022 258.359H261.227L258.954 252.834H258.883V258.359H258.059V251.086Z" fill="url(#paint9_linear_50_851)"/>
</g>
<rect x="30.3569" y="232.717" width="254.284" height="43.2842" rx="13.9574" stroke="url(#paint10_linear_50_851)" stroke-opacity="0.1" stroke-width="0.715762" shape-rendering="crispEdges"/>
</g>
<g opacity="0.4" filter="url(#filter6_di_50_851)">
<g clip-path="url(#clip3_50_851)">
<rect x="20.999" y="284.359" width="255" height="44" rx="14.3152" fill="url(#paint11_linear_50_851)" fill-opacity="0.06" shape-rendering="crispEdges"/>
<g filter="url(#filter7_f_50_851)">
<ellipse cx="268.215" cy="319.111" rx="52.5521" ry="42.3807" fill="white" fill-opacity="0.11"/>
</g>
<path d="M39.624 310.984C42.1783 310.984 44.249 308.913 44.249 306.359C44.249 303.805 42.1783 301.734 39.624 301.734C37.0697 301.734 34.999 303.805 34.999 306.359C34.999 308.913 37.0697 310.984 39.624 310.984Z" stroke="white" stroke-opacity="0.44" stroke-width="0.8" stroke-linecap="round" stroke-linejoin="round"/>
<path d="M39.1111 304.303V306.873H41.6805" stroke="white" stroke-opacity="0.44" stroke-width="0.8" stroke-linecap="round" stroke-linejoin="round"/>
<path d="M51.1297 310.359V303.086H52.0104V309.578H55.3911V310.359H51.1297ZM56.6411 310.359V304.905H57.4791V310.359H56.6411ZM57.0672 303.995C56.9039 303.995 56.763 303.94 56.6446 303.829C56.5286 303.717 56.4706 303.584 56.4706 303.427C56.4706 303.271 56.5286 303.137 56.6446 303.026C56.763 302.915 56.9039 302.859 57.0672 302.859C57.2306 302.859 57.3702 302.915 57.4862 303.026C57.6046 303.137 57.6638 303.271 57.6638 303.427C57.6638 303.584 57.6046 303.717 57.4862 303.829C57.3702 303.94 57.2306 303.995 57.0672 303.995ZM62.8778 306.126L62.1249 306.339C62.0776 306.214 62.0077 306.092 61.9154 305.973C61.8254 305.853 61.7023 305.753 61.5461 305.675C61.3898 305.597 61.1898 305.558 60.9459 305.558C60.6121 305.558 60.334 305.635 60.1114 305.789C59.8912 305.94 59.7812 306.133 59.7812 306.368C59.7812 306.576 59.8569 306.741 60.0084 306.861C60.1599 306.982 60.3967 307.083 60.7187 307.163L61.5283 307.362C62.016 307.48 62.3794 307.661 62.6185 307.905C62.8576 308.147 62.9772 308.458 62.9772 308.839C62.9772 309.152 62.8872 309.431 62.7073 309.677C62.5297 309.924 62.2812 310.118 61.9616 310.26C61.642 310.402 61.2703 310.473 60.8465 310.473C60.2902 310.473 59.8297 310.352 59.4651 310.111C59.1005 309.869 58.8697 309.516 58.7726 309.052L59.5681 308.853C59.6439 309.147 59.7871 309.367 59.9978 309.514C60.2108 309.661 60.489 309.734 60.8323 309.734C61.2229 309.734 61.5331 309.651 61.7627 309.486C61.9947 309.317 62.1107 309.116 62.1107 308.882C62.1107 308.692 62.0444 308.534 61.9118 308.406C61.7793 308.276 61.5757 308.179 61.301 308.115L60.392 307.902C59.8924 307.783 59.5255 307.6 59.2911 307.351C59.0591 307.1 58.9431 306.787 58.9431 306.41C58.9431 306.103 59.0295 305.83 59.2023 305.594C59.3775 305.357 59.6154 305.171 59.9161 305.036C60.2191 304.901 60.5624 304.834 60.9459 304.834C61.4857 304.834 61.9095 304.952 62.2172 305.189C62.5274 305.425 62.7475 305.738 62.8778 306.126ZM66.6109 304.905V305.615H63.7842V304.905H66.6109ZM64.608 303.598H65.4461V308.797C65.4461 309.033 65.4804 309.211 65.5491 309.329C65.6201 309.445 65.7101 309.523 65.819 309.564C65.9302 309.602 66.0474 309.62 66.1705 309.62C66.2629 309.62 66.3386 309.616 66.3978 309.606C66.457 309.594 66.5044 309.585 66.5399 309.578L66.7103 310.331C66.6535 310.352 66.5742 310.373 66.4724 310.395C66.3706 310.418 66.2416 310.43 66.0853 310.43C65.8486 310.43 65.6166 310.379 65.3893 310.277C65.1644 310.176 64.9774 310.021 64.8282 309.812C64.6814 309.604 64.608 309.341 64.608 309.024V303.598ZM70.0999 310.473C69.5743 310.473 69.1209 310.357 68.7398 310.125C68.361 309.89 68.0686 309.564 67.8627 309.145C67.6591 308.723 67.5573 308.233 67.5573 307.674C67.5573 307.116 67.6591 306.623 67.8627 306.197C68.0686 305.769 68.3551 305.435 68.722 305.196C69.0914 304.954 69.5222 304.834 70.0146 304.834C70.2987 304.834 70.5793 304.881 70.8563 304.976C71.1333 305.07 71.3854 305.224 71.6127 305.437C71.8399 305.648 72.021 305.927 72.156 306.275C72.2909 306.623 72.3584 307.052 72.3584 307.561V307.916H68.1539V307.192H71.5061C71.5061 306.884 71.4446 306.609 71.3215 306.368C71.2007 306.126 71.0279 305.936 70.803 305.796C70.5805 305.656 70.3177 305.586 70.0146 305.586C69.6808 305.586 69.392 305.669 69.1482 305.835C68.9067 305.998 68.7209 306.211 68.5906 306.474C68.4604 306.737 68.3953 307.019 68.3953 307.319V307.802C68.3953 308.214 68.4664 308.563 68.6084 308.85C68.7528 309.134 68.9529 309.351 69.2085 309.5C69.4642 309.647 69.7613 309.72 70.0999 309.72C70.32 309.72 70.5189 309.689 70.6965 309.628C70.8764 309.564 71.0315 309.469 71.1617 309.344C71.2919 309.216 71.3925 309.057 71.4635 308.868L72.2732 309.095C72.1879 309.37 72.0447 309.611 71.8435 309.819C71.6423 310.025 71.3937 310.186 71.0977 310.302C70.8018 310.416 70.4692 310.473 70.0999 310.473ZM74.4713 307.078V310.359H73.6333V304.905H74.4429V305.757H74.5139C74.6418 305.48 74.8359 305.257 75.0963 305.089C75.3567 304.919 75.6929 304.834 76.1048 304.834C76.4742 304.834 76.7973 304.909 77.0743 305.061C77.3513 305.21 77.5667 305.437 77.7206 305.743C77.8745 306.046 77.9514 306.429 77.9514 306.893V310.359H77.1134V306.95C77.1134 306.522 77.0021 306.188 76.7796 305.949C76.557 305.707 76.2516 305.586 75.8634 305.586C75.5959 305.586 75.3567 305.644 75.146 305.76C74.9377 305.876 74.7732 306.046 74.6524 306.268C74.5317 306.491 74.4713 306.761 74.4713 307.078ZM83.5312 310.359L81.8692 304.905H82.7499L83.9289 309.081H83.9857L85.1505 304.905H86.0454L87.1959 309.067H87.2528L88.4317 304.905H89.3124L87.6505 310.359H86.8266L85.6334 306.169H85.5482L84.355 310.359H83.5312ZM91.2584 307.078V310.359H90.4204V303.086H91.2584V305.757H91.3295C91.4573 305.475 91.6491 305.251 91.9047 305.086C92.1628 304.918 92.5061 304.834 92.9346 304.834C93.3063 304.834 93.6318 304.908 93.9111 305.057C94.1905 305.204 94.4071 305.43 94.561 305.736C94.7172 306.039 94.7954 306.424 94.7954 306.893V310.359H93.9573V306.95C93.9573 306.517 93.8448 306.182 93.6199 305.945C93.3974 305.706 93.0885 305.586 92.6931 305.586C92.4185 305.586 92.1723 305.644 91.9545 305.76C91.739 305.876 91.5686 306.046 91.4431 306.268C91.32 306.491 91.2584 306.761 91.2584 307.078ZM96.3286 310.359V304.905H97.1666V310.359H96.3286ZM96.7547 303.995C96.5914 303.995 96.4505 303.94 96.3321 303.829C96.2161 303.717 96.1581 303.584 96.1581 303.427C96.1581 303.271 96.2161 303.137 96.3321 303.026C96.4505 302.915 96.5914 302.859 96.7547 302.859C96.9181 302.859 97.0577 302.915 97.1737 303.026C97.2921 303.137 97.3513 303.271 97.3513 303.427C97.3513 303.584 97.2921 303.717 97.1737 303.829C97.0577 303.94 96.9181 303.995 96.7547 303.995ZM99.5397 303.086V310.359H98.7016V303.086H99.5397ZM103.362 310.473C102.836 310.473 102.383 310.357 102.002 310.125C101.623 309.89 101.33 309.564 101.124 309.145C100.921 308.723 100.819 308.233 100.819 307.674C100.819 307.116 100.921 306.623 101.124 306.197C101.33 305.769 101.617 305.435 101.984 305.196C102.353 304.954 102.784 304.834 103.276 304.834C103.56 304.834 103.841 304.881 104.118 304.976C104.395 305.07 104.647 305.224 104.874 305.437C105.102 305.648 105.283 305.927 105.418 306.275C105.553 306.623 105.62 307.052 105.62 307.561V307.916H101.416V307.192H104.768C104.768 306.884 104.706 306.609 104.583 306.368C104.462 306.126 104.29 305.936 104.065 305.796C103.842 305.656 103.579 305.586 103.276 305.586C102.943 305.586 102.654 305.669 102.41 305.835C102.168 305.998 101.983 306.211 101.852 306.474C101.722 306.737 101.657 307.019 101.657 307.319V307.802C101.657 308.214 101.728 308.563 101.87 308.85C102.015 309.134 102.215 309.351 102.47 309.5C102.726 309.647 103.023 309.72 103.362 309.72C103.582 309.72 103.781 309.689 103.958 309.628C104.138 309.564 104.293 309.469 104.423 309.344C104.554 309.216 104.654 309.057 104.725 308.868L105.535 309.095C105.45 309.37 105.306 309.611 105.105 309.819C104.904 310.025 104.655 310.186 104.359 310.302C104.064 310.416 103.731 310.473 103.362 310.473ZM111.909 312.518C111.504 312.518 111.156 312.466 110.865 312.362C110.574 312.26 110.331 312.125 110.137 311.957C109.945 311.791 109.793 311.614 109.679 311.424L110.347 310.956C110.422 311.055 110.518 311.169 110.634 311.297C110.75 311.427 110.909 311.539 111.11 311.634C111.314 311.731 111.58 311.78 111.909 311.78C112.35 311.78 112.713 311.673 112.999 311.46C113.286 311.247 113.429 310.913 113.429 310.459V309.351H113.358C113.296 309.45 113.209 309.573 113.095 309.72C112.984 309.864 112.823 309.993 112.612 310.107C112.404 310.218 112.122 310.274 111.767 310.274C111.327 310.274 110.931 310.17 110.581 309.961C110.233 309.753 109.957 309.45 109.754 309.052C109.552 308.655 109.452 308.172 109.452 307.603C109.452 307.045 109.55 306.558 109.747 306.144C109.943 305.727 110.216 305.405 110.567 305.178C110.917 304.948 111.322 304.834 111.781 304.834C112.136 304.834 112.418 304.893 112.627 305.011C112.837 305.127 112.998 305.26 113.109 305.409C113.223 305.556 113.311 305.676 113.372 305.771H113.457V304.905H114.267V310.515C114.267 310.984 114.161 311.365 113.948 311.659C113.737 311.955 113.453 312.171 113.095 312.309C112.74 312.448 112.345 312.518 111.909 312.518ZM111.881 309.521C112.217 309.521 112.501 309.444 112.733 309.29C112.965 309.136 113.141 308.915 113.262 308.626C113.383 308.337 113.443 307.992 113.443 307.589C113.443 307.196 113.384 306.849 113.266 306.549C113.147 306.248 112.972 306.013 112.74 305.842C112.508 305.672 112.222 305.586 111.881 305.586C111.526 305.586 111.23 305.676 110.993 305.856C110.759 306.036 110.582 306.278 110.464 306.581C110.348 306.884 110.29 307.22 110.29 307.589C110.29 307.968 110.349 308.303 110.467 308.594C110.588 308.883 110.766 309.11 111 309.276C111.237 309.439 111.53 309.521 111.881 309.521ZM118.017 310.473C117.525 310.473 117.093 310.356 116.721 310.121C116.352 309.887 116.063 309.559 115.854 309.138C115.649 308.716 115.546 308.224 115.546 307.66C115.546 307.092 115.649 306.596 115.854 306.172C116.063 305.749 116.352 305.42 116.721 305.185C117.093 304.951 117.525 304.834 118.017 304.834C118.51 304.834 118.94 304.951 119.31 305.185C119.681 305.42 119.97 305.749 120.176 306.172C120.385 306.596 120.489 307.092 120.489 307.66C120.489 308.224 120.385 308.716 120.176 309.138C119.97 309.559 119.681 309.887 119.31 310.121C118.94 310.356 118.51 310.473 118.017 310.473ZM118.017 309.72C118.391 309.72 118.699 309.624 118.94 309.432C119.182 309.241 119.361 308.988 119.477 308.676C119.593 308.363 119.651 308.025 119.651 307.66C119.651 307.296 119.593 306.956 119.477 306.641C119.361 306.326 119.182 306.072 118.94 305.878C118.699 305.683 118.391 305.586 118.017 305.586C117.643 305.586 117.335 305.683 117.094 305.878C116.852 306.072 116.674 306.326 116.558 306.641C116.442 306.956 116.384 307.296 116.384 307.66C116.384 308.025 116.442 308.363 116.558 308.676C116.674 308.988 116.852 309.241 117.094 309.432C117.335 309.624 117.643 309.72 118.017 309.72ZM121.768 310.359V304.905H122.606V310.359H121.768ZM122.194 303.995C122.031 303.995 121.89 303.94 121.772 303.829C121.656 303.717 121.598 303.584 121.598 303.427C121.598 303.271 121.656 303.137 121.772 303.026C121.89 302.915 122.031 302.859 122.194 302.859C122.358 302.859 122.497 302.915 122.613 303.026C122.732 303.137 122.791 303.271 122.791 303.427C122.791 303.584 122.732 303.717 122.613 303.829C122.497 303.94 122.358 303.995 122.194 303.995ZM124.979 307.078V310.359H124.141V304.905H124.951V305.757H125.022C125.15 305.48 125.344 305.257 125.604 305.089C125.865 304.919 126.201 304.834 126.613 304.834C126.982 304.834 127.305 304.909 127.582 305.061C127.859 305.21 128.075 305.437 128.228 305.743C128.382 306.046 128.459 306.429 128.459 306.893V310.359H127.621V306.95C127.621 306.522 127.51 306.188 127.287 305.949C127.065 305.707 126.759 305.586 126.371 305.586C126.104 305.586 125.865 305.644 125.654 305.76C125.446 305.876 125.281 306.046 125.16 306.268C125.04 306.491 124.979 306.761 124.979 307.078ZM132.192 312.518C131.788 312.518 131.44 312.466 131.148 312.362C130.857 312.26 130.614 312.125 130.42 311.957C130.229 311.791 130.076 311.614 129.962 311.424L130.63 310.956C130.706 311.055 130.802 311.169 130.918 311.297C131.034 311.427 131.192 311.539 131.393 311.634C131.597 311.731 131.863 311.78 132.192 311.78C132.633 311.78 132.996 311.673 133.283 311.46C133.569 311.247 133.712 310.913 133.712 310.459V309.351H133.641C133.58 309.45 133.492 309.573 133.378 309.72C133.267 309.864 133.106 309.993 132.896 310.107C132.687 310.218 132.405 310.274 132.05 310.274C131.61 310.274 131.215 310.17 130.864 309.961C130.516 309.753 130.24 309.45 130.037 309.052C129.836 308.655 129.735 308.172 129.735 307.603C129.735 307.045 129.833 306.558 130.03 306.144C130.226 305.727 130.5 305.405 130.85 305.178C131.2 304.948 131.605 304.834 132.065 304.834C132.42 304.834 132.701 304.893 132.91 305.011C133.12 305.127 133.281 305.26 133.393 305.409C133.506 305.556 133.594 305.676 133.655 305.771H133.741V304.905H134.55V310.515C134.55 310.984 134.444 311.365 134.231 311.659C134.02 311.955 133.736 312.171 133.378 312.309C133.023 312.448 132.628 312.518 132.192 312.518ZM132.164 309.521C132.5 309.521 132.784 309.444 133.016 309.29C133.248 309.136 133.425 308.915 133.545 308.626C133.666 308.337 133.726 307.992 133.726 307.589C133.726 307.196 133.667 306.849 133.549 306.549C133.431 306.248 133.255 306.013 133.023 305.842C132.791 305.672 132.505 305.586 132.164 305.586C131.809 305.586 131.513 305.676 131.276 305.856C131.042 306.036 130.865 306.278 130.747 306.581C130.631 306.884 130.573 307.22 130.573 307.589C130.573 307.968 130.632 308.303 130.751 308.594C130.871 308.883 131.049 309.11 131.283 309.276C131.52 309.439 131.814 309.521 132.164 309.521ZM144.863 305.359H143.982C143.93 305.106 143.839 304.883 143.709 304.692C143.581 304.5 143.425 304.339 143.24 304.209C143.058 304.076 142.855 303.977 142.633 303.91C142.41 303.844 142.178 303.811 141.937 303.811C141.496 303.811 141.097 303.922 140.74 304.145C140.385 304.367 140.102 304.695 139.891 305.128C139.683 305.562 139.579 306.093 139.579 306.723C139.579 307.353 139.683 307.884 139.891 308.317C140.102 308.75 140.385 309.078 140.74 309.301C141.097 309.523 141.496 309.635 141.937 309.635C142.178 309.635 142.41 309.602 142.633 309.535C142.855 309.469 143.058 309.371 143.24 309.241C143.425 309.108 143.581 308.946 143.709 308.754C143.839 308.56 143.93 308.337 143.982 308.086H144.863C144.797 308.458 144.676 308.791 144.501 309.084C144.325 309.378 144.108 309.628 143.847 309.834C143.587 310.037 143.294 310.192 142.97 310.299C142.648 310.405 142.304 310.459 141.937 310.459C141.316 310.459 140.765 310.307 140.282 310.004C139.799 309.701 139.419 309.27 139.142 308.711C138.865 308.153 138.726 307.49 138.726 306.723C138.726 305.956 138.865 305.293 139.142 304.734C139.419 304.175 139.799 303.745 140.282 303.442C140.765 303.138 141.316 302.987 141.937 302.987C142.304 302.987 142.648 303.04 142.97 303.147C143.294 303.253 143.587 303.41 143.847 303.616C144.108 303.819 144.325 304.068 144.501 304.361C144.676 304.652 144.797 304.985 144.863 305.359ZM147.01 303.086V310.359H146.172V303.086H147.01ZM150.15 310.487C149.805 310.487 149.491 310.422 149.209 310.292C148.928 310.159 148.704 309.969 148.538 309.72C148.373 309.469 148.29 309.166 148.29 308.811C148.29 308.498 148.351 308.245 148.474 308.051C148.597 307.854 148.762 307.701 148.968 307.589C149.174 307.478 149.401 307.395 149.65 307.341C149.901 307.284 150.153 307.239 150.406 307.206C150.738 307.163 151.006 307.131 151.212 307.11C151.421 307.086 151.572 307.047 151.667 306.993C151.764 306.938 151.812 306.844 151.812 306.709V306.68C151.812 306.33 151.717 306.058 151.525 305.863C151.335 305.669 151.048 305.572 150.662 305.572C150.262 305.572 149.948 305.66 149.721 305.835C149.494 306.01 149.334 306.197 149.241 306.396L148.446 306.112C148.588 305.781 148.777 305.522 149.014 305.338C149.253 305.151 149.514 305.021 149.795 304.947C150.079 304.871 150.359 304.834 150.633 304.834C150.809 304.834 151.01 304.855 151.237 304.897C151.467 304.938 151.688 305.022 151.901 305.15C152.117 305.277 152.295 305.47 152.437 305.728C152.579 305.986 152.65 306.332 152.65 306.765V310.359H151.812V309.62H151.77C151.713 309.739 151.618 309.866 151.486 310C151.353 310.135 151.177 310.25 150.957 310.345C150.736 310.44 150.468 310.487 150.15 310.487ZM150.278 309.734C150.61 309.734 150.889 309.669 151.116 309.539C151.346 309.409 151.519 309.241 151.635 309.035C151.753 308.829 151.812 308.612 151.812 308.385V307.618C151.777 307.66 151.699 307.699 151.578 307.735C151.46 307.768 151.322 307.798 151.166 307.824C151.012 307.847 150.862 307.869 150.715 307.888C150.571 307.904 150.454 307.918 150.364 307.93C150.146 307.959 149.942 308.005 149.753 308.069C149.566 308.13 149.414 308.224 149.298 308.349C149.185 308.472 149.128 308.64 149.128 308.853C149.128 309.145 149.235 309.365 149.451 309.514C149.669 309.661 149.945 309.734 150.278 309.734ZM158.044 306.126L157.291 306.339C157.244 306.214 157.174 306.092 157.081 305.973C156.991 305.853 156.868 305.753 156.712 305.675C156.556 305.597 156.356 305.558 156.112 305.558C155.778 305.558 155.5 305.635 155.277 305.789C155.057 305.94 154.947 306.133 154.947 306.368C154.947 306.576 155.023 306.741 155.174 306.861C155.326 306.982 155.563 307.083 155.885 307.163L156.694 307.362C157.182 307.48 157.545 307.661 157.785 307.905C158.024 308.147 158.143 308.458 158.143 308.839C158.143 309.152 158.053 309.431 157.873 309.677C157.696 309.924 157.447 310.118 157.128 310.26C156.808 310.402 156.436 310.473 156.013 310.473C155.456 310.473 154.996 310.352 154.631 310.111C154.267 309.869 154.036 309.516 153.939 309.052L154.734 308.853C154.81 309.147 154.953 309.367 155.164 309.514C155.377 309.661 155.655 309.734 155.998 309.734C156.389 309.734 156.699 309.651 156.929 309.486C157.161 309.317 157.277 309.116 157.277 308.882C157.277 308.692 157.21 308.534 157.078 308.406C156.945 308.276 156.742 308.179 156.467 308.115L155.558 307.902C155.058 307.783 154.691 307.6 154.457 307.351C154.225 307.1 154.109 306.787 154.109 306.41C154.109 306.103 154.196 305.83 154.368 305.594C154.544 305.357 154.781 305.171 155.082 305.036C155.385 304.901 155.728 304.834 156.112 304.834C156.652 304.834 157.075 304.952 157.383 305.189C157.693 305.425 157.914 305.738 158.044 306.126ZM163.268 306.126L162.516 306.339C162.468 306.214 162.398 306.092 162.306 305.973C162.216 305.853 162.093 305.753 161.937 305.675C161.78 305.597 161.58 305.558 161.337 305.558C161.003 305.558 160.725 305.635 160.502 305.789C160.282 305.94 160.172 306.133 160.172 306.368C160.172 306.576 160.248 306.741 160.399 306.861C160.551 306.982 160.787 307.083 161.109 307.163L161.919 307.362C162.407 307.48 162.77 307.661 163.009 307.905C163.248 308.147 163.368 308.458 163.368 308.839C163.368 309.152 163.278 309.431 163.098 309.677C162.92 309.924 162.672 310.118 162.352 310.26C162.033 310.402 161.661 310.473 161.237 310.473C160.681 310.473 160.22 310.352 159.856 310.111C159.491 309.869 159.26 309.516 159.163 309.052L159.959 308.853C160.034 309.147 160.178 309.367 160.388 309.514C160.601 309.661 160.88 309.734 161.223 309.734C161.614 309.734 161.924 309.651 162.153 309.486C162.385 309.317 162.501 309.116 162.501 308.882C162.501 308.692 162.435 308.534 162.302 308.406C162.17 308.276 161.966 308.179 161.692 308.115L160.783 307.902C160.283 307.783 159.916 307.6 159.682 307.351C159.45 307.1 159.334 306.787 159.334 306.41C159.334 306.103 159.42 305.83 159.593 305.594C159.768 305.357 160.006 305.171 160.307 305.036C160.61 304.901 160.953 304.834 161.337 304.834C161.876 304.834 162.3 304.952 162.608 305.189C162.918 305.425 163.138 305.738 163.268 306.126ZM166.916 310.473C166.391 310.473 165.937 310.357 165.556 310.125C165.177 309.89 164.885 309.564 164.679 309.145C164.475 308.723 164.374 308.233 164.374 307.674C164.374 307.116 164.475 306.623 164.679 306.197C164.885 305.769 165.171 305.435 165.538 305.196C165.908 304.954 166.339 304.834 166.831 304.834C167.115 304.834 167.396 304.881 167.673 304.976C167.95 305.07 168.202 305.224 168.429 305.437C168.656 305.648 168.837 305.927 168.972 306.275C169.107 306.623 169.175 307.052 169.175 307.561V307.916H164.97V307.192H168.323C168.323 306.884 168.261 306.609 168.138 306.368C168.017 306.126 167.844 305.936 167.619 305.796C167.397 305.656 167.134 305.586 166.831 305.586C166.497 305.586 166.208 305.669 165.965 305.835C165.723 305.998 165.537 306.211 165.407 306.474C165.277 306.737 165.212 307.019 165.212 307.319V307.802C165.212 308.214 165.283 308.563 165.425 308.85C165.569 309.134 165.769 309.351 166.025 309.5C166.281 309.647 166.578 309.72 166.916 309.72C167.136 309.72 167.335 309.689 167.513 309.628C167.693 309.564 167.848 309.469 167.978 309.344C168.108 309.216 168.209 309.057 168.28 308.868L169.09 309.095C169.004 309.37 168.861 309.611 168.66 309.819C168.459 310.025 168.21 310.186 167.914 310.302C167.618 310.416 167.286 310.473 166.916 310.473ZM174.313 306.126L173.56 306.339C173.513 306.214 173.443 306.092 173.351 305.973C173.261 305.853 173.138 305.753 172.982 305.675C172.825 305.597 172.625 305.558 172.381 305.558C172.048 305.558 171.77 305.635 171.547 305.789C171.327 305.94 171.217 306.133 171.217 306.368C171.217 306.576 171.292 306.741 171.444 306.861C171.595 306.982 171.832 307.083 172.154 307.163L172.964 307.362C173.452 307.48 173.815 307.661 174.054 307.905C174.293 308.147 174.413 308.458 174.413 308.839C174.413 309.152 174.323 309.431 174.143 309.677C173.965 309.924 173.717 310.118 173.397 310.26C173.078 310.402 172.706 310.473 172.282 310.473C171.726 310.473 171.265 310.352 170.901 310.111C170.536 309.869 170.305 309.516 170.208 309.052L171.004 308.853C171.079 309.147 171.223 309.367 171.433 309.514C171.646 309.661 171.925 309.734 172.268 309.734C172.658 309.734 172.969 309.651 173.198 309.486C173.43 309.317 173.546 309.116 173.546 308.882C173.546 308.692 173.48 308.534 173.347 308.406C173.215 308.276 173.011 308.179 172.737 308.115L171.828 307.902C171.328 307.783 170.961 307.6 170.727 307.351C170.495 307.1 170.379 306.787 170.379 306.41C170.379 306.103 170.465 305.83 170.638 305.594C170.813 305.357 171.051 305.171 171.352 305.036C171.655 304.901 171.998 304.834 172.381 304.834C172.921 304.834 173.345 304.952 173.653 305.189C173.963 305.425 174.183 305.738 174.313 306.126Z" fill="url(#paint12_linear_50_851)"/>
<rect x="209.999" y="294.359" width="56" height="24" rx="12" fill="white" fill-opacity="0.09"/>
<path d="M221.081 310.459C220.594 310.459 220.163 310.372 219.789 310.199C219.417 310.024 219.127 309.784 218.919 309.478C218.71 309.171 218.607 308.82 218.61 308.427C218.607 308.12 218.668 307.835 218.791 307.575C218.914 307.312 219.082 307.093 219.295 306.918C219.511 306.741 219.751 306.628 220.016 306.581V306.538C219.668 306.448 219.391 306.253 219.185 305.952C218.979 305.649 218.877 305.305 218.88 304.919C218.877 304.549 218.971 304.219 219.16 303.928C219.35 303.637 219.61 303.407 219.941 303.239C220.275 303.071 220.655 302.987 221.081 302.987C221.503 302.987 221.879 303.071 222.211 303.239C222.542 303.407 222.803 303.637 222.992 303.928C223.184 304.219 223.281 304.549 223.283 304.919C223.281 305.305 223.175 305.649 222.967 305.952C222.761 306.253 222.488 306.448 222.147 306.538V306.581C222.41 306.628 222.646 306.741 222.857 306.918C223.068 307.093 223.236 307.312 223.361 307.575C223.487 307.835 223.551 308.12 223.553 308.427C223.551 308.82 223.444 309.171 223.233 309.478C223.025 309.784 222.735 310.024 222.363 310.199C221.994 310.372 221.567 310.459 221.081 310.459ZM221.081 309.677C221.41 309.677 221.695 309.624 221.934 309.518C222.173 309.411 222.357 309.261 222.488 309.067C222.618 308.872 222.684 308.645 222.687 308.385C222.684 308.11 222.613 307.867 222.473 307.657C222.334 307.446 222.143 307.28 221.902 307.16C221.663 307.039 221.389 306.978 221.081 306.978C220.771 306.978 220.494 307.039 220.25 307.16C220.009 307.28 219.818 307.446 219.679 307.657C219.541 307.867 219.474 308.11 219.476 308.385C219.474 308.645 219.537 308.872 219.665 309.067C219.795 309.261 219.981 309.411 220.222 309.518C220.464 309.624 220.75 309.677 221.081 309.677ZM221.081 306.226C221.342 306.226 221.573 306.174 221.774 306.069C221.977 305.965 222.137 305.82 222.253 305.633C222.369 305.446 222.428 305.227 222.431 304.976C222.428 304.729 222.37 304.515 222.257 304.333C222.143 304.148 221.986 304.006 221.785 303.907C221.583 303.805 221.349 303.754 221.081 303.754C220.809 303.754 220.571 303.805 220.368 303.907C220.164 304.006 220.007 304.148 219.895 304.333C219.784 304.515 219.73 304.729 219.732 304.976C219.73 305.227 219.785 305.446 219.899 305.633C220.015 305.82 220.175 305.965 220.378 306.069C220.582 306.174 220.816 306.226 221.081 306.226ZM225.539 309.429C225.364 309.429 225.213 309.366 225.088 309.241C224.963 309.115 224.9 308.965 224.9 308.79C224.9 308.614 224.963 308.464 225.088 308.339C225.213 308.213 225.364 308.15 225.539 308.15C225.714 308.15 225.864 308.213 225.99 308.339C226.115 308.464 226.178 308.614 226.178 308.79C226.178 308.906 226.149 309.012 226.089 309.109C226.033 309.206 225.956 309.284 225.859 309.344C225.764 309.4 225.657 309.429 225.539 309.429ZM225.539 305.75C225.364 305.75 225.213 305.687 225.088 305.562C224.963 305.436 224.9 305.286 224.9 305.111C224.9 304.935 224.963 304.785 225.088 304.66C225.213 304.534 225.364 304.471 225.539 304.471C225.714 304.471 225.864 304.534 225.99 304.66C226.115 304.785 226.178 304.935 226.178 305.111C226.178 305.227 226.149 305.333 226.089 305.43C226.033 305.527 225.956 305.605 225.859 305.665C225.764 305.721 225.657 305.75 225.539 305.75ZM230.125 310.459C229.657 310.459 229.239 310.378 228.872 310.217C228.507 310.056 228.217 309.832 228.002 309.546C227.789 309.257 227.673 308.922 227.654 308.541H228.549C228.568 308.775 228.648 308.978 228.79 309.148C228.932 309.316 229.118 309.446 229.348 309.539C229.577 309.631 229.832 309.677 230.111 309.677C230.424 309.677 230.701 309.623 230.942 309.514C231.184 309.405 231.373 309.254 231.51 309.059C231.648 308.865 231.716 308.64 231.716 308.385C231.716 308.117 231.65 307.882 231.517 307.678C231.385 307.472 231.191 307.311 230.935 307.195C230.679 307.079 230.367 307.021 229.997 307.021H229.415V306.24H229.997C230.286 306.24 230.54 306.188 230.757 306.084C230.978 305.979 231.149 305.833 231.272 305.643C231.398 305.454 231.46 305.231 231.46 304.976C231.46 304.729 231.406 304.515 231.297 304.333C231.188 304.151 231.034 304.009 230.835 303.907C230.639 303.805 230.407 303.754 230.139 303.754C229.889 303.754 229.652 303.8 229.429 303.893C229.209 303.982 229.029 304.114 228.889 304.287C228.75 304.457 228.674 304.663 228.662 304.905H227.81C227.824 304.523 227.939 304.19 228.154 303.903C228.37 303.614 228.652 303.389 229 303.228C229.35 303.067 229.735 302.987 230.154 302.987C230.603 302.987 230.989 303.078 231.311 303.26C231.633 303.44 231.881 303.678 232.054 303.974C232.226 304.27 232.313 304.59 232.313 304.933C232.313 305.343 232.205 305.692 231.99 305.981C231.777 306.269 231.487 306.469 231.12 306.581V306.638C231.579 306.713 231.938 306.909 232.196 307.223C232.454 307.536 232.583 307.923 232.583 308.385C232.583 308.78 232.475 309.135 232.259 309.45C232.046 309.763 231.755 310.009 231.386 310.189C231.017 310.369 230.596 310.459 230.125 310.459ZM236.407 310.459C235.872 310.459 235.416 310.313 235.04 310.022C234.664 309.728 234.376 309.303 234.177 308.747C233.978 308.188 233.879 307.513 233.879 306.723C233.879 305.937 233.978 305.266 234.177 304.709C234.378 304.151 234.667 303.724 235.044 303.431C235.422 303.135 235.877 302.987 236.407 302.987C236.938 302.987 237.391 303.135 237.767 303.431C238.146 303.724 238.435 304.151 238.634 304.709C238.835 305.266 238.936 305.937 238.936 306.723C238.936 307.513 238.836 308.188 238.637 308.747C238.438 309.303 238.151 309.728 237.774 310.022C237.398 310.313 236.942 310.459 236.407 310.459ZM236.407 309.677C236.938 309.677 237.349 309.422 237.643 308.91C237.937 308.399 238.083 307.67 238.083 306.723C238.083 306.093 238.016 305.557 237.881 305.114C237.748 304.671 237.557 304.334 237.306 304.102C237.057 303.87 236.758 303.754 236.407 303.754C235.882 303.754 235.471 304.013 235.175 304.532C234.879 305.048 234.731 305.778 234.731 306.723C234.731 307.353 234.797 307.888 234.93 308.328C235.063 308.768 235.253 309.103 235.502 309.333C235.753 309.562 236.054 309.677 236.407 309.677ZM243.225 310.359V303.086H245.683C246.253 303.086 246.72 303.189 247.082 303.395C247.447 303.599 247.716 303.875 247.892 304.223C248.067 304.571 248.154 304.959 248.154 305.388C248.154 305.816 248.067 306.205 247.892 306.556C247.719 306.906 247.451 307.186 247.089 307.394C246.727 307.6 246.263 307.703 245.697 307.703H243.936V306.922H245.669C246.059 306.922 246.373 306.854 246.61 306.719C246.846 306.584 247.018 306.402 247.125 306.172C247.233 305.94 247.288 305.679 247.288 305.388C247.288 305.096 247.233 304.836 247.125 304.606C247.018 304.377 246.845 304.197 246.606 304.067C246.367 303.934 246.05 303.868 245.654 303.868H244.106V310.359H243.225ZM249.573 303.086H250.624L253.096 309.123H253.181L255.653 303.086H256.704V310.359H255.88V304.834H255.809L253.536 310.359H252.741L250.468 304.834H250.397V310.359H249.573V303.086Z" fill="url(#paint13_linear_50_851)"/>
</g>
<rect x="21.3569" y="284.717" width="254.284" height="43.2842" rx="13.9574" stroke="url(#paint14_linear_50_851)" stroke-opacity="0.1" stroke-width="0.715762" shape-rendering="crispEdges"/>
</g>
<g filter="url(#filter8_f_50_851)">
<rect x="-4.00098" y="307.359" width="316" height="44" rx="14.3152" fill="url(#paint15_linear_50_851)" fill-opacity="0.06"/>
</g>
</g>
<defs>
<filter id="filter0_f_50_851" x="-59.3811" y="-194.396" width="632.76" height="535.76" filterUnits="userSpaceOnUse" color-interpolation-filters="sRGB">
<feFlood flood-opacity="0" result="BackgroundImageFix"/>
<feBlend mode="normal" in="SourceGraphic" in2="BackgroundImageFix" result="shape"/>
<feGaussianBlur stdDeviation="89.6901" result="effect1_foregroundBlur_50_851"/>
</filter>
<filter id="filter1_f_50_851" x="89.999" y="15.3591" width="222" height="179" filterUnits="userSpaceOnUse" color-interpolation-filters="sRGB">
<feFlood flood-opacity="0" result="BackgroundImageFix"/>
<feBlend mode="normal" in="SourceGraphic" in2="BackgroundImageFix" result="shape"/>
<feGaussianBlur stdDeviation="32" result="effect1_foregroundBlur_50_851"/>
</filter>
<filter id="filter2_di_50_851" x="-7.81987" y="154.931" width="312.638" height="101.638" filterUnits="userSpaceOnUse" color-interpolation-filters="sRGB">
<feFlood flood-opacity="0" result="BackgroundImageFix"/>
<feColorMatrix in="SourceAlpha" type="matrix" values="0 0 0 0 0 0 0 0 0 0 0 0 0 0 0 0 0 0 127 0" result="hardAlpha"/>
<feOffset dy="3.39046"/>
<feGaussianBlur stdDeviation="14.4094"/>
<feComposite in2="hardAlpha" operator="out"/>
<feColorMatrix type="matrix" values="0 0 0 0 0 0 0 0 0 0 0 0 0 0 0 0 0 0 0.25 0"/>
<feBlend mode="normal" in2="BackgroundImageFix" result="effect1_dropShadow_50_851"/>
<feBlend mode="normal" in="SourceGraphic" in2="effect1_dropShadow_50_851" result="shape"/>
<feColorMatrix in="SourceAlpha" type="matrix" values="0 0 0 0 0 0 0 0 0 0 0 0 0 0 0 0 0 0 127 0" result="hardAlpha"/>
<feOffset/>
<feGaussianBlur stdDeviation="8.47614"/>
<feComposite in2="hardAlpha" operator="arithmetic" k2="-1" k3="1"/>
<feColorMatrix type="matrix" values="0 0 0 0 1 0 0 0 0 1 0 0 0 0 1 0 0 0 0.06 0"/>
<feBlend mode="normal" in2="shape" result="effect2_innerShadow_50_851"/>
</filter>
<filter id="filter3_f_50_851" x="130.902" y="87.9688" width="274.627" height="254.284" filterUnits="userSpaceOnUse" color-interpolation-filters="sRGB">
<feFlood flood-opacity="0" result="BackgroundImageFix"/>
<feBlend mode="normal" in="SourceGraphic" in2="BackgroundImageFix" result="shape"/>
<feGaussianBlur stdDeviation="42.3807" result="effect1_foregroundBlur_50_851"/>
</filter>
<filter id="filter4_di_50_851" x="1.18013" y="206.931" width="312.638" height="101.638" filterUnits="userSpaceOnUse" color-interpolation-filters="sRGB">
<feFlood flood-opacity="0" result="BackgroundImageFix"/>
<feColorMatrix in="SourceAlpha" type="matrix" values="0 0 0 0 0 0 0 0 0 0 0 0 0 0 0 0 0 0 127 0" result="hardAlpha"/>
<feOffset dy="3.39046"/>
<feGaussianBlur stdDeviation="14.4094"/>
<feComposite in2="hardAlpha" operator="out"/>
<feColorMatrix type="matrix" values="0 0 0 0 0 0 0 0 0 0 0 0 0 0 0 0 0 0 0.25 0"/>
<feBlend mode="normal" in2="BackgroundImageFix" result="effect1_dropShadow_50_851"/>
<feBlend mode="normal" in="SourceGraphic" in2="effect1_dropShadow_50_851" result="shape"/>
<feColorMatrix in="SourceAlpha" type="matrix" values="0 0 0 0 0 0 0 0 0 0 0 0 0 0 0 0 0 0 127 0" result="hardAlpha"/>
<feOffset/>
<feGaussianBlur stdDeviation="8.47614"/>
<feComposite in2="hardAlpha" operator="arithmetic" k2="-1" k3="1"/>
<feColorMatrix type="matrix" values="0 0 0 0 1 0 0 0 0 1 0 0 0 0 1 0 0 0 0.06 0"/>
<feBlend mode="normal" in2="shape" result="effect2_innerShadow_50_851"/>
</filter>
<filter id="filter5_f_50_851" x="-69.7624" y="139.969" width="274.627" height="254.284" filterUnits="userSpaceOnUse" color-interpolation-filters="sRGB">
<feFlood flood-opacity="0" result="BackgroundImageFix"/>
<feBlend mode="normal" in="SourceGraphic" in2="BackgroundImageFix" result="shape"/>
<feGaussianBlur stdDeviation="42.3807" result="effect1_foregroundBlur_50_851"/>
</filter>
<filter id="filter6_di_50_851" x="-7.81987" y="258.931" width="312.638" height="101.638" filterUnits="userSpaceOnUse" color-interpolation-filters="sRGB">
<feFlood flood-opacity="0" result="BackgroundImageFix"/>
<feColorMatrix in="SourceAlpha" type="matrix" values="0 0 0 0 0 0 0 0 0 0 0 0 0 0 0 0 0 0 127 0" result="hardAlpha"/>
<feOffset dy="3.39046"/>
<feGaussianBlur stdDeviation="14.4094"/>
<feComposite in2="hardAlpha" operator="out"/>
<feColorMatrix type="matrix" values="0 0 0 0 0 0 0 0 0 0 0 0 0 0 0 0 0 0 0.25 0"/>
<feBlend mode="normal" in2="BackgroundImageFix" result="effect1_dropShadow_50_851"/>
<feBlend mode="normal" in="SourceGraphic" in2="effect1_dropShadow_50_851" result="shape"/>
<feColorMatrix in="SourceAlpha" type="matrix" values="0 0 0 0 0 0 0 0 0 0 0 0 0 0 0 0 0 0 127 0" result="hardAlpha"/>
<feOffset/>
<feGaussianBlur stdDeviation="8.47614"/>
<feComposite in2="hardAlpha" operator="arithmetic" k2="-1" k3="1"/>
<feColorMatrix type="matrix" values="0 0 0 0 1 0 0 0 0 1 0 0 0 0 1 0 0 0 0.06 0"/>
<feBlend mode="normal" in2="shape" result="effect2_innerShadow_50_851"/>
</filter>
<filter id="filter7_f_50_851" x="130.902" y="191.969" width="274.627" height="254.284" filterUnits="userSpaceOnUse" color-interpolation-filters="sRGB">
<feFlood flood-opacity="0" result="BackgroundImageFix"/>
<feBlend mode="normal" in="SourceGraphic" in2="BackgroundImageFix" result="shape"/>
<feGaussianBlur stdDeviation="42.3807" result="effect1_foregroundBlur_50_851"/>
</filter>
<filter id="filter8_f_50_851" x="-28.001" y="283.359" width="364" height="92" filterUnits="userSpaceOnUse" color-interpolation-filters="sRGB">
<feFlood flood-opacity="0" result="BackgroundImageFix"/>
<feBlend mode="normal" in="SourceGraphic" in2="BackgroundImageFix" result="shape"/>
<feGaussianBlur stdDeviation="12" result="effect1_foregroundBlur_50_851"/>
</filter>
<linearGradient id="paint0_linear_50_851" x1="-11.4444" y1="-47.0255" x2="409.237" y2="111.073" gradientUnits="userSpaceOnUse">
<stop stop-color="white"/>
<stop offset="0.475" stop-color="white" stop-opacity="0.3"/>
<stop offset="1" stop-color="white"/>
</linearGradient>
<linearGradient id="paint1_linear_50_851" x1="155.499" y1="48.3591" x2="155.499" y2="160.359" gradientUnits="userSpaceOnUse">
<stop stop-color="#536FFF" stop-opacity="0"/>
<stop offset="0.394231" stop-color="#536FFF"/>
<stop offset="0.591346" stop-color="#9253FF"/>
<stop offset="1" stop-color="#9253FF" stop-opacity="0"/>
</linearGradient>
<linearGradient id="paint2_linear_50_851" x1="161.999" y1="104.359" x2="232.134" y2="151.633" gradientUnits="userSpaceOnUse">
<stop stop-color="#536FFF"/>
<stop offset="0.492189" stop-color="#AA18FF"/>
<stop offset="0.956731" stop-color="#AA18FF" stop-opacity="0"/>
</linearGradient>
<linearGradient id="paint3_linear_50_851" x1="11.4828" y1="174.344" x2="68.7659" y2="314.297" gradientUnits="userSpaceOnUse">
<stop stop-color="white"/>
<stop offset="0.475" stop-color="white" stop-opacity="0.3"/>
<stop offset="1" stop-color="white"/>
</linearGradient>
<linearGradient id="paint4_linear_50_851" x1="114.249" y1="195.359" x2="114.249" y2="209.359" gradientUnits="userSpaceOnUse">
<stop stop-color="white" stop-opacity="0.7"/>
<stop offset="1" stop-color="white" stop-opacity="0.19"/>
</linearGradient>
<linearGradient id="paint5_linear_50_851" x1="234.284" y1="195.645" x2="237.499" y2="209.359" gradientUnits="userSpaceOnUse">
<stop stop-color="white" stop-opacity="0.7"/>
<stop offset="1" stop-color="white" stop-opacity="0.19"/>
</linearGradient>
<linearGradient id="paint6_linear_50_851" x1="20.999" y1="172.391" x2="44.7296" y2="277.397" gradientUnits="userSpaceOnUse">
<stop stop-color="white"/>
<stop offset="1" stop-color="white" stop-opacity="0"/>
</linearGradient>
<linearGradient id="paint7_linear_50_851" x1="20.4828" y1="226.344" x2="77.7659" y2="366.297" gradientUnits="userSpaceOnUse">
<stop stop-color="white"/>
<stop offset="0.475" stop-color="white" stop-opacity="0.3"/>
<stop offset="1" stop-color="white"/>
</linearGradient>
<linearGradient id="paint8_linear_50_851" x1="120.249" y1="247.359" x2="120.249" y2="261.359" gradientUnits="userSpaceOnUse">
<stop stop-color="white" stop-opacity="0.7"/>
<stop offset="1" stop-color="white" stop-opacity="0.19"/>
</linearGradient>
<linearGradient id="paint9_linear_50_851" x1="244.441" y1="247.645" x2="247.802" y2="261.284" gradientUnits="userSpaceOnUse">
<stop stop-color="white" stop-opacity="0.7"/>
<stop offset="1" stop-color="white" stop-opacity="0.19"/>
</linearGradient>
<linearGradient id="paint10_linear_50_851" x1="29.999" y1="224.391" x2="53.7296" y2="329.397" gradientUnits="userSpaceOnUse">
<stop stop-color="white"/>
<stop offset="1" stop-color="white" stop-opacity="0"/>
</linearGradient>
<linearGradient id="paint11_linear_50_851" x1="11.4828" y1="278.344" x2="68.7659" y2="418.297" gradientUnits="userSpaceOnUse">
<stop stop-color="white"/>
<stop offset="0.475" stop-color="white" stop-opacity="0.3"/>
<stop offset="1" stop-color="white"/>
</linearGradient>
<linearGradient id="paint12_linear_50_851" x1="112.749" y1="299.359" x2="112.749" y2="313.359" gradientUnits="userSpaceOnUse">
<stop stop-color="white" stop-opacity="0.7"/>
<stop offset="1" stop-color="white" stop-opacity="0.19"/>
</linearGradient>
<linearGradient id="paint13_linear_50_851" x1="234.863" y1="299.645" x2="238.149" y2="313.323" gradientUnits="userSpaceOnUse">
<stop stop-color="white" stop-opacity="0.7"/>
<stop offset="1" stop-color="white" stop-opacity="0.19"/>
</linearGradient>
<linearGradient id="paint14_linear_50_851" x1="20.999" y1="276.391" x2="44.7296" y2="381.397" gradientUnits="userSpaceOnUse">
<stop stop-color="white"/>
<stop offset="1" stop-color="white" stop-opacity="0"/>
</linearGradient>
<linearGradient id="paint15_linear_50_851" x1="-15.7936" y1="301.344" x2="32.8672" y2="448.671" gradientUnits="userSpaceOnUse">
<stop stop-color="white"/>
<stop offset="0.475" stop-color="white" stop-opacity="0.3"/>
<stop offset="1" stop-color="white"/>
</linearGradient>
<clipPath id="clip0_50_851">
<rect width="306.667" height="344" fill="white" transform="translate(0.666992 0.983887)"/>
</clipPath>
<clipPath id="clip1_50_851">
<rect x="20.999" y="180.359" width="255" height="44" rx="14.3152" fill="white"/>
</clipPath>
<clipPath id="clip2_50_851">
<rect x="29.999" y="232.359" width="255" height="44" rx="14.3152" fill="white"/>
</clipPath>
<clipPath id="clip3_50_851">
<rect x="20.999" y="284.359" width="255" height="44" rx="14.3152" fill="white"/>
</clipPath>
</defs>
</svg>
